<svg id="Capa_1" data-name="Capa 1" xmlns="http://www.w3.org/2000/svg" viewBox="0 0 473.65 413.65"><path d="M108.32,193.57c0-7.45,0-14.91,0-22.37,0-6.51,4.53-11,11-11.07q22.37-.07,44.75,0c6.5,0,11,4.26,11.07,10.75.14,10.67,0,21.34.09,32,0,2.14-.92,2.39-2.6,1.92-6-1.68-11.87-3.72-17.71-5.85-1.46-.52-1.59-1.25-.89-2.55a76,76,0,0,0,3.8-9.42c1-2.6.13-3.1-2.28-3-2.63.15-5.29-.07-7.92.07-2,.11-2-1-2-2.47s.24-2.44,2.13-2.37c3.87.13,7.75.06,11.62,0,.85,0,2.07.39,2.13-1.11s-1.2-1.42-2.19-1.43c-3.69,0-7.37-.14-11.05,0-2.2.11-2.9-.7-2.62-2.74.08-.56-.07-1.15,0-1.7.45-2.69-.66-3.64-3.36-3.58-4.3.09-4.56,0-4.32,4.42.15,2.86-.65,3.84-3.58,3.62-3.47-.27-7-.08-10.47-.06-.89,0-2-.26-2,1.25s1,1.3,2,1.3c4,0,7.93.09,11.89,0,1.87-.05,2.19.81,2.17,2.39s-.18,2.52-2.11,2.45c-3.11-.12-6.23,0-9.34,0-1,0-1.92.08-1.83,1.48s1,1.17,1.83,1.17c7.08,0,14.16.09,21.24,0,2.29,0,2.77.51,2,2.69-2.35,6.49-2.27,6.43-9,4.79-5.37-1.31-10.74-3-16.41-1.85-7.16,1.49-10.91,6.16-10.37,12.9.44,5.47,5.88,10,12.35,10.37,8,.46,14.23-3.07,19.76-8.26,3.29-3.09,3.18-3.16,7.47-1.27,6.47,2.84,12.93,5.73,19.47,8.43,2.13.89,2.55,2.12,2,4.17-1.28,4.89-5.12,8.26-10.19,8.29q-23.08.15-46.16,0a10.41,10.41,0,0,1-10.24-10.4c-.1-7.65,0-15.3,0-23Z" style="fill:#fff"/><path d="M333.14,198.36c2.26-5.05,4.31-9.67,6.41-14.27.93-2.05,4.76-3.36,6.67-2.31,1.27.7.16,1.52-.11,2.12-3.2,7.22-6.47,14.41-9.73,21.61-1.15,2.56-2.36,5.11-3.45,7.7-2.06,4.88-6,6.71-11,6.94-1.2.06-2.45.07-2.13-1.68.24-1.31-1.11-3.48,1.76-3.52,3.19,0,5.18-1.56,6.35-4.6a4.66,4.66,0,0,0-.08-4.41c-3.81-7.13-7.45-14.36-11.19-21.53-1.41-2.71-1.39-2.33,1.44-2.79,5-.8,7.7,1.14,9.43,5.76C328.91,191.05,331.09,194.42,333.14,198.36Z" style="fill:#fff"/><path d="M234.54,191c0,5.47-.09,10.93.05,16.39,0,2-.66,2.51-2.58,2.51-6.76,0-6.76.06-6.76-6.74q0-13.71,0-27.41c0-3.39.27-3.64,3.73-3.65,5.56,0,5.56,0,5.56,5.62Z" style="fill:#fff"/><path d="M126.49,195.72c4.93-.15,9.87,2.27,14.87,4.46.8.34.88.71.4,1.49-3.82,6.27-13.79,10.25-20.87,8.26a9.34,9.34,0,0,1-5.16-3.25c-2.51-3.28-1.06-7.84,3.11-9.78C120.53,196.11,122.89,195.7,126.49,195.72Z" style="fill:#fff"/><path d="M250,196.85c0,3.87-.05,7.74,0,11.61,0,1.45-.17,2.13-1.92,2.17-7.2.14-7.2.21-7.2-7.08,0-6,.07-11.9,0-17.84-.05-2.36.83-3.13,3.15-3.12,6,0,6-.06,6,6Z" style="fill:#fff"/><path d="M245.36,178.35a4.06,4.06,0,0,1-4.34-3.81,4.22,4.22,0,0,1,4.43-4.09,4.62,4.62,0,0,1,4.44,3.91C250,176.53,247.94,178.33,245.36,178.35Z" style="fill:#fff"/><path d="M359.88,180.11c-.91-1.39-.37-3.09-.31-4.68.05-.94.88-.83,1.39-.22a15.1,15.1,0,0,1,1.15,1.85c1.31-.38,1.3-2.94,2.5-2.08s.4,3.1.47,4.71c0,.36-.73.66-.81.39-.42-1.4-1.91-.63-2.17-.9C360,177,361.05,180.57,359.88,180.11Z" style="fill:#fff"/><path d="M354.1,175.33c1.23-1.07,2.39-.65,3.44-.64,1.23,0,1.29.16.39,1.31-.68.87-.29,1.79-.37,2.68-.07.66,0,1.47-.83,1.52s-1-.74-.89-1.41C356,177.3,355.88,176,354.1,175.33Z" style="fill:#fff"/><path d="M266.5,183.24l-1,.48c-1.1-3.09-3.66-1.16-5.52-1.53-2.62-.51-3.68.69-3.64,3.48.14,9.62,0,19.25,0,28.87,0,6.69,0,6.61,6.73,6.51,1.84,0,2.2-.7,2.13-2.34-.11-2.81,0-5.63,0-8.48,11.66,1.9,19.59-4.66,19.3-15.74C284.27,184.29,275.53,178.83,266.5,183.24Zm7.44,21.5c-.92,1.93-2.36,3.27-4.71,2.71a4.43,4.43,0,0,1-3.66-4.44c-.07-1.88,0-3.77,0-5.66h0c0-1.61,0-3.21,0-4.82a5.48,5.48,0,0,1,4.28-5.18c2.64-.42,3.83,1.29,4.53,3.36C275.93,195.42,276.14,200.14,273.94,204.74Z" style="fill:#fff"/><path d="M221,206.89q-7.36-16-14.73-32c-.59-1.27-.77-2.86-2.95-2.84s-2.93,1.18-3.71,2.81c-4.91,10.26-9.9,20.49-14.78,30.76-.62,1.3-2.39,3-1.38,3.91s3.26.53,4.89.27c2.1-.33,2.29-2.55,3.07-4s1.45-2.09,3.16-2q6.51.22,13,0c1.82-.06,2.85.57,3.34,2.24.91,3.1,2.63,4.91,5.67,3.93H219C222.34,209.83,222.34,209.83,221,206.89Zm-27.26-6.17L201.44,185c2.48,5.43,4.79,10.49,7.21,15.77Z" style="fill:#fff"/><path d="M313.14,199.06c0-2.65,0-5.29,0-7.93,0-4.5-1.73-7-6-8.43-5.09-1.65-10.24-1.23-15.38-.08-.89.2-1.34.57-1.1,1.55s.35,1.7,1.57,1.52,2.25-.24,3.37-.4a12.69,12.69,0,0,1,6.15.25c2.29.81,2.57,2.76,2.36,4.62-.25,2.17-2.08.66-3.17.89a9.62,9.62,0,0,1-2.24-.2c-6.18-.38-11.08,4-11.12,9.82a9.51,9.51,0,0,0,11,9.72c4.29-.58,8.5-.3,12.74-.38,1.47,0,2-.4,1.89-1.89C313.06,205.1,313.14,202.08,313.14,199.06Zm-14.27,7.5a5.93,5.93,0,0,1-3.66-7.29,6.3,6.3,0,0,1,7.71-4c1,.32,1.05.92,1,1.71,0,1.22,0,2.44,0,3.67v2.26C304,206.1,301.88,207.6,298.87,206.56Z" style="fill:#fff"/><path d="M388.83,71.32l-306,2.54a19.81,19.81,0,0,0-19.62,20l1.68,202.34a19.79,19.79,0,0,0,19.95,19.62l306-2.54a19.8,19.8,0,0,0,19.63-20L408.78,90.92a19.8,19.8,0,0,0-19.95-19.6Zm1.32,221.6-305,3L83,94.14l305.5-3Zm0,0" style="fill:#fff"/></svg>