<svg id="Capa_1" data-name="Capa 1" xmlns="http://www.w3.org/2000/svg" viewBox="0 0 473.65 413.65"><path d="M167.08,190.22c1.94-5.36,3.95-10.7,5.79-16.09.56-1.63,1.28-2.35,3.09-2.24,2.82.17,5.65.11,8.48,0,1.49,0,2,.42,2,2-.06,8.86,0,17.73,0,26.6,0,1.3-.33,1.85-1.78,1.95-6.3.42-6.3.47-6.3-5.81V182.05l-.52-.14-5.38,14.52c-.14.37-.29.72-.42,1.09-1.75,5-1.75,4.93-7,4.94-1.74,0-2.31-.71-2.83-2.18-2.16-6.1-4.45-12.16-7.27-18.17,0,5.76-.11,11.51.06,17.26.06,2.32-.38,3.21-3,3.1-5.15-.21-5.16-.05-5.16-5.31,0-7.6.06-15.2,0-22.8,0-1.89.48-2.7,2.45-2.45a24.53,24.53,0,0,0,3.21,0c7.39,0,7.38,0,9.86,7.1,1.31,3.73,2.68,7.43,4,11.14Z" style="fill:#fff"/><path d="M337.73,184c0,5.22-.09,10.43,0,15.64.05,2.05-.3,2.9-2.65,2.83-5.3-.16-5.3,0-5.3-5.44,0-7.6.05-15.2,0-22.81,0-1.73.41-2.31,2.26-2.34,8-.11,8-.16,12.42,6.58a92.18,92.18,0,0,0,8.08,10.92c0-4.31-.07-8.62,0-12.93,0-1.46-.84-3.75.65-4.24,2-.67,4.43-.29,6.65-.16.91,0,.61,1.07.61,1.69,0,9,0,17.94,0,26.9,0,1.45-.51,2-1.87,1.76a2.8,2.8,0,0,0-.29,0c-7.55.22-7.54.22-11.72-6.11q-4.12-6.25-8.28-12.49Z" style="fill:#fff"/><path d="M192.61,187.17c0-4.2.09-8.39,0-12.58-.06-1.93.33-2.75,2.52-2.71,7,.14,14,.1,21.06,0,1.7,0,2.62.31,2.37,2.22a11.56,11.56,0,0,0,0,2.63c.16,1.69-.6,2.16-2.22,2.13-4.48-.08-9,.06-13.45-.07-1.93-.05-2.25.75-2.21,2.42s.09,2.55,2.14,2.49c4.38-.15,8.78,0,13.16-.09,1.77,0,2.33.41,2.31,2.26,0,4.76.07,4.76-4.75,4.76-3.61,0-7.23.13-10.83-.05-2.2-.1-1.95,1.17-2,2.57s.15,2.33,2,2.28c4.48-.13,9,.07,13.46-.09,2-.07,2.61.65,2.41,2.49a10.77,10.77,0,0,0,0,2.34c.23,1.85-.59,2.27-2.34,2.25-7-.09-14-.13-21.07,0-2.18.05-2.58-.78-2.53-2.71C192.7,195.55,192.61,191.36,192.61,187.17Z" style="fill:#fff"/><path d="M146.9,226.48c0-4.38.06-8.77,0-13.16,0-1.66.53-2.17,2.18-2.15,7.12.08,14.24.1,21.35,0,1.8,0,2.31.48,2.32,2.28,0,4.75.09,4.75-4.79,4.75h-9.65c-1.68,0-3.39-.53-3.35,2.45s1.93,2.27,3.5,2.29c3.8.06,7.6.11,11.4,0,1.88-.06,2.76.45,2.53,2.42a13.59,13.59,0,0,0,0,2.63c.14,1.55-.54,2-2,2-4.29-.08-8.59.07-12.87-.07-1.94-.06-2.45.58-2.48,2.48s.71,2.44,2.54,2.39c4.19-.12,8.39.07,12.58-.08,2-.08,2.86.57,2.6,2.62a13.59,13.59,0,0,0,0,2.63c.06,1.16-.25,1.77-1.6,1.76q-11.27-.08-22.53,0c-1.59,0-1.67-.84-1.66-2C146.92,235.26,146.9,230.87,146.9,226.48Z" style="fill:#fff"/><path d="M277.9,226.55c0-4.39.06-8.78,0-13.17,0-1.54.25-2.24,2-2.22,7.22.1,14.44.09,21.66,0,1.61,0,2.38.4,2.16,2.11a7.41,7.41,0,0,0,0,2.05c.34,2.24-.46,3-2.83,2.92-4.28-.2-8.58,0-12.87-.1-1.85-.06-2.09.76-2,2.26.09,1.33-.31,2.68,2,2.59,4.28-.18,8.58,0,12.87-.09,1.74,0,2.36.38,2.37,2.25,0,4.76.1,4.76-4.76,4.76-3.32,0-6.64.09-10,0-1.78-.06-2.54.3-2.55,2.34s.7,2.59,2.68,2.53c4.18-.15,8.38,0,12.57-.08,1.82-.05,2.81.36,2.5,2.39a7,7,0,0,0,0,2c.31,2-.45,2.64-2.53,2.6-7-.14-14-.12-21.07,0-1.81,0-2.32-.48-2.27-2.28C278,235.13,277.9,230.84,277.9,226.55Z" style="fill:#fff"/><path d="M364.85,211.13c-1,2.29-1.86,4-2.56,5.81-.51,1.33-1.53,1.26-2.62,1.26-3.71,0-7.41,0-11.12,0-1.64,0-3.1.45-3.15,2.26s1.38,2.55,3.19,2.51c2.54-.05,5.08-.07,7.61,0,5.72.24,9.06,3.31,9.27,8.42.23,5.42-3.32,9.8-8.77,10.11-5.64.33-11.31.09-17,.14-1.11,0-1.45-.36-1.56-1.49-.51-5.47-.55-5.47,4.94-5.47,3.71,0,7.42,0,11.13,0,1.64,0,3-.43,3-2.34s-1.26-2.46-3-2.45c-2.63,0-5.27.06-7.9,0-5.26-.15-8.75-3.35-9.18-8.32a8.87,8.87,0,0,1,7.56-9.89C351.23,210.5,357.79,211.52,364.85,211.13Z" style="fill:#fff"/><path d="M334.81,211.23c-.91,2-1.72,3.64-2.38,5.33a2.39,2.39,0,0,1-2.66,1.66c-3.7-.08-7.4,0-11.11,0-1.69,0-3.29.28-3.27,2.4S317,223,318.71,223c2.53,0,5.07-.08,7.6.05,5.74.29,8.95,3.39,9,8.57.07,5.57-3.39,9.73-8.82,10s-11.11.05-16.66.12c-1.31,0-1.58-.52-1.66-1.72-.34-5.25-.38-5.25,4.9-5.25,3.7,0,7.41,0,11.11,0,1.63,0,3-.38,3-2.34s-1.28-2.45-3-2.44c-2.43,0-4.87,0-7.31,0-5.41-.07-9.22-3.12-9.71-7.75-.58-5.5,2.39-9.74,8.09-10.59C321.63,210.63,328.05,211.34,334.81,211.23Z" style="fill:#fff"/><path d="M211.44,241.54c-10.23.47-10.23.47-16.3-6.62-.76-.89-1.53-1.76-2.47-2.83-2.25,2.62-4.46,5.07-6.52,7.63a4.48,4.48,0,0,1-4.19,2c-2.39-.18-4.81,0-7.87,0,4.2-4.73,7.94-9,11.79-13.22,1.4-1.52,1.69-2.52,0-4.23-3.89-4-7.49-8.33-11.62-13,3.63,0,6.61,0,9.59,0,1.06,0,1.55.71,2.12,1.36,1.87,2.11,3.8,4.18,5.53,6.4,1.07,1.36,1.78,1.12,2.65-.05.28-.39.59-.77.9-1.14,5.92-7,5.92-7,15.43-6.45-.57,1.8-2,2.82-3.12,4.07-2.68,3.09-5.39,6.16-8.18,9.15-1.06,1.14-1.15,1.89,0,3.12C203.23,232.09,207.14,236.65,211.44,241.54Z" style="fill:#fff"/><path d="M289.82,195.39c-.46,2.47-1.79,4.3-2.65,6.32-.4.93-1.31.65-2.06.69-13.36.59-17.42-10.14-15.52-18.88,1.65-7.55,6.49-11.44,14.24-11.56,2.72-.05,5.46.08,8.18-.06,1.79-.09,2.31.49,2.3,2.29,0,4.82.08,4.82-4.71,4.82-1.75,0-3.51-.09-5.25.05-4.7.39-7.1,3.42-7,8.64.11,4.7,2.78,7.51,7.35,7.68C286.35,195.44,288,195.39,289.82,195.39Z" style="fill:#fff"/><path d="M264.9,187.16c0,4.19-.09,8.39,0,12.58.05,1.93-.34,2.75-2.53,2.72-5.63-.07-5.63,0-5.63-5.64,0-7.51.07-15,0-22.53,0-2,.6-2.41,2.47-2.4,5.7,0,5.7,0,5.7,5.61Z" style="fill:#fff"/><path d="M244.52,191.62a5.16,5.16,0,0,1,.62-.46c6-2.58,8.13-6.26,7-12.08-.85-4.29-5-7.09-10.77-7.13-4.88,0-9.76.14-14.62-.08-2.46-.11-2.83.81-2.8,3,.12,7.79.05,15.59.05,23.39,0,4.17,0,4.2,4.1,4.16,4.54,0,4,.68,4-4,0-1.27-.1-2.55,0-3.8.1-.93-.72-2.29.84-2.7a3.06,3.06,0,0,1,3.29,1.3c2.18,2.62,4.43,5.18,6.68,7.74.56.63,1,1.5,2,1.5h9.31Zm-3.28-6.73c-1.35.07-2.71,0-4.06,0v0H236c-4.23,0-4.19,0-3.93-4.35.07-1.14.26-1.81,1.6-1.76,2.52.09,5,0,7.55.11a3,3,0,0,1,0,5.94Z" style="fill:#fff"/><path d="M265.56,230.85c6.65-2.79,8.87-6.52,7.65-12.52-.91-4.44-5.14-7.1-11.38-7.12-4.88,0-9.76,0-14.64,0-1.31,0-2.17.05-2.15,1.8q.11,13.45,0,26.92c0,1.47.57,1.72,1.89,1.78,6.32.27,6.32.31,6.32-5.83a6.8,6.8,0,0,1,0-1.75c.26-1-.83-2.47.84-3,1.51-.46,2.52.41,3.46,1.55,2.11,2.55,4.31,5,6.49,7.52.62.72,1.13,1.51,2.34,1.47,2.77-.09,5.56,0,9,0Zm-3-6.68c-2.61.11-5.23.05-7.85.12-1.16,0-1.39-.54-1.48-1.58-.41-4.52-.45-4.52,5.21-4.47,1.36,0,2.72-.11,4.07,0a2.81,2.81,0,0,1,2.81,3.08A2.74,2.74,0,0,1,262.56,224.17Z" style="fill:#fff"/><path d="M143.9,199.07c-3.29-7.46-6.8-14.83-9.82-22.4-1.45-3.65-3.08-6-6.66-4.73-2,0-3.24,0-4.5,0a2,2,0,0,0-2.23,1.33c-4,9.26-8.12,18.5-12.2,27.74-.23.51-.7,1.26.21,1.31a39.26,39.26,0,0,0,7.59,0c1.6-.24,1.54-2.33,2-3.6a3.34,3.34,0,0,1,3.87-2.52c3.11.18,6.24.12,9.36,0,1.49-.05,2.48.39,2.79,1.87.78,3.65,3,5.13,6.64,4.39a4.21,4.21,0,0,1,.87,0C145.33,202.4,145.36,202.39,143.9,199.07Zm-15.15-9.54c-2-.07-4,0-6.57,0,1.53-3.61,2.84-6.68,4.31-10.16,1.31,3.08,2.39,5.73,3.56,8.34C130.69,189.15,130.23,189.58,128.75,189.53Z" style="fill:#fff"/><path d="M327.49,200.7c-4.05-9.12-8.12-18.23-12.09-27.38a2.19,2.19,0,0,0-2.8-1.36c-3,.56-7.18-1.87-8.8,1.35-4.71,9.33-8.65,19-13.11,29.09a31.31,31.31,0,0,1,3.68,0c3.66.49,6.47-.21,7.14-4.49.24-1.56,1.45-1.8,2.86-1.77,3.21.07,6.43.11,9.64,0,1.69-.06,2.88.34,3.23,2.1.73,3.67,3,4.78,6.5,4.17a10.93,10.93,0,0,1,2.62,0C327.85,202.53,328,201.9,327.49,200.7Zm-15.66-11.18c-8.58-.17-7.05,1.15-4.29-6,.49-1.25,1.06-2.46,1.68-3.88,1.73,2.73,2.54,5.64,3.78,8.35C313.54,189.21,313,189.55,311.83,189.52Z" style="fill:#fff"/><path d="M230.75,211.23c-5.27-.09-10.54.07-15.8-.07-1.94,0-2.24.72-2.2,2.38.09,4.29,0,8.58,0,12.87s0,8.78,0,13.16c0,.88-.34,1.87,1.23,2.12,5.92.95,6.82.27,6.82-5.65,0-.78.06-1.56,0-2.34-.12-1.49.44-2.08,2-2,2.63.1,5.26,0,7.9,0,6.4-.1,10.79-4.29,10.78-10.22S237.22,211.33,230.75,211.23Zm-.86,13.49H226.1v0h-1.17c-3.87,0-5.25-2-4.07-5.67.3-.94.9-.87,1.56-.87,2.52,0,5.05,0,7.57,0a3.09,3.09,0,0,1,3.3,3.32A3,3,0,0,1,229.89,224.72Z" style="fill:#fff"/><path d="M389.84,85.86h-306A19.8,19.8,0,0,0,64,105.65V308a19.8,19.8,0,0,0,19.79,19.78h306A19.8,19.8,0,0,0,409.62,308V105.63a19.8,19.8,0,0,0-19.78-19.77Zm-.52,221.6-305,.52-.51-201.84,305.51-.51Zm0,0" style="fill:#fff"/></svg>