<svg id="Capa_1" data-name="Capa 1" xmlns="http://www.w3.org/2000/svg" viewBox="0 0 500 500"><path d="M455.94,189.87c-.72-.42-72-42.22-102.68-72.4a6.35,6.35,0,0,0-7.23-1.21c-1.94.93-195.16,93.52-300.91,128.07A6.37,6.37,0,0,0,41,252.26,129.68,129.68,0,0,1,45.51,291a6.38,6.38,0,0,0,2,4.91l90.11,86.65a6.34,6.34,0,0,0,7.17,1.16l308.07-147a6.41,6.41,0,0,0,3.56-4.79c.15-1,3.82-25.1,2.7-37.17A6.4,6.4,0,0,0,455.94,189.87ZM317.61,233.63l-1.87-1.45a19,19,0,0,0,1.11-6.23c0-16.75-22.54-30.63-52.18-33.42l-3.12-2.42c34.17-15.44,67.85-32,95.83-48.41C376,157.49,400,173.19,416.72,183.47q-4.64,2.7-9.44,5.41l7.54,4.73a11.25,11.25,0,0,1,2,1.56q5-2.83,9.84-5.66c3,1.81,5.52,3.25,7.22,4.23-10.49,5.17-50.64,24.88-103.29,50l-4.2-3.26c19.85-9.06,39.57-18.48,58.2-28l-9.6-6.34C356.62,215.48,337.18,224.74,317.61,233.63Zm-64.47-50-5.28-4.1c52.29-24,91.94-44.07,98.77-47.55,1,1,2.07,2,3.15,3C321.63,151.43,287.61,168.09,253.14,183.58Zm149.29,42.1c-5.38,3.14-11.1,6.4-17.06,9.81-8,4.43-16.35,9.22-25.16,13.89l-13.38,7.19-5.75,3v-2.76C363.93,245.61,384.86,234.9,402.43,225.68ZM348.79,122c27.39,26.94,85.26,62.23,100.28,71.2-12.62,7.07-55.71,30.89-109.71,57.31l-5.92-4.6C393.88,217.08,437.5,195.53,438,195.28l2.71-1.35-2.64-1.48c-.6-.33-60.49-34.06-90-63.59l-.83-.82-1,.53c-.82.42-43.49,22.25-101.18,48.7l-5.94-4.61C300.66,145.12,348.79,122,348.79,122ZM188.73,209.7c4.25,3.35,8.4,6.82,12.59,10.24,8.39,6.81,16.68,13.76,24.92,20.76l12.39,10.46c4.12,3.49,8.17,7.07,12.26,10.61l12.24,10.63c4.11,3.52,8.11,7.15,12.15,10.75l.4.36V284c-.15,4.9-.22,9.8-.43,14.7s-.37,9.8-.69,14.7c-.1-1.6-.17-3.2-.25-4.81L150,370.54l124.59-56.3v.5l-130,62L142.07,341c36-13.47,84.08-32.21,131.47-52.93l-.09-3.54c-.9-.73-1.78-1.48-2.67-2.21-47.31,20.67-95.37,39.4-131.25,52.82C130.17,325.79,78,273.82,50,249.43c36.26-12,81.86-30.34,126.45-49.37l-.46-.43C180.3,202.93,184.5,206.33,188.73,209.7ZM51.88,291.33a134.52,134.52,0,0,0-3.17-34.56c29.08,25.78,79.79,76.36,86.92,83.49l2.38,33.9Z" fill="#fff"/><path d="M142.14,324.28c-1.63-1.86-3.7-4.09-6.06-6.56,3.52-1.27,12.62-4.57,25.74-9.5l-9.5-6.83a9,9,0,0,1-1.41.62,3.12,3.12,0,0,1-1,.18h-.09c-11.67,4.32-19.25,7-21.3,7.76C113.67,295.08,93,275.52,79.6,263c10.62-3.77,56.7-20.3,112-42.9a19.22,19.22,0,0,0-1,5.86c0,16.88,22.91,30.84,52.9,33.47-2.32-1.94-4.64-3.89-6.93-5.86l-12.24-10.63Q212,232.34,200,221.5c-3.82-3.42-7.67-6.82-11.44-10.3-60,24.51-109.92,42.16-116.7,44.54l-3.6-3.34c37.2-12.26,77.85-28.38,116.36-44.83L182,205.19c-38.93,16.61-80,32.83-117.35,45l-2.59.84,2,1.85c.61.56,61.11,56.49,76.36,74.29l.72.84,1-.38c.69-.25,58.68-21.48,123-50-.91-.76-1.84-1.5-2.75-2.27C203.47,301.47,150.15,321.32,142.14,324.28Z" fill="#fff"/><path d="M147.17,255.45c-15.92,0-28.84,6.95-28.84,15.52s12.92,15.51,28.84,15.51S176,279.53,176,271,163.1,255.45,147.17,255.45Zm26,15.62a7.87,7.87,0,0,1-.53,2.34,11.14,11.14,0,0,1-2.76,3.74,23.82,23.82,0,0,1-7.69,4.27,44.78,44.78,0,0,1-16.58,2.14,41.83,41.83,0,0,1-7.62-1,38.67,38.67,0,0,1-6.57-2.07c-4-1.62-6.81-4.1-8.08-6.27a6.58,6.58,0,0,1-.92-3.74s.06.34.18,1a7.81,7.81,0,0,0,1.22,2.44,12.61,12.61,0,0,0,3.19,2.75,29,29,0,0,0,5,2.26,36.07,36.07,0,0,0,6.37,1.49,54.41,54.41,0,0,0,7.28.53,46.55,46.55,0,0,0,15.53-2.34A21.06,21.06,0,0,0,168,275a9.74,9.74,0,0,0,2.12-2.67,4.71,4.71,0,0,0,.39-1.52,4.12,4.12,0,0,0-.09-1.47c-.49-2-2.22-3.74-4-5a25.7,25.7,0,0,0-5.77-2.88A49.16,49.16,0,0,0,151,259.1c-2.4-.34-3.8-.44-3.8-.44l1-.06c.65,0,1.61-.12,2.83-.08a40.48,40.48,0,0,1,10.11,1.31,28.08,28.08,0,0,1,6.43,2.65c2.11,1.28,4.51,3.06,5.42,6.17A6.45,6.45,0,0,1,173.2,271.07Z" fill="#fff"/><path d="M382.17,176.5c0-7-10.52-12.63-23.49-12.63s-23.49,5.65-23.49,12.63,10.52,12.64,23.49,12.64S382.17,183.48,382.17,176.5Zm-3.51,2a9,9,0,0,1-2.2,3,18.79,18.79,0,0,1-6,3.36,34.52,34.52,0,0,1-12.93,1.65,33.77,33.77,0,0,1-5.94-.81,26.86,26.86,0,0,1-5.11-1.66,13.2,13.2,0,0,1-6.24-5,5,5,0,0,1-.67-2.92s.05.26.16.75a5.77,5.77,0,0,0,1,1.87c1.11,1.45,3.4,2.82,6.37,3.76a33,33,0,0,0,4.91,1.09,41.76,41.76,0,0,0,5.61.39,36.38,36.38,0,0,0,11.93-1.82,16.16,16.16,0,0,0,5.15-2.74,7.22,7.22,0,0,0,1.59-2,3.29,3.29,0,0,0,.29-1.11,2.71,2.71,0,0,0-.06-1.05,7,7,0,0,0-3-3.75,22.13,22.13,0,0,0-4.4-2.26,37.09,37.09,0,0,0-7.41-1.91c-1.86-.3-2.94-.4-2.94-.4l.77-.06c.51,0,1.25-.12,2.2-.1a32.13,32.13,0,0,1,7.87.91,20.14,20.14,0,0,1,5.05,2,8.77,8.77,0,0,1,4.31,4.9,5.48,5.48,0,0,1,.2,2A6.67,6.67,0,0,1,378.66,178.52Z" fill="#fff"/><path d="M199,290.34a13.11,13.11,0,0,1,2.87,2.53c16.55-6.48,35.23-14,55-22.17L248.94,264l-.57-.49c-20.13,8.32-39.12,15.88-55.82,22.37Z" fill="#fff"/><path d="M167.6,308.45l3.94-1.31-19.27-13.77-3,1a1.72,1.72,0,0,1,0,1.73,3.41,3.41,0,0,1-1.54,1.33l2.12,1.53a5.51,5.51,0,0,0,1.49-.77,1.48,1.48,0,0,0,.68-1Z" fill="#fff"/><path d="M181.8,298.15l-9.46-6.63a14.81,14.81,0,0,0-2.61-1.46,11.43,11.43,0,0,0-2.66-.76,11.66,11.66,0,0,0-1.46-.11h-.08l-.22,0a11.6,11.6,0,0,0-1.54.14l-.5.09a13.8,13.8,0,0,0-1.88.5q-3,1.05-3.09,2.43a2.14,2.14,0,0,0,.55,1.48,8.43,8.43,0,0,0,1.87,1.7l9.25,6.58a14.14,14.14,0,0,0,5.53,2.47,10.38,10.38,0,0,0,1.76.16l.2,0,.33,0c.43,0,.86-.06,1.3-.12a4.85,4.85,0,0,0,.53-.08,12.9,12.9,0,0,0,1.83-.46,5.15,5.15,0,0,0,2.94-1.81,1.44,1.44,0,0,0,.2-.71C184.58,300.59,183.65,299.44,181.8,298.15Zm-4.07,4.29a4,4,0,0,1-.9-.07,9.11,9.11,0,0,1-2.86-1.52l-9.52-6.74c-.26-.18-.49-.36-.68-.52-.58-.48-.85-.84-.79-1.08a.92.92,0,0,1,.67-.69,7.75,7.75,0,0,1,.88-.26,4,4,0,0,1,.6,0,4.4,4.4,0,0,1,1.32.28l.26.11a9.62,9.62,0,0,1,1.56.87l9.57,6.74c1.22.85,1.84,1.47,1.87,1.85s-.28.67-.91.88A3.24,3.24,0,0,1,177.73,302.44Z" fill="#fff"/><path d="M187.45,286.3a12.8,12.8,0,0,0-5.42-2.23,10.14,10.14,0,0,0-1.46-.11h-.25a11.94,11.94,0,0,0-1.66.16l-.5.09a14.58,14.58,0,0,0-2,.52,12.87,12.87,0,0,0-1.35.56q-1.75.87-1.83,1.92c-.07.93.75,2,2.48,3.21l9.52,6.63a16,16,0,0,0,2.82,1.59,12.92,12.92,0,0,0,2.86.89h0a11.53,11.53,0,0,0,1.77.16l.19,0,.34,0c.45,0,.9-.06,1.36-.12.19,0,.37-.05.55-.09a13.85,13.85,0,0,0,1.9-.47h0a9.05,9.05,0,0,0,1-.4c1.45-.63,2.21-1.35,2.21-2.17,0-1-1-2.16-2.87-3.46Zm1.68,9.44L179.35,289c-1.09-.75-1.59-1.29-1.52-1.62a1,1,0,0,1,.69-.7,7,7,0,0,1,.91-.27h0a3.29,3.29,0,0,1,.63,0,4.13,4.13,0,0,1,1.35.28l.27.11a9.09,9.09,0,0,1,1.59.87l9.84,6.79a11.06,11.06,0,0,1,1.42,1.11,1.44,1.44,0,0,1,.5.75.65.65,0,0,1-.21.51,2,2,0,0,1-.72.39,3.79,3.79,0,0,1-1.11.18,4.12,4.12,0,0,1-.92-.07A9.37,9.37,0,0,1,189.13,295.74Z" fill="#fff"/><path d="M388.08,212.07l3.42-1.51-17.22-11.32-2.56,1.18a1.73,1.73,0,0,1,0,1.61,3.28,3.28,0,0,1-1.32,1.35l1.9,1.26h0a5.29,5.29,0,0,0,1.29-.83,1.94,1.94,0,0,0,.41-.48,1,1,0,0,0,.16-.46Z" fill="#fff"/><path d="M386.52,194.33a10.09,10.09,0,0,0-1.2.15c-.25,0-.49,0-.75.09a12,12,0,0,0-2.38.81c-1.73.8-2.62,1.62-2.66,2.48a1.53,1.53,0,0,0,.12.65,5.1,5.1,0,0,0,2.08,2.11L390,206a13.24,13.24,0,0,0,2.44,1.27,10.5,10.5,0,0,0,2.47.61h0a7.62,7.62,0,0,0,1,.05h.1a8.75,8.75,0,0,0,1.81-.21l.4-.09a11.75,11.75,0,0,0,1.92-.65,7.13,7.13,0,0,0,2-1.25,1.8,1.8,0,0,0,.65-1.33c0-.91-.88-1.9-2.53-3L391.82,196a10.12,10.12,0,0,0-4.67-1.66Q386.84,194.33,386.52,194.33Zm.52,2.55a6.66,6.66,0,0,1,1.25.63l8.56,5.53a5.84,5.84,0,0,1,1.55,1.28.62.62,0,0,1,.12.29c0,.35-.22.65-.77.89a3.13,3.13,0,0,1-1.12.24,3,3,0,0,1-.6,0,7.32,7.32,0,0,1-2.55-1.2L385,199c-.94-.62-1.38-1.08-1.33-1.38a.89.89,0,0,1,.58-.69c.33-.15.58-.25.76-.31a3.1,3.1,0,0,1,.69-.08,4.1,4.1,0,0,1,1.09.21Z" fill="#fff"/><path d="M404.94,190a10.44,10.44,0,0,0-4.8-1.66l-.59,0a9.59,9.59,0,0,0-1.27.16c-.26,0-.51,0-.77.1a12,12,0,0,0-2.47.83,7.69,7.69,0,0,0-2,1.25,1.9,1.9,0,0,0-.72,1.28,2,2,0,0,0,.54,1.35,6.91,6.91,0,0,0,1.72,1.44l8.51,5.44a13.1,13.1,0,0,0,2.51,1.26,11,11,0,0,0,2.53.61c.31,0,.63,0,.95,0l.12,0a9.53,9.53,0,0,0,1.88-.22c.13,0,.26-.06.39-.09a12.87,12.87,0,0,0,2-.68c1.87-.82,2.8-1.7,2.76-2.63s-.89-1.93-2.59-3Zm6.1,9.58a3.46,3.46,0,0,1-1.18.25,3,3,0,0,1-.6,0,7.2,7.2,0,0,1-2.61-1.2l-8.75-5.55a3.92,3.92,0,0,1-1.31-1.13.43.43,0,0,1-.06-.26.91.91,0,0,1,.19-.41,1.2,1.2,0,0,1,.41-.29,6.76,6.76,0,0,1,.78-.31,2.45,2.45,0,0,1,.72-.09,3.66,3.66,0,0,1,1.12.21l.29.1a7.2,7.2,0,0,1,1.27.64l8.8,5.55c.28.17.52.34.73.49a3.82,3.82,0,0,1,.86.79.64.64,0,0,1,.13.3.62.62,0,0,1-.17.49A1.85,1.85,0,0,1,411,199.62Z" fill="#fff"/><path d="M177.66,334.61c6.19-2,13.05-4.6,20.6-7.25s15.74-5.53,24.28-8.88,17.66-6.62,26.93-10.38c7.92-3.25,16.12-6.51,24.37-10-.07-1.81-.12-3.62-.17-5.43-8.72,4-17.4,7.86-25.76,11.65-9.1,4.1-18,7.74-26.46,11.36s-16.47,6.78-23.89,9.76-14.2,5.78-20.3,8l-15.77,5.87-13.74,5.12,13.92-4.6Z" fill="#fff"/><path d="M248,312.44l-26,12c-8.27,3.83-16.16,7.27-23.42,10.51s-13.91,6.24-19.85,8.77l-15.37,6.61L150,356.06l13.6-5.26,15.62-6c6-2.3,12.78-5.08,20.17-8s15.41-6.11,23.82-9.63l26.5-11c8-3.37,16.18-6.87,24.49-10.45l-.24-5.47C265.13,304.41,256.45,308.5,248,312.44Z" fill="#fff"/><path d="M123,353.37c-3.67-3.7-7.88-8.1-12.52-12.67s-9.62-9.42-14.62-14.25-10.08-9.56-14.88-14-9.36-8.44-13.22-11.94-7.22-6.28-9.5-8.29l-3.67-3.07,3.24,3.52c2.11,2.19,5,5.42,8.7,9.13s7.87,8.1,12.51,12.67,9.62,9.42,14.62,14.25,10.08,9.56,14.88,14,9.35,8.44,13.22,11.94,7.22,6.27,9.5,8.28l3.67,3.07-3.24-3.52C129.53,360.3,126.62,357.07,123,353.37Z" fill="#fff"/><path d="M64.13,276.69c3.67,3.7,7.88,8.1,12.52,12.67s9.62,9.42,14.61,14.25,10.08,9.56,14.89,14,9.35,8.44,13.21,11.94,7.22,6.27,9.51,8.28l3.67,3.08-3.24-3.53c-2.11-2.19-5-5.42-8.7-9.13s-7.87-8.1-12.51-12.67-9.62-9.42-14.62-14.25-10.08-9.56-14.89-14-9.35-8.44-13.21-11.94-7.22-6.28-9.51-8.28L52.2,264l3.23,3.52C57.54,269.76,60.47,273,64.13,276.69Z" fill="#fff"/><path d="M123,342.64c-3.67-3.7-7.88-8.1-12.52-12.67s-9.62-9.42-14.62-14.25-10.08-9.56-14.88-14-9.36-8.44-13.22-11.94-7.22-6.28-9.5-8.29l-3.67-3.07L57.78,282c2.11,2.2,5,5.42,8.7,9.13s7.87,8.1,12.51,12.67S88.61,313.2,93.61,318s10.08,9.56,14.88,14,9.35,8.44,13.22,11.94,7.22,6.27,9.5,8.28l3.67,3.08-3.24-3.53C129.53,349.58,126.62,346.35,123,342.64Z" fill="#fff"/></svg>