<svg xmlns="http://www.w3.org/2000/svg" xmlns:xlink="http://www.w3.org/1999/xlink" viewBox="0 0 349.76 349.76"><defs><filter id="luminosity-noclip" x="0" y="-8365.01" width="349.76" height="32766" filterUnits="userSpaceOnUse" color-interpolation-filters="sRGB"><feFlood flood-color="#fff" result="bg"/><feBlend in="SourceGraphic" in2="bg"/></filter><mask id="mask" x="0" y="-8365.01" width="349.76" height="32766" maskUnits="userSpaceOnUse"><g filter="url(#luminosity-noclip)"/></mask><radialGradient id="radial-gradient" cx="174.88" cy="174.88" r="174.88" gradientUnits="userSpaceOnUse"><stop offset="0.65" stop-color="#fff"/><stop offset="0.93"/></radialGradient><filter id="luminosity-noclip-2" x="0" y="0" width="349.76" height="349.76" filterUnits="userSpaceOnUse" color-interpolation-filters="sRGB"><feFlood flood-color="#fff" result="bg"/><feBlend in="SourceGraphic" in2="bg"/></filter><mask id="mask-2" x="0" y="0" width="349.76" height="349.76" maskUnits="userSpaceOnUse"><g mask="url(#mask)" filter="url(#luminosity-noclip-2)"><path d="M349.76,174.88A174.88,174.88,0,1,1,174.88,0,174.88,174.88,0,0,1,349.76,174.88Z" fill="url(#radial-gradient)" style="mix-blend-mode:multiply"/></g></mask><radialGradient id="Degradado_sin_nombre_25" cx="167.82" cy="175.35" r="174.88" gradientUnits="userSpaceOnUse"><stop offset="0.05"/><stop offset="0.26" stop-color="#030303"/><stop offset="0.39" stop-color="#0b0b0b"/><stop offset="0.49" stop-color="#191919"/><stop offset="0.59" stop-color="#2e2e2e"/><stop offset="0.68" stop-color="#484848"/><stop offset="0.76" stop-color="#696969"/><stop offset="0.84" stop-color="#909090"/><stop offset="0.91" stop-color="#bdbdbd"/><stop offset="0.98" stop-color="#eee"/><stop offset="1" stop-color="#fff"/></radialGradient><linearGradient id="linear-gradient" x1="-1286.8" y1="291.27" x2="-1284.57" y2="291.27" gradientTransform="matrix(3.75, -1.11, -1.11, -3.75, 5210.14, -123.19)" gradientUnits="userSpaceOnUse"><stop offset="0" stop-color="#8d8e90"/><stop offset="0.08" stop-color="#9b9c9d"/><stop offset="0.37" stop-color="#c6c6c7"/><stop offset="0.63" stop-color="#e5e5e6"/><stop offset="0.85" stop-color="#f8f8f8"/><stop offset="1" stop-color="#fff"/></linearGradient><linearGradient id="linear-gradient-2" x1="-1863.9" y1="228.68" x2="-1861.67" y2="228.68" gradientTransform="matrix(-5.39, -5.39, -5.39, 5.39, -8495.9, -11004.69)" xlink:href="#linear-gradient"/><linearGradient id="linear-gradient-3" x1="-1542.52" y1="-3.28" x2="-1540.29" y2="-3.28" gradientTransform="matrix(1.43, -3.71, -3.71, -1.43, 2350.46, -5413.11)" xlink:href="#linear-gradient"/><linearGradient id="linear-gradient-4" x1="-1958.07" y1="442.48" x2="-1955.85" y2="442.48" gradientTransform="matrix(-6.75, 1.56, 1.56, 6.75, -13565.61, 196.14)" xlink:href="#linear-gradient"/><linearGradient id="linear-gradient-5" x1="-1818.25" y1="626.33" x2="-1816.03" y2="626.33" gradientTransform="matrix(-2.64, 6.38, 6.38, 2.64, -8524.57, 9981.44)" xlink:href="#linear-gradient"/><linearGradient id="linear-gradient-6" x1="-1926.4" y1="303.7" x2="-1924.18" y2="303.7" gradientTransform="matrix(-6.39, -2.22, -2.22, 6.39, -11579.32, -6070.11)" gradientUnits="userSpaceOnUse"><stop offset="0" stop-color="#0071b2"/><stop offset="0.5" stop-color="#006fb0"/><stop offset="0.68" stop-color="#0168aa"/><stop offset="0.81" stop-color="#035c9e"/><stop offset="0.91" stop-color="#064c8e"/><stop offset="1" stop-color="#093679"/></linearGradient><linearGradient id="linear-gradient-7" x1="-1884.73" y1="568.32" x2="-1882.51" y2="568.32" gradientTransform="matrix(-4.85, 4.61, 4.61, 4.85, -11653.35, 6204.35)" gradientUnits="userSpaceOnUse"><stop offset="0" stop-color="#0064a8"/><stop offset="0.28" stop-color="#015ca0"/><stop offset="0.71" stop-color="#06488b"/><stop offset="1" stop-color="#093679"/></linearGradient><linearGradient id="linear-gradient-8" x1="-1666.58" y1="531.44" x2="-1664.36" y2="531.44" gradientTransform="matrix(3.14, 12.39, 12.39, -3.14, -1109.91, 22609.47)" gradientUnits="userSpaceOnUse"><stop offset="0" stop-color="#003d7c"/><stop offset="0.21" stop-color="#023571"/><stop offset="0.55" stop-color="#042e68"/><stop offset="1" stop-color="#052c65"/></linearGradient><linearGradient id="linear-gradient-9" x1="-1649.59" y1="481.5" x2="-1647.37" y2="481.5" gradientTransform="matrix(10.17, 15.53, 15.53, -10.17, 9616.47, 30698.64)" gradientUnits="userSpaceOnUse"><stop offset="0" stop-color="#1d67ab"/><stop offset="0.52" stop-color="#1c65a9"/><stop offset="0.7" stop-color="#1a5fa2"/><stop offset="0.84" stop-color="#155397"/><stop offset="0.94" stop-color="#0e4386"/><stop offset="1" stop-color="#093679"/></linearGradient><linearGradient id="linear-gradient-10" x1="-1509.8" y1="306.53" x2="-1507.57" y2="306.53" gradientTransform="matrix(7.4, -4.25, -4.25, -7.4, 12773.3, -4068.06)" xlink:href="#linear-gradient-6"/><linearGradient id="linear-gradient-11" x1="-1767.45" y1="29.53" x2="-1765.22" y2="29.53" gradientTransform="matrix(-1.25, -4.44, -4.44, 1.25, -1907.25, -7847.6)" xlink:href="#linear-gradient-6"/><linearGradient id="linear-gradient-12" x1="-1564.78" y1="544.57" x2="-1562.55" y2="544.57" gradientTransform="matrix(6.21, 5.75, 5.75, -6.21, 6675.21, 12446.99)" xlink:href="#linear-gradient"/><linearGradient id="linear-gradient-13" x1="-1685.44" y1="413.7" x2="-1683.21" y2="413.7" gradientTransform="matrix(58, 58, 58, -58, 73900.3, 121853.73)" gradientUnits="userSpaceOnUse"><stop offset="0" stop-color="#006bb3"/><stop offset="0.31" stop-color="#025fa5"/><stop offset="0.88" stop-color="#083e82"/><stop offset="1" stop-color="#093679"/></linearGradient></defs><g style="isolation:isolate"><g id="Capa_2" data-name="Capa 2"><g id="Layer_1" data-name="Layer 1"><g mask="url(#mask-2)"><path d="M349.76,174.88A174.88,174.88,0,1,1,174.88,0,174.88,174.88,0,0,1,349.76,174.88Z" fill="url(#Degradado_sin_nombre_25)" style="mix-blend-mode:multiply"/></g><path d="M313.26,151a107.49,107.49,0,0,0-15.91-37.73,107.79,107.79,0,0,0-30.87-30.52,107.88,107.88,0,0,0-18.83-9.82,106.65,106.65,0,0,0-19.06-5.69c-1.53-.31-3.08-.57-4.64-.81-.48-.08-1-.14-1.45-.21q-1.68-.24-3.39-.42l-1.54-.16c-1.42-.14-2.85-.25-4.29-.32l-.5,0c-1.77-.09-3.55-.13-5.33-.13s-3.77,0-5.63.14h0l-.45,0c-1.54.09-3.08.21-4.6.36l-1.62.18c-1.2.14-2.38.29-3.57.47-.51.08-1,.14-1.53.23-1.64.27-3.27.56-4.88.9a106.91,106.91,0,0,0-20.26,6.41,109,109,0,0,0-33.89,23,109.85,109.85,0,0,0-14.1,17.4,108.21,108.21,0,0,0,50.33,159.39,106.41,106.41,0,0,0,19.06,5.69c1.54.31,3.09.57,4.64.81.48.08,1,.14,1.45.21,1.12.16,2.26.3,3.39.42l1.54.17c1.43.13,2.86.24,4.31.32,1.92.1,3.86.16,5.82.16A108.1,108.1,0,0,0,313.26,151ZM225.32,66.66l-1-.17Zm-3.46-.53q-1.22-.16-2.43-.3Q220.65,66,221.86,66.13Zm-4.44-.52c-1.37-.12-2.73-.23-4.1-.3C214.69,65.38,216.05,65.48,217.42,65.61Zm-16.1-.29c-1.48.09-2.94.2-4.39.35C198.38,65.52,199.84,65.41,201.32,65.32Zm-6.51.59c-.86.1-1.71.21-2.57.33C193.09,66.12,194,66,194.81,65.91Zm-5.19.73c-.34,0-.67.12-1,.18Zm-.06,213.25,1,.17Zm3.47.53,2.44.31Zm4.45.51c1.36.13,2.73.24,4.1.31C200.21,281.17,198.84,281.06,197.48,280.93Z" fill="#093679"/><path d="M102.43,218.22a113.17,113.17,0,0,1-6.76-21.4c-.64-3.07-1.15-6.18-1.55-9.34l-26.95,3.38c.49,3.9,1.12,7.76,1.92,11.56a139.6,139.6,0,0,0,8.36,26.49c.67,1.56,1.39,3.1,2.11,4.63L104.14,222C103.55,220.73,103,219.48,102.43,218.22Z" fill="#f8f5f6"/><path d="M325.68,250.78,303,235.89a113.34,113.34,0,0,1-24.17,26.54l17,21.21a139.87,139.87,0,0,0,29.93-32.86Z" fill="#f8f5f6"/><path d="M165,279.32A114,114,0,0,1,150,272l-13.68,23.48a142.81,142.81,0,0,0,18.59,9.1,140.81,140.81,0,0,0,22.85,7l5.72-26.58A113.68,113.68,0,0,1,165,279.32Z" fill="#f8f5f6"/><path d="M312.47,128.33a113.74,113.74,0,0,1,6.75,21.41c.64,3.06,1.16,6.18,1.55,9.33l27-3.38q-.72-5.85-1.92-11.56a140.3,140.3,0,0,0-8.35-26.49c-.68-1.56-1.4-3.1-2.12-4.64l-24.57,11.59C311.34,125.83,311.93,127.07,312.47,128.33Z" fill="#f8f5f6"/><path d="M249.92,67.24a112.4,112.4,0,0,1,15,7.35l13.67-23.48a139.87,139.87,0,0,0-41.44-16.06l-5.72,26.58A112.61,112.61,0,0,1,249.92,67.24Z" fill="#f8f5f6"/><path d="M347.72,155.69l-27,3.38h0c-.39-3.15-.91-6.28-1.55-9.34a113.74,113.74,0,0,0-6.75-21.41c-.55-1.27-1.13-2.51-1.72-3.75h0L335.33,113a141.57,141.57,0,0,0-50.66-58.15c-2-1.3-4-2.54-6.05-3.74L265,74.59h0a112.84,112.84,0,0,0-33.49-13l5.72-26.58-2.09-.44a142.25,142.25,0,0,0-56.79.31A140.54,140.54,0,0,0,129,55.69c-3.38,2.26-6.64,4.69-9.81,7.23l17,21.2a112.06,112.06,0,0,0-9.42,8.4,115.22,115.22,0,0,0-14.92,18.37l.16-.23L89.21,95.77l-.19.28a140.85,140.85,0,0,0-20.24,49.58,141.87,141.87,0,0,0-1.61,45.23l27-3.38v0c.39,3.16.91,6.29,1.55,9.37a113.17,113.17,0,0,0,6.76,21.4c.54,1.26,1.12,2.51,1.71,3.75L79.56,233.54a141.52,141.52,0,0,0,50.66,58.16c2,1.3,4,2.54,6.05,3.74L150,272h0a114.78,114.78,0,0,0,15,7.36,113.05,113.05,0,0,0,20.15,6c-.56-.11-1.12-.25-1.68-.37l-5.72,26.58,2.09.44a142.25,142.25,0,0,0,56.79-.31,140.3,140.3,0,0,0,26.49-8.35,142,142,0,0,0,22.86-12.41c3.38-2.27,6.64-4.7,9.81-7.23l-17-21.21A113.34,113.34,0,0,0,303,235.89l22.72,14.89.19-.28a141.35,141.35,0,0,0,21.85-94.81Zm-38.51-34.23c-.2-.39-.39-.78-.6-1.17C308.82,120.68,309,121.07,309.21,121.46ZM305,113.8c-.82-1.33-1.64-2.64-2.51-3.94C303.31,111.16,304.14,112.47,305,113.8Zm2.25,3.88c-.36-.66-.74-1.31-1.12-2C306.46,116.38,306.84,117,307.2,117.68ZM144,78.28Q142,79.67,140,81.15C141.3,80.16,142.65,79.21,144,78.28ZM93.72,183.67l0,.52Zm-.43-7,0,.84Zm.16,3.45c0,.27,0,.53,0,.79C93.48,180.63,93.46,180.37,93.45,180.1Zm12.23,45,.6,1.18Zm4.26,7.65q1.22,2,2.51,3.95Q111.16,234.74,109.94,232.74Zm-2.25-3.88c.37.66.74,1.32,1.13,2C108.44,230.18,108.06,229.52,107.69,228.86Zm163.17,39.41c1.38-.92,2.73-1.89,4.07-2.87Q272.94,266.89,270.86,268.27Zm19.71-40.79a99.26,99.26,0,0,1-28,28.34,99,99,0,0,1-109.31.58,99.72,99.72,0,0,1-37.07-44.07,98.14,98.14,0,0,1-5.88-18.59,99.32,99.32,0,1,1,180.28,33.74Zm30.56-65.1,0,.47Zm.27,3.3c0,.25,0,.5,0,.75C321.43,166.18,321.41,165.93,321.4,165.68Zm.17,3.39,0,.82Z" fill="#1e4e97"/><path d="M126.69,92.52a112.06,112.06,0,0,1,9.42-8.4l-17-21.2A139.43,139.43,0,0,0,89.21,95.77l22.72,14.89A114.5,114.5,0,0,1,126.69,92.52Z" fill="#f8f5f6"/><path d="M296.75,154.46A91.59,91.59,0,0,0,272,108.77a92.4,92.4,0,0,0-14.68-11.9,91.31,91.31,0,0,0-32-13.1A92,92,0,0,0,207.45,82,90.78,90.78,0,0,0,156.8,97.4,91,91,0,0,0,131,123.45a91.31,91.31,0,0,0-13.1,32,92.11,92.11,0,0,0-1.76,17.85,91.1,91.1,0,0,0,7.37,35.9,91.67,91.67,0,0,0,50,48.79,89.87,89.87,0,0,0,16.08,4.8A91.72,91.72,0,0,0,203,264.43a91.62,91.62,0,0,1-13.14-1.63,90.36,90.36,0,0,1-31.6-12.94,90.1,90.1,0,0,1-25.74-25.46,89.91,89.91,0,0,1-15.21-50.05A90.71,90.71,0,0,1,119,156.72a90.49,90.49,0,0,1,24.71-46.1A90.57,90.57,0,0,1,172,91.45a89.28,89.28,0,0,1,16.89-5.34,89.93,89.93,0,0,1,67.82,12.74,90.58,90.58,0,0,1,33.67,40,90.16,90.16,0,0,1,7.28,35.47A90.73,90.73,0,0,1,295.89,192,90.36,90.36,0,0,1,283,223.59a89.9,89.9,0,0,1-25.45,25.74A90.28,90.28,0,0,1,226,262.61a90.3,90.3,0,0,1-18.58,1.93,90.88,90.88,0,0,0,50.65-15.39,91.76,91.76,0,0,0,34-41.94,91.05,91.05,0,0,0,4.61-52.75Z" fill="#ea7374"/><path d="M283.32,122.63l6.67-4.46a100,100,0,0,0-12.37-15.07L272,108.77A91.77,91.77,0,0,1,283.32,122.63Z" fill="#093679"/><path d="M291.34,137.37l7.38-3.16a99,99,0,0,0-8.73-16l-6.67,4.46A90,90,0,0,1,291.34,137.37Z" fill="#e3dedd"/><path d="M296.75,154.46l7.85-1.65a98.46,98.46,0,0,0-5.88-18.6l-7.38,3.16A90.91,90.91,0,0,1,296.75,154.46Z" fill="#093679"/><path d="M122.75,139.34l-7.45-3a99,99,0,0,0-5.23,17.5l7.87,1.57A90.83,90.83,0,0,1,122.75,139.34Z" fill="#e3dedd"/><path d="M118.14,192.08l-7.85,1.66a98.14,98.14,0,0,0,5.88,18.59l7.38-3.15A90.78,90.78,0,0,1,118.14,192.08Z" fill="#093679"/><path d="M117.94,155.43l-7.87-1.57a100.15,100.15,0,0,0-1.91,19.42h8A92.11,92.11,0,0,1,117.94,155.43Z" fill="#093679"/><path d="M123.55,209.18l-7.38,3.15a99.87,99.87,0,0,0,8.73,16l6.67-4.45A92.1,92.1,0,0,1,123.55,209.18Z" fill="#e3dedd"/><path d="M131.57,223.93l-6.67,4.45a100,100,0,0,0,12.37,15.07l5.67-5.67A92.8,92.8,0,0,1,131.57,223.93Z" fill="#093679"/><path d="M157.62,249.68l-4.38,6.72a99.24,99.24,0,0,0,17.29,9l3-7.45A91.23,91.23,0,0,1,157.62,249.68Z" fill="#093679"/><path d="M131,123.45l-6.72-4.38a99.24,99.24,0,0,0-9,17.29l7.45,3A91.14,91.14,0,0,1,131,123.45Z" fill="#093679"/><path d="M171.54,89.38,168.38,82a99.78,99.78,0,0,0-16,8.73l4.46,6.67A91.58,91.58,0,0,1,171.54,89.38Z" fill="#e3dedd"/><path d="M188.64,84,187,76.12A99.19,99.19,0,0,0,168.38,82l3.16,7.38A90.78,90.78,0,0,1,188.64,84Z" fill="#093679"/><path d="M156.8,97.4l-4.46-6.67a100,100,0,0,0-15.07,12.37l5.67,5.67A92.38,92.38,0,0,1,156.8,97.4Z" fill="#093679"/><path d="M297,191.12l7.87,1.57a99.35,99.35,0,0,0,1.92-19.41h-8A91.24,91.24,0,0,1,297,191.12Z" fill="#093679"/><path d="M292.14,207.21l7.45,3a99.28,99.28,0,0,0,5.23-17.5L297,191.12A91.08,91.08,0,0,1,292.14,207.21Z" fill="#e3dedd"/><path d="M173.52,258l-3,7.45a99,99,0,0,0,17.5,5.23l1.57-7.88A89.87,89.87,0,0,1,173.52,258Z" fill="#e3dedd"/><path d="M257.27,96.87l4.38-6.72a98.56,98.56,0,0,0-17.29-9l-3,7.45A90.82,90.82,0,0,1,257.27,96.87Z" fill="#093679"/><path d="M241.38,88.58l3-7.45a99,99,0,0,0-17.5-5.23l-1.57,7.87A91.08,91.08,0,0,1,241.38,88.58Z" fill="#e3dedd"/><path d="M283.85,223.1l6.72,4.38a99.24,99.24,0,0,0,9-17.29l-7.45-3A91.86,91.86,0,0,1,283.85,223.1Z" fill="#093679"/><path d="M225.29,83.77l1.57-7.87A99.35,99.35,0,0,0,207.45,74v8A92,92,0,0,1,225.29,83.77Z" fill="#093679"/><path d="M189.6,262.77,188,270.65a99.38,99.38,0,0,0,19.42,1.91v-8A90.58,90.58,0,0,1,189.6,262.77Z" fill="#093679"/><path d="M226.25,262.58l1.66,7.85a98.14,98.14,0,0,0,18.59-5.88l-3.15-7.38A90.78,90.78,0,0,1,226.25,262.58Z" fill="#093679"/><path d="M243.35,257.17l3.15,7.38a98.68,98.68,0,0,0,16.05-8.73l-4.45-6.67A91.32,91.32,0,0,1,243.35,257.17Z" fill="#e3dedd"/><path d="M258.1,249.15l4.45,6.67a100,100,0,0,0,15.07-12.37L272,237.78A92.19,92.19,0,0,1,258.1,249.15Z" fill="#093679"/><path d="M94.67,191.25c0,.31.08.62.13.92C94.75,191.87,94.72,191.56,94.67,191.25Z" fill="#093679"/><path d="M288.2,254A114.5,114.5,0,0,0,303,235.89,114.5,114.5,0,0,1,288.2,254Z" fill="#093679"/><path d="M174.1,282.52c3.06.93,6.16,1.72,9.32,2.4C180.26,284.24,177.16,283.44,174.1,282.52Z" fill="#093679"/><path d="M169.56,281c1.23.44,2.48.83,3.73,1.23C172,281.87,170.79,281.46,169.56,281Z" fill="#093679"/><path d="M320.09,154.37l.07.45Z" fill="#093679"/><path d="M118.85,101.21a114.21,114.21,0,0,0-6.89,9.42A114.21,114.21,0,0,1,118.85,101.21Z" fill="#f8f7f7"/><path d="M122.65,96.77q-1.8,2-3.49,4.08Q120.86,98.76,122.65,96.77Z" fill="#f8f7f7"/><path d="M81.43,232.67c-.72-1.52-1.43-3-2.09-4.57A138.71,138.71,0,0,1,71.1,202q-1.17-5.61-1.89-11.38l-2,.25c.49,3.9,1.12,7.76,1.92,11.56a139.6,139.6,0,0,0,8.36,26.49c.67,1.56,1.39,3.1,2.11,4.63Z" fill="url(#linear-gradient)"/><path d="M306,271.78A139.64,139.64,0,0,1,294.47,282l1.28,1.61a139.87,139.87,0,0,0,29.93-32.86L324,249.66A139.87,139.87,0,0,1,306,271.78Z" fill="url(#linear-gradient-2)"/><path d="M155.63,302.62a138,138,0,0,1-18.32-9l-1,1.78a142.81,142.81,0,0,0,18.59,9.1,140.81,140.81,0,0,0,22.85,7l.44-2A137.48,137.48,0,0,1,155.63,302.62Z" fill="url(#linear-gradient-3)"/><path d="M335.55,118.45a138.71,138.71,0,0,1,8.24,26.11c.79,3.74,1.41,7.54,1.89,11.38l2-.25q-.72-5.85-1.92-11.56a140.3,140.3,0,0,0-8.35-26.49c-.68-1.56-1.4-3.1-2.12-4.64l-1.86.88C334.18,115.39,334.89,116.91,335.55,118.45Z" fill="url(#linear-gradient-4)"/><path d="M259.27,43.93a138.65,138.65,0,0,1,18.32,9l1-1.78a139.87,139.87,0,0,0-41.44-16.06l-.43,2A139.06,139.06,0,0,1,259.27,43.93Z" fill="url(#linear-gradient-5)"/><path d="M69.21,190.61a141.71,141.71,0,0,1-1.08-17.33A139.75,139.75,0,0,1,70.8,146,138.84,138.84,0,0,1,90.74,97.18l.19-.28-1.72-1.13-.19.28a140.85,140.85,0,0,0-20.24,49.58,141.87,141.87,0,0,0-1.61,45.23Z" fill="url(#linear-gradient-6)"/><path d="M137.31,293.66q-3-1.77-6-3.68a139,139,0,0,1-49.92-57.31l-1.87.87a141.52,141.52,0,0,0,50.66,58.16c2,1.3,4,2.54,6.05,3.74Z" fill="url(#linear-gradient-7)"/><path d="M294.47,282c-3.13,2.5-6.34,4.89-9.67,7.12a138.87,138.87,0,0,1-77.35,23.44,140.6,140.6,0,0,1-27.25-2.67l-2-.43-.44,2,2.09.44a142.25,142.25,0,0,0,56.79-.31,140.3,140.3,0,0,0,26.49-8.35,142,142,0,0,0,22.86-12.41c3.38-2.27,6.64-4.7,9.81-7.23Z" fill="url(#linear-gradient-8)"/><path d="M347.72,155.69l-2,.25h0a138.74,138.74,0,0,1-21.53,93.42l-.19.29,1.72,1.12.19-.28a141.35,141.35,0,0,0,21.85-94.81Z" fill="url(#linear-gradient-9)"/><path d="M277.59,52.89c2,1.18,4,2.41,6,3.68a139.25,139.25,0,0,1,49.93,57.31l1.86-.88a141.57,141.57,0,0,0-50.66-58.15c-2-1.3-4-2.54-6.05-3.74Z" fill="url(#linear-gradient-10)"/><path d="M120.43,64.52c3.12-2.5,6.33-4.89,9.66-7.12a139.6,139.6,0,0,1,104.6-20.77l2.06.43.43-2-2.09-.44a142.25,142.25,0,0,0-56.79.31A140.54,140.54,0,0,0,129,55.69c-3.38,2.26-6.64,4.69-9.81,7.23Z" fill="url(#linear-gradient-11)"/><path d="M108.93,74.76a138,138,0,0,1,11.5-10.24l-1.29-1.6A139.43,139.43,0,0,0,89.21,95.77l1.72,1.13A140.58,140.58,0,0,1,108.93,74.76Z" fill="url(#linear-gradient-12)"/><path d="M283.89,223.12a90.45,90.45,0,0,0,8.27-15.91,91.8,91.8,0,0,0-.83-69.83,90.22,90.22,0,0,0-8-14.77c-.73-1.1-1.5-2.18-2.29-3.26-.24-.33-.49-.65-.74-1-.57-.77-1.16-1.52-1.77-2.28-.27-.33-.54-.68-.82-1q-1.16-1.39-2.37-2.76l-.28-.32q-1.5-1.65-3.1-3.26c-1.13-1.13-2.27-2.22-3.45-3.27h0l-.29-.25c-1-.87-2-1.71-3-2.53l-1.08-.86c-.79-.64-1.6-1.25-2.41-1.85l-1.05-.78c-1.14-.81-2.28-1.61-3.45-2.37a89.78,89.78,0,0,0-15.91-8.27A91.33,91.33,0,0,0,188.65,84,91,91,0,0,0,118,155.44a91.78,91.78,0,0,0,5.58,53.73,90.22,90.22,0,0,0,8,14.77c.73,1.1,1.5,2.18,2.29,3.25l.74,1q.85,1.15,1.77,2.28c.27.34.54.68.82,1,.77.94,1.56,1.86,2.38,2.77q1.64,1.81,3.37,3.57a91.11,91.11,0,0,0,14.69,11.91A89.73,89.73,0,0,0,173.51,258a91.08,91.08,0,0,0,16.1,4.76,91,91,0,0,0,36.64-.21,90.82,90.82,0,0,0,17.09-5.38,89.41,89.41,0,0,0,14.77-8,91,91,0,0,0,25.78-26.06Zm-2.15-102.8-.48-.68ZM280,117.94c-.42-.55-.84-1.1-1.27-1.64C279.15,116.84,279.57,117.39,280,117.94Zm-2.35-3c-.73-.89-1.48-1.77-2.26-2.63C276.16,113.21,276.91,114.09,277.64,115Zm-9.43-9.79c-.93-.82-1.87-1.63-2.82-2.41C266.34,103.56,267.28,104.37,268.21,105.19ZM264,101.66c-.57-.45-1.15-.9-1.73-1.33C262.83,100.76,263.41,101.21,264,101.66ZM260.44,99l-.7-.49ZM133.14,226.23c.17.22.33.46.49.69Zm1.76,2.38c.42.55.85,1.1,1.28,1.64C135.75,229.71,135.32,229.16,134.9,228.61Zm2.35,3c.74.88,1.49,1.76,2.27,2.63C138.74,233.34,138,232.46,137.25,231.58Z" fill="url(#linear-gradient-13)"/><path d="M294.84,154.87a89.11,89.11,0,0,0-13.14-31.16A89.25,89.25,0,0,0,256.2,98.5a89.32,89.32,0,0,0-15.55-8.11,88,88,0,0,0-15.74-4.7c-1.27-.25-2.55-.47-3.83-.66-.4-.07-.8-.12-1.2-.18-.93-.13-1.86-.25-2.8-.35l-1.27-.13c-1.18-.11-2.36-.2-3.55-.27l-.41,0c-1.46-.07-2.93-.1-4.4-.1s-3.11,0-4.65.12h0l-.38,0c-1.28.08-2.54.18-3.8.3l-1.34.15c-1,.12-2,.24-2.95.39l-1.26.19c-1.35.22-2.7.46-4,.74A88.88,88.88,0,0,0,157.88,99a89,89,0,0,0-25.21,25.49A89.24,89.24,0,0,0,144.33,236.4a90.25,90.25,0,0,0,29.91,19.76,88.79,88.79,0,0,0,15.74,4.7c1.27.25,2.55.47,3.84.67l1.19.17c.93.13,1.86.24,2.8.34l1.27.14c1.18.11,2.37.2,3.56.26,1.59.09,3.19.14,4.81.14a88.78,88.78,0,0,0,35.13-7.21A88.13,88.13,0,0,0,257,247.53a89.05,89.05,0,0,0,25.2-25.5A89,89,0,0,0,295,190.74a89.1,89.1,0,0,0-.19-35.87ZM222.21,85.22l-.8-.14Zm-2.86-.43-2-.26Zm-3.67-.43c-1.12-.1-2.25-.19-3.38-.26C213.43,84.17,214.56,84.25,215.68,84.36ZM197,84.6c-.71.08-1.41.18-2.12.28C195.59,84.78,196.3,84.68,197,84.6Zm-4.29.6-.82.16Zm-.05,176.13.82.14Zm2.87.43c.67.09,1.34.18,2,.25C196.88,261.94,196.21,261.85,195.54,261.76Zm3.67.43c1.13.11,2.26.19,3.39.25C201.47,262.38,200.34,262.3,199.21,262.19Z" fill="#1e4e97"/></g></g></g></svg>