<svg xmlns="http://www.w3.org/2000/svg" xmlns:xlink="http://www.w3.org/1999/xlink" viewBox="0 0 1903 1741"><defs><radialGradient id="radial-gradient" cx="-47.33" cy="4378.95" r="317.29" gradientTransform="translate(-1989.13 -2675.19) rotate(-34.17)" gradientUnits="userSpaceOnUse"><stop offset="0.15" stop-color="#fff"/><stop offset="0.9" stop-color="#dcdcdc"/></radialGradient><linearGradient id="linear-gradient" x1="-99.23" y1="4365.66" x2="-18.4" y2="4672.78" gradientTransform="translate(-1989.13 -2675.19) rotate(-34.17)" gradientUnits="userSpaceOnUse"><stop offset="0" stop-color="#fff"/><stop offset="1" stop-color="#fff" stop-opacity="0"/></linearGradient><radialGradient id="GradientFill_21" cx="-55.05" cy="4569.29" r="61.35" gradientTransform="translate(-1989.13 -2675.19) rotate(-34.17)" gradientUnits="userSpaceOnUse"><stop offset="0" stop-color="#f03a2f"/><stop offset="0.2" stop-color="#ed392e"/><stop offset="0.34" stop-color="#e4372d"/><stop offset="0.46" stop-color="#d5332a"/><stop offset="0.56" stop-color="#bf2e25"/><stop offset="0.66" stop-color="#a42820"/><stop offset="0.76" stop-color="#811f19"/><stop offset="0.85" stop-color="#581511"/><stop offset="0.93" stop-color="#2a0a08"/><stop offset="1"/></radialGradient><radialGradient id="GradientFill_21-2" cx="-158.38" cy="4448.25" r="16.8" xlink:href="#GradientFill_21"/><linearGradient id="linear-gradient-3" x1="505.15" y1="1815.95" x2="505.15" y2="1875.85" gradientTransform="translate(-426.67 -673.22) rotate(-9.04)" gradientUnits="userSpaceOnUse"><stop offset="0" stop-color="#f03a2f"/><stop offset="0.21" stop-color="#ed3a30"/><stop offset="0.36" stop-color="#e43c32"/><stop offset="0.48" stop-color="#d53e35"/><stop offset="0.59" stop-color="#c04139"/><stop offset="0.7" stop-color="#a4453f"/><stop offset="0.71" stop-color="#a14540"/></linearGradient><radialGradient id="GradientFill_21-3" cx="-5988.01" cy="-2597.99" r="16.8" gradientTransform="translate(-5716.67 2408.54) rotate(145.83)" xlink:href="#GradientFill_21"/><linearGradient id="linear-gradient-4" x1="827.75" y1="2027.02" x2="827.75" y2="2086.92" xlink:href="#linear-gradient-3"/><radialGradient id="radial-gradient-2" cx="-74.99" cy="-998.82" r="317.29" gradientTransform="translate(1008.51 1997.99) rotate(27.25)" xlink:href="#radial-gradient"/><linearGradient id="linear-gradient-5" x1="-126.88" y1="-1012.1" x2="-46.06" y2="-704.98" gradientTransform="translate(1008.51 1997.99) rotate(27.25)" xlink:href="#linear-gradient"/><radialGradient id="radial-gradient-3" cx="-83.78" cy="-807.17" r="59.82" gradientTransform="translate(1008.51 1997.99) rotate(27.25)" gradientUnits="userSpaceOnUse"><stop offset="0" stop-color="#545454"/><stop offset="0.21" stop-color="#515151"/><stop offset="0.35" stop-color="#484848"/><stop offset="0.47" stop-color="#393939"/><stop offset="0.58" stop-color="#242424"/><stop offset="0.68" stop-color="#080808"/><stop offset="0.71"/></radialGradient><linearGradient id="linear-gradient-7" x1="-1053.49" y1="-2313.57" x2="-1053.49" y2="-2253.77" gradientTransform="matrix(0.74, 0.67, -0.67, 0.74, 521.61, 3458.15)" xlink:href="#radial-gradient-3"/><radialGradient id="radial-gradient-4" cx="-186.01" cy="-926.18" r="17.35" xlink:href="#radial-gradient-3"/><linearGradient id="linear-gradient-8" x1="-773.35" y1="-2047.66" x2="-773.35" y2="-1987.86" gradientTransform="matrix(0.74, 0.67, -0.67, 0.74, 521.61, 3458.15)" xlink:href="#radial-gradient-3"/><radialGradient id="radial-gradient-5" cx="-5400.58" cy="2693.59" r="17.35" gradientTransform="translate(-4699.83 1332.35) rotate(-152.75)" xlink:href="#radial-gradient-3"/><radialGradient id="radial-gradient-6" cx="-7799.11" cy="7430.01" r="76.02" gradientTransform="matrix(-0.81, -0.59, 0.59, -0.81, -9984.39, 2452.73)" gradientUnits="userSpaceOnUse"><stop offset="0.01" stop-color="#fff"/><stop offset="0.02" stop-color="#f9f9f9" stop-opacity="0.97"/><stop offset="0.14" stop-color="#cecccc" stop-opacity="0.74"/><stop offset="0.26" stop-color="#a7a4a5" stop-opacity="0.55"/><stop offset="0.38" stop-color="#878284" stop-opacity="0.38"/><stop offset="0.5" stop-color="#6d6769" stop-opacity="0.24"/><stop offset="0.62" stop-color="#585154" stop-opacity="0.14"/><stop offset="0.74" stop-color="#4a4245" stop-opacity="0.06"/><stop offset="0.87" stop-color="#41393c" stop-opacity="0.01"/><stop offset="1" stop-color="#3e3639" stop-opacity="0"/></radialGradient><radialGradient id="radial-gradient-7" cx="-7799.11" cy="7430.01" r="108.71" gradientTransform="matrix(-0.81, -0.59, 0.59, -0.81, -9984.39, 2452.73)" gradientUnits="userSpaceOnUse"><stop offset="0.01" stop-color="#fcbc4b"/><stop offset="0.02" stop-color="#f8b94b" stop-opacity="0.98"/><stop offset="0.13" stop-color="#cd9b47" stop-opacity="0.75"/><stop offset="0.25" stop-color="#a78043" stop-opacity="0.55"/><stop offset="0.37" stop-color="#876940" stop-opacity="0.38"/><stop offset="0.49" stop-color="#6c573d" stop-opacity="0.24"/><stop offset="0.62" stop-color="#58483b" stop-opacity="0.14"/><stop offset="0.74" stop-color="#4a3e3a" stop-opacity="0.06"/><stop offset="0.87" stop-color="#413839" stop-opacity="0.02"/><stop offset="1" stop-color="#3e3639" stop-opacity="0"/></radialGradient><radialGradient id="radial-gradient-8" cx="-9471.27" cy="6172.29" r="52.61" gradientTransform="translate(-10008.47 4691.61) rotate(-165.68)" gradientUnits="userSpaceOnUse"><stop offset="0" stop-opacity="0"/><stop offset="0.57" stop-color="#121212" stop-opacity="0"/><stop offset="0.59" stop-color="#1e1b15" stop-opacity="0.05"/><stop offset="0.62" stop-color="#3f331d" stop-opacity="0.19"/><stop offset="0.67" stop-color="#74592a" stop-opacity="0.42"/><stop offset="0.73" stop-color="#bc8d3b" stop-opacity="0.73"/><stop offset="0.78" stop-color="#fcbc4b"/><stop offset="0.78" stop-color="#e9ae45" stop-opacity="0.92"/><stop offset="0.79" stop-color="#b98a37" stop-opacity="0.73"/><stop offset="0.8" stop-color="#8d692a" stop-opacity="0.56"/><stop offset="0.82" stop-color="#674d1f" stop-opacity="0.41"/><stop offset="0.83" stop-color="#473515" stop-opacity="0.28"/><stop offset="0.85" stop-color="#2d210d" stop-opacity="0.18"/><stop offset="0.86" stop-color="#191307" stop-opacity="0.1"/><stop offset="0.88" stop-color="#0b0803" stop-opacity="0.04"/><stop offset="0.91" stop-color="#020201" stop-opacity="0.01"/><stop offset="0.95" stop-opacity="0"/></radialGradient><radialGradient id="radial-gradient-9" cx="-14600.65" cy="2496.92" r="27.58" gradientTransform="matrix(-0.34, -0.15, 10.88, -24.95, -31390.99, 61203.3)" gradientUnits="userSpaceOnUse"><stop offset="0.03" stop-color="#fff"/><stop offset="0.1" stop-color="#c8c8c8" stop-opacity="0.79"/><stop offset="0.18" stop-color="#8c8c8c" stop-opacity="0.55"/><stop offset="0.26" stop-color="#5a5a5a" stop-opacity="0.35"/><stop offset="0.33" stop-color="#333" stop-opacity="0.2"/><stop offset="0.4" stop-color="#171717" stop-opacity="0.09"/><stop offset="0.46" stop-color="#060606" stop-opacity="0.02"/><stop offset="0.5" stop-opacity="0"/></radialGradient><radialGradient id="radial-gradient-10" cx="-15920.54" cy="2217.99" r="27.58" gradientTransform="matrix(-0.15, 0.34, -24.95, -10.88, 53692.85, 30550.18)" xlink:href="#radial-gradient-9"/><radialGradient id="radial-gradient-11" cx="405.84" cy="673.65" r="101.52" gradientUnits="userSpaceOnUse"><stop offset="0.16" stop-color="#f2352f"/><stop offset="0.41" stop-color="#ef352f"/><stop offset="0.58" stop-color="#e6342f"/><stop offset="0.73" stop-color="#d7322f"/><stop offset="0.85" stop-color="#c4302f"/></radialGradient><radialGradient id="radial-gradient-12" cx="429.86" cy="587.23" r="136.13" xlink:href="#radial-gradient-11"/><linearGradient id="linear-gradient-9" x1="424.72" y1="522.71" x2="394.36" y2="624.72" gradientTransform="matrix(1, 0, 0, 1, 0, 0)" xlink:href="#linear-gradient"/><radialGradient id="radial-gradient-13" cx="471.14" cy="616.65" r="76.39" xlink:href="#radial-gradient-11"/><radialGradient id="radial-gradient-14" cx="435.08" cy="837.76" r="268.6" gradientUnits="userSpaceOnUse"><stop offset="0.16" stop-color="#f2352f"/><stop offset="0.36" stop-color="#ef352f"/><stop offset="0.5" stop-color="#e6342f"/><stop offset="0.62" stop-color="#d7322f"/><stop offset="0.73" stop-color="#c2302f"/><stop offset="0.83" stop-color="#a62d2f"/><stop offset="0.85" stop-color="#9e2c2f"/></radialGradient><radialGradient id="radial-gradient-15" cx="16.64" cy="1977.47" r="17.62" gradientTransform="matrix(1.08, -0.2, 0.26, 1.41, -67.06, -2182.34)" gradientUnits="userSpaceOnUse"><stop offset="0.16" stop-color="#fff"/><stop offset="0.38" stop-color="#fcfcfc"/><stop offset="0.54" stop-color="#f3f3f3"/><stop offset="0.67" stop-color="#e4e4e4"/><stop offset="0.78" stop-color="#cfcfcf"/><stop offset="0.85" stop-color="#bfbfbf"/></radialGradient><radialGradient id="radial-gradient-16" cx="-31.35" cy="1979.21" r="17.62" xlink:href="#radial-gradient-15"/><radialGradient id="radial-gradient-17" cx="-80.64" cy="1981.45" r="17.62" xlink:href="#radial-gradient-15"/><radialGradient id="radial-gradient-18" cx="123.05" cy="4089.29" r="48.13" gradientTransform="matrix(0.87, -0.51, 0.57, 0.98, -2087.66, -3274.63)" xlink:href="#radial-gradient-15"/><radialGradient id="radial-gradient-19" cx="137.99" cy="4136.84" r="48.12" gradientTransform="matrix(0.87, -0.51, 0.57, 0.98, -2087.66, -3274.63)" xlink:href="#radial-gradient-15"/><radialGradient id="radial-gradient-20" cx="172.31" cy="4128.13" r="48.12" gradientTransform="matrix(0.87, -0.51, 0.57, 0.98, -2087.66, -3274.63)" xlink:href="#radial-gradient-15"/><radialGradient id="radial-gradient-21" cx="151.89" cy="4183.22" r="48.12" gradientTransform="matrix(0.87, -0.51, 0.57, 0.98, -2087.66, -3274.63)" xlink:href="#radial-gradient-15"/><radialGradient id="radial-gradient-22" cx="107.03" cy="4143.74" r="48.12" gradientTransform="matrix(0.87, -0.51, 0.57, 0.98, -2087.66, -3274.63)" xlink:href="#radial-gradient-15"/><radialGradient id="radial-gradient-23" cx="-495.31" cy="180.85" r="45.01" gradientTransform="matrix(1.1, 0.16, -0.17, 1.2, 1053.71, 568.91)" xlink:href="#radial-gradient-15"/><radialGradient id="radial-gradient-24" cx="-1116.98" cy="-1926.63" r="88" gradientTransform="matrix(0.72, 0.69, -0.69, 0.72, 227.6, 2765.5)" gradientUnits="userSpaceOnUse"><stop offset="0" stop-color="#fffacb"/><stop offset="0.11" stop-color="#faf1ba"/><stop offset="0.34" stop-color="#efd88d"/><stop offset="0.37" stop-color="#edd587"/><stop offset="0.69" stop-color="#eab911"/><stop offset="1" stop-color="#854518"/></radialGradient><linearGradient id="Gold_2" x1="-1217.59" y1="-1945.79" x2="-1016.36" y2="-1945.79" gradientTransform="matrix(0.72, 0.69, -0.69, 0.72, 227.6, 2765.5)" gradientUnits="userSpaceOnUse"><stop offset="0.01" stop-color="#fac825"/><stop offset="0.25" stop-color="#fffacb"/><stop offset="0.3" stop-color="#f8efba"/><stop offset="0.41" stop-color="#e7d18d"/><stop offset="0.55" stop-color="#cba145"/><stop offset="0.6" stop-color="#c2912d"/><stop offset="0.87" stop-color="#edd587"/><stop offset="1" stop-color="#fffacb"/></linearGradient><radialGradient id="radial-gradient-25" cx="-1116.98" cy="-1945.79" r="81.42" gradientTransform="matrix(0.72, 0.69, -0.69, 0.72, 227.6, 2765.5)" gradientUnits="userSpaceOnUse"><stop offset="0" stop-color="#fffacb"/><stop offset="0.11" stop-color="#faf1ba"/><stop offset="0.34" stop-color="#efd88d"/><stop offset="0.37" stop-color="#edd587"/><stop offset="0.69" stop-color="#cd6c1e"/><stop offset="1" stop-color="#774711"/></radialGradient><linearGradient id="Gold" x1="-1022.3" y1="-2017.17" x2="-1146.41" y2="-1922.26" gradientTransform="matrix(0.72, 0.69, -0.69, 0.72, 227.6, 2765.5)" gradientUnits="userSpaceOnUse"><stop offset="0.01" stop-color="#fcd030"/><stop offset="0.25" stop-color="#fffad4"/><stop offset="0.31" stop-color="#f9f0c3"/><stop offset="0.41" stop-color="#ebd696"/><stop offset="0.56" stop-color="#d4ac4e"/><stop offset="0.6" stop-color="#cea13b"/><stop offset="0.87" stop-color="#f0da97"/><stop offset="0.87" stop-color="#f1db98"/><stop offset="1" stop-color="#fffad4"/></linearGradient><radialGradient id="radial-gradient-26" cx="-3303.15" cy="-5038.85" r="48.35" gradientTransform="matrix(0.24, 0.84, -0.79, 0.44, -2432.05, 5577.12)" xlink:href="#radial-gradient-25"/><linearGradient id="Gold-2" x1="-3354.52" y1="-5043.68" x2="-3257.98" y2="-5043.68" gradientTransform="matrix(0.24, 0.84, -0.79, 0.44, -2432.05, 5577.12)" xlink:href="#Gold"/><radialGradient id="radial-gradient-27" cx="2112.94" cy="4613.98" r="188.85" gradientTransform="translate(-2443.92 -2801.76) rotate(-23.84)" xlink:href="#radial-gradient-24"/><linearGradient id="Gold_2-2" x1="1897" y1="4572.85" x2="2328.87" y2="4572.85" gradientTransform="translate(-2443.92 -2801.76) rotate(-23.84)" xlink:href="#Gold_2"/><radialGradient id="radial-gradient-28" cx="2112.94" cy="4572.85" r="174.74" gradientTransform="translate(-2443.92 -2801.76) rotate(-23.84)" xlink:href="#radial-gradient-25"/><linearGradient id="Gold-3" x1="2316.13" y1="4419.66" x2="2049.76" y2="4623.36" gradientTransform="translate(-2443.92 -2801.76) rotate(-23.84)" xlink:href="#Gold"/><radialGradient id="radial-gradient-29" cx="2583.74" cy="-508.06" r="103.77" gradientTransform="matrix(0.87, 0.1, 0.1, 0.9, -870.19, 734.1)" xlink:href="#radial-gradient-25"/><linearGradient id="Gold-4" x1="2473.49" y1="-518.43" x2="2680.68" y2="-518.43" gradientTransform="matrix(0.87, 0.1, 0.1, 0.9, -870.19, 734.1)" xlink:href="#Gold"/><radialGradient id="radial-gradient-30" cx="-5885.14" cy="9404.45" r="76.02" gradientTransform="matrix(-0.51, -0.86, 0.86, -0.51, -9571.92, 223.12)" xlink:href="#radial-gradient-6"/><radialGradient id="radial-gradient-31" cx="-5885.14" cy="9404.45" r="108.71" gradientTransform="translate(-8635.49 -3932.23) rotate(-98.27)" xlink:href="#radial-gradient-7"/><radialGradient id="radial-gradient-32" cx="-8427.68" cy="8716.4" r="52.61" gradientTransform="translate(-10483.93 2267.24) rotate(-142.23)" xlink:href="#radial-gradient-8"/><radialGradient id="radial-gradient-33" cx="-10691.45" cy="2583.02" r="27.58" gradientTransform="matrix(-0.25, -0.27, 19.91, -18.56, -52589, 45601.85)" xlink:href="#radial-gradient-9"/><radialGradient id="radial-gradient-34" cx="-22290.71" cy="2270.83" r="27.57" gradientTransform="matrix(-0.27, 0.25, -18.56, -19.91, 37664.52, 51338.75)" xlink:href="#radial-gradient-9"/><radialGradient id="radial-gradient-35" cx="-5452.15" cy="8726.2" r="32.87" gradientTransform="matrix(-0.51, -0.86, 0.86, -0.51, -9571.92, 223.12)" xlink:href="#radial-gradient-6"/><radialGradient id="radial-gradient-36" cx="-5452.15" cy="8726.2" r="47" gradientTransform="translate(-8706.13 -3631.46) rotate(-98.27)" xlink:href="#radial-gradient-7"/><radialGradient id="radial-gradient-37" cx="-7773.63" cy="8247.77" r="22.75" gradientTransform="translate(-10483.93 2267.24) rotate(-142.23)" xlink:href="#radial-gradient-8"/><radialGradient id="radial-gradient-38" cx="-9141" cy="2562.16" r="11.92" gradientTransform="matrix(-0.25, -0.27, 19.91, -18.56, -52589, 45601.85)" xlink:href="#radial-gradient-9"/><radialGradient id="radial-gradient-39" cx="-20747.79" cy="2291.79" r="11.92" gradientTransform="matrix(-0.27, 0.25, -18.56, -19.91, 37664.52, 51338.75)" xlink:href="#radial-gradient-9"/><radialGradient id="radial-gradient-40" cx="1130.1" cy="962.03" r="101.52" xlink:href="#radial-gradient-11"/><radialGradient id="radial-gradient-41" cx="1154.12" cy="875.62" r="136.13" xlink:href="#radial-gradient-11"/><linearGradient id="linear-gradient-10" x1="1148.98" y1="811.09" x2="1118.61" y2="913.1" gradientTransform="matrix(1, 0, 0, 1, 0, 0)" xlink:href="#linear-gradient"/><radialGradient id="radial-gradient-42" cx="1195.4" cy="905.03" r="76.39" xlink:href="#radial-gradient-11"/><radialGradient id="radial-gradient-43" cx="1159.34" cy="1126.14" r="268.6" xlink:href="#radial-gradient-14"/><radialGradient id="radial-gradient-44" cx="618.9" cy="2266.96" r="17.62" xlink:href="#radial-gradient-15"/><radialGradient id="radial-gradient-45" cx="570.91" cy="2268.7" r="17.62" xlink:href="#radial-gradient-15"/><radialGradient id="radial-gradient-46" cx="521.62" cy="2270.94" r="17.62" xlink:href="#radial-gradient-15"/><radialGradient id="radial-gradient-47" cx="600.55" cy="4628.11" r="48.13" gradientTransform="matrix(0.87, -0.51, 0.57, 0.98, -2087.66, -3274.63)" xlink:href="#radial-gradient-15"/><radialGradient id="radial-gradient-48" cx="615.49" cy="4675.66" r="48.12" gradientTransform="matrix(0.87, -0.51, 0.57, 0.98, -2087.66, -3274.63)" xlink:href="#radial-gradient-15"/><radialGradient id="radial-gradient-49" cx="649.81" cy="4666.95" r="48.12" gradientTransform="matrix(0.87, -0.51, 0.57, 0.98, -2087.66, -3274.63)" xlink:href="#radial-gradient-15"/><radialGradient id="radial-gradient-50" cx="629.39" cy="4722.04" r="48.12" gradientTransform="matrix(0.87, -0.51, 0.57, 0.98, -2087.66, -3274.63)" xlink:href="#radial-gradient-15"/><radialGradient id="radial-gradient-51" cx="584.53" cy="4682.56" r="48.12" gradientTransform="matrix(0.87, -0.51, 0.57, 0.98, -2087.66, -3274.63)" xlink:href="#radial-gradient-15"/><radialGradient id="radial-gradient-52" cx="184.02" cy="332.14" r="45.01" gradientTransform="matrix(1.1, 0.16, -0.17, 1.2, 1053.71, 568.91)" xlink:href="#radial-gradient-15"/></defs><g style="isolation:isolate"><g id="BACKGROUND_1" data-name="BACKGROUND 1"><path d="M544.24,923.88,745.8,1220.76a21.56,21.56,0,0,1-5.73,29.94l-178.3,121a21.55,21.55,0,0,1-29.94-5.72L330.27,1069.14a21.55,21.55,0,0,1,5.73-29.93L514.31,918.15A21.54,21.54,0,0,1,544.24,923.88Z" fill="url(#radial-gradient)"/><path d="M544.24,923.88,745.8,1220.76a21.56,21.56,0,0,1-5.73,29.94l-178.3,121a21.55,21.55,0,0,1-29.94-5.72L330.27,1069.14a21.55,21.55,0,0,1,5.73-29.93L514.31,918.15A21.54,21.54,0,0,1,544.24,923.88Z" fill="none" stroke="#fff" stroke-miterlimit="10" stroke-width="0.32"/><path d="M544.24,923.88l61.55,90.66c-78,116-111.08,218-124.83,276.55L330.27,1069.14a21.55,21.55,0,0,1,5.73-29.93L514.31,918.15A21.54,21.54,0,0,1,544.24,923.88Z" fill="url(#linear-gradient)"/><path d="M544.24,923.88l61.55,90.66c-78,116-111.08,218-124.83,276.55L330.27,1069.14a21.55,21.55,0,0,1,5.73-29.93L514.31,918.15A21.54,21.54,0,0,1,544.24,923.88Z" fill="url(#linear-gradient)"/><path d="M534.37,1105.16a19.73,19.73,0,0,1,27.35,5.2c4,5.88,4.24,13.32,3.12,20.15-2.89,17.64-5.77,27.12-5.58,45.78-16.36-6.09-27.14-8.15-45-11.47-5.92-1.1-13.42-5.11-17.16-10.61A19.73,19.73,0,0,1,527.2,1129,19.75,19.75,0,0,1,534.37,1105.16Z" fill="#fff" fill-rule="evenodd"/><path d="M533.56,1104a19.75,19.75,0,0,1,27.36,5.21c4,5.88,4.23,13.31,3.12,20.14-2.89,17.64-5.77,27.12-5.59,45.78-16.36-6.09-27.13-8.14-45-11.47-5.91-1.1-13.42-5.11-17.15-10.61a19.73,19.73,0,0,1,30.06-25.22A19.74,19.74,0,0,1,533.56,1104Z" fill-rule="evenodd" fill="url(#GradientFill_21)"/><path d="M379.48,1086a5.42,5.42,0,0,1,7.5,1.43,7.55,7.55,0,0,1,.85,5.51c-.79,4.84-1.58,7.43-1.53,12.54A64.56,64.56,0,0,0,374,1102.3a7.85,7.85,0,0,1-4.7-2.91,5.4,5.4,0,0,1,8.23-6.9A5.42,5.42,0,0,1,379.48,1086Z" fill="#fff" fill-rule="evenodd"/><path d="M362.37,1075.6l3.82,8.16-5,3.41-16.3-35.71,6.64-4.51,27.11,28.37-5.08,3.45-6.13-6.59Zm-9.22-19,6.78,13.84,3.57-2.43Z" fill="#fff"/><path d="M378.88,1085.07a5.4,5.4,0,0,1,7.49,1.42,7.58,7.58,0,0,1,.86,5.52c-.8,4.83-1.58,7.43-1.53,12.54a64.47,64.47,0,0,0-12.32-3.14,7.83,7.83,0,0,1-4.69-2.91,5.4,5.4,0,0,1,8.23-6.9A5.41,5.41,0,0,1,378.88,1085.07Z" fill-rule="evenodd" fill="url(#GradientFill_21-2)"/><path d="M361.77,1074.71l3.82,8.16-5,3.41-16.29-35.71,6.64-4.51,27.1,28.37-5.08,3.45-6.12-6.59Zm-9.23-19,6.78,13.84,3.58-2.43Z" fill="url(#linear-gradient-3)"/><path d="M695.54,1202.38A5.42,5.42,0,0,1,688,1201a7.55,7.55,0,0,1-.85-5.51c.79-4.84,1.58-7.43,1.53-12.54a65.31,65.31,0,0,0,12.31,3.14,7.89,7.89,0,0,1,4.7,2.9,5.41,5.41,0,0,1-8.24,6.91A5.39,5.39,0,0,1,695.54,1202.38Z" fill="#fff" fill-rule="evenodd"/><path d="M712.65,1212.74l-3.82-8.15,5-3.42,16.3,35.72-6.64,4.51L696.4,1213l5.08-3.44,6.13,6.59Zm9.22,19L715.09,1218l-3.57,2.43Z" fill="#fff"/><path d="M696.05,1203.14a5.4,5.4,0,0,1-7.49-1.42,7.58,7.58,0,0,1-.86-5.52c.79-4.83,1.58-7.43,1.53-12.54a63.82,63.82,0,0,0,12.31,3.14,7.87,7.87,0,0,1,4.7,2.91,5.4,5.4,0,0,1-8.23,6.91A5.4,5.4,0,0,1,696.05,1203.14Z" fill-rule="evenodd" fill="url(#GradientFill_21-3)"/><path d="M713.16,1213.5l-3.82-8.15,5-3.42,16.29,35.72-6.64,4.51-27.1-28.38,5.08-3.45,6.12,6.6Zm9.23,19-6.78-13.84-3.58,2.43Z" fill="url(#linear-gradient-4)"/><path d="M1497.21,1150.81l-164.3,319a21.55,21.55,0,0,1-29,9.29l-191.6-98.68a21.55,21.55,0,0,1-9.29-29l164.3-319a21.54,21.54,0,0,1,29-9.29l191.6,98.67A21.56,21.56,0,0,1,1497.21,1150.81Z" fill="url(#radial-gradient-2)"/><path d="M1497.21,1150.81l-164.3,319a21.55,21.55,0,0,1-29,9.29l-191.6-98.68a21.55,21.55,0,0,1-9.29-29l164.3-319a21.54,21.54,0,0,1,29-9.29l191.6,98.67A21.56,21.56,0,0,1,1497.21,1150.81Z" fill="none" stroke="#fff" stroke-miterlimit="10" stroke-width="0.32"/><path d="M1497.21,1150.81,1447,1248.23c-139.18-13-244.57,6.73-302.58,22.67l122.83-238.5a21.54,21.54,0,0,1,29-9.29l191.6,98.67A21.56,21.56,0,0,1,1497.21,1150.81Z" fill="url(#linear-gradient-5)"/><path d="M1497.21,1150.81,1447,1248.23c-139.18-13-244.57,6.73-302.58,22.67l122.83-238.5a21.54,21.54,0,0,1,29-9.29l191.6,98.67A21.56,21.56,0,0,1,1497.21,1150.81Z" fill="url(#linear-gradient-5)"/><path d="M1270.06,1267.62c-9.57-4.93-13.53-16.44-8.8-25.61,3.09-6,7.33-8.72,13.71-10.8,15.92-5.24,31.42-9.81,45.29-19.13.64,13.32,4.08,28.08,9.91,47.56,1.68,5.58,2.8,12.17-.1,17.81-4.72,9.17-16.38,12.63-26,7.7a19.69,19.69,0,0,1-10.79-16.48c-3.54,6-4.58,16.72-5,28.65-5.5-5.91-10.32-8.91-18.54-9.54,10-7.92,17-15,19.84-20.92A19.69,19.69,0,0,1,1270.06,1267.62Z" fill="#fff" fill-rule="evenodd"/><path d="M1270.64,1266.5c-9.58-4.93-13.53-16.44-8.81-25.61,3.1-6,7.33-8.71,13.71-10.8,15.93-5.23,31.42-9.81,45.3-19.13.64,13.32,4.08,28.08,9.91,47.56,1.67,5.58,2.8,12.17-.11,17.81-4.72,9.17-16.38,12.64-26,7.71a19.76,19.76,0,0,1-10.79-16.49c-3.54,6-4.57,16.72-5,28.66-5.51-5.92-10.32-8.92-18.54-9.55,10-7.92,17-15,19.84-20.92A19.69,19.69,0,0,1,1270.64,1266.5Z" fill-rule="evenodd" fill="url(#radial-gradient-3)"/><path d="M1276.79,1063.28l-5.33,7.26-5.41-2.78,23.57-31.39,7.14,3.67-12,37.38-5.46-2.81,2.86-8.54Zm12.32-17.21-8.91,12.58,3.84,2Z" fill="#fff"/><path d="M1257.24,1097.26a5.56,5.56,0,0,1-2.56-7.42,6,6,0,0,1,4-3.13c4.62-1.52,9.11-2.85,13.13-5.55.19,3.86,1.19,8.14,2.88,13.79a7,7,0,0,1,0,5.17,5.57,5.57,0,0,1-7.53,2.23,5.73,5.73,0,0,1-3.13-4.78c-1,1.75-1.32,4.85-1.44,8.31a7.36,7.36,0,0,0-5.37-2.77c2.9-2.3,4.94-4.35,5.75-6.07A5.69,5.69,0,0,1,1257.24,1097.26Z" fill="#fff" fill-rule="evenodd"/><path d="M1277.16,1062.56l-5.33,7.26-5.41-2.78,23.57-31.39,7.14,3.67-12,37.38-5.46-2.81,2.86-8.53Zm12.32-17.21-8.91,12.58,3.84,2Z" fill="url(#linear-gradient-7)"/><path d="M1257.61,1096.55a5.57,5.57,0,0,1-2.56-7.43,6,6,0,0,1,4-3.13c4.62-1.52,9.11-2.85,13.13-5.55.19,3.86,1.19,8.14,2.88,13.79a7,7,0,0,1,0,5.17,5.57,5.57,0,0,1-7.53,2.23,5.75,5.75,0,0,1-3.13-4.78c-1,1.75-1.32,4.85-1.43,8.31a7.43,7.43,0,0,0-5.38-2.77c2.9-2.3,4.94-4.35,5.75-6.06A5.71,5.71,0,0,1,1257.61,1096.55Z" fill-rule="evenodd" fill="url(#radial-gradient-4)"/><path d="M1323.62,1437.06l5.33-7.26,5.41,2.79L1310.79,1464l-7.14-3.68,11.95-37.37,5.46,2.81-2.86,8.53Zm-12.32,17.21,8.91-12.57-3.84-2Z" fill="#fff"/><path d="M1344.2,1402.57a5.57,5.57,0,0,1,2.55,7.43,6.07,6.07,0,0,1-4,3.13c-4.61,1.52-9.11,2.84-13.13,5.55-.19-3.87-1.19-8.15-2.88-13.8a7,7,0,0,1,0-5.16,5.58,5.58,0,0,1,7.53-2.24,5.73,5.73,0,0,1,3.13,4.79c1-1.75,1.33-4.85,1.44-8.31a7.38,7.38,0,0,0,5.37,2.76c-2.89,2.3-4.93,4.36-5.75,6.07A5.73,5.73,0,0,1,1344.2,1402.57Z" fill="#fff" fill-rule="evenodd"/><path d="M1323.37,1437.54l5.34-7.26,5.4,2.79-23.57,31.39-7.14-3.68,12-37.37,5.45,2.81-2.86,8.53Zm-12.31,17.22,8.9-12.58-3.84-2Z" fill="url(#linear-gradient-8)"/><path d="M1344,1403.05a5.57,5.57,0,0,1,2.55,7.42,6,6,0,0,1-4,3.14c-4.62,1.52-9.11,2.84-13.14,5.55-.18-3.87-1.18-8.15-2.87-13.79a7,7,0,0,1,0-5.17,5.56,5.56,0,0,1,7.52-2.24,5.73,5.73,0,0,1,3.13,4.79c1-1.75,1.33-4.85,1.44-8.31a7.45,7.45,0,0,0,5.38,2.77c-2.9,2.29-4.94,4.35-5.76,6.06A5.73,5.73,0,0,1,1344,1403.05Z" fill-rule="evenodd" fill="url(#radial-gradient-5)"/><path d="M634.21,1008.07a76,76,0,1,1,16.55,106.23A76,76,0,0,1,634.21,1008.07Z" fill="url(#radial-gradient-6)" style="mix-blend-mode:screen"/><path d="M607.82,988.79a108.71,108.71,0,1,1,23.67,151.9A108.71,108.71,0,0,1,607.82,988.79Z" fill="url(#radial-gradient-7)" style="mix-blend-mode:color-dodge"/><path d="M644.62,1039.9a52.61,52.61,0,1,1,38,64A52.61,52.61,0,0,1,644.62,1039.9Z" opacity="0.5" fill="url(#radial-gradient-8)" style="mix-blend-mode:screen"/><path d="M682.93,1047.38c62.58-143.53,119-257.41,126-254.36S770.86,914.9,708.28,1058.43s-119,257.41-126,254.36S620.35,1190.91,682.93,1047.38Z" fill="url(#radial-gradient-9)" style="mix-blend-mode:color-dodge"/><path d="M690.08,1065.58c-143.53-62.58-257.42-119-254.36-126s121.88,38.06,265.41,100.65,257.41,119,254.36,126S833.61,1128.16,690.08,1065.58Z" fill="url(#radial-gradient-10)" style="mix-blend-mode:color-dodge"/><path d="M501.83,709.17l-47.14,57.89a13,13,0,0,1-3.25,3.32c-3.07,2.32-8.58,4.9-17.61,4.41a53.53,53.53,0,0,1-6-.76L344.93,750.3s-13.61-5.06-18.35-24.67L305.4,649.39a17.47,17.47,0,0,1-1.35-6c-.3-4.34.63-10.59,6.06-17.14a41,41,0,0,1,6.68-6.3L331,608.91l39.21-29.12s11.71-8.21,25.32-7.27l85.08,9.82a17.84,17.84,0,0,1,9.19,3.15,18.25,18.25,0,0,1,6,6.89,26.73,26.73,0,0,1,2.56,8.61l8.86,77.5S510.05,699.06,501.83,709.17Z" fill="url(#radial-gradient-11)"/><path d="M489.82,585.49a11.17,11.17,0,0,1-2.54,2.84L435.71,638c-14.23,13.29-38.91,8.87-38.91,8.87l-80-13.61c-4.86-.67-6.36-4-6.68-7a41,41,0,0,1,6.68-6.3L331,608.91l39.21-29.12s11.71-8.21,25.32-7.27l85.08,9.82A17.84,17.84,0,0,1,489.82,585.49Z" fill="url(#radial-gradient-12)"/><path d="M489.82,585.49a11.17,11.17,0,0,1-2.54,2.84L435.71,638c-14.23,13.29-38.91,8.87-38.91,8.87l-80-13.61c-4.86-.67-6.36-4-6.68-7a41,41,0,0,1,6.68-6.3L331,608.91l39.21-29.12s11.71-8.21,25.32-7.27l85.08,9.82A17.84,17.84,0,0,1,489.82,585.49Z" fill="url(#linear-gradient-9)"/><path d="M501.83,709.17l-47.14,57.89a13,13,0,0,1-3.25,3.32c-3.24-.32-6.64-3.07-8.44-11.86l-13-80s-3.8-22.13,8.54-35.12L490.12,594a9.88,9.88,0,0,1,5.66-1.65,26.73,26.73,0,0,1,2.56,8.61l8.86,77.5S510.05,699.06,501.83,709.17Z" fill="url(#radial-gradient-13)"/><path d="M433.83,774.79a53.53,53.53,0,0,1-6-.76L344.93,750.3s-13.61-5.06-18.35-24.67L305.4,649.39a17.47,17.47,0,0,1-1.35-6c2.24-3.62,6.28-7,13.36-6l82.24,15.48s19.3,5.7,24.37,29.42l14.54,75.92S442.75,769.4,433.83,774.79Z" fill="url(#radial-gradient-14)"/><path d="M465.28,591.63c.64,3.45-5,7.39-12.64,8.8s-14.32-.24-15-3.69,5-7.39,12.65-8.8S464.65,588.18,465.28,591.63Z" fill="url(#radial-gradient-15)"/><path d="M414,603.66c.64,3.45-5,7.38-12.64,8.79s-14.32-.24-15-3.69,5-7.39,12.65-8.8S413.4,600.2,414,603.66Z" fill="url(#radial-gradient-16)"/><path d="M361.53,616.62c.64,3.45-5,7.39-12.65,8.8s-14.31-.24-14.95-3.69,5-7.39,12.64-8.8S360.89,613.17,361.53,616.62Z" fill="url(#radial-gradient-17)"/><path d="M339.75,662.56c3.89,6.71,3.4,14.25-1.1,16.86s-11.3-.71-15.19-7.41-3.39-14.25,1.11-16.86S335.87,655.86,339.75,662.56Z" fill="url(#radial-gradient-18)"/><path d="M379.93,701.79c3.88,6.7,3.39,14.25-1.11,16.86s-11.3-.71-15.18-7.42-3.39-14.25,1.1-16.86S376,695.08,379.93,701.79Z" fill="url(#radial-gradient-19)"/><path d="M404.92,675.85c3.88,6.7,3.39,14.25-1.11,16.86s-11.3-.71-15.18-7.41-3.4-14.25,1.1-16.87S401,669.15,404.92,675.85Z" fill="url(#radial-gradient-20)"/><path d="M418.52,740.38c3.88,6.7,3.39,14.25-1.11,16.86s-11.3-.71-15.18-7.42-3.39-14.24,1.1-16.86S414.63,733.68,418.52,740.38Z" fill="url(#radial-gradient-21)"/><path d="M356.84,724.25c3.88,6.7,3.39,14.25-1.11,16.86s-11.3-.71-15.19-7.42-3.39-14.25,1.11-16.86S353,717.54,356.84,724.25Z" fill="url(#radial-gradient-22)"/><path d="M464.8,679.58c-1.09,7.65,1.47,14.35,5.71,14.95s8.57-5.11,9.66-12.76-1.47-14.36-5.72-15S465.89,671.92,464.8,679.58Z" fill="url(#radial-gradient-23)"/><path d="M818.82,668.94c-27.86,29.3-83.11,22-123.37-16.27S645.13,559.57,673,530.26s83.11-22,123.38,16.26S846.7,639.62,818.82,668.94Z" fill="url(#radial-gradient-24)"/><polygon points="820.73 666.81 829.23 657.79 686.91 515.62 672.53 530.75 820.73 666.81" fill="#744818"/><path d="M832,655c-27.88,29.31-83.12,22-123.38-16.26s-50.33-93.1-22.45-122.4,83.12-22,123.38,16.25S859.91,625.72,832,655Z" fill="url(#Gold_2)"/><path d="M826.59,649.86c-25.79,27.12-76.9,20.38-114.16-15.05s-46.56-86.14-20.78-113.25,76.9-20.39,114.17,15S852.37,622.74,826.59,649.86Z" fill="#fffa00"/><path d="M826.59,649.86c-25.79,27.12-76.9,20.38-114.16-15.05s-46.56-86.14-20.78-113.25,76.9-20.39,114.17,15S852.37,622.74,826.59,649.86Z" fill="url(#radial-gradient-25)" style="mix-blend-mode:multiply"/><path d="M821.79,646.71c-24.63,25.89-72.94,19.9-107.95-13.38S670.42,552.08,695,526.19s73-19.9,107.94,13.38S846.4,620.83,821.79,646.71Z" fill="url(#Gold)"/><path d="M778.13,544.91a33.35,33.35,0,0,1,12.34,10.75,41.5,41.5,0,0,1,6.91,15.92l-16.56,9.57a28.6,28.6,0,0,0-3.7-11.5,17.74,17.74,0,0,0-7.31-7.17q-7.68-3.79-16.23.5t-13.51,14.34q-5.09,10.29-3.31,19.75t9.44,13.24a18.64,18.64,0,0,0,9.72,1.6c3.77-.27,11.13-3.82,14.87-5.66l3.53,18.06c-5.74,2.79-15.54,6.41-21.66,6.79a31.88,31.88,0,0,1-16.3-3q-14.61-7.2-18.36-24t5.13-34.84q8.72-17.67,24.47-24.65T778.13,544.91Z" fill="url(#radial-gradient-26)"/><path d="M781.26,540.2a33.15,33.15,0,0,1,12.34,10.74c3.42,4.79,6.37,12.76,7.56,18.59L785,578.45a39.6,39.6,0,0,0-4.7-13.52,17.74,17.74,0,0,0-7.31-7.17q-7.68-3.79-16.23.5T743.2,572.6q-5.09,10.29-3.31,19.75t9.44,13.24a18.64,18.64,0,0,0,9.72,1.6A30.31,30.31,0,0,0,770.32,604l3.26,17.61a47.2,47.2,0,0,1-17.79,4.74,31.88,31.88,0,0,1-16.3-3q-14.61-7.2-18.36-24t5.13-34.84q8.72-17.67,24.47-24.65T781.26,540.2Z" fill="url(#Gold-2)"/><path d="M1551.27,477.32c35.08,79.37-24.91,182.84-134,231s-226,22.93-261-56.47,24.89-182.84,134-231S1516.18,397.91,1551.27,477.32Z" fill="url(#radial-gradient-27)"/><polygon points="1548.64 471.8 1537.77 447.52 1138.72 612.25 1156.82 653.23 1548.64 471.8" fill="#744818"/><path d="M1534.64,439.68c35.08,79.4-24.89,182.86-134,231.06s-226,22.94-261-56.47,24.9-182.87,134-231.06S1499.53,360.29,1534.64,439.68Z" fill="url(#Gold_2-2)"/><path d="M1519.88,446.2c32.46,73.47-23,169.19-124,213.79s-209.07,21.21-241.53-52.24,23-169.17,123.94-213.79S1487.41,372.75,1519.88,446.2Z" fill="#fffa00"/><path d="M1519.88,446.2c32.46,73.47-23,169.19-124,213.79s-209.07,21.21-241.53-52.24,23-169.17,123.94-213.79S1487.41,372.75,1519.88,446.2Z" fill="url(#radial-gradient-28)" style="mix-blend-mode:multiply"/><path d="M1509.68,453.12c31,70.15-20.73,160.94-115.54,202.86s-196.79,19-227.79-51.11S1187.07,443.92,1281.89,402,1478.69,383,1509.68,453.12Z" fill="url(#Gold-3)"/><path d="M1272,455.68q13-11.35,31.46-15.59a88.68,88.68,0,0,1,37.24-.56l5.3,40.7a61.23,61.23,0,0,0-25.82-2.16q-12.42,1.76-20.25,8.58-13.83,12.09-12.38,32.56t17.27,38.61q16.2,18.55,36.39,22.84t34-7.78q7.33-6.4,11.19-18c2.58-7.7,1.62-25.2,1.06-34.13l38.7,7.91c.79,13.68-.12,36.08-4.43,48.51s-10.75,22.39-19.3,29.86q-26.33,23-62.77,16.54t-64.81-38.9q-27.8-31.83-28.66-68.8T1272,455.68Z" fill="url(#radial-gradient-29)"/><path d="M1265.21,445.58A71.19,71.19,0,0,1,1296.67,430c12.31-2.82,30.55-2.09,43.06.36l4.32,39.48c-8.93-2.61-22.37-3-30.66-1.86s-15,4-20.25,8.59q-13.83,12.07-12.38,32.55T1298,547.72q16.2,18.56,36.39,22.85t34-7.79q7.33-6.4,11.19-17.95a65,65,0,0,0,3-24.94l37.58,8.06a100.7,100.7,0,0,1-5.28,39.17q-6.46,18.66-19.3,29.86-26.31,23-62.77,16.55t-64.81-38.91q-27.8-31.83-28.66-68.8T1265.21,445.58Z" fill="url(#Gold-4)"/><path d="M1478.47,473.31a76,76,0,1,1-27.09,104A76,76,0,0,1,1478.47,473.31Z" fill="url(#radial-gradient-30)" style="mix-blend-mode:screen"/><circle cx="1516.94" cy="538.88" r="108.7" transform="translate(-91.24 611.36) rotate(-22.14)" fill="url(#radial-gradient-31)" style="mix-blend-mode:color-dodge"/><path d="M1475.35,506.65a52.61,52.61,0,1,1,9.37,73.82A52.62,52.62,0,0,1,1475.35,506.65Z" opacity="0.5" fill="url(#radial-gradient-32)" style="mix-blend-mode:screen"/><path d="M1507.52,528.76C1622.05,422,1719.12,340,1724.33,345.55s-83.43,96.67-198,203.44-211.6,188.8-216.81,183.21S1393,635.54,1507.52,528.76Z" fill="url(#radial-gradient-33)" style="mix-blend-mode:color-dodge"/><path d="M1506.83,548.3C1400.06,433.77,1318,336.7,1323.62,331.49s96.67,83.43,203.44,198,188.8,211.6,183.21,216.81S1613.6,662.83,1506.83,548.3Z" fill="url(#radial-gradient-34)" style="mix-blend-mode:color-dodge"/><path d="M696.25,480.37a32.87,32.87,0,1,1-11.71,45A32.87,32.87,0,0,1,696.25,480.37Z" fill="url(#radial-gradient-35)" style="mix-blend-mode:screen"/><circle cx="712.89" cy="508.72" r="47" transform="translate(-139.15 306.14) rotate(-22.14)" fill="url(#radial-gradient-36)" style="mix-blend-mode:color-dodge"/><path d="M694.91,494.79a22.74,22.74,0,1,1,4,31.91A22.74,22.74,0,0,1,694.91,494.79Z" opacity="0.5" fill="url(#radial-gradient-37)" style="mix-blend-mode:screen"/><path d="M708.81,504.35c49.52-46.16,91.48-81.63,93.73-79.21s-36.06,41.79-85.58,88-91.48,81.62-93.73,79.21S659.3,550.51,708.81,504.35Z" fill="url(#radial-gradient-38)" style="mix-blend-mode:color-dodge"/><path d="M708.51,512.79c-46.16-49.51-81.62-91.48-79.2-93.73s41.79,36.07,88,85.58,81.62,91.48,79.21,93.74S754.67,562.31,708.51,512.79Z" fill="url(#radial-gradient-39)" style="mix-blend-mode:color-dodge"/><path d="M1226.09,997.56,1179,1055.44a13,13,0,0,1-3.25,3.32c-3.07,2.32-8.58,4.9-17.61,4.41a51.31,51.31,0,0,1-6-.76l-82.88-23.73s-13.61-5.06-18.35-24.67l-21.18-76.24a17.39,17.39,0,0,1-1.35-6c-.31-4.34.63-10.59,6-17.13a41,41,0,0,1,6.68-6.31l14.24-11.06,39.21-29.11s11.71-8.22,25.32-7.27l85.08,9.81a17.84,17.84,0,0,1,9.19,3.15,18.33,18.33,0,0,1,6,6.89,27,27,0,0,1,2.56,8.62l8.86,77.49S1234.31,987.44,1226.09,997.56Z" fill="url(#radial-gradient-40)"/><path d="M1214.08,873.87a11.26,11.26,0,0,1-2.55,2.85L1160,926.38c-14.24,13.29-38.91,8.87-38.91,8.87l-80-13.61c-4.86-.66-6.35-4-6.68-7a41,41,0,0,1,6.68-6.31l14.24-11.06,39.21-29.11s11.71-8.22,25.32-7.27l85.08,9.81A17.84,17.84,0,0,1,1214.08,873.87Z" fill="url(#radial-gradient-41)"/><path d="M1214.08,873.87a11.26,11.26,0,0,1-2.55,2.85L1160,926.38c-14.24,13.29-38.91,8.87-38.91,8.87l-80-13.61c-4.86-.66-6.35-4-6.68-7a41,41,0,0,1,6.68-6.31l14.24-11.06,39.21-29.11s11.71-8.22,25.32-7.27l85.08,9.81A17.84,17.84,0,0,1,1214.08,873.87Z" fill="url(#linear-gradient-10)"/><path d="M1226.09,997.56,1179,1055.44a13,13,0,0,1-3.25,3.32c-3.24-.32-6.64-3.07-8.45-11.86l-13-80s-3.79-22.13,8.54-35.11l51.57-49.35a9.88,9.88,0,0,1,5.66-1.65,27,27,0,0,1,2.56,8.62l8.86,77.49S1234.31,987.44,1226.09,997.56Z" fill="url(#radial-gradient-42)"/><path d="M1158.09,1063.17a51.31,51.31,0,0,1-6-.76l-82.88-23.73s-13.61-5.06-18.35-24.67l-21.18-76.24a17.39,17.39,0,0,1-1.35-6c2.24-3.62,6.28-7,13.36-6l82.24,15.49s19.3,5.69,24.37,29.41l14.53,75.92S1167,1057.78,1158.09,1063.17Z" fill="url(#radial-gradient-43)"/><path d="M1189.54,880c.64,3.45-5,7.38-12.64,8.79s-14.32-.24-15-3.69,5-7.39,12.65-8.8S1188.9,876.56,1189.54,880Z" fill="url(#radial-gradient-44)"/><path d="M1138.3,892c.63,3.45-5,7.38-12.65,8.79s-14.31-.24-15-3.69,5-7.39,12.64-8.8S1137.66,888.59,1138.3,892Z" fill="url(#radial-gradient-45)"/><path d="M1085.79,905c.64,3.45-5,7.38-12.65,8.79s-14.31-.24-15-3.69,5-7.39,12.64-8.8S1085.15,901.55,1085.79,905Z" fill="url(#radial-gradient-46)"/><path d="M1064,950.94c3.89,6.71,3.39,14.26-1.11,16.87s-11.29-.72-15.18-7.42-3.39-14.25,1.11-16.86S1060.13,944.24,1064,950.94Z" fill="url(#radial-gradient-47)"/><path d="M1104.18,990.17c3.89,6.7,3.39,14.25-1.1,16.86s-11.3-.71-15.19-7.41-3.39-14.26,1.11-16.86S1100.3,983.47,1104.18,990.17Z" fill="url(#radial-gradient-48)"/><path d="M1129.17,964.23c3.89,6.7,3.39,14.25-1.1,16.86s-11.3-.71-15.19-7.41-3.39-14.25,1.11-16.86S1125.29,957.53,1129.17,964.23Z" fill="url(#radial-gradient-49)"/><path d="M1142.77,1028.76c3.89,6.7,3.4,14.25-1.1,16.86s-11.3-.71-15.19-7.41-3.39-14.25,1.11-16.86S1138.89,1022.06,1142.77,1028.76Z" fill="url(#radial-gradient-50)"/><path d="M1081.09,1012.63c3.89,6.7,3.39,14.25-1.11,16.86s-11.29-.71-15.18-7.42-3.39-14.25,1.11-16.86S1077.21,1005.92,1081.09,1012.63Z" fill="url(#radial-gradient-51)"/><path d="M1189.06,968c-1.09,7.66,1.46,14.35,5.71,14.95s8.56-5.11,9.65-12.76-1.46-14.36-5.71-15S1190.14,960.3,1189.06,968Z" fill="url(#radial-gradient-52)"/></g></g></svg>