<svg xmlns="http://www.w3.org/2000/svg" viewBox="0 0 342.16 340.84"><g id="Capa_2" data-name="Capa 2"><g id="Capa_1-2" data-name="Capa 1"><path d="M278.46,44.75A165.44,165.44,0,1,0,296.56,278,164.56,164.56,0,0,0,278.46,44.75Zm50.76,174.84-50.55-17.43a94.49,94.49,0,0,0,0-61.07l50.51-17.38a148.58,148.58,0,0,1,0,95.88ZM288.38,56.4l-40.25,35a95.07,95.07,0,0,0-9.77-9.68,93.67,93.67,0,0,0-43.11-20.86L205.4,8.66a146.82,146.82,0,0,1,67.66,32.6A151.12,151.12,0,0,1,288.38,56.4ZM111,16.4a146.43,146.43,0,0,1,22-6l10.14,52.27A93.75,93.75,0,0,0,90.22,93.17l-40.29-35A147.29,147.29,0,0,1,111,16.4Zm-98,106,50.55,17.43a94.49,94.49,0,0,0,0,61.07L12.94,218.32a148.77,148.77,0,0,1-7.49-36.47A147.18,147.18,0,0,1,13,122.43ZM49.31,281.49l40.34-35a95.16,95.16,0,0,0,9.77,9.69A93.66,93.66,0,0,0,142.53,277l-10.2,52.45a148.38,148.38,0,0,1-83-48ZM229.8,324.14a146.63,146.63,0,0,1-21.94,6l-10.17-52.45a93.72,93.72,0,0,0,52.88-30.51l40.31,35A147.5,147.5,0,0,1,229.8,324.14Z" fill="none" stroke="#2188b5" stroke-linecap="round" stroke-linejoin="round" stroke-width="10"/></g></g></svg>