<svg xmlns="http://www.w3.org/2000/svg" viewBox="0 0 348.14 346.87"><g id="Capa_2" data-name="Capa 2"><g id="Capa_1-2" data-name="Capa 1"><path d="M281.46,47.76A165.43,165.43,0,1,0,299.55,281l0,0a164.49,164.49,0,0,0-16.7-232ZM332.23,222.6l-50.55-17.43a94.49,94.49,0,0,0,0-61.07l50.51-17.38a148.52,148.52,0,0,1,0,95.88ZM291.39,59.43l-40.25,35a95,95,0,0,0-9.77-9.68,93.66,93.66,0,0,0-43.11-20.86l10.15-52.16a147,147,0,0,1,67.68,32.53A151.12,151.12,0,0,1,291.39,59.43ZM114,19.43a145.75,145.75,0,0,1,22-6l10.11,52.24A93.71,93.71,0,0,0,93.2,96.18l-40.29-35A147.16,147.16,0,0,1,114,19.43Zm-98,106,50.54,17.43a94.62,94.62,0,0,0,0,61.07L16,221.33a149,149,0,0,1-7.49-36.48A147.1,147.1,0,0,1,16,125.43ZM52.33,284.49l40.34-35A94.17,94.17,0,0,0,145.55,280l-10.21,52.4a147.23,147.23,0,0,1-67.63-32.74A149.12,149.12,0,0,1,52.32,284.5Zm180.49,42.65a148.62,148.62,0,0,1-21.94,6L200.7,280.73a93.69,93.69,0,0,0,52.88-30.51l40.31,35a147.4,147.4,0,0,1-61.08,41.93Z" fill="none" stroke="#fff" stroke-linecap="round" stroke-linejoin="round" stroke-width="16"/></g></g></svg>