<svg xmlns="http://www.w3.org/2000/svg" xmlns:xlink="http://www.w3.org/1999/xlink" viewBox="0 0 200 200"><defs><linearGradient id="Degradado_sin_nombre_31" x1="100.84" y1="40.49" x2="100.84" y2="156" gradientUnits="userSpaceOnUse"><stop offset="0" stop-color="#2185b5"/><stop offset="0.57" stop-color="#4024ea" stop-opacity="0.3"/><stop offset="1" stop-color="#257abb" stop-opacity="0.96"/></linearGradient></defs><g id="BACKGROUND_1" data-name="BACKGROUND 1"><path d="M36,93.07l12.73-.73.36,7.44L28.69,101,27,66l7.63-.44Z"/><path d="M60.32,99.13l-7.63.44L51,64.61l7.63-.44Z"/><path d="M82.82,97.83l-7.88.46L61.59,64l8.15-.47,8.91,25.28,6.43-26.16,7.84-.45Z"/><path d="M105.2,96.54,97.57,97,95.88,62l7.63-.44Z"/><path d="M138.88,94.6l-6.73.39L117.31,74.26l1,21.53-7.15.41-1.69-35,6.73-.38,14.88,20.77-1-21.57,7.12-.41Z"/><path d="M164,75.33l6.61-.38.65,13.63a20.39,20.39,0,0,1-5.73,3.61A19,19,0,0,1,159,93.85a14.65,14.65,0,0,1-11.69-4.46,18.26,18.26,0,0,1-5.2-12.5,18.09,18.09,0,0,1,4.1-13,15.64,15.64,0,0,1,11.58-5.78,17.08,17.08,0,0,1,6.71,1,16.64,16.64,0,0,1,5.8,3.47l-4,6.29a12.35,12.35,0,0,0-3.91-2.55,9.74,9.74,0,0,0-4.29-.78,7.9,7.9,0,0,0-6,3.32,11.14,11.14,0,0,0-2.15,7.51,11,11,0,0,0,2.89,7.3,7.77,7.77,0,0,0,6.4,2.63,10.86,10.86,0,0,0,5.23-2Z"/><path d="M48.35,140.44l-7.85.45L33.77,117l-4.5,24.5-7.88.45L9.89,107.6l8.14-.47,7.11,25.38,4.51-26L37.1,106l7.12,25.37,4.54-26,7.8-.44Z"/><path d="M78.25,132.26,65.14,133l-1.88,6.57-7.84.45,11.26-35.7,7.84-.45,14.33,34.23-8.14.47Zm-2.55-6.61L70.79,113,67,126.14Z"/><path d="M98.91,130.07l12.72-.74.36,7.44L91.64,138,90,103l7.63-.44Z"/><path d="M122.91,128.69l12.73-.74.35,7.44-20.35,1.17L114,101.61l7.63-.44Z"/><path d="M161.78,105.87l-15.86.91.33,6.94,14.32-.82.33,7-14.31.82.34,7,16.33-.94.34,7-24,1.38L138,100.23l23.49-1.35Z"/><path d="M190.11,104.39l-9,.52,1.34,27.81-7.63.44-1.34-27.81-9,.51-.34-7.19,25.63-1.48Z"/><path d="M36,93.07l12.73-.73.36,7.44L28.69,101,27,66l7.63-.44Z"/><path d="M60.32,99.13l-7.63.44L51,64.61l7.63-.44Z"/><path d="M82.82,97.83l-7.88.46L61.59,64l8.15-.47,8.91,25.28,6.43-26.16,7.84-.45Z"/><path d="M105.2,96.54,97.57,97,95.88,62l7.63-.44Z"/><path d="M138.88,94.6l-6.73.39L117.31,74.26l1,21.53-7.15.41-1.69-35,6.73-.38,14.88,20.77-1-21.57,7.12-.41Z"/><path d="M164,75.33l6.61-.38.65,13.63a20.39,20.39,0,0,1-5.73,3.61A19,19,0,0,1,159,93.85a14.65,14.65,0,0,1-11.69-4.46,18.26,18.26,0,0,1-5.2-12.5,18.09,18.09,0,0,1,4.1-13,15.64,15.64,0,0,1,11.58-5.78,17.08,17.08,0,0,1,6.71,1,16.64,16.64,0,0,1,5.8,3.47l-4,6.29a12.35,12.35,0,0,0-3.91-2.55,9.74,9.74,0,0,0-4.29-.78,7.9,7.9,0,0,0-6,3.32,11.14,11.14,0,0,0-2.15,7.51,11,11,0,0,0,2.89,7.3,7.77,7.77,0,0,0,6.4,2.63,10.86,10.86,0,0,0,5.23-2Z"/><path d="M48.35,140.44l-7.85.45L33.77,117l-4.5,24.5-7.88.45L9.89,107.6l8.14-.47,7.11,25.38,4.51-26L37.1,106l7.12,25.37,4.54-26,7.8-.44Z"/><path d="M78.25,132.26,65.14,133l-1.88,6.57-7.84.45,11.26-35.7,7.84-.45,14.33,34.23-8.14.47Zm-2.55-6.61L70.79,113,67,126.14Z"/><path d="M98.91,130.07l12.72-.74.36,7.44L91.64,138,90,103l7.63-.44Z"/><path d="M122.91,128.69l12.73-.74.35,7.44-20.35,1.17L114,101.61l7.63-.44Z"/><path d="M161.78,105.87l-15.86.91.33,6.94,14.32-.82.33,7-14.31.82.34,7,16.33-.94.34,7-24,1.38L138,100.23l23.49-1.35Z"/><path d="M190.11,104.39l-9,.52,1.34,27.81-7.63.44-1.34-27.81-9,.51-.34-7.19,25.63-1.48Z"/><path d="M36,93.07l12.73-.73.36,7.44L28.69,101,27,66l7.63-.44Z" fill="none" stroke="#aff1ff" stroke-linecap="round" stroke-linejoin="round" stroke-width="15"/><path d="M60.32,99.13l-7.63.44L51,64.61l7.63-.44Z" fill="none" stroke="#aff1ff" stroke-linecap="round" stroke-linejoin="round" stroke-width="15"/><path d="M82.82,97.83l-7.88.46L61.59,64l8.15-.47,8.91,25.28,6.43-26.16,7.84-.45Z" fill="none" stroke="#aff1ff" stroke-linecap="round" stroke-linejoin="round" stroke-width="15"/><path d="M105.2,96.54,97.57,97,95.88,62l7.63-.44Z" fill="none" stroke="#aff1ff" stroke-linecap="round" stroke-linejoin="round" stroke-width="15"/><path d="M138.88,94.6l-6.73.39L117.31,74.26l1,21.53-7.15.41-1.69-35,6.73-.38,14.88,20.77-1-21.57,7.12-.41Z" fill="none" stroke="#aff1ff" stroke-linecap="round" stroke-linejoin="round" stroke-width="15"/><path d="M164,75.33l6.61-.38.65,13.63a20.39,20.39,0,0,1-5.73,3.61A19,19,0,0,1,159,93.85a14.65,14.65,0,0,1-11.69-4.46,18.26,18.26,0,0,1-5.2-12.5,18.09,18.09,0,0,1,4.1-13,15.64,15.64,0,0,1,11.58-5.78,17.08,17.08,0,0,1,6.71,1,16.64,16.64,0,0,1,5.8,3.47l-4,6.29a12.35,12.35,0,0,0-3.91-2.55,9.74,9.74,0,0,0-4.29-.78,7.9,7.9,0,0,0-6,3.32,11.14,11.14,0,0,0-2.15,7.51,11,11,0,0,0,2.89,7.3,7.77,7.77,0,0,0,6.4,2.63,10.86,10.86,0,0,0,5.23-2Z" fill="none" stroke="#aff1ff" stroke-linecap="round" stroke-linejoin="round" stroke-width="15"/><path d="M48.35,140.44l-7.85.45L33.77,117l-4.5,24.5-7.88.45L9.89,107.6l8.14-.47,7.11,25.38,4.51-26L37.1,106l7.12,25.37,4.54-26,7.8-.44Z" fill="none" stroke="#aff1ff" stroke-linecap="round" stroke-linejoin="round" stroke-width="15"/><path d="M78.25,132.26,65.14,133l-1.88,6.57-7.84.45,11.26-35.7,7.84-.45,14.33,34.23-8.14.47Zm-2.55-6.61L70.79,113,67,126.14Z" fill="none" stroke="#aff1ff" stroke-linecap="round" stroke-linejoin="round" stroke-width="15"/><path d="M98.91,130.07l12.72-.74.36,7.44L91.64,138,90,103l7.63-.44Z" fill="none" stroke="#aff1ff" stroke-linecap="round" stroke-linejoin="round" stroke-width="15"/><path d="M122.91,128.69l12.73-.74.35,7.44-20.35,1.17L114,101.61l7.63-.44Z" fill="none" stroke="#aff1ff" stroke-linecap="round" stroke-linejoin="round" stroke-width="15"/><path d="M161.78,105.87l-15.86.91.33,6.94,14.32-.82.33,7-14.31.82.34,7,16.33-.94.34,7-24,1.38L138,100.23l23.49-1.35Z" fill="none" stroke="#aff1ff" stroke-linecap="round" stroke-linejoin="round" stroke-width="15"/><path d="M190.11,104.39l-9,.52,1.34,27.81-7.63.44-1.34-27.81-9,.51-.34-7.19,25.63-1.48Z" fill="none" stroke="#aff1ff" stroke-linecap="round" stroke-linejoin="round" stroke-width="15"/><g opacity="0.25"><path d="M36.11,93.35l12.6-.73.38,7.91-20.16,1.16L27.14,64.54l7.55-.44Z"/><path d="M60.26,99.89l-7.56.44L50.91,63.17l7.55-.44Z"/><path d="M82.54,98.61l-7.81.45L61.39,62.56l8.07-.46L78.37,89l6.28-27.78,7.77-.44Z"/><path d="M104.7,97.33l-7.56.44L95.35,60.61l7.56-.44Z"/><path d="M138.06,95.41l-6.66.38L116.62,73.7l1.11,22.88-7.09.41-1.79-37.16,6.66-.38,14.82,22.14-1.11-22.93,7.05-.41Z"/><path d="M162.83,75l6.54-.37.7,14.49A20.13,20.13,0,0,1,164.4,93,18,18,0,0,1,158,94.69a14.07,14.07,0,0,1-11.6-4.79,20.36,20.36,0,0,1-5.2-13.3,20.09,20.09,0,0,1,4-13.75,15,15,0,0,1,11.46-6.09,15.62,15.62,0,0,1,6.65,1.11A16.42,16.42,0,0,1,169,61.58l-3.93,6.67a12.22,12.22,0,0,0-3.88-2.73,9,9,0,0,0-4.25-.85,7.64,7.64,0,0,0-6,3.51,12.4,12.4,0,0,0-2.1,8,12.28,12.28,0,0,0,2.89,7.77,7.53,7.53,0,0,0,6.35,2.83,10.25,10.25,0,0,0,5.17-2.11Z"/><path d="M48.51,143.15l-7.77.45L34,118.22l-4.37,26-7.81.45L10.3,108.09l8.06-.46,7.14,27L29.87,107l7.38-.42,7.14,27,4.41-27.67,7.72-.44Z"/><path d="M78.11,134.58l-13,.75-1.84,7-7.77.45,11-37.9,7.77-.45,14.31,36.44-8.06.47Zm-2.56-7L70.64,114,67,128Z"/><path d="M98.56,132.34l12.6-.73.38,7.91-20.16,1.16-1.79-37.16,7.55-.43Z"/><path d="M122.33,131l12.6-.73.38,7.91-20.16,1.16-1.79-37.15,7.55-.44Z"/><path d="M160.75,106.88l-15.71.9.36,7.38,14.18-.82.35,7.44-14.17.81.36,7.49,16.17-.93.36,7.43L138.92,138l-1.79-37.16,23.26-1.34Z"/><path d="M188.81,105.42l-8.95.52,1.42,29.57-7.55.43-1.43-29.57-8.87.51-.37-7.64,25.38-1.46Z"/><path d="M36.11,93.35l12.6-.73.38,7.91-20.16,1.16L27.14,64.54l7.55-.44Z"/><path d="M60.26,99.89l-7.56.44L50.91,63.17l7.55-.44Z"/><path d="M82.54,98.61l-7.81.45L61.39,62.56l8.07-.46L78.37,89l6.28-27.78,7.77-.44Z"/><path d="M104.7,97.33l-7.56.44L95.35,60.61l7.56-.44Z"/><path d="M138.06,95.41l-6.66.38L116.62,73.7l1.11,22.88-7.09.41-1.79-37.16,6.66-.38,14.82,22.14-1.11-22.93,7.05-.41Z"/><path d="M162.83,75l6.54-.37.7,14.49A20.13,20.13,0,0,1,164.4,93,18,18,0,0,1,158,94.69a14.07,14.07,0,0,1-11.6-4.79,20.36,20.36,0,0,1-5.2-13.3,20.09,20.09,0,0,1,4-13.75,15,15,0,0,1,11.46-6.09,15.62,15.62,0,0,1,6.65,1.11A16.42,16.42,0,0,1,169,61.58l-3.93,6.67a12.22,12.22,0,0,0-3.88-2.73,9,9,0,0,0-4.25-.85,7.64,7.64,0,0,0-6,3.51,12.4,12.4,0,0,0-2.1,8,12.28,12.28,0,0,0,2.89,7.77,7.53,7.53,0,0,0,6.35,2.83,10.25,10.25,0,0,0,5.17-2.11Z"/><path d="M48.51,143.15l-7.77.45L34,118.22l-4.37,26-7.81.45L10.3,108.09l8.06-.46,7.14,27L29.87,107l7.38-.42,7.14,27,4.41-27.67,7.72-.44Z"/><path d="M78.11,134.58l-13,.75-1.84,7-7.77.45,11-37.9,7.77-.45,14.31,36.44-8.06.47Zm-2.56-7L70.64,114,67,128Z"/><path d="M98.56,132.34l12.6-.73.38,7.91-20.16,1.16-1.79-37.16,7.55-.43Z"/><path d="M122.33,131l12.6-.73.38,7.91-20.16,1.16-1.79-37.15,7.55-.44Z"/><path d="M160.75,106.88l-15.71.9.36,7.38,14.18-.82.35,7.44-14.17.81.36,7.49,16.17-.93.36,7.43L138.92,138l-1.79-37.16,23.26-1.34Z"/><path d="M188.81,105.42l-8.95.52,1.42,29.57-7.55.43-1.43-29.57-8.87.51-.37-7.64,25.38-1.46Z"/><path d="M36.11,93.35l12.6-.73.38,7.91-20.16,1.16L27.14,64.54l7.55-.44Z" fill="none" stroke="#000"/><path d="M60.26,99.89l-7.56.44L50.91,63.17l7.55-.44Z" fill="none" stroke="#000"/><path d="M82.54,98.61l-7.81.45L61.39,62.56l8.07-.46L78.37,89l6.28-27.78,7.77-.44Z" fill="none" stroke="#000"/><path d="M104.7,97.33l-7.56.44L95.35,60.61l7.56-.44Z" fill="none" stroke="#000"/><path d="M138.06,95.41l-6.66.38L116.62,73.7l1.11,22.88-7.09.41-1.79-37.16,6.66-.38,14.82,22.14-1.11-22.93,7.05-.41Z" fill="none" stroke="#000"/><path d="M162.83,75l6.54-.37.7,14.49A20.13,20.13,0,0,1,164.4,93,18,18,0,0,1,158,94.69a14.07,14.07,0,0,1-11.6-4.79,20.36,20.36,0,0,1-5.2-13.3,20.09,20.09,0,0,1,4-13.75,15,15,0,0,1,11.46-6.09,15.62,15.62,0,0,1,6.65,1.11A16.42,16.42,0,0,1,169,61.58l-3.93,6.67a12.22,12.22,0,0,0-3.88-2.73,9,9,0,0,0-4.25-.85,7.64,7.64,0,0,0-6,3.51,12.4,12.4,0,0,0-2.1,8,12.28,12.28,0,0,0,2.89,7.77,7.53,7.53,0,0,0,6.35,2.83,10.25,10.25,0,0,0,5.17-2.11Z" fill="none" stroke="#000"/><path d="M48.51,143.15l-7.77.45L34,118.22l-4.37,26-7.81.45L10.3,108.09l8.06-.46,7.14,27L29.87,107l7.38-.42,7.14,27,4.41-27.67,7.72-.44Z" fill="none" stroke="#000"/><path d="M78.11,134.58l-13,.75-1.84,7-7.77.45,11-37.9,7.77-.45,14.31,36.44-8.06.47Zm-2.56-7L70.64,114,67,128Z" fill="none" stroke="#000"/><path d="M98.56,132.34l12.6-.73.38,7.91-20.16,1.16-1.79-37.16,7.55-.43Z" fill="none" stroke="#000"/><path d="M122.33,131l12.6-.73.38,7.91-20.16,1.16-1.79-37.15,7.55-.44Z" fill="none" stroke="#000"/><path d="M160.75,106.88l-15.71.9.36,7.38,14.18-.82.35,7.44-14.17.81.36,7.49,16.17-.93.36,7.43L138.92,138l-1.79-37.16,23.26-1.34Z" fill="none" stroke="#000"/><path d="M188.81,105.42l-8.95.52,1.42,29.57-7.55.43-1.43-29.57-8.87.51-.37-7.64,25.38-1.46Z" fill="none" stroke="#000"/></g><path d="M37.39,91.92,50,91.2l.38,7.91-20.16,1.16-1.8-37.16L36,62.68Z"/><path d="M61.54,98.47,54,98.9l-1.8-37.16,7.56-.43Z"/><path d="M83.83,97.18,76,97.63,62.68,61.14l8.06-.47,8.92,26.9L85.94,59.8l7.77-.45Z"/><path d="M106,95.91l-7.55.43L96.64,59.18l7.55-.43Z"/><path d="M139.35,94l-6.67.38L117.91,72.28,119,95.16l-7.08.4-1.8-37.15L116.8,58l14.81,22.14-1.1-22.93,7-.4Z"/><path d="M164.11,73.61l6.54-.38.7,14.49a20.07,20.07,0,0,1-5.67,3.82,17.87,17.87,0,0,1-6.45,1.73,14.05,14.05,0,0,1-11.59-4.79,20.28,20.28,0,0,1-5.2-13.3,20.11,20.11,0,0,1,4-13.76,15,15,0,0,1,11.45-6.09,15.88,15.88,0,0,1,6.65,1.11,16.54,16.54,0,0,1,5.76,3.72l-3.94,6.66a12.38,12.38,0,0,0-3.87-2.73,9.17,9.17,0,0,0-4.26-.84,7.62,7.62,0,0,0-6,3.51,12.4,12.4,0,0,0-2.1,8,12.33,12.33,0,0,0,2.88,7.77,7.53,7.53,0,0,0,6.35,2.82,10.26,10.26,0,0,0,5.18-2.1Z"/><path d="M49.8,141.73l-7.77.44L35.27,116.8l-4.36,26-7.81.45-11.52-36.6,8.07-.47,7.13,27,4.37-27.66,7.39-.43,7.13,27,4.41-27.67,7.73-.45Z"/><path d="M79.39,133.16l-13,.74-1.83,7-7.77.44,11-37.89,7.76-.45,14.32,36.44-8.07.46Zm-2.55-7-4.91-13.51-3.67,14Z"/><path d="M99.84,130.91l12.61-.72.38,7.91-20.16,1.16-1.8-37.16,7.56-.44Z"/><path d="M123.61,129.55l12.61-.73.38,7.91-20.16,1.16-1.8-37.16,7.56-.43Z"/><path d="M162,105.45l-15.7.91.35,7.38,14.18-.82.36,7.43-14.18.82.36,7.48,16.18-.93.35,7.44-23.72,1.36-1.8-37.16L161.68,98Z"/><path d="M190.1,104l-9,.51,1.43,29.57-7.56.44L173.59,105l-8.87.51-.37-7.64,25.38-1.47Z"/><path d="M37.39,91.92,50,91.2l.38,7.91-20.16,1.16-1.8-37.16L36,62.68Z" fill="url(#Degradado_sin_nombre_31)"/><path d="M61.54,98.47,54,98.9l-1.8-37.16,7.56-.43Z" fill="url(#Degradado_sin_nombre_31)"/><path d="M83.83,97.18,76,97.63,62.68,61.14l8.06-.47,8.92,26.9L85.94,59.8l7.77-.45Z" fill="url(#Degradado_sin_nombre_31)"/><path d="M106,95.91l-7.55.43L96.64,59.18l7.55-.43Z" fill="url(#Degradado_sin_nombre_31)"/><path d="M139.35,94l-6.67.38L117.91,72.28,119,95.16l-7.08.4-1.8-37.15L116.8,58l14.81,22.14-1.1-22.93,7-.4Z" fill="url(#Degradado_sin_nombre_31)"/><path d="M164.11,73.61l6.54-.38.7,14.49a20.07,20.07,0,0,1-5.67,3.82,17.87,17.87,0,0,1-6.45,1.73,14.05,14.05,0,0,1-11.59-4.79,20.28,20.28,0,0,1-5.2-13.3,20.11,20.11,0,0,1,4-13.76,15,15,0,0,1,11.45-6.09,15.88,15.88,0,0,1,6.65,1.11,16.54,16.54,0,0,1,5.76,3.72l-3.94,6.66a12.38,12.38,0,0,0-3.87-2.73,9.17,9.17,0,0,0-4.26-.84,7.62,7.62,0,0,0-6,3.51,12.4,12.4,0,0,0-2.1,8,12.33,12.33,0,0,0,2.88,7.77,7.53,7.53,0,0,0,6.35,2.82,10.26,10.26,0,0,0,5.18-2.1Z" fill="url(#Degradado_sin_nombre_31)"/><path d="M49.8,141.73l-7.77.44L35.27,116.8l-4.36,26-7.81.45-11.52-36.6,8.07-.47,7.13,27,4.37-27.66,7.39-.43,7.13,27,4.41-27.67,7.73-.45Z" fill="url(#Degradado_sin_nombre_31)"/><path d="M79.39,133.16l-13,.74-1.83,7-7.77.44,11-37.89,7.76-.45,14.32,36.44-8.07.46Zm-2.55-7-4.91-13.51-3.67,14Z" fill="url(#Degradado_sin_nombre_31)"/><path d="M99.84,130.91l12.61-.72.38,7.91-20.16,1.16-1.8-37.16,7.56-.44Z" fill="url(#Degradado_sin_nombre_31)"/><path d="M123.61,129.55l12.61-.73.38,7.91-20.16,1.16-1.8-37.16,7.56-.43Z" fill="url(#Degradado_sin_nombre_31)"/><path d="M162,105.45l-15.7.91.35,7.38,14.18-.82.36,7.43-14.18.82.36,7.48,16.18-.93.35,7.44-23.72,1.36-1.8-37.16L161.68,98Z" fill="url(#Degradado_sin_nombre_31)"/><path d="M190.1,104l-9,.51,1.43,29.57-7.56.44L173.59,105l-8.87.51-.37-7.64,25.38-1.47Z" fill="url(#Degradado_sin_nombre_31)"/><path d="M37.39,91.92,50,91.2l.38,7.91-20.16,1.16-1.8-37.16L36,62.68Z" fill="none" stroke="#9cbdff" stroke-width="0.85"/><path d="M61.54,98.47,54,98.9l-1.8-37.16,7.56-.43Z" fill="none" stroke="#9cbdff" stroke-width="0.85"/><path d="M83.83,97.18,76,97.63,62.68,61.14l8.06-.47,8.92,26.9L85.94,59.8l7.77-.45Z" fill="none" stroke="#9cbdff" stroke-width="0.85"/><path d="M106,95.91l-7.55.43L96.64,59.18l7.55-.43Z" fill="none" stroke="#9cbdff" stroke-width="0.85"/><path d="M139.35,94l-6.67.38L117.91,72.28,119,95.16l-7.08.4-1.8-37.15L116.8,58l14.81,22.14-1.1-22.93,7-.4Z" fill="none" stroke="#9cbdff" stroke-width="0.85"/><path d="M164.11,73.61l6.54-.38.7,14.49a20.07,20.07,0,0,1-5.67,3.82,17.87,17.87,0,0,1-6.45,1.73,14.05,14.05,0,0,1-11.59-4.79,20.28,20.28,0,0,1-5.2-13.3,20.11,20.11,0,0,1,4-13.76,15,15,0,0,1,11.45-6.09,15.88,15.88,0,0,1,6.65,1.11,16.54,16.54,0,0,1,5.76,3.72l-3.94,6.66a12.38,12.38,0,0,0-3.87-2.73,9.17,9.17,0,0,0-4.26-.84,7.62,7.62,0,0,0-6,3.51,12.4,12.4,0,0,0-2.1,8,12.33,12.33,0,0,0,2.88,7.77,7.53,7.53,0,0,0,6.35,2.82,10.26,10.26,0,0,0,5.18-2.1Z" fill="none" stroke="#9cbdff" stroke-width="0.85"/><path d="M49.8,141.73l-7.77.44L35.27,116.8l-4.36,26-7.81.45-11.52-36.6,8.07-.47,7.13,27,4.37-27.66,7.39-.43,7.13,27,4.41-27.67,7.73-.45Z" fill="none" stroke="#9cbdff" stroke-width="0.85"/><path d="M79.39,133.16l-13,.74-1.83,7-7.77.44,11-37.89,7.76-.45,14.32,36.44-8.07.46Zm-2.55-7-4.91-13.51-3.67,14Z" fill="none" stroke="#9cbdff" stroke-width="0.85"/><path d="M99.84,130.91l12.61-.72.38,7.91-20.16,1.16-1.8-37.16,7.56-.44Z" fill="none" stroke="#9cbdff" stroke-width="0.85"/><path d="M123.61,129.55l12.61-.73.38,7.91-20.16,1.16-1.8-37.16,7.56-.43Z" fill="none" stroke="#9cbdff" stroke-width="0.85"/><path d="M162,105.45l-15.7.91.35,7.38,14.18-.82.36,7.43-14.18.82.36,7.48,16.18-.93.35,7.44-23.72,1.36-1.8-37.16L161.68,98Z" fill="none" stroke="#9cbdff" stroke-width="0.85"/><path d="M190.1,104l-9,.51,1.43,29.57-7.56.44L173.59,105l-8.87.51-.37-7.64,25.38-1.47Z" fill="none" stroke="#9cbdff" stroke-width="0.85"/></g></svg>