<svg id="Capa_1" data-name="Capa 1" xmlns="http://www.w3.org/2000/svg" viewBox="0 0 500 500"><defs><style>.cls-1{fill:#fff;}.cls-2{fill:none;stroke:#fff;stroke-miterlimit:10;stroke-width:21px;}</style></defs><circle class="cls-1" cx="283.37" cy="290.08" r="49.56"/><circle class="cls-1" cx="216.63" cy="290.08" r="49.56"/><path class="cls-1" d="M95.73,176.93c-2.23,13-4.47,26-6.73,39.11H77.87l9.23-54.42h17.24v31.76l1,.08,6.12-17.87c1.41-4.11,2.76-8.23,4.27-12.29.28-.75,1.2-1.77,1.85-1.78,5.51-.15,11-.09,17.06-.09-3,18.32-6.07,36.36-9.11,54.59H113.65c2-12.79,4.06-25.5,6.09-38.21l-.51-.13c-.42,1-.87,2.1-1.26,3.17-4,11-8,21.89-11.85,32.9-.71,2-1.65,2.7-3.67,2.49-1.6-.16-3.23,0-5.21,0C96.88,203,96.53,190,96.18,177Z"/><path class="cls-1" d="M408.08,176.45c.85-5.09,1.66-9.89,2.49-14.91h11.56q-1.31,8.07-2.61,16.16c-2,12.05-4,24.1-5.86,36.16-.28,1.8-1,2.23-2.61,2.17-2.88-.1-5.77,0-8.84,0v-3.34a47.76,47.76,0,0,1-5.55,3c-7.57,2.9-15.06-.6-17.77-8.64-3.7-11-1.57-21.2,5.73-30C391.25,169,399.35,168.88,408.08,176.45ZM405.15,191a39.63,39.63,0,0,0-.74-4.78c-1.26-4.47-5.85-6.16-9.57-3.4a12.71,12.71,0,0,0-3.56,4.31,19.89,19.89,0,0,0-1.75,12.12c.38,2.73,1.38,5.1,4.28,6s5.81-.31,7.82-3A19.32,19.32,0,0,0,405.15,191Z"/><path class="cls-1" d="M155.19,188c1.43-4.32.11-6.65-4.22-6.65-4.91,0-9.82.6-14.87.95.2-1.26.47-2.92.76-4.58.84-5,.8-5.31,5.8-6a55.25,55.25,0,0,1,13.7-.53c7.31.84,11.57,6.84,10.64,14.14-1.26,9.87-2.67,19.71-4.1,29.55-.1.69-.88,1.79-1.4,1.83-2.86.18-5.74.08-8.75.08v-3.14c-2.83,1.27-5.54,3-8.5,3.7-7.4,1.81-13.12-2.46-13.93-10-1.2-11.08,5.57-18.54,17.64-19.34C150.37,187.87,152.81,188,155.19,188Zm-1.25,9.37c-4.16-.72-7.68-.2-10,1.37-2.74,1.88-3.6,6-1.75,8.33s5.72,2.19,8.18-.27S153.9,201.05,153.94,197.38Z"/><path class="cls-1" d="M344.13,188c1.05-4.81,0-6.64-4.56-6.68-4.75,0-9.5.6-14.57,1,.39-2.45.79-5.43,1.38-8.37.1-.5.95-1,1.56-1.24,5.66-1.84,11.43-2.74,17.37-1.58,7.2,1.4,11.46,7.14,10.49,14.41-1.37,10.31-2.88,20.6-4.36,31.1h-9.79v-3.7c-1,.78-1.82,1.44-2.67,2.06-4.46,3.24-10.75,3.77-14.84,1.13-5-3.22-5.55-8.26-4.92-13.46,1.07-8.72,7.57-14,17.48-14.61C339.13,187.86,341.57,188,344.13,188Zm-1.28,9.26c-3.65-.48-6.93-.46-9.91,1.43a5.37,5.37,0,0,0-2.63,6,5.89,5.89,0,0,0,2.68,3.59c2.28,1,4.59.23,6.37-1.64C341.79,204.08,342.62,200.93,342.85,197.23Z"/><path class="cls-1" d="M231.47,198.4c-.65,4.4,1.18,7.35,5.33,8.53,4.53,1.28,9,.5,13.36-.8,1.12-.33,2.23-.7,3.8-1.2-.66,3.65-1.21,7-1.94,10.32-.11.5-1,1-1.6,1.18a34.87,34.87,0,0,1-17.71.46c-7.14-1.84-11.35-6.58-12.57-13.75-1.64-9.57.21-18.41,6.54-26,4-4.82,9.28-7.19,15.63-6.43,10,1.22,15.44,8.93,14.06,19.75-1,7.7-1,7.7-8.74,7.71l-15.48,0A3.65,3.65,0,0,0,231.47,198.4Zm.93-9.45c3.95,0,7.71,0,11.48,0a2,2,0,0,0,1.52-1,5.71,5.71,0,0,0-5.06-7.1C236.06,180.56,233,183.55,232.4,189Z"/><path class="cls-1" d="M322.18,163.21c-.6,3.95-1.19,7.78-1.79,11.77-2.46-.84-4.76-1.83-7.16-2.39-5.94-1.41-11.05.54-14.41,5.6a25.16,25.16,0,0,0-3.56,20.26c1.43,6.22,7,9.45,13.29,8.06,2.35-.52,4.62-1.39,7.15-2.17-.61,3.84-1.15,7.57-1.84,11.29a2.09,2.09,0,0,1-1.42,1.32c-4,.47-8.13,1.43-12.08,1-9-.94-14.56-6.22-16.65-15.07a40.85,40.85,0,0,1,2.58-26.79C292.83,161.69,306.89,156.63,322.18,163.21Z"/><path class="cls-1" d="M197.6,171.59c-.5,3.49-.93,6.53-1.4,9.88-2.44-.11-4.75-.23-7.07-.32-4.29-.15-6.53.7-6.89,2.88-.58,3.56,2.42,4.36,4.73,5.33,6.3,2.66,10.27,7.07,8.17,17.28-1,4.91-4.26,8-9,9.17-6.7,1.73-13.42,1.05-20.42-.31.51-3.39,1-6.56,1.42-9.57,4,.37,7.85.8,11.68,1a7.7,7.7,0,0,0,3.41-.64,3.25,3.25,0,0,0,.85-5.72,33.34,33.34,0,0,0-5.1-3c-6.37-3.45-8.79-8.19-7.6-14.95S175.6,172.18,182.6,171A43.43,43.43,0,0,1,197.6,171.59Z"/><path class="cls-1" d="M204.35,165.2h11.44c-.31,2.18-.6,4.19-.91,6.4l5.54.26c-.46,3.55-.89,6.91-1.36,10.52h-6c-.72,4.26-1.42,8.31-2.1,12.37-.36,2.13-.68,4.28-1,6.42-.65,3.92.64,5.37,4.66,5.17.62,0,1.24-.11,2.21-.19-.41,3-.75,5.8-1.23,8.6a1.86,1.86,0,0,1-1.16,1.27c-3.38.4-6.83,1.17-10.15.83-4-.41-6.51-3.69-6.33-8.18a131.86,131.86,0,0,1,1.67-15.06C201.05,184.16,202.73,174.74,204.35,165.2Z"/><path class="cls-1" d="M366.39,216.53h-12c2.44-15,4.86-29.75,7.3-44.7h10.83c-.24,1.77-.46,3.44-.76,5.68,3.13-3.46,5.76-7.1,10.84-6.29l-4.17,13.12c-3.87.13-5.54,1-6.66,5.2-1.6,6-2.66,12.16-3.88,18.27C367.31,210.71,366.89,213.65,366.39,216.53Z"/><path class="cls-1" d="M268,216.58h-12c.93-5.79,1.81-11.46,2.74-17.13,1.39-8.57,2.86-17.12,4.19-25.7.24-1.55.72-2.2,2.36-2.13,2.88.12,5.76,0,8.85,0-.27,2-.5,3.66-.8,5.88,3.13-3.5,5.78-7.14,10.87-6.32-1.41,4.43-2.8,8.77-4.19,13.14-3.76.06-5.5.95-6.58,5-1.64,6.09-2.72,12.33-4,18.53C269,210.69,268.56,213.55,268,216.58Z"/><path class="cls-1" d="M54.4,237.94h2c-.44-1.27-1-2.48-1.38-3.76Z"/><rect class="cls-2" x="19.82" y="89.04" width="460.36" height="321.91" rx="31.45"/></svg>