<svg id="Capa_1" data-name="Capa 1" xmlns="http://www.w3.org/2000/svg" viewBox="0 0 473.65 413.65"><circle cx="261.33" cy="238.56" r="36.4" style="fill:#fff"/><circle cx="212.31" cy="238.56" r="36.4" style="fill:#fff"/><path d="M123.51,155.44c-1.65,9.54-3.29,19.08-5,28.73h-8.18c2.27-13.33,4.52-26.58,6.79-40h12.66v23.33l.7.06,4.5-13.13c1-3,2-6,3.14-9,.2-.55.88-1.3,1.35-1.31,4-.1,8.1-.06,12.54-.06-2.25,13.46-4.46,26.71-6.7,40.1h-8.69c1.49-9.4,3-18.73,4.47-28.07l-.38-.09c-.3.77-.63,1.54-.92,2.32-2.92,8.05-5.88,16.09-8.71,24.17-.51,1.49-1.21,2-2.69,1.83-1.17-.12-2.37,0-3.83,0-.26-9.69-.52-19.23-.78-28.77Z" style="fill:#fff"/><path d="M352.94,155.1c.63-3.74,1.22-7.27,1.83-11h8.49q-.94,5.93-1.92,11.87c-1.44,8.86-2.93,17.7-4.3,26.56-.21,1.33-.72,1.64-1.92,1.6-2.12-.08-4.24,0-6.49,0v-2.46a33.73,33.73,0,0,1-4.08,2.22c-5.56,2.13-11.06-.44-13.05-6.35-2.72-8.07-1.15-15.57,4.21-22.06C340.58,149.6,346.53,149.54,352.94,155.1Zm-2.15,10.7a29.14,29.14,0,0,0-.55-3.51,4.35,4.35,0,0,0-7-2.49A9.21,9.21,0,0,0,340.6,163a14.65,14.65,0,0,0-1.29,8.9c.29,2,1,3.75,3.15,4.4A5.2,5.2,0,0,0,348.2,174,14.19,14.19,0,0,0,350.79,165.8Z" style="fill:#fff"/><path d="M167.18,163.58c1-3.17.08-4.88-3.1-4.88-3.6,0-7.21.44-10.93.7.16-.93.36-2.15.56-3.37.62-3.67.59-3.9,4.27-4.4a40.43,40.43,0,0,1,10.06-.39c5.37.62,8.5,5,7.81,10.39-.92,7.25-2,14.48-3,21.71-.07.51-.64,1.31-1,1.34-2.11.13-4.22.06-6.43.06v-2.31c-2.08.93-4.07,2.19-6.24,2.72-5.44,1.33-9.64-1.81-10.24-7.35-.88-8.13,4.09-13.61,13-14.2C163.64,163.48,165.43,163.58,167.18,163.58Zm-.92,6.89c-3-.53-5.64-.15-7.32,1-2,1.39-2.64,4.39-1.29,6.12s4.21,1.61,6-.2A9.41,9.41,0,0,0,166.26,170.47Z" style="fill:#fff"/><path d="M306,163.56c.78-3.54,0-4.89-3.34-4.91-3.49,0-7,.44-10.7.7.28-1.8.57-4,1-6.14.07-.38.7-.77,1.14-.92a25.2,25.2,0,0,1,12.76-1.16c5.29,1,8.42,5.25,7.71,10.59-1,7.57-2.12,15.13-3.21,22.85h-7.18v-2.73c-.74.57-1.34,1.07-2,1.52-3.27,2.38-7.89,2.77-10.89.83-3.66-2.37-4.08-6.07-3.62-9.89.78-6.4,5.56-10.32,12.84-10.73C302.29,163.47,304.09,163.56,306,163.56Zm-.93,6.79c-2.68-.35-5.1-.33-7.29,1.06a3.93,3.93,0,0,0-1.92,4.42,4.3,4.3,0,0,0,2,2.64,4,4,0,0,0,4.68-1.21C304.25,175.39,304.86,173.07,305,170.35Z" style="fill:#fff"/><path d="M223.21,171.22c-.48,3.23.87,5.39,3.92,6.26,3.33,1,6.59.37,9.81-.58.82-.25,1.64-.52,2.79-.89-.48,2.68-.89,5.15-1.42,7.58-.08.37-.73.76-1.18.87a25.51,25.51,0,0,1-13,.34,11.78,11.78,0,0,1-9.23-10.1c-1.2-7,.15-13.53,4.8-19.08a12.4,12.4,0,0,1,11.48-4.72c7.36.89,11.35,6.56,10.33,14.51-.72,5.65-.72,5.65-6.42,5.66-3.79,0-7.58,0-11.37,0A2.44,2.44,0,0,0,223.21,171.22Zm.69-6.95c2.9,0,5.66,0,8.43,0a1.46,1.46,0,0,0,1.11-.76,4.18,4.18,0,0,0-3.71-5.21C226.58,158.11,224.34,160.31,223.9,164.27Z" style="fill:#fff"/><path d="M289.84,145.37c-.44,2.9-.87,5.71-1.31,8.64-1.81-.61-3.5-1.34-5.26-1.75a9.38,9.38,0,0,0-10.59,4.11,18.46,18.46,0,0,0-2.61,14.88c1.05,4.57,5.11,6.94,9.76,5.92,1.73-.38,3.4-1,5.25-1.59-.44,2.82-.84,5.56-1.35,8.29a1.51,1.51,0,0,1-1,1c-3,.35-6,1-8.87.75-6.61-.69-10.7-4.57-12.23-11.07a29.94,29.94,0,0,1,1.89-19.67C268.28,144.25,278.61,140.53,289.84,145.37Z" style="fill:#fff"/><path d="M198.33,151.52c-.36,2.56-.68,4.8-1,7.26-1.78-.08-3.49-.17-5.19-.23-3.15-.11-4.8.51-5.06,2.11-.42,2.62,1.78,3.21,3.47,3.92,4.63,1.95,7.55,5.19,6,12.69a8.43,8.43,0,0,1-6.6,6.74c-4.92,1.27-9.86.77-15-.23.36-2.49.71-4.82,1-7,3,.27,5.77.58,8.58.76a5.71,5.71,0,0,0,2.51-.48,2.39,2.39,0,0,0,.63-4.2,24.24,24.24,0,0,0-3.75-2.23c-4.68-2.54-6.46-6-5.58-11s3.82-7.65,9-8.49A31.75,31.75,0,0,1,198.33,151.52Z" style="fill:#fff"/><path d="M203.29,146.83h8.4c-.23,1.6-.44,3.08-.67,4.7l4.07.2c-.33,2.6-.65,5.07-1,7.72h-4.42c-.53,3.12-1.05,6.1-1.55,9.08-.26,1.57-.5,3.15-.76,4.72-.47,2.88.48,3.94,3.42,3.8l1.63-.14c-.3,2.18-.55,4.26-.9,6.32a1.36,1.36,0,0,1-.86.93c-2.48.29-5,.86-7.45.61-3-.3-4.78-2.71-4.65-6a95.66,95.66,0,0,1,1.22-11.06C200.87,160.75,202.1,153.84,203.29,146.83Z" style="fill:#fff"/><path d="M322.32,184.53h-8.81c1.79-11,3.57-21.85,5.36-32.83h8c-.18,1.3-.34,2.53-.56,4.17,2.3-2.54,4.23-5.22,8-4.62l-3.06,9.64c-2.84.09-4.07.74-4.89,3.82-1.18,4.41-1.95,8.93-2.85,13.42C323,180.26,322.68,182.42,322.32,184.53Z" style="fill:#fff"/><path d="M250.08,184.57h-8.8c.68-4.25,1.33-8.42,2-12.58,1-6.29,2.11-12.58,3.09-18.88.17-1.14.52-1.61,1.73-1.56,2.11.09,4.23,0,6.5,0-.2,1.45-.37,2.69-.59,4.32,2.3-2.57,4.25-5.24,8-4.64-1,3.25-2.06,6.44-3.08,9.66-2.77,0-4,.69-4.84,3.65-1.2,4.47-2,9.06-2.91,13.61C250.75,180.25,250.45,182.34,250.08,184.57Z" style="fill:#fff"/><path d="M104.11,190.19h1.48c-.33-.93-.72-1.82-1-2.77Z" style="fill:#fff"/><path d="M389.84,85.86h-306A19.8,19.8,0,0,0,64,105.65V308a19.8,19.8,0,0,0,19.79,19.78h306A19.8,19.8,0,0,0,409.62,308V105.63a19.8,19.8,0,0,0-19.78-19.77Zm-.52,221.6-305,.52-.51-201.84,305.51-.51Zm0,0" style="fill:#fff"/></svg>