<svg id="Capa_1" data-name="Capa 1" xmlns="http://www.w3.org/2000/svg" viewBox="0 0 500 500"><path d="M250,296.88A46.88,46.88,0,1,0,203.12,250,46.88,46.88,0,0,0,250,296.88Z" style="fill:none;stroke:#000;stroke-linecap:round;stroke-linejoin:round;stroke-width:16px"/><path d="M365.63,296.88a25.78,25.78,0,0,0,5.16,28.44l.94.93a31.27,31.27,0,1,1-44.22,44.23l-.95-.94A25.95,25.95,0,0,0,282.5,388v2.65a31.26,31.26,0,0,1-62.51,0v-1.4a26.81,26.81,0,0,0-45.31-18.44l-.94.94a31.27,31.27,0,0,1-34.08,6.78,31.28,31.28,0,0,1-10.14-51l.95-.93A26,26,0,0,0,112,282.5h-2.67a31.25,31.25,0,0,1,0-62.5h1.41a26.81,26.81,0,0,0,18.44-45.32l-.94-.93a31.27,31.27,0,1,1,44.22-44.23l.95.94a25.76,25.76,0,0,0,28.43,5.16h1.25A25.79,25.79,0,0,0,218.75,112v-2.65a31.25,31.25,0,1,1,62.5,0v1.4a26,26,0,0,0,44.07,18.44l.94-.94a31.27,31.27,0,0,1,34.08-6.78,31.28,31.28,0,0,1,10.14,51l-1,.93a25.8,25.8,0,0,0-5.15,28.44v1.25A25.79,25.79,0,0,0,388,218.75h2.67a31.25,31.25,0,0,1,0,62.5h-1.41a25.82,25.82,0,0,0-23.6,15.63Z" style="fill:none;stroke:#000;stroke-linecap:round;stroke-linejoin:round;stroke-width:16px"/></svg>