<svg id="Capa_1" data-name="Capa 1" xmlns="http://www.w3.org/2000/svg" viewBox="0 0 500 500"><path d="M412.73,227.9a31.23,31.23,0,0,0-22.09-9.15H388a25.79,25.79,0,0,1-23.59-15.63v-1.25a25.8,25.8,0,0,1,5.15-28.44l1-.93a31.27,31.27,0,0,0-34.08-51,31.08,31.08,0,0,0-10.14,6.78l-.94.94a26,26,0,0,1-44.07-18.44v-1.4a31.25,31.25,0,1,0-62.5,0V112a25.79,25.79,0,0,1-15.63,23.6h-1.25a25.76,25.76,0,0,1-28.43-5.16l-.95-.94a31.27,31.27,0,0,0-44.22,44.23l.94.93A26.81,26.81,0,0,1,110.77,220h-1.41a31.25,31.25,0,0,0,0,62.5H112a26,26,0,0,1,18.44,44.07l-.95.93a31.27,31.27,0,0,0,34.08,51,31.08,31.08,0,0,0,10.14-6.78l.94-.94A26.8,26.8,0,0,1,220,389.23v1.4a31.26,31.26,0,1,0,62.51,0V388a25.95,25.95,0,0,1,44.06-18.44l.95.94a31.27,31.27,0,0,0,44.22-44.23l-.94-.93a26,26,0,0,1,18.44-44.07h1.41a31.25,31.25,0,0,0,22.09-53.35ZM250,296.88A46.88,46.88,0,1,1,296.88,250,46.88,46.88,0,0,1,250,296.88Z" style="fill:#2188b5;stroke:#2188b5;stroke-linecap:round;stroke-linejoin:round;stroke-width:16px"/></svg>