<svg id="Capa_1" data-name="Capa 1" xmlns="http://www.w3.org/2000/svg" viewBox="0 0 500 500"><path d="M209.71,303h26V254.47h-26Zm22.92-21.82q-2,3.25-3.07,5.46c-.71,1.47-1.31,2.79-1.81,4a36.65,36.65,0,0,0-1.27,3.46,31.58,31.58,0,0,0-.83,3.39,19.14,19.14,0,0,0-.31,3.3h-8.85a16.58,16.58,0,0,1,.74-4.89,30,30,0,0,1,1.86-4.79q1.13-2.33,2.48-4.58c.91-1.5,1.79-2.84,2.65-4h-4.67v2.87H213v-8.94h19.64ZM212.1,262.35c.63,0,1.54-.15,2.63-.21,2.19-.15,5.1-.24,8-.25s5.82.1,8,.25c1.09.06,2,.17,2.64.21s1,.12,1,.12-.36,0-1,.11-1.55.15-2.64.21c-2.18.15-5.09.24-8,.25s-5.81-.1-8-.25c-1.09-.06-2-.16-2.63-.21s-1-.11-1-.11Z" fill="#fff"/><path d="M243,303h26V254.47H243Zm3.24-46.62h19.64v4.76q-2,3.26-3.06,5.46c-.71,1.47-1.32,2.79-1.82,4a34.67,34.67,0,0,0-1.26,3.45,29.53,29.53,0,0,0-.83,3.4,18,18,0,0,0-.31,3.3h-8.86a17,17,0,0,1,.74-4.9,32.37,32.37,0,0,1,1.86-4.78c.75-1.56,1.58-3.08,2.49-4.59s1.78-2.83,2.64-4h-4.66v2.88h-6.57Zm-.86,40.23c.64,0,1.55-.15,2.64-.22,2.18-.14,5.09-.24,8-.24s5.82.1,8,.24c1.09.07,2,.17,2.63.22s1,.11,1,.11-.36.05-1,.11-1.54.16-2.63.22c-2.18.14-5.09.24-8,.24s-5.82-.1-8-.24c-1.09-.07-2-.17-2.64-.22l-1-.11Z" fill="#fff"/><path d="M176.46,303h26V254.47h-26Zm2.38-47c.64-.05,1.55-.15,2.64-.21,2.18-.15,5.09-.24,8-.25s5.82.1,8,.25c1.09.06,2,.16,2.63.21s1,.11,1,.11-.36.06-1,.12-1.54.15-2.63.21c-2.18.15-5.09.24-8,.25s-5.82-.1-8-.25c-1.09-.06-2-.17-2.64-.21l-1-.12Zm7.49,14.25v2.87h-6.57v-8.94H199.4V269q-2,3.25-3.06,5.46c-.71,1.47-1.31,2.79-1.81,4a31.82,31.82,0,0,0-1.27,3.46,28.88,28.88,0,0,0-.83,3.39,18.19,18.19,0,0,0-.31,3.3h-8.85a16.9,16.9,0,0,1,.73-4.89,32.06,32.06,0,0,1,1.86-4.79q1.13-2.32,2.49-4.58c.9-1.5,1.79-2.84,2.64-4Zm-7.49,28.62c.64-.05,1.55-.15,2.64-.22,2.18-.14,5.09-.24,8-.24s5.82.1,8,.24c1.09.07,2,.17,2.63.22s1,.11,1,.11-.36.05-1,.11-1.54.16-2.63.22c-2.18.15-5.09.24-8,.24s-5.82-.1-8-.24c-1.09-.07-2-.17-2.64-.22l-1-.11Z" fill="#fff"/><path d="M305.89,384.68V328.74H170.7v55.94ZM175.57,332.75H301l-59.75,22.83,8.66,0,10.73.09c7,.08,13.46.21,19,.35s10.2.34,13.45.44,5.11.22,5.11.22-1.86.1-5.11.23-7.89.3-13.45.43-12.07.27-19,.35l-10.73.1-11.08,0-11.08,0-10.73-.1-6.45-.09-3.59.1c-3.19.07-6.2.18-9,.29-11.14.41-18.56,1-18.56,1s7.42.58,18.56,1c2.79.1,5.8.22,9,.29s6.56.19,10,.23,7.07.14,10.73.15H228l-52.38,20Z" fill="#fff"/><path d="M277.05,310.86V246.64H167.67v64.22H277.05ZM170.52,254.47v-5.54H274.76v59.64H170.52v-54.1Z" fill="#fff"/><path d="M175.74,225.09H300.85v-41H175.74Zm4-37.18h117v33.38h-117Z" fill="#fff"/><path d="M247.2,202.7c3.14,0,6.22.07,9.2.09,6,.08,11.54.21,16.32.36s8.75.33,11.53.43,4.38.22,4.38.22-1.59.1-4.38.23-6.76.3-11.53.43-10.35.27-16.32.35c-3,0-6.06.1-9.2.1l-9.5,0-9.5,0-9.2-.1c-4.1-.06-8-.13-11.6-.22l-4.71.2c-9.55.4-15.91,1-15.91,1s6.36.57,15.91,1c2.39.11,5,.22,7.71.3s5.62.19,8.6.23c2.72,0,5.53.12,8.38.14l-44.67,11.51H293.87V190.28l-48.16,12.41Z" fill="#fff"/><path d="M188.83,252.35c4.61.14,10,.27,15.75.35l8.88.1,9.17,0,9.17,0c3,0,6-.07,8.89-.1,5.76-.08,11.14-.2,15.75-.35s8.45-.34,11.14-.44,4.22-.22,4.22-.22-1.53-.1-4.22-.22-6.53-.31-11.14-.44-10-.27-15.75-.35c-2.88,0-5.86-.09-8.89-.09l-9.17,0-9.17,0-8.88.1c-5.76.08-11.14.2-15.75.35s-8.45.33-11.14.43-4.22.22-4.22.22,1.53.1,4.22.22S184.22,252.22,188.83,252.35Z" fill="#fff"/><path d="M188.83,306.47c4.61.15,10,.27,15.75.35l8.88.1,9.17,0,9.17,0c3,0,6-.07,8.89-.1,5.76-.08,11.14-.2,15.75-.35s8.45-.34,11.14-.43,4.22-.23,4.22-.23-1.53-.1-4.22-.22-6.53-.31-11.14-.43-10-.28-15.75-.36c-2.88,0-5.86-.09-8.89-.09l-9.17,0-9.17,0-8.88.1c-5.76.08-11.14.2-15.75.35s-8.45.33-11.14.43-4.22.22-4.22.22,1.53.1,4.22.23S184.22,306.34,188.83,306.47Z" fill="#fff"/><path d="M304.65,250.68c-1.43-.09-3-.13-4.49-.13s-3.06,0-4.5.14-2.77.2-3.92.35a34,34,0,0,0-3.83.65,35.19,35.19,0,0,0,3.83.66c1.15.14,2.49.27,3.92.35s3,.14,4.5.14,3.06-.05,4.49-.14,2.78-.2,3.93-.35a32.46,32.46,0,0,0,3.82-.66,35.25,35.25,0,0,0-3.82-.66C307.43,250.89,306.09,250.76,304.65,250.68Z" fill="#fff"/><path d="M295.66,266.23c1.44.08,3,.14,4.5.14s3.06-.05,4.49-.14,2.78-.2,3.93-.35a32.46,32.46,0,0,0,3.82-.66,35.25,35.25,0,0,0-3.82-.66c-1.15-.14-2.49-.27-3.93-.35s-3-.13-4.49-.13-3.06.05-4.5.14-2.77.2-3.92.35a34,34,0,0,0-3.83.65,32.42,32.42,0,0,0,3.83.66C292.89,266,294.23,266.15,295.66,266.23Z" fill="#fff"/><path d="M295.66,279.76c1.44.09,3,.14,4.5.14s3.06,0,4.49-.14,2.78-.2,3.93-.35a32.46,32.46,0,0,0,3.82-.66,35.25,35.25,0,0,0-3.82-.66c-1.15-.14-2.49-.27-3.93-.35s-3-.13-4.49-.13-3.06.05-4.5.14-2.77.2-3.92.35a34,34,0,0,0-3.83.65,32.42,32.42,0,0,0,3.83.66C292.89,279.55,294.23,279.68,295.66,279.76Z" fill="#fff"/><path d="M295.66,293.29c1.44.09,3,.14,4.5.14s3.06-.05,4.49-.14,2.78-.2,3.93-.35a32.46,32.46,0,0,0,3.82-.66,34,34,0,0,0-3.82-.65c-1.15-.15-2.49-.28-3.93-.36s-3-.13-4.49-.13-3.06.05-4.5.14-2.77.2-3.92.35a34,34,0,0,0-3.83.65,32.42,32.42,0,0,0,3.83.66C292.89,293.09,294.23,293.21,295.66,293.29Z" fill="#fff"/><path d="M295.66,306.82c1.44.09,3,.14,4.5.14s3.06,0,4.49-.14,2.78-.2,3.93-.35a32.46,32.46,0,0,0,3.82-.66,34,34,0,0,0-3.82-.65c-1.15-.15-2.49-.28-3.93-.36s-3-.13-4.49-.13-3.06.05-4.5.14-2.77.2-3.92.35a34,34,0,0,0-3.83.65,32.42,32.42,0,0,0,3.83.66C292.89,306.62,294.23,306.74,295.66,306.82Z" fill="#fff"/><path d="M350,211.64A9.09,9.09,0,0,0,346.11,229l-6.57,51.83-.37,0h-3.5v-83c0-36.28-7.66-64.62-22.78-84.22-16.51-21.41-41.6-32.26-74.6-32.26s-58.09,10.85-74.6,32.26c-15.12,19.6-22.78,47.94-22.78,84.22V413a5.72,5.72,0,0,0,5.73,5.73h183.3a5.72,5.72,0,0,0,5.73-5.73V305.81h3.5a8.53,8.53,0,0,0,8.53-8.53v-8a8.51,8.51,0,0,0-2.68-6.2l6.77-53.44a9.09,9.09,0,0,0-1.8-18ZM316.77,238c-6.55.17-13.1.28-19.66.39s-13.1.22-19.65.28l-19.66.2q-9.83.14-19.65.14l-39.31.13-38.3-.11c0,6.36,0,12.73-.11,19.1l-.22,20.12q-.09,10.05-.28,20.12c-.12,6.7-.23,13.41-.4,20.12-.18-6.71-.29-13.42-.41-20.12s-.22-13.42-.28-20.12l-.22-20.12c-.09-6.71-.08-13.42-.11-20.13v-1h1l39.31-.12,39.31.13q9.82,0,19.65.14l19.66.2c6.55.05,13.1.16,19.65.28S310.22,237.88,316.77,238Zm-99.62,80.27c2.84-.1,6.91-.31,11.79-.44s10.57-.27,16.67-.35l9.4-.1,9.71,0,9.71,0c3.2,0,6.35.07,9.4.1,6.1.08,11.79.2,16.67.35s8.95.34,11.8.43,4.47.23,4.47.23-1.63.1-4.47.22-6.92.31-11.8.44-10.57.27-16.67.35c-3.05,0-6.2.09-9.4.09l-9.71,0-9.71,0-9.4-.1c-6.1-.08-11.79-.2-16.67-.35s-8.95-.33-11.79-.43-4.48-.22-4.48-.22S214.3,318.43,217.15,318.31ZM170,312.58h-4V244.92H278.77v67.66H170Zm143.66-50.11V268H286.7v-5.51Zm-26.92-8v-5.52h26.92v5.52ZM313.62,276v5.51H286.7V276Zm0,13.53V295H286.7v-5.51Zm0,13.53v5.51H286.7v-5.51ZM321,323.85v68.78H155.57V323.85ZM181.42,397.46c3.88-.11,8.08-.23,12.52-.3s9.13-.19,14-.23,9.85-.14,14.94-.15l15.43-.06,15.43.06c5.09,0,10.1.1,14.94.14,9.7.12,18.74.31,26.5.53,15.51.41,25.85,1,25.85,1s-10.34.58-25.85,1c-7.76.23-16.8.41-26.5.53-4.84,0-9.85.15-14.94.15l-15.43.06-15.43-.06c-5.09,0-10.09-.11-14.94-.15s-9.53-.15-14-.23-8.64-.19-12.52-.3c-15.51-.41-25.85-1-25.85-1S165.91,397.86,181.42,397.46ZM173.47,405c3.87-.1,9.42-.3,16.06-.43s14.41-.27,22.72-.35l12.81-.1,13.23,0,13.23,0,12.81.1c8.31.08,16.07.2,22.72.35s12.19.33,16.07.43l6.09.22-6.09.23c-3.88.1-9.42.3-16.07.43s-14.41.27-22.72.35l-12.81.1-13.23,0-13.23,0-12.81-.1c-8.31-.08-16.07-.2-22.72-.35s-12.19-.34-16.06-.43l-6.1-.23ZM321,232.44h-1.49l-2.75-37.17L314,232.44H162.27l-2.74-37.17-2.75,37.17h-1.21V207.32A177.3,177.3,0,0,1,158.3,175c10.19-33.1,39.68-63.42,80-63.42,48.16,0,66.56,27.61,68.1,30.08,10,16.8,14.62,39.14,14.62,65.65ZM146.64,197.76c0-67.59,27-110.75,91.65-110.75a81.45,81.45,0,0,1,61.58,28.13c-.37-.32-1.83-1.56-4.21-3.49-1.36-1.17-3.15-2.39-5.19-3.83s-4.45-2.9-7.1-4.49c-1.31-.8-2.77-1.48-4.24-2.27l-2.26-1.16-2.41-1A85.18,85.18,0,0,0,264,95a87.19,87.19,0,0,0-11.7-2.67c-2-.3-4.06-.62-6.14-.74-1-.07-2.07-.17-3.1-.23l-3.13-.07c-2.08-.09-4.16.08-6.23.14-1,0-2.06.17-3.09.25s-2.05.17-3.06.34c-2,.3-4,.57-6,1-1,.21-2,.38-2.92.62l-2.85.73c-1.88.49-3.7,1.06-5.47,1.65s-3.49,1.23-5.12,1.92a89.07,89.07,0,0,0-9,4.23,85.45,85.45,0,0,0-12.45,8.1c-1.41,1.09-2.46,2-3.17,2.67-.37.32-.61.56-.79.74l-.28.26,1.24-.78c.8-.51,2-1.21,3.54-2.08s3.45-1.86,5.63-3,4.72-2.23,7.49-3.39,5.82-2.29,9.08-3.33,6.75-2,10.37-2.82a105.92,105.92,0,0,1,11.29-1.83c1.94-.21,3.9-.34,5.86-.46s3.93-.19,5.91-.09l2.95,0c1,0,2,.14,2.95.2s2,.11,2.93.24l2.91.36a101.85,101.85,0,0,1,11.23,2.13c3.59,1,7.06,1.93,10.27,3.12l2.39.84,2.28.94c1.49.62,3,1.14,4.32,1.79,2.7,1.32,5.27,2.39,7.41,3.59s4.11,2.09,5.61,3c2.84,1.65,4.57,2.61,4.81,2.74,9.39,10.92,16.56,25.14,20,42.86A88.82,88.82,0,0,0,306.06,131c-15-19.46-37.81-29.33-67.77-29.33s-52.76,9.87-67.77,29.33c-13.72,17.79-20.67,43.48-20.67,76.35V387.94c-1.64-5.38-3.21-14-3.21-27.17ZM344.86,217c-.28.31-.49.67-.73,1s-.44.67-.59,1a10.19,10.19,0,0,0-.45,1,12.59,12.59,0,0,0-.57,1.56c-.12.4-.2.63-.2.63s-.06-.24-.14-.65a3.22,3.22,0,0,1-.08-.76,5,5,0,0,1,0-1,5.27,5.27,0,0,1,.22-1.19,8.84,8.84,0,0,1,.44-1.28,8.62,8.62,0,0,1,.74-1.26,9.44,9.44,0,0,1,1-1.16,8.77,8.77,0,0,1,1.17-1,8.62,8.62,0,0,1,1.26-.74,8.84,8.84,0,0,1,1.28-.44,5.29,5.29,0,0,1,1.18-.22,5,5,0,0,1,1,0,3.44,3.44,0,0,1,.77.08c.42.08.65.14.65.14l-.63.2a13.88,13.88,0,0,0-1.56.57,8.31,8.31,0,0,0-1,.46c-.34.15-.66.39-1,.58s-.68.46-1,.73a10.34,10.34,0,0,0-1.79,1.79Zm2.69,15.85c-.13,1.36-.26,3.3-.5,5.61s-.48,5-.81,7.92-.7,6-1.08,9-.79,6.16-1.2,9-.84,5.57-1.18,7.87-.7,4.22-.91,5.56-.38,2.1-.38,2.1.06-.77.16-2.13.25-3.29.49-5.61.49-5,.82-7.91.69-6,1.07-9.06.79-6.16,1.21-9,.83-5.57,1.17-7.87.7-4.21.91-5.56.38-2.1.38-2.1S347.65,231.52,347.55,232.87Z" fill="#fff"/><path d="M305.82,167.26A76.58,76.58,0,0,0,298.43,149a68.92,68.92,0,0,0-6.22-9,57.79,57.79,0,0,0-18.32-14.38c-.9-.43-1.79-.92-2.73-1.31l-2.8-1.18c-1.91-.67-3.83-1.4-5.8-1.91a74.41,74.41,0,0,0-12-2.42l-3.06-.35-3.11-.21c-2.15-.17-3.92-.13-6.08-.2a92,92,0,0,0-24.26,3.2c-2,.51-3.89,1.22-5.8,1.9l-2.81,1.18c-.93.39-1.82.88-2.73,1.31A57.52,57.52,0,0,0,184.38,140a68.83,68.83,0,0,0-6.22,9,77,77,0,0,0-7.39,18.27,103.12,103.12,0,0,0-2.91,16.2c-.49,4.85-.64,9.09-.65,12.58s.08,6.22.18,8.07.16,2.85.16,2.85l.23-2.84c.12-1.86.41-4.57.78-8s1-7.58,1.89-12.28a121.29,121.29,0,0,1,4.08-15.43,81.81,81.81,0,0,1,8-16.76,62.9,62.9,0,0,1,6.1-7.92,59.86,59.86,0,0,1,7.68-6.92,57.73,57.73,0,0,1,19.5-9.18,84.7,84.7,0,0,1,22.48-2.72c1.8.07,4,0,5.79.17l2.81.18,2.83.3c.94.09,1.88.22,2.81.39s1.86.27,2.79.44c1.83.39,3.67.74,5.45,1.26a57.5,57.5,0,0,1,19.5,9.16,60.61,60.61,0,0,1,7.68,6.93,64.74,64.74,0,0,1,6.1,7.91,81.75,81.75,0,0,1,8,16.76,123.14,123.14,0,0,1,4.09,15.43c.86,4.7,1.5,8.85,1.89,12.28s.66,6.14.78,8L309,207l.16-2.85c.11-1.86.22-4.59.19-8.07s-.16-7.73-.65-12.58A102.92,102.92,0,0,0,305.82,167.26Z" fill="#fff"/><path d="M253.26,145.93a15,15,0,1,0-15,15A15,15,0,0,0,253.26,145.93Zm-25,0a10,10,0,1,1,10,10A10.06,10.06,0,0,1,228.25,145.93Z" fill="#fff"/><path d="M282.46,151.38a9.52,9.52,0,1,0-9.52,9.52A9.51,9.51,0,0,0,282.46,151.38Zm-15.9,0a6.39,6.39,0,1,1,6.38,6.39A6.38,6.38,0,0,1,266.56,151.38Z" fill="#fff"/><path d="M213.16,151.38a9.52,9.52,0,1,0-9.52,9.52A9.51,9.51,0,0,0,213.16,151.38Zm-15.9,0a6.38,6.38,0,1,1,6.38,6.39A6.38,6.38,0,0,1,197.26,151.38Z" fill="#fff"/><path d="M246.8,145.93c0-4.7-3.81,0-8.51,0s-8.51-4.7-8.51,0a8.51,8.51,0,1,0,17,0Z" fill="#fff"/><path d="M278.59,151.24c0-3.12-2.53,0-5.65,0s-5.64-3.12-5.64,0a5.65,5.65,0,1,0,11.29,0Z" fill="#fff"/><path d="M209.29,151.24c0-3.12-2.53,0-5.65,0s-5.65-3.12-5.65,0a5.65,5.65,0,1,0,11.3,0Z" fill="#fff"/><path d="M262.64,227.08c-4.07,0-8.27-.15-12.53-.15l-12.94-.05-12.93.06c-4.27,0-8.46.1-12.53.14s-8,.15-11.71.23-7.25.19-10.5.3c-13,.41-21.67,1-21.67,1s8.67.58,21.67,1c3.25.1,6.77.22,10.5.29s7.65.19,11.71.23,8.26.14,12.53.15l12.93.06,12.94-.06c4.26,0,8.46-.1,12.53-.14,8.12-.12,15.71-.31,22.21-.53,13-.41,21.67-1,21.67-1s-8.67-.58-21.67-1C278.35,227.38,270.76,227.2,262.64,227.08Z" fill="#fff"/><path d="M196.3,180c2.79.11,5.81.23,9,.3s6.56.19,10,.23,7.09.14,10.75.15l11.08.06,11.09-.06c3.66,0,7.26-.1,10.74-.14,7-.12,13.47-.31,19.05-.53,11.14-.41,18.58-1,18.58-1s-7.44-.58-18.58-1c-5.58-.23-12.08-.41-19.05-.53-3.48,0-7.08-.15-10.74-.15l-11.09,0-11.08.06c-3.66,0-7.26.1-10.75.14s-6.85.15-10,.23-6.21.19-9,.3c-11.15.41-18.58,1-18.58,1S185.15,179.62,196.3,180Z" fill="#fff"/><path d="M203.88,170.67c2.27.11,4.73.22,7.33.29s5.35.19,8.18.24,5.77.14,8.75.14l9,.06,9-.05c3,0,5.91-.11,8.74-.15,5.68-.12,11-.3,15.52-.53,9.07-.41,15.13-1,15.13-1s-6.06-.58-15.13-1c-4.54-.22-9.84-.41-15.52-.53-2.83,0-5.76-.14-8.74-.14l-9-.06-9,.06c-3,0-5.91.1-8.75.15s-5.58.14-8.18.23-5.06.19-7.33.29c-9.08.41-15.13,1-15.13,1S194.8,170.26,203.88,170.67Z" fill="#fff"/></svg>