<svg id="Capa_1" data-name="Capa 1" xmlns="http://www.w3.org/2000/svg" viewBox="0 0 473.65 413.65"><path d="M389.84,85.86h-306A19.8,19.8,0,0,0,64,105.65V308a19.8,19.8,0,0,0,19.79,19.78h306A19.8,19.8,0,0,0,409.62,308V105.63a19.8,19.8,0,0,0-19.78-19.77Zm-.52,221.6-305,.52-.51-201.84,305.51-.51Zm0,0" style="fill:#fff"/><path d="M141.49,184.7l8.12,58.15h19.93l37.17-72h-21L170,204.24c-2.23,4.74-4.16,9-5.84,13-.3-4.1-.64-8.08-1-12.15l-3.19-34.19H128l33.13,26.21Zm0,0" style="fill:#fff"/><path d="M221,242.87l13.65-72H215.92l-13.67,72Zm0,0" style="fill:#fff"/><path d="M232,238.62c4.38,3.29,12.11,5.25,20.67,5.25,17.74,0,29.65-10,29.65-24.93,0-8.15-4.76-14.62-14.53-19.73-5.47-3.07-8.79-5.13-8.79-7.73,0-2.43,2.55-5,8.59-5a25,25,0,0,1,11.24,2.76l2.13,1.17,6-16-1.57-.87c-4.49-2.49-10.06-3.68-17-3.68-17,0-28.84,9.92-28.84,24.13,0,10.3,8.1,16,15.22,19.86,6.68,3.48,8,5.46,8,7.7,0,4.32-4.66,5.86-8.66,5.86a29.72,29.72,0,0,1-14.92-4l-2.11-1.24-6.34,15.62Zm0,0" style="fill:#fff"/><path d="M300.42,242.87l8.05-17.6h16.24l1.42,17.6h19.48l-8.44-72H315.38l-35,72ZM320,198.38c.75-1.62,1.51-3.47,2.28-5.38.13,1.71.26,3.31.35,4.69l1.1,12.31h-9.11Zm0,0" style="fill:#fff"/></svg>