<svg id="Capa_1" data-name="Capa 1" xmlns="http://www.w3.org/2000/svg" viewBox="0 0 500 500"><defs><style>.cls-1{fill:#fff;}.cls-2{fill:none;stroke:#fff;stroke-miterlimit:10;stroke-width:21px;}</style></defs><path class="cls-1" d="M120.22,219.88l11.05,79.17h27.14L209,201H180.49L159,246.48c-3,6.46-5.68,12.3-7.95,17.65-.42-5.58-.88-11-1.43-16.54L145.29,201H101.91L147,236.72Zm0,0"/><path class="cls-1" d="M228.48,299.08l18.59-98H221.54l-18.6,98Zm0,0"/><path class="cls-1" d="M243.44,293.29c6,4.47,16.5,7.14,28.15,7.14,24.14,0,40.36-13.65,40.36-33.93,0-11.1-6.47-19.9-19.78-26.86-7.44-4.18-12-7-12-10.53,0-3.3,3.47-6.87,11.7-6.87A33.91,33.91,0,0,1,307.2,226l2.89,1.59,8.16-21.83-2.14-1.19c-6.11-3.38-13.69-5-23.18-5-23.11,0-39.26,13.51-39.26,32.85,0,14,11,21.81,20.72,27,9.1,4.74,10.89,7.43,10.89,10.48,0,5.88-6.34,8-11.79,8a40.4,40.4,0,0,1-20.31-5.49l-2.87-1.7L241.67,292Zm0,0"/><path class="cls-1" d="M336.58,299.08l11-24h22.11l1.93,24h26.51l-11.48-98H356.94l-47.7,98Zm26.66-60.57c1-2.2,2-4.73,3.1-7.33.18,2.32.35,4.5.48,6.39l1.49,16.75h-12.4Zm0,0"/><rect class="cls-2" x="19.82" y="89.04" width="460.36" height="321.91" rx="31.45"/></svg>