<svg id="Capa_1" data-name="Capa 1" xmlns="http://www.w3.org/2000/svg" viewBox="0 0 500 500"><path d="M117.4,146.87c69.65-31.35,121.29-65.12,191.76-95.65a17.11,17.11,0,0,1,20.4,5.26L374.79,143" style="fill:none;stroke:#2188b5;stroke-linecap:round;stroke-linejoin:round;stroke-width:16px"/><line x1="199.98" y1="147.11" x2="336.96" y2="76.45" style="fill:none;stroke:#2188b5;stroke-linecap:round;stroke-linejoin:round;stroke-width:16px"/><path d="M395.45,148.75H94.2a23.38,23.38,0,0,0-23.38,23.38V383.89A23.37,23.37,0,0,0,94.2,407.26H395.45a23.37,23.37,0,0,0,23.37-23.37V172.13A23.37,23.37,0,0,0,395.45,148.75Zm23.37,176.86h-83.4a49.69,49.69,0,0,1-49.68-49.69h0a49.68,49.68,0,0,1,49.68-49.69h83.4Z" style="fill:#2188b5;stroke:#2188b5;stroke-miterlimit:10;stroke-width:16px"/><path d="M326.42,255.13c-14.14,0-24.54,16.4-13.16,31.17,14.77,11.37,31.17,1,31.17-13.16A18,18,0,0,0,326.42,255.13Z" style="fill:#2188b5"/></svg>