<svg id="Capa_1" data-name="Capa 1" xmlns="http://www.w3.org/2000/svg" viewBox="0 0 500 500"><path d="M409.87,156.28C394,81.16,333.37,28.23,259.74,24,189.49,19.92,125.31,59.51,98.68,127.22c-16.16,41.08-15.18,82.06,2.09,122.52s47.16,68.86,87.23,86.9c-12.81.39-25.35.5-37.88.33-4.7-.06-8.87.54-11,5.31s-1,9.11,2.46,13.17q50.24,58.05,100.32,116.22c5.31,6.14,10.66,6.22,16,0q50.48-58.23,100.85-116.57c3.32-3.83,4.3-7.95,2.23-12.65s-6.13-5.54-10.86-5.49c-12.81.16-25.63.06-39.84.06C386.41,305.48,424.12,223.75,409.87,156.28ZM400,152.06c2.19,11.33,3.85,22.71,3.69,32.77a165.75,165.75,0,0,1-4.59,38.68c-.69,3-1.49,3.86-4.76,2.65-10.78-4-21.69-7.59-32.61-11.19-2.76-.91-3.56-1.92-2.73-5.07a88.92,88.92,0,0,0,.07-45.38c-.92-3.56.19-4.47,3-5.42,10.53-3.52,21.14-6.84,31.46-10.89C398.29,146.35,399.27,148.2,400,152.06ZM278.72,74.81c2.23-11.6,4.56-23.48,6.77-35.38.43-2.32,1.37-3,3.66-2.33,24.83,6.78,46.69,18.7,64.78,37.21,1.77,1.8,1.7,2.85-.3,4.54q-13.44,11.36-26.56,23.06c-2.23,2-3.54,2.23-5.79,0a90.69,90.69,0,0,0-39.74-23C279.4,78.28,277.59,77.9,278.72,74.81Zm-135.45.41c17.78-17.14,38.29-29.43,62.16-36.06,4-1.13,5.32-.28,6,4,1.72,11,4,21.88,6.26,32.75.53,2.53.69,4-2.28,4.74-16.71,4.4-30.83,13.27-43,25.52-9.74-8.49-19.26-16.93-29-25.12C140.8,78.8,140.79,77.61,143.27,75.22Zm-42.85,146.7a133.15,133.15,0,0,1-4.16-35.47,139.73,139.73,0,0,1,4.29-37.18c.7-2.82,1.47-3.82,4.69-2.63,11.15,4.13,22.42,7.94,33.71,11.7,2.36.79,3,1.5,2.28,4.16a92.43,92.43,0,0,0-.07,46.63c.63,2.45.48,3.49-2,4.32-11.47,3.84-23,7.68-34.3,11.85C100.94,226.75,100.93,224,100.42,221.92Zm42.25,73.64c-2.55-2.52-2.23-3.82.35-6q13-10.95,25.68-22.34c2.5-2.25,3.88-2,6.23.27A86.36,86.36,0,0,0,196.7,283a4.41,4.41,0,0,1,2.85,4.58c-.08,13.93,0,27.86,0,42.44A140.17,140.17,0,0,1,142.67,295.56ZM348,345.46c1.81,0,4.32-1.17,5.35,1.2.85,2-1.27,3.16-2.38,4.45q-48.81,56.53-97.59,113.09c-3,3.43-4.28,3-6.93-.11q-48.25-56.23-96.68-112.32c-1.31-1.53-4.07-2.9-2.79-5.39,1.05-2.05,3.6-.92,5.45-.93,16.55-.08,33.1-.2,49.64.05,4.42.07,6-.74,6-5.68-.3-23.72-.13-47.45-.13-71.18,0-23.92.11-47.85-.1-71.77,0-4.62,1-6.16,5.93-6.11q36.48.41,73,0c5.09-.06,5.83,1.78,5.81,6.22-.13,47.45,0,94.9-.2,142.36,0,4.84.92,6.33,6.05,6.21C314.89,345.16,331.44,345.36,348,345.46ZM300.8,330.15c0-14.73.07-28.67-.06-42.61,0-2.62,1-3.91,3.16-5.05A86.87,86.87,0,0,0,324,267.59c1.21-1.18,2.07-2.77,4.25-.83,9.95,8.87,20.06,17.56,30.18,26.37A137.06,137.06,0,0,1,300.8,330.15Zm29.42-73c-3.32-3-5.33-3.8-8.62.43-5.34,6.88-12.35,12.06-20.8,16.87v-6.76q0-36.18,0-72.35c0-9.75-3.12-12.82-12.83-12.82H212c-9.19,0-12.48,3.28-12.5,12.61,0,26.3,0,52.59,0,79.51a66.61,66.61,0,0,1-23.09-18c-3.34-3.93-5.13-3-8.25-.23-10.08,9-20.47,17.73-30.52,26.8-3,2.69-4.66,3-7.39-.44a165.12,165.12,0,0,1-24.88-43.91c-1.29-3.39-.68-4.8,2.78-5.93,13.39-4.41,26.62-9.29,40.05-13.52,4-1.27,4.15-2.86,3-6.26a81.41,81.41,0,0,1,.1-54.43c1.23-3.53.86-4.94-3-6.18-13.23-4.22-26.27-9-39.45-13.42-3.62-1.21-5-2.2-3.28-6.56A168.1,168.1,0,0,1,131,88.24c2.56-3.23,4-3.64,7.23-.72,10.15,9.25,20.71,18,30.94,27.23,2.84,2.54,4.44,3.2,7.37-.2C189,100,205,91.08,223.69,87.33c4.21-.85,4.47-2.27,3.72-5.88-2.88-14-5.31-28.14-8.27-42.14-.66-3.15-.21-4.27,2.91-4.78,17.22-2.79,34.42-3.39,51.72-.58,3.46.56,4,1.67,3.37,4.88-2.76,13.44-5.09,27-8,40.39-.86,4-.25,5.66,3.86,6.46A81.75,81.75,0,0,1,320.09,113c2.7,3.11,4.17,2.76,7,.25,10.82-9.69,22-19,32.82-28.7,2.48-2.2,3.65-2.38,6,.34A155.33,155.33,0,0,1,394.63,134c1.1,3.06,1.91,5.49-2.63,5.72l-2.54,1c-12.75,4.44-25.48,8.93-38.27,13.26-2.7.92-3.66,1.72-2.54,4.93a82.86,82.86,0,0,1,.05,56.15c-1.25,3.54-.06,4.28,2.89,5.27,13,4.36,25.84,9.12,38.86,13.36,4,1.29,5.3,2.29,3.46,6.76a174.13,174.13,0,0,1-25.12,43.11c-2.76,3.42-4.18,4-7.65.81C351,275.07,340.44,266.31,330.22,257.14Z" style="stroke:#000;stroke-miterlimit:10;stroke-width:3px"/></svg>