<svg id="Capa_1" data-name="Capa 1" xmlns="http://www.w3.org/2000/svg" xmlns:xlink="http://www.w3.org/1999/xlink" viewBox="0 0 481.62 175.41"><defs><linearGradient id="Degradado_sin_nombre_5" x1="-0.31" y1="340.18" x2="-0.31" y2="86.13" gradientTransform="matrix(1, 0, 0, -1, 242.4, 297.16)" gradientUnits="userSpaceOnUse"><stop offset="0" stop-color="#2188b5"/><stop offset="0.47" stop-color="#14037d"/><stop offset="1" stop-color="#2188b5"/></linearGradient></defs><path d="M106.19,83.84H97.1L90.63,59.79,84.07,83.84H74.93L63.54,49.05H73l6.81,25.6,6.66-25.6h8.65l6.81,25.6,6.71-25.6h9ZM148.61,56H130.22v6.91h16.6v7h-16.6v7h18.94v7H121.37V49.05h27.24Zm15.67,20.43H179v7.4H155.43V49.05h8.85Zm35.84-27.69a20.35,20.35,0,0,1,14,5.87L209,60.68a12.22,12.22,0,0,0-4.07-3.28,9.88,9.88,0,0,0-4.68-1.24,9.13,9.13,0,0,0-6.9,2.93,9.89,9.89,0,0,0-2.79,7.16,10.2,10.2,0,0,0,2.79,7.31,9.13,9.13,0,0,0,6.9,2.93,10.67,10.67,0,0,0,4.53-1.1,13.71,13.71,0,0,0,4.22-3l5.17,5.47a21.81,21.81,0,0,1-6.71,4.62,18.34,18.34,0,0,1-7.65,1.74,17.86,17.86,0,0,1-13.07-5.12,17.15,17.15,0,0,1-5.22-12.77,16.53,16.53,0,0,1,5.31-12.53A18.49,18.49,0,0,1,200.12,48.75Zm34.59,0a18.85,18.85,0,0,1,13.47,5.07,16.51,16.51,0,0,1,5.37,12.58,16.75,16.75,0,0,1-5.42,12.72,20.22,20.22,0,0,1-26.84,0,16.91,16.91,0,0,1-5.37-12.77,16.57,16.57,0,0,1,5.37-12.63A18.93,18.93,0,0,1,234.71,48.75Zm.1,7.41a9.34,9.34,0,0,0-7,3A10,10,0,0,0,225,66.45a10.35,10.35,0,0,0,2.88,7.4,9.45,9.45,0,0,0,7,3,8.94,8.94,0,0,0,6.81-3,10.44,10.44,0,0,0,2.84-7.4,10.11,10.11,0,0,0-2.84-7.31A8.93,8.93,0,0,0,234.81,56.16ZM297,83.84h-7.81l-.05-22.61-8.35,19.14H275l-8.35-19.14V83.84h-7.91V49h9.7l9.44,20.73L287.35,49H297ZM331.82,56H313.43v6.91H330v7h-16.6v7h18.93v7H304.58V49.05h27.24Zm45.53.15H366.86V83.84H358V56.16H347.63V49h29.72Zm19.07-7.41a18.85,18.85,0,0,1,13.47,5.07,16.53,16.53,0,0,1,5.36,12.58,16.78,16.78,0,0,1-5.41,12.72,20.22,20.22,0,0,1-26.84,0,16.91,16.91,0,0,1-5.37-12.77A16.57,16.57,0,0,1,383,53.77,18.9,18.9,0,0,1,396.42,48.75Zm.1,7.41a9.31,9.31,0,0,0-7,3,10,10,0,0,0-2.89,7.31,10.31,10.31,0,0,0,2.89,7.4,9.42,9.42,0,0,0,7,3,8.94,8.94,0,0,0,6.8-3,10.44,10.44,0,0,0,2.84-7.4,10.11,10.11,0,0,0-2.84-7.31A8.93,8.93,0,0,0,396.52,56.16Zm-350.2,61.7H61.08v7.41H37.47V90.47h8.85Zm28.38,7.41H65.85V90.47H74.7Zm26.68,0H92.23L78.71,90.47h9.45l8.89,25.6,8.9-25.6h9.1Zm26.49,0H119V90.47h8.85Zm39.65,0h-7.8l-16-21.43v21.43h-8.3V90.47h7.8l16.06,21.47V90.47h8.25Zm30.64-17.7h7.66v13.57a27,27,0,0,1-14.47,4.52,18.49,18.49,0,0,1-13.27-5.07,17,17,0,0,1-5.32-12.72,16.54,16.54,0,0,1,5.47-12.63A19.41,19.41,0,0,1,192,90.17a22.35,22.35,0,0,1,7.7,1.4,19.74,19.74,0,0,1,6.52,3.77l-5,6a14.29,14.29,0,0,0-4.38-2.74,12.76,12.76,0,0,0-4.92-1,9.72,9.72,0,0,0-7.21,3,10,10,0,0,0-2.88,7.31,10.17,10.17,0,0,0,2.93,7.41,9.82,9.82,0,0,0,7.26,3,14,14,0,0,0,6.16-1.69Zm65.63,17.7H254.7l-6.47-24.06-6.56,24.06h-9.14l-11.38-34.8h9.44l6.81,25.6,6.66-25.6h8.65l6.81,25.6,6.71-25.6h9Zm35.63-6.42H284.21l-2.54,6.42h-9.09l15-34.8h9.09l14.67,34.8H301.9Zm-2.59-6.71-5-12.87-5.07,12.87ZM324,117.86h14.76v7.41H315.12V90.47H324Zm28.38,0h14.76v7.41H343.5V90.47h8.85Zm46.77-20.43H380.73v6.91h16.6v7h-16.6v7h18.94v7H371.88V90.47h27.24Zm33.41.15H422v27.69H413.2V97.58H402.81V90.42h29.72Zm11.62,1.94-1.49,13.82h-5.17L436,99.52V90.67h8.15Zm-4.23,17.84a4,4,0,0,1,3,1.15,4,4,0,0,1,1.19,3,4.14,4.14,0,0,1-1.19,3,4.06,4.06,0,0,1-3,1.14,4.15,4.15,0,0,1-3-1.14,4.22,4.22,0,0,1-1.14-3,4,4,0,0,1,1.14-3A4.12,4.12,0,0,1,439.92,117.36Z" style="fill:#aff1ff"/><path d="M106.19,83.84V108.7a24.84,24.84,0,0,0,23.6-17.07Zm-9.09,0-24,6.45a24.86,24.86,0,0,0,24,18.41ZM90.63,59.79l24-6.45a24.85,24.85,0,0,0-48-.09ZM84.07,83.84V108.7a24.85,24.85,0,0,0,24-18.32Zm-9.14,0L51.31,91.57A24.85,24.85,0,0,0,74.93,108.7ZM63.54,49.05V24.2A24.85,24.85,0,0,0,39.92,56.78Zm9.45,0,24-6.39A24.87,24.87,0,0,0,73,24.2Zm6.81,25.6L55.78,81a24.85,24.85,0,0,0,48.07-.13Zm6.66-25.6V24.2a24.84,24.84,0,0,0-24,18.59Zm8.65,0,24-6.39a24.85,24.85,0,0,0-24-18.46Zm6.81,25.6L77.9,81A24.85,24.85,0,0,0,126,81Zm6.71-25.6V24.2a24.85,24.85,0,0,0-24,18.55Zm9,0,23.6,7.79a24.85,24.85,0,0,0-23.6-32.64ZM106.19,59H97.1V108.7h9.09ZM121.1,77.4l-6.46-24.06-48,12.89,6.46,24.06ZM66.66,53.25,60.1,77.31l47.95,13.07,6.56-24ZM84.07,59H74.93V108.7h9.14ZM98.55,76.12,87.16,41.32,39.92,56.78,51.31,91.57Zm-35-2.22H73V24.2H63.54ZM49,55.44,55.78,81l48-12.78L97,42.66Zm54.88,25.47,6.66-25.6L62.41,42.79l-6.66,25.6Zm-17.39-7h8.65V24.2H86.46ZM71.09,55.44,77.9,81l48-12.78-6.81-25.6ZM126,81l6.71-25.6L84.59,42.75l-6.71,25.6Zm-17.33-7h9V24.2h-9ZM94.07,41.26,82.59,76.06l47.2,15.57,11.48-34.79ZM148.61,56V80.86A24.84,24.84,0,0,0,173.46,56Zm-18.39,0V31.16A24.85,24.85,0,0,0,105.37,56Zm0,6.91H105.37a24.86,24.86,0,0,0,24.85,24.85Zm16.6,0h24.85a24.84,24.84,0,0,0-24.85-24.85Zm0,7V94.73a24.85,24.85,0,0,0,24.85-24.85Zm-16.6,0V45a24.86,24.86,0,0,0-24.85,24.86Zm0,7H105.37a24.86,24.86,0,0,0,24.85,24.85Zm18.94,0H174A24.86,24.86,0,0,0,149.16,52Zm0,7V108.7A24.86,24.86,0,0,0,174,83.84Zm-27.79,0H96.52a24.86,24.86,0,0,0,24.85,24.86Zm0-34.79V24.2A24.86,24.86,0,0,0,96.52,49.05Zm27.24,0h24.85A24.85,24.85,0,0,0,148.61,24.2Zm0-17.89H130.22v49.7h18.39ZM105.37,56v6.91h49.7V56Zm24.85,31.76h16.6V38.07h-16.6ZM122,62.92v7h49.7v-7ZM146.82,45h-16.6V94.73h16.6ZM105.37,69.88v7h49.7v-7Zm24.85,31.86h18.94V52H130.22Zm-5.91-24.85v7H174v-7ZM149.16,59H121.37V108.7h27.79Zm-2.93,24.85V49.05H96.52V83.84ZM121.37,73.9h27.24V24.2H121.37Zm2.39-24.85v7h49.7v-7Zm40.52,27.39H139.43a24.85,24.85,0,0,0,24.85,24.85Zm14.76,0h24.85A24.84,24.84,0,0,0,179,51.59Zm0,7.4V108.7a24.85,24.85,0,0,0,24.85-24.86Zm-23.61,0H130.58a24.86,24.86,0,0,0,24.85,24.86Zm0-34.79V24.2a24.86,24.86,0,0,0-24.85,24.85Zm8.85,0h24.85A24.85,24.85,0,0,0,164.28,24.2Zm0,52.24H179V51.59H164.28ZM154.19,76.44v7.4h49.7v-7.4ZM179,59H155.43V108.7H179Zm1.24,24.85V49.05h-49.7V83.84ZM155.43,73.9h8.85V24.2h-8.85Zm-16-24.85V76.44h49.7V49.05Zm68.29,1.29L198,73.2l.11,0Zm6.41,4.28,19,16a24.85,24.85,0,0,0-1.25-33.44ZM209,60.68,189.7,76.32a24.85,24.85,0,0,0,38.3.39Zm-4.07-3.28L193.27,79.34l.55.29Zm-11.58,1.69,17.87,17.26.15-.15Zm0,14.47,18-17.11h0Zm11.43,1.83L194.43,52.8l-.18.09Zm4.22-3,18.06-17.07a24.85,24.85,0,0,0-35.86-.27Zm5.17,5.47L231.91,95.3a24.85,24.85,0,0,0,.33-34.49Zm-6.71,4.62L197.3,59.83l-.11.05Zm-20.72-3.38,17.4-17.74h0Zm.09-25.3L203.9,71.9l.09-.09Zm13.28,19.79a6.38,6.38,0,0,1-1.25-.13,4.64,4.64,0,0,1-.9-.28l19.5-45.72a44.11,44.11,0,0,0-17.35-3.58Zm-2-.36A5.67,5.67,0,0,1,196.39,72l35.48-34.82a44.24,44.24,0,0,0-14.51-9.77Zm-2.94-34.66L190,44.65l38,32.06,5.12-6.06ZM228.33,45a37.21,37.21,0,0,0-12.28-9.87L193.82,79.63a12.48,12.48,0,0,1-4.12-3.31Zm-11.72-9.58a34.77,34.77,0,0,0-16.35-4.15V81a15,15,0,0,1-7-1.67Zm-16.35-4.15A34,34,0,0,0,175.33,42l36,34.22a15.5,15.5,0,0,1-5.19,3.57A15.32,15.32,0,0,1,200.26,81ZM175.48,41.83a34.72,34.72,0,0,0-9.76,24.42h49.7a14.19,14.19,0,0,1-1,5.08,14.89,14.89,0,0,1-3.2,5Zm-9.76,24.42a35,35,0,0,0,9.61,24.41l36-34.21a14.81,14.81,0,0,1,3.11,5,13.73,13.73,0,0,1,.93,4.83Zm9.61,24.41a33.93,33.93,0,0,0,24.93,10.68V51.64a15.32,15.32,0,0,1,5.93,1.24,15.5,15.5,0,0,1,5.19,3.57Zm24.93,10.68a35.42,35.42,0,0,0,15.06-3.44l-21.07-45a14.37,14.37,0,0,1,6-1.25ZM215.14,98a38.8,38.8,0,0,0,11.68-8.24L191.21,55.07a11,11,0,0,1,3.22-2.27ZM191,89.49,196.12,95l36.12-34.14-5.17-5.47Zm5.51-29A3.09,3.09,0,0,1,197,60a1.84,1.84,0,0,1,.31-.18l20.35,45.35a46.72,46.72,0,0,0,14.26-9.88Zm.73-.58a6.62,6.62,0,0,1,2.63-.49V109.1a43.29,43.29,0,0,0,17.94-4Zm2.63-.49a5.79,5.79,0,0,1,1.87.43,7.56,7.56,0,0,1,2.46,1.56L169.34,96.86a42.7,42.7,0,0,0,30.48,12.24Zm4.33,2A7.92,7.92,0,0,1,205.84,64a6.76,6.76,0,0,1,.54,2.38H156.67a42,42,0,0,0,12.67,30.51Zm2.23,5a7.52,7.52,0,0,1-.65,2.83,8.17,8.17,0,0,1-1.83,2.72L169.78,35.75a41.37,41.37,0,0,0-13.11,30.6ZM204,71.81a7.15,7.15,0,0,1-2.3,1.43,7.3,7.3,0,0,1-1.13.32,3,3,0,0,1-.44,0V23.9A43.31,43.31,0,0,0,169.7,35.83Zm44.19-18L231.12,71.89l.09.08Zm-.05,25.3L231.06,61.06l-.08.08Zm-26.84,0-17.15,18,.09.08Zm0-25.4-17-18.15h0Zm6.56,5.37,17.73,17.42.14-.15Zm0,14.71L209.84,91l.29.3Zm13.77,0-18.16-17h0Zm0-14.71-18.17,17,.3.31Zm-6.91,14.47a5,5,0,0,1-1.33-.33,6.76,6.76,0,0,1-2.26-1.39l34.13-36.14A43.7,43.7,0,0,0,234.71,23.9ZM231.21,72a8.12,8.12,0,0,1-1.86-2.74,7.56,7.56,0,0,1-.65-2.83h49.7a41.33,41.33,0,0,0-13.24-30.73ZM228.7,66.4a7.36,7.36,0,0,1,.63-2.75,7.82,7.82,0,0,1,1.73-2.59L265.2,97.19A41.65,41.65,0,0,0,278.4,66.4ZM231,61.14a6.84,6.84,0,0,1,2.26-1.4,4.67,4.67,0,0,1,1.47-.35V109.1a43.48,43.48,0,0,0,30.57-12Zm3.73-1.75a4.7,4.7,0,0,1,1.4.34,6.8,6.8,0,0,1,2.25,1.37L204.23,97.24a43.61,43.61,0,0,0,30.48,11.86Zm3.73,1.8a7.77,7.77,0,0,1,1.74,2.6,7.2,7.2,0,0,1,.6,2.61H191.07a41.77,41.77,0,0,0,13.07,30.76Zm2.34,5.21a7.57,7.57,0,0,1-.64,2.76,8.27,8.27,0,0,1-1.87,2.76l-34-36.3A41.39,41.39,0,0,0,191.07,66.4Zm-2.51,5.52A7,7,0,0,1,236,73.29a4.86,4.86,0,0,1-1.33.32V23.9a43.71,43.71,0,0,0-30.39,11.72Zm-3.46-40.61A34.13,34.13,0,0,0,210,41.87l35.73,34.54a15,15,0,0,1-4.9,3.34,15.29,15.29,0,0,1-6,1.26ZM210.13,41.72a34.85,34.85,0,0,0-10,24.73h49.7a14,14,0,0,1-1,5.11,15.11,15.11,0,0,1-3.23,5Zm-10,24.73A35.18,35.18,0,0,0,209.84,91l36-34.25a14.59,14.59,0,0,1,3,4.74,13.76,13.76,0,0,1,1,5Zm10,24.83a34.3,34.3,0,0,0,24.68,10.41V52a15.5,15.5,0,0,1,6,1.27,14.71,14.71,0,0,1,4.72,3.18Zm24.68,10.41a33.8,33.8,0,0,0,25-10.88L223.45,56.9a15.4,15.4,0,0,1,5.11-3.57A15.55,15.55,0,0,1,234.81,52Zm25-10.87a35.28,35.28,0,0,0,9.53-24.37H219.6a13.85,13.85,0,0,1,.93-4.84,14.65,14.65,0,0,1,2.93-4.72Zm9.53-24.37a35,35,0,0,0-9.81-24.58L223.75,76.41a15.27,15.27,0,0,1-3.18-5,13.88,13.88,0,0,1-1-5Zm-9.52-24.27a33.83,33.83,0,0,0-25-10.87V81a15.94,15.94,0,0,1-11.36-4.91ZM297,83.84V108.7a24.86,24.86,0,0,0,24.85-24.86Zm-7.81,0-24.85.06a24.86,24.86,0,0,0,24.85,24.8Zm-.05-22.61L314,61.17a24.85,24.85,0,0,0-47.63-9.88Zm-8.35,19.14v24.85a24.85,24.85,0,0,0,22.78-14.91Zm-5.76,0-22.78,9.94A24.86,24.86,0,0,0,275,105.22Zm-8.35-19.14,22.78-9.94a24.86,24.86,0,0,0-47.64,9.94Zm0,22.61V108.7a24.86,24.86,0,0,0,24.85-24.86Zm-7.91,0H233.92a24.86,24.86,0,0,0,24.85,24.86Zm0-34.84V24.15A24.86,24.86,0,0,0,233.92,49Zm9.7,0,22.61-10.3a24.86,24.86,0,0,0-22.61-14.55Zm9.44,20.73L255.29,80a24.86,24.86,0,0,0,45.24,0ZM287.35,49V24.15A24.86,24.86,0,0,0,264.74,38.7ZM297,49h24.85A24.86,24.86,0,0,0,297,24.15Zm0,10h-7.81V108.7H297Zm17.05,24.8L314,61.17l-49.71.11,0,22.62Zm-47.68-32.5L258,70.43l45.55,19.88,8.35-19.14Zm14.42,4.22H275v49.71h5.76Zm17,14.92-8.35-19.14L243.9,71.17l8.35,19.14Zm-56-9.2V83.84h49.71V61.23ZM266.68,59h-7.91V108.7h7.91Zm16.95,24.85V49H233.92V83.84Zm-24.86-10h9.7V24.15h-9.7ZM245.85,59.31,255.29,80l45.24-20.61L291.08,38.7ZM300.53,80,310,59.31,264.74,38.7l-9.45,20.72Zm-13.18-6.18H297V24.15h-9.65ZM272.14,49V83.84h49.71V49Zm59.68,7V80.86A24.85,24.85,0,0,0,356.67,56Zm-18.39,0V31.16A24.85,24.85,0,0,0,288.57,56Zm0,6.91H288.57a24.86,24.86,0,0,0,24.86,24.85Zm16.6,0h24.85A24.85,24.85,0,0,0,330,38.07Zm0,7V94.73a24.86,24.86,0,0,0,24.85-24.85Zm-16.6,0V45a24.86,24.86,0,0,0-24.86,24.86Zm0,7H288.57a24.86,24.86,0,0,0,24.86,24.85Zm18.93,0h24.86A24.86,24.86,0,0,0,332.36,52Zm0,7V108.7a24.86,24.86,0,0,0,24.86-24.86Zm-27.78,0H279.73a24.85,24.85,0,0,0,24.85,24.86Zm0-34.79V24.2a24.85,24.85,0,0,0-24.85,24.85Zm27.24,0h24.85A24.86,24.86,0,0,0,331.82,24.2Zm0-17.89H313.43v49.7h18.39ZM288.57,56v6.91h49.71V56Zm24.86,31.76H330V38.07h-16.6Zm-8.25-24.85v7h49.7v-7ZM330,45h-16.6V94.73H330ZM288.57,69.88v7h49.71v-7Zm24.86,31.86h18.93V52H313.43Zm-5.92-24.85v7h49.71v-7ZM332.36,59H304.58V108.7h27.78Zm-2.93,24.85V49.05h-49.7V83.84ZM304.58,73.9h27.24V24.2H304.58ZM307,49.05v7h49.7v-7Zm70.38,7.11V81A24.85,24.85,0,0,0,402.2,56.16Zm-10.49,0V31.31A24.85,24.85,0,0,0,342,56.16Zm0,27.68V108.7a24.85,24.85,0,0,0,24.85-24.86Zm-8.85,0H333.16A24.86,24.86,0,0,0,358,108.7Zm0-27.68h24.86A24.85,24.85,0,0,0,358,31.31Zm-10.38,0H322.77A24.86,24.86,0,0,0,347.63,81Zm0-7.16V24.15A24.86,24.86,0,0,0,322.77,49Zm29.72,0H402.2a24.85,24.85,0,0,0-24.85-24.85Zm0-17.69H366.86V81h10.49ZM342,56.16V83.84h49.7V56.16ZM366.86,59H358V108.7h8.85Zm16,24.85V56.16H333.16V83.84ZM358,31.31H347.63V81H358Zm14.47,24.85V49H322.77v7.16ZM347.63,73.85h29.72V24.15H347.63ZM352.5,49v7.16h49.7V49Zm57.39,4.82L392.82,71.89l.09.08Zm-.05,25.3L392.77,61.06l-.09.08Zm-26.84,0-17.16,18,.09.08Zm0-25.4L366,35.62h0Zm6.56,5.37,17.72,17.42.15-.15Zm0,14.71L371.55,91l.29.3Zm13.76,0-18.15-17h0Zm0-14.71-18.16,17,.29.31Zm-6.9,14.47a4.91,4.91,0,0,1-1.34-.33,7,7,0,0,1-2.26-1.39L427,35.75A43.7,43.7,0,0,0,396.42,23.9ZM392.91,72a8.27,8.27,0,0,1-1.86-2.74,7.56,7.56,0,0,1-.65-2.83h49.71a41.34,41.34,0,0,0-13.25-30.73ZM390.4,66.4a7.36,7.36,0,0,1,.63-2.75,7.66,7.66,0,0,1,1.74-2.59l34.14,36.13a41.65,41.65,0,0,0,13.2-30.79Zm2.28-5.26a6.84,6.84,0,0,1,2.26-1.4,4.69,4.69,0,0,1,1.48-.35V109.1a43.51,43.51,0,0,0,30.57-12Zm3.74-1.75a4.7,4.7,0,0,1,1.4.34,6.85,6.85,0,0,1,2.24,1.37L365.93,97.24a43.62,43.62,0,0,0,30.49,11.86Zm3.73,1.8a7.93,7.93,0,0,1,1.73,2.6,7,7,0,0,1,.6,2.61H352.77a41.77,41.77,0,0,0,13.07,30.76Zm2.33,5.21a7.36,7.36,0,0,1-.64,2.76A8.27,8.27,0,0,1,400,71.92l-34-36.3A41.39,41.39,0,0,0,352.77,66.4ZM400,71.92a7,7,0,0,1-2.23,1.37,4.94,4.94,0,0,1-1.32.32V23.9A43.71,43.71,0,0,0,366,35.62Zm-3.45-40.61a34.15,34.15,0,0,0-24.83,10.56l35.74,34.54A15.51,15.51,0,0,1,396.52,81ZM371.83,41.72a34.85,34.85,0,0,0-10,24.73h49.71a14.07,14.07,0,0,1-1,5.11,15.11,15.11,0,0,1-3.23,5Zm-10,24.73A35.19,35.19,0,0,0,371.55,91l36-34.25a14.74,14.74,0,0,1,3,4.74,13.81,13.81,0,0,1,1,5Zm10,24.83a34.26,34.26,0,0,0,24.68,10.41V52a15.45,15.45,0,0,1,6,1.27,14.77,14.77,0,0,1,4.73,3.18Zm24.68,10.41a33.78,33.78,0,0,0,25-10.88L385.16,56.9a15.24,15.24,0,0,1,5.1-3.57A15.56,15.56,0,0,1,396.52,52Zm25-10.87A35.28,35.28,0,0,0,431,66.45h-49.7a13.62,13.62,0,0,1,.93-4.84,14.31,14.31,0,0,1,2.93-4.72ZM431,66.45a35,35,0,0,0-9.81-24.58L385.45,76.41a15.09,15.09,0,0,1-3.17-5,13.88,13.88,0,0,1-1-5Zm-9.52-24.27a33.8,33.8,0,0,0-25-10.87V81a15.71,15.71,0,0,1-6.26-1.34,15.38,15.38,0,0,1-5.1-3.57ZM46.32,117.86H21.47a24.84,24.84,0,0,0,24.85,24.85Zm14.76,0H85.93A24.84,24.84,0,0,0,61.08,93Zm0,7.41v24.85a24.85,24.85,0,0,0,24.85-24.85Zm-23.61,0H12.62a24.86,24.86,0,0,0,24.85,24.85Zm0-34.8V65.62A24.86,24.86,0,0,0,12.62,90.47Zm8.85,0H71.17A24.85,24.85,0,0,0,46.32,65.62Zm0,52.24H61.08V93H46.32ZM36.23,117.86v7.41h49.7v-7.41Zm24.85-17.45H37.47v49.71H61.08Zm1.24,24.86V90.47H12.62v34.8Zm-24.85-10h8.85V65.62H37.47Zm-16-24.85v27.39h49.7V90.47Zm53.23,34.8v24.85a24.86,24.86,0,0,0,24.85-24.85Zm-8.85,0H41a24.86,24.86,0,0,0,24.85,24.85Zm0-34.8V65.62A24.86,24.86,0,0,0,41,90.47Zm8.85,0H99.55A24.86,24.86,0,0,0,74.7,65.62Zm0,9.94H65.85v49.71H74.7Zm16,24.86V90.47H41v34.8Zm-24.85-10H74.7V65.62H65.85Zm-16-24.85v34.8h49.7V90.47Zm51.53,34.8v24.85a24.86,24.86,0,0,0,23.13-15.77Zm-9.15,0-23.16,9a24.85,24.85,0,0,0,23.16,15.85ZM78.71,90.47V65.62A24.85,24.85,0,0,0,55.55,99.47Zm9.45,0,23.47-8.16A24.85,24.85,0,0,0,88.16,65.62Zm8.89,25.6-23.47,8.16a24.85,24.85,0,0,0,47,0Zm8.9-25.6V65.62A24.85,24.85,0,0,0,82.48,82.31Zm9.1,0,23.13,9.09a24.86,24.86,0,0,0-23.13-33.94Zm-13.67,9.94H92.23v49.71h9.15Zm14,15.85L101.88,81.47l-46.33,18,13.52,34.8Zm-36.69-.94h9.45V65.62H78.71Zm-14-16.69,8.9,25.6,47-16.32-8.9-25.6Zm55.85,25.6,8.9-25.6L82.48,82.31l-8.9,25.6ZM106,115.32h9.1V65.62H106Zm-14-33.94-13.67,34.8,46.26,18.17,13.67-34.79Zm36,43.89v24.85a24.86,24.86,0,0,0,24.85-24.85Zm-8.85,0H94.17A24.85,24.85,0,0,0,119,150.12Zm0-34.8V65.62A24.85,24.85,0,0,0,94.17,90.47Zm8.85,0h24.85a24.86,24.86,0,0,0-24.85-24.85Zm0,9.94H119v49.71h8.85Zm16,24.86V90.47H94.17v34.8Zm-24.85-10h8.85V65.62H119ZM103,90.47v34.8h49.71V90.47Zm64.51,34.8v24.85a24.86,24.86,0,0,0,24.85-24.85Zm-7.8,0-19.91,14.87a24.85,24.85,0,0,0,19.91,10Zm-16-21.43L163.62,89a24.85,24.85,0,0,0-44.76,14.87Zm0,21.43v24.85a24.85,24.85,0,0,0,24.85-24.85Zm-8.3,0H110.56a24.85,24.85,0,0,0,24.85,24.85Zm0-34.8V65.62a24.85,24.85,0,0,0-24.85,24.85Zm7.8,0,19.91-14.88a24.84,24.84,0,0,0-19.91-10Zm16.06,21.47-19.91,14.89a24.85,24.85,0,0,0,44.76-14.89Zm0-21.47V65.62a24.85,24.85,0,0,0-24.85,24.85Zm8.25,0h24.85a24.86,24.86,0,0,0-24.85-24.85Zm0,9.94h-7.8v49.71h7.8Zm12.1,10L163.62,89,123.8,118.72l16,21.42Zm-60.76-6.55v21.43h49.7V103.84Zm24.85-3.43h-8.3v49.71h8.3Zm16.55,24.86V90.47h-49.7v34.8Zm-24.85-10h7.8V65.62h-7.8Zm-12.1-10,16.05,21.48,39.81-29.77-16-21.47Zm60.81,6.59V90.47h-49.7v21.47Zm-24.85,3.38h8.25V65.62h-8.25Zm-16.6-24.85v34.8h49.7V90.47Zm55.49,17.1V82.72a24.86,24.86,0,0,0-24.85,24.85Zm7.66,0h24.85a24.86,24.86,0,0,0-24.85-24.85Zm0,13.57,14.27,20.34a24.85,24.85,0,0,0,10.58-20.34ZM199,124.42l7.41,23.72.18-.06Zm-20.88-3.83L160.85,138.5l.08.08Zm.15-25.35L161.33,77h0Zm21.42-3.67-8.49,23.35h0Zm6.52,3.77,19.15,15.84a24.86,24.86,0,0,0-2.64-34.41Zm-5,6-16.84,18.28a24.86,24.86,0,0,0,36-2.45Zm-4.38-2.74-9.62,22.92.39.16Zm-12.13,1.94L167,83.14h0Zm.05,14.72,17.72-17.43h0Zm13.42,1.29,11.12,22.23A24.86,24.86,0,0,0,223,116.57Zm0,15.85h7.66V82.72h-7.66ZM181,107.57v13.57h49.7V107.57Zm10.57-6.77c.29-.2.45-.28.42-.27a3.7,3.7,0,0,1-.6.23l15.19,47.32a50,50,0,0,0,13.54-6.6Zm0-.1c-.6.19-.63.11-.2.11v49.71a50.25,50.25,0,0,0,15-2.38Zm-.2.11a3,3,0,0,1,.45,0,6.32,6.32,0,0,1,1.13.32,7.14,7.14,0,0,1,2.3,1.42l-34.3,36a43.31,43.31,0,0,0,30.42,11.94Zm4,1.88a7.76,7.76,0,0,1,1.7,2.58,7,7,0,0,1,.6,2.6H147.91a41.77,41.77,0,0,0,12.94,30.63Zm2.3,5.18a7.85,7.85,0,0,1-.68,2.94,8.09,8.09,0,0,1-1.81,2.66L161.33,77a41.35,41.35,0,0,0-13.42,30.85Zm-2.49,5.6a6.55,6.55,0,0,1-2.12,1.28A5.15,5.15,0,0,1,192,115V65.32A44.23,44.23,0,0,0,161.33,77ZM192,115a3,3,0,0,1-.55,0,1.6,1.6,0,0,1-.24-.06l17-46.71A47.2,47.2,0,0,0,192,65.32Zm-.79-.11a2.16,2.16,0,0,1-.44-.22,6.78,6.78,0,0,1-1.07-.78l33-37.15a44.74,44.74,0,0,0-14.53-8.56ZM187,79.51l-5,6,38.31,31.66,5-6Zm31,3.57a38.89,38.89,0,0,0-12-7.53L187.59,121.7a10.77,10.77,0,0,1-3.23-2.06Zm-11.59-7.37a37.37,37.37,0,0,0-14.54-3v49.7a12.38,12.38,0,0,1-4.7-.89Zm-14.54-3A34.54,34.54,0,0,0,167,83.14L202.41,118a15,15,0,0,1-4.95,3.3,14.75,14.75,0,0,1-5.56,1.14ZM167,83.14a34.85,34.85,0,0,0-10,24.73h49.7a14,14,0,0,1-1,5.11,15,15,0,0,1-3.23,5Zm-10,24.73A35,35,0,0,0,167,132.7l35.44-34.85a14.9,14.9,0,0,1,3.19,4.93,13.9,13.9,0,0,1,1,5.09ZM167,132.7a34.61,34.61,0,0,0,25,10.41V93.4a14.61,14.61,0,0,1,5.47,1.12,15,15,0,0,1,5,3.33Zm25,10.41a38.75,38.75,0,0,0,17.28-4.31L187.05,94.34A11.55,11.55,0,0,1,192,93.4Zm31-26.54v-9H173.31v9Zm40.77,8.7v24.85a24.84,24.84,0,0,0,23.6-17.07Zm-9.09,0-24,6.44a24.86,24.86,0,0,0,24,18.41Zm-6.47-24.06,24-6.45a24.86,24.86,0,0,0-48-.09Zm-6.56,24.06v24.85a24.85,24.85,0,0,0,24-18.32Zm-9.14,0L208.91,133a24.85,24.85,0,0,0,23.62,17.13Zm-11.38-34.8V65.62A24.85,24.85,0,0,0,197.52,98.2Zm9.44,0,24-6.39a24.87,24.87,0,0,0-24-18.46Zm6.81,25.6-24,6.39a24.85,24.85,0,0,0,48.07-.13Zm6.66-25.6V65.62A24.84,24.84,0,0,0,220,84.21Zm8.65,0,24-6.39a24.87,24.87,0,0,0-24-18.46Zm6.81,25.6-24,6.39a24.85,24.85,0,0,0,48.06-.09Zm6.71-25.6V65.62a24.85,24.85,0,0,0-24,18.55Zm9,0,23.6,7.79a24.85,24.85,0,0,0-23.6-32.64Zm-11.48,9.94H254.7v49.71h9.09Zm14.91,18.41-6.46-24.06-48,12.9,6.46,24.05ZM224.26,94.67l-6.56,24.06,47.95,13.07,6.56-24.05Zm17.41,5.74h-9.14v49.71h9.14Zm14.48,17.13-11.38-34.8L197.52,98.2,208.91,133Zm-35-2.22h9.44V65.62h-9.44ZM206.57,96.86l6.81,25.6,48-12.78-6.81-25.6Zm54.88,25.47,6.66-25.6L220,84.21l-6.66,25.6Zm-17.39-7h8.65V65.62h-8.65ZM228.69,96.86l6.81,25.6,48-12.78-6.81-25.6Zm54.87,25.51,6.71-25.6-48.08-12.6-6.71,25.6Zm-17.33-7.05h9V65.62h-9ZM251.67,82.68l-11.48,34.8,47.2,15.57,11.48-34.79Zm47.75,36.17,23.17-9A24.86,24.86,0,0,0,299.42,94Zm-15.21,0V94a24.85,24.85,0,0,0-23.11,15.72Zm-2.54,6.42v24.85a24.86,24.86,0,0,0,23.12-15.72Zm-9.09,0-22.82-9.85a24.85,24.85,0,0,0,22.82,34.7Zm15-34.8V65.62a24.85,24.85,0,0,0-22.82,15Zm9.09,0,22.91-9.65a24.87,24.87,0,0,0-22.91-15.2Zm14.67,34.8v24.85a24.86,24.86,0,0,0,22.9-34.51Zm-9.45,0-23.17,9a24.86,24.86,0,0,0,23.17,15.87Zm-5.07-13.13V137A24.86,24.86,0,0,0,320,103.19Zm-5-12.87,23.19-9a24.86,24.86,0,0,0-46.31-.16Zm-5.07,12.87L263.67,103a24.86,24.86,0,0,0,23.12,34ZM299.42,94H284.21v49.71h15.21ZM261.1,109.72l-2.54,6.41,46.23,18.27,2.53-6.41Zm20.57-9.31h-9.09v49.71h9.09Zm13.73,34.7,15-34.79L264.77,80.63l-15,34.79Zm-7.81-19.79h9.09V65.62h-9.09Zm-13.81-15.2,14.66,34.8,45.81-19.31L319.59,80.82Zm37.57.29H301.9v49.71h9.45Zm13.73,15.87-2.49-6.41-46.35,18,2.49,6.41ZM320,103.19l-5-12.87-46.37,17.9,5,12.88Zm-51.28-13L263.67,103l46.25,18.21L315,108.38ZM286.79,137h10V87.29h-10ZM324,117.86H299.12A24.84,24.84,0,0,0,324,142.71Zm14.76,0h24.85A24.84,24.84,0,0,0,338.73,93Zm0,7.41v24.85a24.85,24.85,0,0,0,24.85-24.85Zm-23.61,0H290.27a24.85,24.85,0,0,0,24.85,24.85Zm0-34.8V65.62a24.85,24.85,0,0,0-24.85,24.85Zm8.85,0h24.85A24.86,24.86,0,0,0,324,65.62Zm0,52.24h14.76V93H324Zm-10.09-24.85v7.41h49.7v-7.41Zm24.85-17.45H315.12v49.71h23.61ZM340,125.27V90.47h-49.7v34.8Zm-24.85-10H324V65.62h-8.85Zm-16-24.85v27.39h49.7V90.47Zm53.23,27.39H327.5a24.84,24.84,0,0,0,24.85,24.85Zm14.76,0H392A24.84,24.84,0,0,0,367.11,93Zm0,7.41v24.85A24.85,24.85,0,0,0,392,125.27Zm-23.61,0H318.65a24.85,24.85,0,0,0,24.85,24.85Zm0-34.8V65.62a24.85,24.85,0,0,0-24.85,24.85Zm8.85,0H377.2a24.86,24.86,0,0,0-24.85-24.85Zm0,52.24h14.76V93H352.35Zm-10.09-24.85v7.41H392v-7.41Zm24.85-17.45H343.5v49.71h23.61Zm1.24,24.86V90.47h-49.7v34.8Zm-24.85-10h8.85V65.62H343.5Zm-16-24.85v27.39h49.7V90.47Zm71.62,7v24.85A24.85,24.85,0,0,0,424,97.43Zm-18.39,0V72.58a24.85,24.85,0,0,0-24.85,24.85Zm0,6.91H355.88a24.84,24.84,0,0,0,24.85,24.85Zm16.6,0h24.85a24.84,24.84,0,0,0-24.85-24.85Zm0,7v24.85a24.85,24.85,0,0,0,24.85-24.85Zm-16.6,0V86.45a24.84,24.84,0,0,0-24.85,24.85Zm0,7H355.88a24.85,24.85,0,0,0,24.85,24.85Zm18.94,0h24.85a24.86,24.86,0,0,0-24.85-24.86Zm0,7v24.85a24.86,24.86,0,0,0,24.85-24.85Zm-27.79,0H347a24.85,24.85,0,0,0,24.85,24.85Zm0-34.8V65.62A24.85,24.85,0,0,0,347,90.47Zm27.24,0H424a24.86,24.86,0,0,0-24.85-24.85Zm0-17.89H380.73v49.7h18.39ZM355.88,97.43v6.91h49.7V97.43Zm24.85,31.76h16.6V79.49h-16.6Zm-8.25-24.85v7h49.7v-7Zm24.85-17.89h-16.6v49.7h16.6ZM355.88,111.3v7h49.7v-7Zm24.85,31.86h18.94V93.45H380.73Zm-5.92-24.85v7h49.71v-7Zm24.86-17.9H371.88v49.71h27.79Zm-2.94,24.86V90.47H347v34.8Zm-24.85-10h27.24V65.62H371.88Zm2.39-24.85v7H424v-7Zm58.26,7.11v24.85a24.84,24.84,0,0,0,24.85-24.85Zm-10.49,0V72.73a24.85,24.85,0,0,0-24.85,24.85Zm0,27.69v24.85a24.86,24.86,0,0,0,24.86-24.85Zm-8.84,0H388.34a24.86,24.86,0,0,0,24.86,24.85Zm0-27.69h24.85A24.85,24.85,0,0,0,413.2,72.73Zm-10.39,0H378a24.85,24.85,0,0,0,24.86,24.85Zm0-7.16V65.57A24.86,24.86,0,0,0,378,90.42Zm29.72,0h24.85a24.85,24.85,0,0,0-24.85-24.85Zm0-17.69H422v49.7h10.49ZM397.19,97.58v27.69H446.9V97.58ZM422,100.41H413.2v49.71H422Zm16,24.86V97.58H388.34v27.69ZM413.2,72.73H402.81v49.7H413.2Zm14.46,24.85V90.42H378v7.16Zm-24.85,17.7h29.72V65.57H402.81Zm4.87-24.86v7.16h49.7V90.42Zm36.47,9.1,24.71,2.66a26.18,26.18,0,0,0,.14-2.66Zm-1.49,13.82v24.85A24.87,24.87,0,0,0,467.37,116Zm-5.17,0L412.78,116a24.85,24.85,0,0,0,24.71,22.19ZM436,99.52H411.14a23.58,23.58,0,0,0,.15,2.66Zm0-8.85V65.82a24.86,24.86,0,0,0-24.86,24.85Zm8.15,0H469a24.86,24.86,0,0,0-24.85-24.85Zm-1.24,27.84-17.58,17.57.38.37Zm0,6,17.57,17.57h0Zm-6,0L419,141.72c.24.25.49.5.75.74Zm0-6-17.19-18-.38.37Zm-17.5-21.66L418,110.67,467.37,116l1.49-13.82Zm23.22-8.37h-5.17v49.71h5.17Zm19.54,22.19-1.49-13.82-49.42,5.33L412.78,116Zm-1.35-11.15V90.67H411.14v8.85Zm-24.85,16h8.15V65.82H436ZM419.3,90.67v8.85H469V90.67Zm20.62,51.55a20.3,20.3,0,0,1-7.23-1.37,21.07,21.07,0,0,1-7.36-4.77l35.15-35.15a28.91,28.91,0,0,0-20.56-8.42Zm-14.21-5.77a21.14,21.14,0,0,1-5-7.4,20.27,20.27,0,0,1-1.48-7.56H469a28.77,28.77,0,0,0-8.85-20.93Zm-6.46-15a20.27,20.27,0,0,1,1.42-7.42,20.82,20.82,0,0,1,4.66-7.12l35.15,35.14a28.94,28.94,0,0,0,8.47-20.6ZM425.33,107a21,21,0,0,1,7.36-4.78,20.26,20.26,0,0,1,7.23-1.36v49.71a28.88,28.88,0,0,0,20.56-8.43Zm14.59-6.14a20.35,20.35,0,0,1,7.26,1.36,21,21,0,0,1,7,4.41l-34.39,35.88a28.93,28.93,0,0,0,20.17,8.06Zm15,6.51a20.89,20.89,0,0,1,4.46,7.08,20.12,20.12,0,0,1,1.31,7.09H410.94A29.1,29.1,0,0,0,419,141.72Zm5.77,14.17a20.26,20.26,0,0,1-1.36,7.23,21,21,0,0,1-4.78,7.36l-35.14-35.15a28.88,28.88,0,0,0-8.43,20.56Zm-6.51,15a20.77,20.77,0,0,1-7,4.4,20.17,20.17,0,0,1-7.26,1.37V92.51a29,29,0,0,0-20.17,8Z" style="fill:#aff1ff"/><path d="M107.57,82.46H98.48L92,58.41l-6.56,24H76.31L64.92,47.67h9.45l6.81,25.6,6.66-25.6h8.65l6.81,25.6L110,47.67h9ZM150,54.63H131.6v6.91h16.6v7H131.6v7h18.94v6.95H122.75V47.67H150Zm15.67,20.43h14.76v7.4H156.81V47.67h8.85ZM201.5,47.37a20.35,20.35,0,0,1,14,5.87l-5.12,6.06A12.22,12.22,0,0,0,206.32,56a9.87,9.87,0,0,0-4.67-1.24,9.15,9.15,0,0,0-6.91,2.93A9.89,9.89,0,0,0,192,64.87a10.21,10.21,0,0,0,2.79,7.31,9.15,9.15,0,0,0,6.91,2.93,10.66,10.66,0,0,0,4.52-1.1,13.71,13.71,0,0,0,4.22-3l5.17,5.47a21.81,21.81,0,0,1-6.71,4.62,18.34,18.34,0,0,1-7.65,1.74,17.88,17.88,0,0,1-13.07-5.12A17.15,17.15,0,0,1,182.91,65a16.5,16.5,0,0,1,5.32-12.53A18.45,18.45,0,0,1,201.5,47.37Zm34.59,0a18.82,18.82,0,0,1,13.47,5.07A16.51,16.51,0,0,1,254.93,65a16.75,16.75,0,0,1-5.42,12.72,20.22,20.22,0,0,1-26.84.05A16.91,16.91,0,0,1,217.31,65a16.56,16.56,0,0,1,5.36-12.63A18.93,18.93,0,0,1,236.09,47.37Zm.1,7.41a9.34,9.34,0,0,0-7,3,10,10,0,0,0-2.88,7.31,10.35,10.35,0,0,0,2.88,7.4,9.45,9.45,0,0,0,7,3,8.94,8.94,0,0,0,6.81-3,10.44,10.44,0,0,0,2.84-7.4A10.11,10.11,0,0,0,243,57.76,8.93,8.93,0,0,0,236.19,54.78Zm62.19,27.68h-7.81l-.05-22.61L282.17,79h-5.76l-8.35-19.13V82.46h-7.91V47.62h9.7l9.44,20.73,9.44-20.73h9.65ZM333.2,54.63H314.81v6.91h16.6v7h-16.6v7h18.94v6.95H306V47.67H333.2Zm45.53.15H368.24V82.46h-8.85V54.78H349V47.62h29.72Zm19.07-7.41a18.85,18.85,0,0,1,13.47,5.07A16.5,16.5,0,0,1,416.63,65a16.78,16.78,0,0,1-5.41,12.72,20.22,20.22,0,0,1-26.84.05A16.91,16.91,0,0,1,379,65a16.57,16.57,0,0,1,5.37-12.63A18.9,18.9,0,0,1,397.8,47.37Zm.1,7.41a9.31,9.31,0,0,0-7,3,10,10,0,0,0-2.89,7.31,10.35,10.35,0,0,0,2.89,7.4,9.42,9.42,0,0,0,7,3,9,9,0,0,0,6.81-3,10.48,10.48,0,0,0,2.83-7.4,10.14,10.14,0,0,0-2.83-7.31A9,9,0,0,0,397.9,54.78ZM47.7,116.48H62.46v7.41H38.85V89.09H47.7Zm28.38,7.41H67.23V89.09h8.85Zm26.68,0H93.61L80.09,89.09h9.45l8.89,25.6,8.9-25.6h9.1Zm26.49,0H120.4V89.09h8.85Zm39.65,0h-7.8l-16-21.43v21.43h-8.3V89.09h7.8l16.06,21.47V89.09h8.25Zm30.64-17.7h7.66v13.57a27,27,0,0,1-14.47,4.52,18.49,18.49,0,0,1-13.27-5.07,17,17,0,0,1-5.32-12.72,16.54,16.54,0,0,1,5.47-12.63,19.41,19.41,0,0,1,13.72-5.07A22.63,22.63,0,0,1,201,90.18,20,20,0,0,1,207.55,94l-5,6a14.29,14.29,0,0,0-4.38-2.74,12.72,12.72,0,0,0-4.92-1,9.72,9.72,0,0,0-7.21,3,10,10,0,0,0-2.88,7.31,10.13,10.13,0,0,0,2.93,7.4,9.79,9.79,0,0,0,7.26,3,14,14,0,0,0,6.16-1.69Zm65.63,17.7h-9.09l-6.46-24.06-6.57,24.06h-9.14l-11.38-34.8H232l6.81,25.6,6.66-25.6h8.65l6.81,25.6,6.71-25.6h9Zm35.63-6.42H285.59l-2.54,6.42H274l15-34.8h9.09l14.67,34.8h-9.45Zm-2.59-6.71-5-12.87-5.07,12.87Zm27.14,5.72h14.76v7.41H316.5V89.09h8.85Zm28.38,0h14.76v7.41H344.88V89.09h8.85ZM400.5,96.05H382.11V103h16.6v7h-16.6v7h18.94v7H373.26V89.09H400.5Zm33.41.15H423.42v27.69h-8.84V96.2H404.19V89h29.72Zm11.62,1.94L444,112h-5.17l-1.49-13.82V89.29h8.15ZM441.3,116a4,4,0,0,1,3,1.15,4,4,0,0,1,1.19,3,4.14,4.14,0,0,1-1.19,3,4.06,4.06,0,0,1-3,1.14,4.15,4.15,0,0,1-3-1.14,4.22,4.22,0,0,1-1.14-3,4,4,0,0,1,1.14-3A4.12,4.12,0,0,1,441.3,116Z" style="fill-opacity:0.200000002980232"/><path d="M107.57,82.46v2.77a2.76,2.76,0,0,0,2.62-1.9Zm-9.09,0-2.67.72a2.76,2.76,0,0,0,2.67,2ZM92,58.41l2.67-.72a2.76,2.76,0,0,0-5.33,0Zm-6.56,24v2.77a2.77,2.77,0,0,0,2.67-2Zm-9.14,0-2.63.86a2.76,2.76,0,0,0,2.63,1.91ZM64.92,47.67V44.91a2.75,2.75,0,0,0-2.23,1.14,2.78,2.78,0,0,0-.39,2.48Zm9.45,0L77,47a2.76,2.76,0,0,0-2.67-2.05Zm6.81,25.6L78.51,74a2.76,2.76,0,0,0,5.34,0Zm6.66-25.6V44.91A2.75,2.75,0,0,0,85.17,47Zm8.65,0L99.16,47a2.77,2.77,0,0,0-2.67-2.05Zm6.81,25.6-2.67.71A2.76,2.76,0,0,0,106,74ZM110,47.67V44.91A2.75,2.75,0,0,0,107.34,47Zm9,0,2.63.87a2.79,2.79,0,0,0-.39-2.49,2.75,2.75,0,0,0-2.24-1.14Zm-11.48,32H98.48v5.53h9.09Zm-6.43,2L94.68,57.69l-5.33,1.43,6.46,24.06ZM89.35,57.68,82.79,81.74l5.33,1.45,6.56-24.06Zm-3.9,22H76.31v5.53h9.14Zm-6.52,1.91L67.55,46.81,62.3,48.53,73.68,83.32Zm-14-31.18h9.45V44.91H64.92Zm6.78-2L78.51,74l5.34-1.42L77,47ZM83.85,74l6.66-25.59L85.17,47,78.51,72.57Zm4-23.53h8.65V44.91H87.84Zm6-2L100.63,74,106,72.56,99.16,47ZM106,74l6.71-25.6L107.34,47l-6.71,25.6Zm4-23.54h9V44.91h-9Zm6.42-3.63L105,81.6l5.24,1.73,11.49-34.79ZM150,54.63v2.76a2.76,2.76,0,0,0,2.76-2.76Zm-18.39,0V51.87a2.76,2.76,0,0,0-2.76,2.76Zm0,6.91h-2.76a2.77,2.77,0,0,0,2.76,2.76Zm16.6,0H151a2.75,2.75,0,0,0-2.76-2.76Zm0,7v2.76A2.76,2.76,0,0,0,151,68.5Zm-16.6,0V65.74a2.76,2.76,0,0,0-2.76,2.76Zm0,7h-2.76a2.77,2.77,0,0,0,2.76,2.76Zm18.94,0h2.76a2.77,2.77,0,0,0-2.76-2.77Zm0,6.95v2.77a2.77,2.77,0,0,0,2.76-2.77Zm-27.79,0H120a2.77,2.77,0,0,0,2.76,2.77Zm0-34.79V44.91A2.77,2.77,0,0,0,120,47.67Zm27.24,0h2.76A2.76,2.76,0,0,0,150,44.91Zm0,4.2H131.6v5.52H150Zm-21.15,2.76v6.91h5.52V54.63Zm2.76,9.67h16.6V58.78H131.6Zm13.84-2.76v7H151v-7Zm2.76,4.2H131.6v5.52h16.6ZM128.84,68.5v7h5.52v-7Zm2.76,9.77h18.94V72.74H131.6Zm16.18-2.76v6.95h5.52V75.51Zm2.76,4.19H122.75v5.53h27.79Zm-25,2.76V47.67H120V82.46Zm-2.77-32H150V44.91H122.75Zm24.48-2.76v7h5.52v-7Zm18.43,27.39H162.9a2.77,2.77,0,0,0,2.76,2.76Zm14.76,0h2.76a2.75,2.75,0,0,0-2.76-2.76Zm0,7.4v2.77a2.76,2.76,0,0,0,2.76-2.77Zm-23.61,0h-2.76a2.77,2.77,0,0,0,2.76,2.77Zm0-34.79V44.91a2.77,2.77,0,0,0-2.76,2.76Zm8.85,0h2.76a2.76,2.76,0,0,0-2.76-2.76Zm0,30.15h14.76V72.3H165.66Zm12-2.76v7.4h5.52v-7.4Zm2.76,4.64H156.81v5.53h23.61Zm-20.85,2.76V47.67h-5.52V82.46Zm-2.76-32h8.85V44.91h-8.85Zm6.09-2.76V75.06h5.52V47.67ZM209.1,49,208,51.5h0Zm6.41,4.28L217.62,55a2.76,2.76,0,0,0-.14-3.72Zm-5.12,6.06L208.25,61a2.76,2.76,0,0,0,4.25,0ZM206.32,56,205,58.46l.06,0Zm-11.58,1.69,2,1.92,0,0Zm0,14.47,2-1.91h0ZM206.17,74,205,71.5h0Zm4.22-3,2-1.9a2.8,2.8,0,0,0-2-.86,2.76,2.76,0,0,0-2,.84Zm5.17,5.47,2,1.94a2.77,2.77,0,0,0,0-3.84Zm-6.71,4.62-1.13-2.52h0Zm-20.72-3.38,1.93-2Zm.1-25.3,1.89,2h0Zm13.27-2.31A16.49,16.49,0,0,1,208,51.5l2.17-5.08a22,22,0,0,0-8.69-1.81ZM208,51.51a16.75,16.75,0,0,1,5.51,3.66l3.94-3.87a22.11,22.11,0,0,0-7.31-4.88Zm5.37,0-5.12,6.06,4.22,3.56L217.62,55Zm-.86,6.1a15,15,0,0,0-5-4l-2.47,4.94A9.43,9.43,0,0,1,208.25,61Zm-4.93-4a12.62,12.62,0,0,0-6-1.56v5.52a7.06,7.06,0,0,1,3.37.92Zm-6-1.56a11.9,11.9,0,0,0-8.92,3.79l4,3.8a6.4,6.4,0,0,1,4.91-2.07Zm-8.9,3.77a12.68,12.68,0,0,0-3.56,9.08h5.52a7.16,7.16,0,0,1,2-5.24Zm-3.56,9.08a13,13,0,0,0,3.54,9.21l4-3.81a7.41,7.41,0,0,1-2-5.4Zm3.54,9.21a11.94,11.94,0,0,0,8.92,3.79V72.35a6.37,6.37,0,0,1-4.91-2.08Zm8.92,3.79a13.41,13.41,0,0,0,5.69-1.35l-2.34-5a7.92,7.92,0,0,1-3.35.84Zm5.67-1.35A16.7,16.7,0,0,0,212.37,73l-4-3.85A11.2,11.2,0,0,1,205,71.5Zm1.07-3.59,5.17,5.47,4-3.8-5.17-5.47Zm5.2,1.63a18.77,18.77,0,0,1-5.87,4l2.26,5a24.57,24.57,0,0,0,7.55-5.2Zm-5.88,4a15.65,15.65,0,0,1-6.51,1.49v5.52a21.18,21.18,0,0,0,8.79-2ZM201.2,80.1a15.15,15.15,0,0,1-11.14-4.33l-3.87,3.94a20.68,20.68,0,0,0,15,5.91Zm-11.14-4.33A14.42,14.42,0,0,1,185.67,65h-5.52a19.94,19.94,0,0,0,6,14.74ZM185.67,65a13.75,13.75,0,0,1,4.45-10.52l-3.79-4A19.27,19.27,0,0,0,180.15,65Zm4.46-10.53a15.73,15.73,0,0,1,11.37-4.31V44.61a21.24,21.24,0,0,0-15.18,5.83Zm59.43-2-1.89,2h0Zm-.05,25.3-1.89-2h0Zm-26.84.05-1.9,2h0Zm0-25.4-1.88-2h0Zm6.56,5.37,2,1.94,0,0Zm0,14.71-2,1.91,0,0Zm13.77,0-2-1.88h0Zm0-14.71-2,1.88,0,0Zm-6.91-7.63a16.11,16.11,0,0,1,11.58,4.32l3.79-4a21.62,21.62,0,0,0-15.37-5.82Zm11.59,4.33A13.75,13.75,0,0,1,252.17,65h5.52a19.25,19.25,0,0,0-6.24-14.59ZM252.17,65a14,14,0,0,1-4.55,10.71l3.79,4A19.54,19.54,0,0,0,257.69,65Zm-4.56,10.72a15.93,15.93,0,0,1-11.52,4.36v5.52a21.43,21.43,0,0,0,15.33-5.88ZM236.09,80.1a16,16,0,0,1-11.52-4.32l-3.79,4a21.52,21.52,0,0,0,15.31,5.82Zm-11.51-4.31A14.17,14.17,0,0,1,220.07,65h-5.53a19.66,19.66,0,0,0,6.23,14.77ZM220.07,65a13.78,13.78,0,0,1,4.49-10.61l-3.77-4A19.29,19.29,0,0,0,214.54,65Zm4.49-10.61a16.14,16.14,0,0,1,11.53-4.28V44.61a21.61,21.61,0,0,0-15.3,5.77ZM236.19,52a12.09,12.09,0,0,0-8.94,3.82l4,3.84a6.57,6.57,0,0,1,5-2.14Zm-8.93,3.8a12.8,12.8,0,0,0-3.67,9.25h5.52a7.23,7.23,0,0,1,2.09-5.37Zm-3.67,9.25a13.12,13.12,0,0,0,3.64,9.31l4-3.81a7.59,7.59,0,0,1-2.13-5.5Zm3.67,9.34a12.23,12.23,0,0,0,8.93,3.81V72.69a6.69,6.69,0,0,1-5-2.15Zm8.93,3.81A11.72,11.72,0,0,0,245,74.36l-4-3.77a6.18,6.18,0,0,1-4.79,2.1ZM245,74.36a13.23,13.23,0,0,0,3.58-9.29h-5.53A7.67,7.67,0,0,1,241,70.59Zm3.58-9.29A12.88,12.88,0,0,0,245,55.84l-4,3.84a7.35,7.35,0,0,1,2,5.39ZM245,55.88A11.72,11.72,0,0,0,236.19,52v5.52a6.21,6.21,0,0,1,4.79,2.1Zm53.36,26.58v2.77a2.77,2.77,0,0,0,2.76-2.77Zm-7.81,0h-2.76a2.77,2.77,0,0,0,2.76,2.76Zm-.05-22.61h2.77a2.77,2.77,0,0,0-5.3-1.1ZM282.17,79v2.77a2.75,2.75,0,0,0,2.53-1.66Zm-5.76,0-2.53,1.11a2.76,2.76,0,0,0,2.53,1.66Zm-8.35-19.13,2.53-1.11a2.76,2.76,0,0,0-5.29,1.11Zm0,22.61v2.77a2.77,2.77,0,0,0,2.76-2.77Zm-7.91,0h-2.76a2.77,2.77,0,0,0,2.76,2.77Zm0-34.84V44.86a2.77,2.77,0,0,0-2.76,2.76Zm9.7,0,2.51-1.14a2.76,2.76,0,0,0-2.51-1.62Zm9.44,20.73-2.51,1.14a2.75,2.75,0,0,0,5,0Zm9.44-20.73V44.86a2.76,2.76,0,0,0-2.51,1.62Zm9.65,0h2.76a2.77,2.77,0,0,0-2.76-2.76Zm0,32.08h-7.81v5.53h7.81Zm-5,2.76,0-22.62h-5.53l.05,22.62ZM288,58.74l-8.35,19.14,5.06,2.21L293.05,61Zm-5.82,17.48h-5.76v5.53h5.76Zm-3.23,1.66-8.35-19.14L265.53,61l8.35,19.14Zm-13.64-18V82.46h5.52V59.85Zm2.76,19.85h-7.91v5.53h7.91Zm-5.14,2.76V47.62h-5.53V82.46Zm-2.77-32.08h9.7V44.86h-9.7Zm7.18-1.61,9.45,20.72,5-2.29-9.44-20.72ZM281.8,69.49l9.45-20.72-5-2.29L276.78,67.2Zm6.93-19.11h9.65V44.86h-9.65Zm6.89-2.76V82.46h5.52V47.62Zm37.58,7v2.76A2.77,2.77,0,0,0,336,54.63Zm-18.39,0V51.87a2.75,2.75,0,0,0-2.76,2.76Zm0,6.91h-2.76a2.76,2.76,0,0,0,2.76,2.76Zm16.6,0h2.76a2.76,2.76,0,0,0-2.76-2.76Zm0,7v2.76a2.77,2.77,0,0,0,2.76-2.76Zm-16.6,0V65.74a2.75,2.75,0,0,0-2.76,2.76Zm0,7h-2.76a2.76,2.76,0,0,0,2.76,2.76Zm18.94,0h2.76a2.77,2.77,0,0,0-2.76-2.77Zm0,6.95v2.77a2.77,2.77,0,0,0,2.76-2.77Zm-27.79,0H303.2A2.76,2.76,0,0,0,306,85.23Zm0-34.79V44.91a2.76,2.76,0,0,0-2.76,2.76Zm27.24,0H336a2.77,2.77,0,0,0-2.76-2.76Zm0,4.2H314.81v5.52H333.2Zm-21.15,2.76v6.91h5.52V54.63Zm2.76,9.67h16.6V58.78h-16.6Zm13.84-2.76v7h5.52v-7Zm2.76,4.2h-16.6v5.52h16.6ZM312.05,68.5v7h5.52v-7Zm2.76,9.77h18.94V72.74H314.81ZM331,75.51v6.95h5.53V75.51Zm2.77,4.19H306v5.53h27.79Zm-25,2.76V47.67H303.2V82.46Zm-2.76-32H333.2V44.91H306Zm24.48-2.76v7H336v-7Zm48.29,7.11v2.76a2.77,2.77,0,0,0,2.76-2.76Zm-10.49,0V52a2.76,2.76,0,0,0-2.76,2.76Zm0,27.68v2.77A2.76,2.76,0,0,0,371,82.46Zm-8.85,0h-2.76a2.77,2.77,0,0,0,2.76,2.77Zm0-27.68h2.77A2.76,2.76,0,0,0,359.39,52Zm-10.38,0h-2.76A2.76,2.76,0,0,0,349,57.54Zm0-7.16V44.86a2.76,2.76,0,0,0-2.76,2.76Zm29.72,0h2.76a2.77,2.77,0,0,0-2.76-2.76Zm0,4.4H368.24v5.52h10.49Zm-13.25,2.76V82.46H371V54.78Zm2.76,24.92h-8.85v5.53h8.85Zm-6.08,2.76V54.78h-5.53V82.46ZM359.39,52H349v5.52h10.38Zm-7.62,2.76V47.62h-5.52v7.16ZM349,50.38h29.72V44.86H349Zm27-2.76v7.16h5.52V47.62Zm35.3,4.82-1.9,2h0Zm0,25.3-1.9-2h0Zm-26.84.05-1.91,2h0Zm0-25.4-1.89-2h0Zm6.56,5.37,2,1.94v0Zm0,14.71-2,1.91,0,0Zm13.77,0-2-1.88h0Zm0-14.71-2,1.88,0,0Zm-6.91-7.63a16.07,16.07,0,0,1,11.57,4.32l3.79-4a21.59,21.59,0,0,0-15.36-5.82Zm11.58,4.33A13.75,13.75,0,0,1,413.87,65h5.53a19.22,19.22,0,0,0-6.25-14.59ZM413.87,65a14,14,0,0,1-4.55,10.71l3.79,4A19.55,19.55,0,0,0,419.4,65Zm-4.56,10.72A15.92,15.92,0,0,1,397.8,80.1v5.52a21.41,21.41,0,0,0,15.32-5.88ZM397.8,80.1a16,16,0,0,1-11.53-4.32l-3.79,4a21.53,21.53,0,0,0,15.32,5.82Zm-11.52-4.31A14.17,14.17,0,0,1,381.77,65h-5.52a19.69,19.69,0,0,0,6.22,14.77ZM381.77,65a13.78,13.78,0,0,1,4.49-10.61l-3.77-4A19.28,19.28,0,0,0,376.25,65Zm4.49-10.61a16.16,16.16,0,0,1,11.54-4.28V44.61a21.61,21.61,0,0,0-15.31,5.77ZM397.9,52A12.11,12.11,0,0,0,389,55.84l4,3.84a6.58,6.58,0,0,1,5-2.14ZM389,55.82a12.77,12.77,0,0,0-3.68,9.25h5.53a7.23,7.23,0,0,1,2.09-5.37Zm-3.68,9.25a13.09,13.09,0,0,0,3.65,9.31l4-3.81a7.58,7.58,0,0,1-2.12-5.5ZM389,74.41a12.2,12.2,0,0,0,8.93,3.81V72.69a6.66,6.66,0,0,1-5-2.15Zm8.93,3.81a11.7,11.7,0,0,0,8.82-3.86l-4-3.77a6.21,6.21,0,0,1-4.79,2.1Zm8.82-3.86a13.18,13.18,0,0,0,3.58-9.29h-5.52a7.72,7.72,0,0,1-2.09,5.52Zm3.58-9.29a12.84,12.84,0,0,0-3.61-9.23l-4,3.84a7.36,7.36,0,0,1,2.06,5.39Zm-3.58-9.19A11.7,11.7,0,0,0,397.9,52v5.52a6.24,6.24,0,0,1,4.79,2.1Zm-359,60.6H44.94a2.77,2.77,0,0,0,2.76,2.76Zm14.76,0h2.76a2.75,2.75,0,0,0-2.76-2.76Zm0,7.41v2.76a2.76,2.76,0,0,0,2.76-2.76Zm-23.61,0H36.09a2.77,2.77,0,0,0,2.76,2.76Zm0-34.8V86.33a2.77,2.77,0,0,0-2.76,2.76Zm8.85,0h2.76a2.76,2.76,0,0,0-2.76-2.76Zm0,30.15H62.46v-5.52H47.7Zm12-2.76v7.41h5.52v-7.41Zm2.76,4.64H38.85v5.53H62.46Zm-20.85,2.77V89.09H36.09v34.8Zm-2.76-32H47.7V86.33H38.85Zm6.09-2.76v27.39h5.52V89.09Zm31.14,34.8v2.76a2.76,2.76,0,0,0,2.76-2.76Zm-8.85,0H64.47a2.77,2.77,0,0,0,2.76,2.76Zm0-34.8V86.33a2.77,2.77,0,0,0-2.76,2.76Zm8.85,0h2.76a2.76,2.76,0,0,0-2.76-2.76Zm0,32H67.23v5.53h8.85ZM70,123.89V89.09H64.47v34.8Zm-2.76-32h8.85V86.33H67.23Zm6.09-2.76v34.8h5.52V89.09Zm29.44,34.8v2.76a2.77,2.77,0,0,0,2.57-1.76Zm-9.15,0-2.57,1a2.75,2.75,0,0,0,2.57,1.76ZM80.09,89.09V86.33a2.75,2.75,0,0,0-2.57,3.76Zm9.45,0,2.61-.91a2.77,2.77,0,0,0-2.61-1.85Zm8.89,25.6-2.6.91a2.76,2.76,0,0,0,5.21,0Zm8.9-25.6V86.33a2.77,2.77,0,0,0-2.61,1.85Zm9.1,0,2.57,1a2.77,2.77,0,0,0-2.57-3.77Zm-13.67,32H93.61v5.53h9.15Zm-6.57,1.76L82.67,88.09l-5.15,2L91,124.89Zm-16.1-31h9.45V86.33H80.09ZM86.93,90l8.9,25.6,5.21-1.82-8.89-25.6ZM101,115.6l8.9-25.6-5.22-1.82-8.89,25.6Zm6.29-23.75h9.1V86.33h-9.1Zm6.53-3.77-13.67,34.8,5.14,2L119,90.1Zm15.39,35.81v2.76a2.77,2.77,0,0,0,2.76-2.76Zm-8.85,0h-2.76a2.76,2.76,0,0,0,2.76,2.76Zm0-34.8V86.33a2.76,2.76,0,0,0-2.76,2.76Zm8.85,0H132a2.77,2.77,0,0,0-2.76-2.76Zm0,32H120.4v5.53h8.85Zm-6.09,2.77V89.09h-5.52v34.8Zm-2.76-32h8.85V86.33H120.4Zm6.09-2.76v34.8H132V89.09Zm42.41,34.8v2.76a2.76,2.76,0,0,0,2.76-2.76Zm-7.8,0-2.22,1.65a2.76,2.76,0,0,0,2.22,1.11Zm-16-21.43,2.21-1.65a2.76,2.76,0,0,0-5,1.65Zm0,21.43v2.76a2.76,2.76,0,0,0,2.76-2.76Zm-8.3,0H134a2.76,2.76,0,0,0,2.76,2.76Zm0-34.8V86.33A2.76,2.76,0,0,0,134,89.09Zm7.8,0,2.22-1.65a2.78,2.78,0,0,0-2.22-1.11Zm16.06,21.47-2.21,1.66a2.76,2.76,0,0,0,5-1.66Zm0-21.47V86.33a2.76,2.76,0,0,0-2.76,2.76Zm8.25,0h2.76a2.76,2.76,0,0,0-2.76-2.76Zm0,32h-7.8v5.53h7.8Zm-5.59,1.11-16-21.42-4.42,3.3,16,21.43Zm-21-19.77v21.43h5.52V102.46Zm2.76,18.66h-8.3v5.53h8.3Zm-5.54,2.77V89.09H134v34.8Zm-2.76-32h7.8V86.33h-7.8Zm5.59-1.11,16.06,21.48,4.42-3.31L146.81,87.44Zm21,19.82V89.09h-5.52v21.47Zm-2.76-18.71h8.25V86.33h-8.25Zm5.49-2.76v34.8h5.52V89.09Zm33.4,17.1v-2.76a2.76,2.76,0,0,0-2.76,2.76Zm7.66,0H210a2.76,2.76,0,0,0-2.76-2.76Zm0,13.57,1.59,2.26a2.78,2.78,0,0,0,1.17-2.26ZM200.34,123l.82,2.64h0Zm-20.88-3.83-1.91,2h0Zm.15-25.35-1.88-2h0ZM201,90.18l-.95,2.6h0ZM207.55,94l2.13,1.76a2.77,2.77,0,0,0-.3-3.82Zm-5,6-1.87,2a2.76,2.76,0,0,0,2,.72,2.79,2.79,0,0,0,2-1Zm-4.38-2.74-1.07,2.55.05,0Zm-12.13,1.94-2-1.93h0Zm.05,14.71,2-1.93h0Zm13.42,1.3,1.24,2.47a2.78,2.78,0,0,0,1.53-2.47Zm0-6.24h7.66v-5.52h-7.66Zm4.9-2.76v13.57H210V106.19Zm1.17,11.31a22.58,22.58,0,0,1-6.11,2.91l1.68,5.26a28.14,28.14,0,0,0,7.61-3.65Zm-6.09,2.9a22.7,22.7,0,0,1-6.79,1.12V127a28.2,28.2,0,0,0,8.43-1.36Zm-6.79,1.12a15.72,15.72,0,0,1-11.36-4.31l-3.81,4A21.23,21.23,0,0,0,192.73,127Zm-11.35-4.3a14.17,14.17,0,0,1-4.47-10.73h-5.53a19.68,19.68,0,0,0,6.17,14.71Zm-4.47-10.73a13.76,13.76,0,0,1,4.58-10.6l-3.76-4a19.28,19.28,0,0,0-6.35,14.65Zm4.58-10.6a16.63,16.63,0,0,1,11.84-4.34V86a22.15,22.15,0,0,0-15.6,5.81Zm11.84-4.34a19.7,19.7,0,0,1,6.76,1.23L202,87.59A25.25,25.25,0,0,0,193.33,86Zm6.76,1.23A17,17,0,0,1,205.71,96l3.67-4.13a22.7,22.7,0,0,0-7.4-4.31Zm5.33-.58-5,6,4.26,3.52,5-6Zm-1,5.75a16.92,16.92,0,0,0-5.22-3.27l-2,5.13a11.57,11.57,0,0,1,3.53,2.2Zm-5.18-3.25a15.26,15.26,0,0,0-6-1.26V99a9.84,9.84,0,0,1,3.85.83Zm-6-1.26a12.45,12.45,0,0,0-9.17,3.81l3.93,3.87A7,7,0,0,1,193.28,99Zm-9.17,3.81a12.73,12.73,0,0,0-3.68,9.24H186a7.25,7.25,0,0,1,2.09-5.37Zm-3.68,9.24a12.91,12.91,0,0,0,3.72,9.34l3.94-3.87a7.41,7.41,0,0,1-2.14-5.47Zm3.72,9.34a12.54,12.54,0,0,0,9.23,3.81v-5.52a7,7,0,0,1-5.29-2.16Zm9.23,3.81a16.75,16.75,0,0,0,7.4-2l-2.47-4.94a11.29,11.29,0,0,1-4.93,1.4Zm8.93-4.45v-9h-5.53v9Zm62.86,8.7v2.76a2.78,2.78,0,0,0,2.63-1.9Zm-9.09,0-2.67.71a2.76,2.76,0,0,0,2.67,2.05Zm-6.46-24.06,2.66-.72a2.76,2.76,0,0,0-5.33,0Zm-6.57,24.06v2.76a2.77,2.77,0,0,0,2.67-2Zm-9.14,0-2.63.85a2.77,2.77,0,0,0,2.63,1.91Zm-11.38-34.8V86.33A2.76,2.76,0,0,0,219.9,90Zm9.44,0,2.67-.71a2.76,2.76,0,0,0-2.67-2Zm6.81,25.6-2.67.71a2.76,2.76,0,0,0,5.34,0Zm6.66-25.6V86.33a2.75,2.75,0,0,0-2.67,2.07Zm8.65,0,2.67-.71a2.76,2.76,0,0,0-2.67-2Zm6.81,25.6-2.67.71a2.76,2.76,0,0,0,5.34,0Zm6.71-25.6V86.33a2.76,2.76,0,0,0-2.67,2.06Zm9,0,2.63.87a2.77,2.77,0,0,0-2.63-3.63Zm-11.48,32h-9.09v5.53h9.09Zm-6.43,2-6.46-24.06L247,100.54l6.46,24.06ZM247,99.1l-6.56,24.06,5.33,1.45,6.56-24.06Zm-3.9,22h-9.14v5.53h9.14ZM236.53,123l-11.38-34.8L219.9,90l11.38,34.79Zm-14-31.18H232V86.33h-9.44Zm6.77-2,6.81,25.6,5.34-1.42-6.81-25.6Zm12.15,25.58,6.66-25.59-5.34-1.39L236.11,114Zm4-23.53h8.65V86.33h-8.65Zm6-2,6.81,25.6,5.34-1.42-6.81-25.6Zm12.15,25.59,6.71-25.6-5.34-1.4L258.23,114Zm4-23.54h9V86.33h-9ZM274,88.23,262.55,123l5.25,1.73L279.28,90Zm26.77,29.24,2.57-1a2.75,2.75,0,0,0-2.57-1.77Zm-15.21,0v-2.76a2.77,2.77,0,0,0-2.57,1.75Zm-2.54,6.42v2.76a2.76,2.76,0,0,0,2.57-1.75Zm-9.09,0-2.54-1.1a2.77,2.77,0,0,0,2.54,3.86Zm15-34.8V86.33A2.78,2.78,0,0,0,286.43,88Zm9.09,0L300.61,88a2.76,2.76,0,0,0-2.55-1.69Zm14.67,34.8v2.76a2.76,2.76,0,0,0,2.54-3.84Zm-9.45,0-2.57,1a2.75,2.75,0,0,0,2.57,1.77Zm-5.07-13.13v2.76a2.76,2.76,0,0,0,2.58-3.75Zm-5-12.87,2.58-1a2.77,2.77,0,0,0-5.15,0Zm-5.07,12.87-2.57-1a2.76,2.76,0,0,0,2.57,3.77Zm12.63,3.95H285.59v5.52H300.8ZM283,116.46l-2.53,6.41,5.13,2,2.54-6.41Zm0,4.66H274v5.53h9.09ZM276.49,125l15-34.79L286.43,88l-15,34.79ZM289,91.85h9.09V86.33H289Zm6.55-1.69L310.18,125l5.09-2.15L300.61,88Zm17.21,31h-9.45v5.53h9.45Zm-6.87,1.77-2.49-6.41-5.15,2,2.49,6.41Zm-5.07-13.12-5-12.88-5.15,2,5,12.88ZM290.67,96.88l-5.07,12.87,5.14,2,5.07-12.87Zm-2.5,16.64h10V108h-10Zm37.18,3h-2.76a2.76,2.76,0,0,0,2.76,2.76Zm14.76,0h2.76a2.75,2.75,0,0,0-2.76-2.76Zm0,7.41v2.76a2.76,2.76,0,0,0,2.76-2.76Zm-23.61,0h-2.76a2.77,2.77,0,0,0,2.76,2.76Zm0-34.8V86.33a2.77,2.77,0,0,0-2.76,2.76Zm8.85,0h2.76a2.77,2.77,0,0,0-2.76-2.76Zm0,30.15h14.76v-5.52H325.35Zm12-2.76v7.41h5.52v-7.41Zm2.76,4.64H316.5v5.53h23.61Zm-20.85,2.77V89.09h-5.52v34.8Zm-2.76-32h8.85V86.33H316.5Zm6.09-2.76v27.39h5.52V89.09Zm31.14,27.39H351a2.76,2.76,0,0,0,2.76,2.76Zm14.76,0h2.76a2.75,2.75,0,0,0-2.76-2.76Zm0,7.41v2.76a2.76,2.76,0,0,0,2.76-2.76Zm-23.61,0h-2.76a2.77,2.77,0,0,0,2.76,2.76Zm0-34.8V86.33a2.77,2.77,0,0,0-2.76,2.76Zm8.85,0h2.76a2.77,2.77,0,0,0-2.76-2.76Zm0,30.15h14.76v-5.52H353.73Zm12-2.76v7.41h5.52v-7.41Zm2.76,4.64H344.88v5.53h23.61Zm-20.85,2.77V89.09h-5.52v34.8Zm-2.76-32h8.85V86.33h-8.85ZM351,89.09v27.39h5.52V89.09Zm49.53,7v2.76a2.76,2.76,0,0,0,2.76-2.76Zm-18.39,0V93.29a2.76,2.76,0,0,0-2.76,2.76Zm0,6.91h-2.76a2.76,2.76,0,0,0,2.76,2.76Zm16.6,0h2.76a2.76,2.76,0,0,0-2.76-2.76Zm0,7v2.76a2.77,2.77,0,0,0,2.76-2.76Zm-16.6,0v-2.76a2.75,2.75,0,0,0-2.76,2.76Zm0,7h-2.76a2.76,2.76,0,0,0,2.76,2.76Zm18.94,0h2.76a2.77,2.77,0,0,0-2.76-2.77Zm0,7v2.76a2.77,2.77,0,0,0,2.76-2.76Zm-27.79,0H370.5a2.77,2.77,0,0,0,2.76,2.76Zm0-34.8V86.33a2.77,2.77,0,0,0-2.76,2.76Zm27.24,0h2.76a2.77,2.77,0,0,0-2.76-2.76Zm0,4.2H382.11v5.52H400.5Zm-21.15,2.76V103h5.52V96.05Zm2.76,9.67h16.6V100.2h-16.6ZM396,103v7h5.52v-7Zm2.76,4.2h-16.6v5.52h16.6Zm-19.36,2.76v7h5.52v-7Zm2.76,9.77h18.94v-5.53H382.11Zm16.18-2.76v7h5.52v-7Zm2.76,4.19H373.26v5.53h27.79Zm-25,2.77V89.09H370.5v34.8Zm-2.76-32H400.5V86.33H373.26Zm24.48-2.76v7h5.52v-7Zm36.17,7.11V99a2.76,2.76,0,0,0,2.76-2.76Zm-10.49,0V93.44a2.76,2.76,0,0,0-2.76,2.76Zm0,27.69v2.76a2.77,2.77,0,0,0,2.77-2.76Zm-8.84,0h-2.77a2.77,2.77,0,0,0,2.77,2.76Zm0-27.69h2.76a2.76,2.76,0,0,0-2.76-2.76Zm-10.39,0h-2.76A2.76,2.76,0,0,0,404.19,99Zm0-7.16V86.28A2.76,2.76,0,0,0,401.43,89Zm29.72,0h2.76a2.76,2.76,0,0,0-2.76-2.76Zm0,4.4H423.42V99h10.49ZM420.66,96.2v27.69h5.53V96.2Zm2.76,24.92h-8.84v5.53h8.84Zm-6.08,2.77V96.2h-5.53v27.69Zm-2.76-30.45H404.19V99h10.39ZM407,96.2V89h-5.52V96.2Zm-2.76-4.4h29.72V86.28H404.19Zm27-2.76V96.2h5.52V89Zm14.38,9.1,2.74.29a2.64,2.64,0,0,0,0-.29ZM444,112v2.76a2.76,2.76,0,0,0,2.74-2.47Zm-5.17,0-2.75.29a2.77,2.77,0,0,0,2.75,2.47Zm-1.49-13.82h-2.76a2.71,2.71,0,0,0,0,.29Zm0-8.85V86.53a2.76,2.76,0,0,0-2.76,2.76Zm8.15,0h2.76a2.77,2.77,0,0,0-2.76-2.76Zm-1.24,27.84-2,2,.05,0Zm0,6,1.95,2h0Zm-6,0-2,1.91a.6.6,0,0,0,.08.08Zm0-6-1.91-2,0,0Zm4.46-19.29-1.49,13.82,5.49.59,1.49-13.82ZM444,109.19h-5.17v5.53H444Zm-2.43,2.47-1.49-13.82-5.49.59,1.49,13.82Zm-1.47-13.52V89.29h-5.52v8.85Zm-2.76-6.09h8.15V86.53h-8.15Zm5.39-2.76v8.85h5.52V89.29Zm-1.47,29.45a1.29,1.29,0,0,1,1,.34l3.91-3.91a6.8,6.8,0,0,0-4.94-2Zm1.08.38a1.23,1.23,0,0,1,.34,1h5.52a6.72,6.72,0,0,0-2-5Zm.34,1a1.37,1.37,0,0,1-.39,1.08l3.91,3.9a6.87,6.87,0,0,0,2-5Zm-.39,1.08a1.29,1.29,0,0,1-1,.33V127a6.8,6.8,0,0,0,4.94-2Zm-1,.33a1.43,1.43,0,0,1-1.07-.37l-3.82,4A6.89,6.89,0,0,0,441.3,127Zm-1-.29a1.43,1.43,0,0,1-.38-1.12h-5.52a7,7,0,0,0,1.91,4.94Zm-.38-1.12a1.29,1.29,0,0,1,.33-1l-3.9-3.91a6.82,6.82,0,0,0-1.95,4.94Zm.29-1a1.39,1.39,0,0,1,1.07-.38v-5.52a6.89,6.89,0,0,0-4.89,1.91Z" style="fill-opacity:0.200000002980232"/><path d="M104.36,81.24H95.27l-6.47-24-6.56,24H73.1L61.71,46.45h9.45L78,72.05l6.66-25.6h8.65l6.81,25.6,6.71-25.6h9Zm43.11-27.83H129.08v6.91h16.6v7h-16.6v7H148v7H120.23V46.45h27.24Zm16.36,20.43h14.76v7.4H155V46.45h8.85Zm36.53-27.69a20.35,20.35,0,0,1,14,5.87l-5.12,6.06a12.22,12.22,0,0,0-4.07-3.28,9.87,9.87,0,0,0-4.67-1.24,9.15,9.15,0,0,0-6.91,2.93,9.89,9.89,0,0,0-2.79,7.16A10.17,10.17,0,0,0,193.6,71a9.12,9.12,0,0,0,6.91,2.94,10.66,10.66,0,0,0,4.52-1.1,13.88,13.88,0,0,0,4.22-3l5.17,5.47a21.81,21.81,0,0,1-6.71,4.62,18.34,18.34,0,0,1-7.65,1.74A17.92,17.92,0,0,1,187,76.52a17.15,17.15,0,0,1-5.22-12.77,16.5,16.5,0,0,1,5.32-12.53A18.47,18.47,0,0,1,200.36,46.15Zm35.29,0a18.85,18.85,0,0,1,13.47,5.07,16.53,16.53,0,0,1,5.36,12.58,16.78,16.78,0,0,1-5.41,12.72,20.23,20.23,0,0,1-26.85,0,16.94,16.94,0,0,1-5.36-12.77,16.59,16.59,0,0,1,5.36-12.63A18.9,18.9,0,0,1,235.65,46.15Zm.09,7.41a9.31,9.31,0,0,0-7,3,10,10,0,0,0-2.89,7.31,10.31,10.31,0,0,0,2.89,7.4,9.4,9.4,0,0,0,7,3,8.93,8.93,0,0,0,6.81-3,10.44,10.44,0,0,0,2.84-7.4,10.09,10.09,0,0,0-2.84-7.31A8.93,8.93,0,0,0,235.74,53.56Zm62.88,27.68h-7.8l-.05-22.61-8.36,19.13h-5.76L268.3,58.63V81.24h-7.9V46.4h9.69l9.44,20.73L289,46.4h9.64Zm35.51-27.83H315.74v6.91h16.6v7h-16.6v7h18.94v7H306.89V46.45h27.24Zm46.91.15H370.55V81.24h-8.84V53.56H351.32V46.4H381Zm19.76-7.41a18.85,18.85,0,0,1,13.47,5.07,16.51,16.51,0,0,1,5.37,12.58,16.79,16.79,0,0,1-5.42,12.72,20.22,20.22,0,0,1-26.84,0A16.91,16.91,0,0,1,382,63.8a16.57,16.57,0,0,1,5.37-12.63A18.87,18.87,0,0,1,400.8,46.15Zm.1,7.41a9.31,9.31,0,0,0-7,3,10,10,0,0,0-2.88,7.31,10.35,10.35,0,0,0,2.88,7.4,9.41,9.41,0,0,0,7,3,9,9,0,0,0,6.81-3,10.43,10.43,0,0,0,2.83-7.4,10.09,10.09,0,0,0-2.83-7.31A9,9,0,0,0,400.9,53.56ZM43.11,116.64H57.87v7.41H34.26V89.25h8.85Zm29.07,7.41H63.33V89.25h8.85Zm27.37,0H90.4L76.88,89.25h9.45l8.89,25.6,8.9-25.6h9.1Zm27.18,0h-8.85V89.25h8.85Zm40.34,0h-7.8l-16-21.43v21.43H135V89.25h7.8l16.06,21.47V89.25h8.25Zm31.33-17.7h7.66v13.57a27,27,0,0,1-14.46,4.52,18.49,18.49,0,0,1-13.28-5.07A16.94,16.94,0,0,1,173,106.65,16.53,16.53,0,0,1,178.47,94,19.41,19.41,0,0,1,192.19,89a22.63,22.63,0,0,1,7.71,1.39,20,20,0,0,1,6.51,3.78l-5,6a14.29,14.29,0,0,0-4.38-2.74,12.68,12.68,0,0,0-4.92-1,9.72,9.72,0,0,0-7.21,3,10,10,0,0,0-2.88,7.31,10.13,10.13,0,0,0,2.93,7.4,9.79,9.79,0,0,0,7.26,3,14,14,0,0,0,6.16-1.69Zm67,17.7h-9.09L249.86,100l-6.56,24.06h-9.15l-11.38-34.8h9.44l6.81,25.6,6.66-25.6h8.65l6.81,25.6,6.71-25.6h9Zm36.32-6.42H286.52L284,124.05h-9.09l15-34.8H299l14.66,34.8h-9.45Zm-2.59-6.71-5-12.87-5.07,12.87ZM327,116.64h14.76v7.41H318.12V89.25H327Zm29.07,0H370.8v7.41H347.19V89.25H356ZM403.5,96.21H385.11v6.91h16.6v7h-16.6v7h18.94v7H376.26V89.25H403.5Zm34.1.15H427.12v27.69h-8.85V96.36H407.88V89.2H437.6Zm12.31,1.94-1.49,13.82h-5.17L441.76,98.3V89.45h8.15Zm-4.22,17.84a4,4,0,0,1,3,1.15,4,4,0,0,1,1.19,3,4.14,4.14,0,0,1-1.19,3,4,4,0,0,1-3,1.14,4.16,4.16,0,0,1-3-1.14,4.22,4.22,0,0,1-1.14-3,4,4,0,0,1,1.14-3A4.13,4.13,0,0,1,445.69,116.14Z" style="fill:url(#Degradado_sin_nombre_5)"/></svg>