<svg xmlns="http://www.w3.org/2000/svg" xmlns:xlink="http://www.w3.org/1999/xlink" viewBox="0 0 481.62 175.41"><defs><linearGradient id="Degradado_sin_nombre_2" x1="548.62" y1="-1966.29" x2="548.62" y2="-2231.33" gradientTransform="matrix(1, 0, 0, -1, -307.45, -2016)" gradientUnits="userSpaceOnUse"><stop offset="0" stop-color="#2188b5"/><stop offset="0.47" stop-color="#14037d"/><stop offset="1" stop-color="#2188b5"/></linearGradient></defs><g id="Capa_2" data-name="Capa 2"><g id="Capa_1-2" data-name="Capa 1"><path d="M30.34,43a4.42,4.42,0,0,1-3.17-1.19A4.25,4.25,0,0,1,26,38.68a4.17,4.17,0,0,1,4.36-4.4,4.06,4.06,0,0,1,3.06,1.24,4.33,4.33,0,0,1,1.24,3.16A4.16,4.16,0,0,1,30.34,43ZM25.93,61.55l1.55-14.36h5.4l1.55,14.36v9.29h-8.5ZM59.39,50.92V62.64H50.21V51.18L36.78,26.34H46l8.77,15.82,8.55-15.82h9.23Zm38.44,5H82l-2.65,6.69H69.83l15.66-36.3H95l15.3,36.3h-9.85Zm-2.69-7L90,35.52,84.66,49ZM155.28,33.6H136.09v7.21h17.32v7.26H136.09v7.31h19.76v7.26h-29V26.34h28.42Zm29,29-5.4-10.21h-7.26V62.64h-9.23V26.34h16.23q7.22,0,11.15,3.32T193.71,39q0,8.4-6.58,11.66l7.62,12ZM171.62,45.17h7a6.68,6.68,0,0,0,4.67-1.51A5.55,5.55,0,0,0,185,39.31a5.35,5.35,0,0,0-1.66-4.26,6.91,6.91,0,0,0-4.67-1.45h-7Zm57.3-11.57H209.74v7.21h17.32v7.26H209.74v7.31h19.75v7.26h-29V26.34h28.41ZM250,25.93a25.54,25.54,0,0,1,14.31,4l-3.47,7.21a30.64,30.64,0,0,0-6.12-2.7,18.15,18.15,0,0,0-5.5-1.08q-4,0-4,2.64a3.1,3.1,0,0,0,2,2.75A24.22,24.22,0,0,0,252,40.6a48.84,48.84,0,0,1,5.65,1.82,11,11,0,0,1,4.82,3.42,9.11,9.11,0,0,1,2,6,9.54,9.54,0,0,1-4.1,8.19A17.57,17.57,0,0,1,249.89,63,26.8,26.8,0,0,1,241,61.4a25.25,25.25,0,0,1-7.68-4.25L236.87,50A23.72,23.72,0,0,0,243.35,54,18.15,18.15,0,0,0,250,55.49a6.51,6.51,0,0,0,3.47-.78,2.71,2.71,0,0,0,1.25-2.39,3,3,0,0,0-1.45-2.49,9.2,9.2,0,0,0-3.53-1.5c-1.42-.35-3-.8-4.61-1.35a45.43,45.43,0,0,1-4.62-1.81,8.86,8.86,0,0,1-3.58-3.11,9.46,9.46,0,0,1-1.4-5.19,9.42,9.42,0,0,1,3.94-7.93Q243.45,25.92,250,25.93Zm32.66.41h15.81q6.94,0,10.79,3.32T313.09,39q0,6.38-3.84,9.9t-10.79,3.53h-6.58V62.64h-9.23Zm9.23,7.26V45.17H298a6.73,6.73,0,0,0,4.71-1.51,5.55,5.55,0,0,0,1.66-4.35,5.35,5.35,0,0,0-1.66-4.26A7,7,0,0,0,298,33.6Zm48,22.35H324l-2.64,6.69h-9.49l15.66-36.3h9.49l15.3,36.3H342.5Zm-2.69-7L332,35.52,326.74,49Zm41,13.69-5.4-10.21h-7.26V62.64h-9.23V26.34h16.24q7.2,0,11.14,3.32T387.62,39q0,8.4-6.59,11.66l7.62,12ZM365.52,45.17h7a6.65,6.65,0,0,0,4.66-1.51,5.55,5.55,0,0,0,1.66-4.35,5.35,5.35,0,0,0-1.66-4.26,6.88,6.88,0,0,0-4.66-1.45h-7Zm56.63-11.41H411.21V62.64H402V33.76H391.14V26.29h31Zm33-.16H435.93v7.21h17.32v7.26H435.93v7.31h19.76v7.26h-29V26.34h28.42Zm-248.19,36h15.61q8.55,0,13.9,5a17.11,17.11,0,0,1,5.39,13.12,17.16,17.16,0,0,1-5.45,13.12q-5.44,5-14.2,5H206.93Zm9.23,7.36V98.49h6.59a9,9,0,0,0,6.95-2.95,11.1,11.1,0,0,0,2.74-7.78A10.84,10.84,0,0,0,229.59,80a9.49,9.49,0,0,0-7.26-3.06Zm59.53-.1H256.5V84h17.32v7.26H256.5V98.6h19.76v7.26h-29V69.56h28.42ZM38.87,141.34h15.4v7.73H29.64v-36.3h9.23Zm29.61,7.73H59.25v-36.3h9.23Zm27.83,0H86.77l-14.11-36.3h9.86l9.28,26.71,9.28-26.71h9.49Zm27.64,0h-9.24v-36.3H124Zm41.36,0h-8.14l-16.7-22.35v22.35h-8.66v-36.3H140l16.74,22.4v-22.4h8.61Zm32-18.46h8v14.15a26.33,26.33,0,0,1-7.16,3.43,26.67,26.67,0,0,1-7.93,1.29,19.28,19.28,0,0,1-13.85-5.29,17.65,17.65,0,0,1-5.54-13.27,17.21,17.21,0,0,1,5.7-13.17,20.21,20.21,0,0,1,14.31-5.29,23.31,23.31,0,0,1,8,1.45,20.74,20.74,0,0,1,6.79,3.94l-5.18,6.28a15,15,0,0,0-4.57-2.86,13.26,13.26,0,0,0-5.13-1.09,10.13,10.13,0,0,0-7.52,3.12,10.46,10.46,0,0,0-3,7.62,10.59,10.59,0,0,0,3.06,7.73,10.22,10.22,0,0,0,7.57,3.11,14.51,14.51,0,0,0,6.43-1.77Zm68.47,18.46h-9.49L249.52,124l-6.84,25.1h-9.55l-11.87-36.3h9.85l7.11,26.71,6.95-26.71h9l7.1,26.71,7-26.71h9.44Zm37.17-6.69H287.05l-2.64,6.69h-9.49l15.66-36.3h9.49l15.29,36.3h-9.85Zm-2.7-7L295,122l-5.29,13.43Zm28.31,6h15.4v7.73H319.3v-36.3h9.23Zm29.61,0h15.4v7.73H348.91v-36.3h9.23ZM406.93,120H387.75v7.21h17.32v7.26H387.75v7.31H407.5v7.26h-29v-36.3h28.41Zm34.86.15H430.85v28.89h-9.23V120.18H410.78v-7.46h31Zm12.12,2-1.55,14.41H447l-1.55-14.41V113h8.5Zm-4.41,18.61a4.22,4.22,0,0,1,3.12,1.2,4.13,4.13,0,0,1,1.24,3.11,4.31,4.31,0,0,1-1.24,3.16,4.21,4.21,0,0,1-3.12,1.19,4.3,4.3,0,0,1-3.11-1.19,4.4,4.4,0,0,1-1.19-3.16,4.21,4.21,0,0,1,1.19-3.11A4.31,4.31,0,0,1,449.5,140.82Z" fill="#aff1ff"/><path d="M27.17,41.8,8.84,60.13l.39.39Zm0-6.28L45.51,53.86h0Zm6.23,0L14.68,53.46l.38.4Zm0,6.28L15.46,23.08c-.14.12-.27.25-.4.38ZM25.93,61.55.15,58.76A26.08,26.08,0,0,0,0,61.55Zm1.55-14.36V21.26A25.92,25.92,0,0,0,1.71,44.4Zm5.4,0L58.65,44.4A25.92,25.92,0,0,0,32.88,21.26Zm1.55,14.36H60.36a26.08,26.08,0,0,0-.15-2.79Zm0,9.29V96.76A25.93,25.93,0,0,0,60.36,70.84Zm-8.5,0H0A25.93,25.93,0,0,0,25.93,96.76Zm4.41-53.78a21,21,0,0,1,7.39,1.37,21.65,21.65,0,0,1,7.38,4.65L9.23,60.52a30.3,30.3,0,0,0,21.11,8.4Zm15.17,6.4a22.05,22.05,0,0,1,5,7.68,21.27,21.27,0,0,1,1.42,7.54H.05A30.13,30.13,0,0,0,8.84,60.13Zm6.4,15.22a21,21,0,0,1-1.37,7.38,22.22,22.22,0,0,1-5,7.8L8.84,17.19A30.14,30.14,0,0,0,.05,38.68Zm-6.4,15.18a22.08,22.08,0,0,1-7.43,4.86,21.29,21.29,0,0,1-7.74,1.48V8.35a30.17,30.17,0,0,0-21.5,8.84ZM30.34,60.2a21.5,21.5,0,0,1-8.08-1.6,21.91,21.91,0,0,1-7.58-5.14L52.11,17.58A30,30,0,0,0,30.34,8.35ZM15.06,53.86a21.94,21.94,0,0,1-4.86-7.43,21.33,21.33,0,0,1-1.49-7.75H60.57a30.2,30.2,0,0,0-8.84-21.49ZM8.71,38.68a21.2,21.2,0,0,1,1.55-7.89,21.88,21.88,0,0,1,5.2-7.71L51.33,60.52a30,30,0,0,0,9.24-21.84Zm6.35-15.22a22,22,0,0,1,7.56-4.93,21.27,21.27,0,0,1,7.72-1.47V68.92a30.06,30.06,0,0,0,21.39-8.79ZM51.71,64.34,53.26,50,1.71,44.4.15,58.76ZM27.48,73.12h5.4V21.26h-5.4ZM7.1,50,8.66,64.34l51.55-5.58L58.65,44.4ZM8.5,61.55v9.29H60.36V61.55ZM34.43,44.91h-8.5V96.76h8.5ZM51.86,70.84V61.55H0v9.29Zm7.53-19.92L36.54,38.68a25.88,25.88,0,0,0-3.08,12.24Zm0,11.72V88.57A25.93,25.93,0,0,0,85.32,62.64Zm-9.18,0H24.28A25.93,25.93,0,0,0,50.21,88.57Zm0-11.46H76.14A25.92,25.92,0,0,0,73,38.85ZM36.78,26.34V.41A25.94,25.94,0,0,0,14,38.68Zm9.23,0L68.69,13.78A25.93,25.93,0,0,0,46,.41Zm8.77,15.82L32.1,54.73a25.93,25.93,0,0,0,45.48-.23Zm8.55-15.82V.41A25.92,25.92,0,0,0,40.53,14Zm9.23,0L95.42,38.59A25.93,25.93,0,0,0,72.56.41ZM33.46,50.92V62.64H85.32V50.92ZM59.39,36.71H50.21V88.57h9.18ZM76.14,62.64V51.18H24.28V62.64ZM73,38.85,59.59,14,14,38.68,27.4,63.51ZM36.78,52.27H46V.41H36.78ZM23.33,38.91,32.1,54.73,77.45,29.59,68.69,13.78ZM77.58,54.5l8.56-15.82L40.53,14,32,29.82ZM63.33,52.27h9.23V.41H63.33ZM49.71,14.1,36.54,38.68l45.7,24.49L95.42,38.59ZM97.83,56,122,46.58A25.93,25.93,0,0,0,97.83,30ZM82,56V30a26,26,0,0,0-24.12,16.4Zm-2.65,6.69V88.57a25.92,25.92,0,0,0,24.11-16.4Zm-9.49,0L46,52.37a25.92,25.92,0,0,0,23.8,36.2Zm15.66-36.3V.41a25.92,25.92,0,0,0-23.8,15.66Zm9.49,0,23.9-10.07A25.94,25.94,0,0,0,95,.41Zm15.3,36.3V88.57a25.93,25.93,0,0,0,23.89-36Zm-9.85,0L76.25,72a25.93,25.93,0,0,0,24.18,16.56ZM95.14,49V74.88a25.93,25.93,0,0,0,24.19-35.27ZM90,35.52l24.19-9.34A25.93,25.93,0,0,0,65.83,26ZM84.66,49l-24.12-9.5A25.92,25.92,0,0,0,84.66,74.88ZM97.83,30H82V81.88H97.83Zm-40,16.4-2.64,6.69,48.22,19.06,2.65-6.68Zm21.47-9.71H69.83V88.57h9.49Zm14.32,36.2,15.66-36.3L61.69,16.07,46,52.37ZM85.49,52.27H95V.41H85.49ZM71.09,36.41l15.3,36.3,47.78-20.14-15.29-36.3Zm39.19.3h-9.85V88.57h9.85ZM124.6,53.27,122,46.58,73.66,65.32,76.25,72Zm-5.27-13.66-5.19-13.43L65.76,44.86,71,58.29ZM65.83,26,60.54,39.45l48.25,19L114.08,45ZM84.66,74.88H95.14V23H84.66ZM155.28,33.6V59.53A25.93,25.93,0,0,0,181.21,33.6Zm-19.19,0V7.67A25.93,25.93,0,0,0,110.16,33.6Zm0,7.21H110.16a25.93,25.93,0,0,0,25.93,25.93Zm17.32,0h25.93a25.93,25.93,0,0,0-25.93-25.93Zm0,7.26V74a25.93,25.93,0,0,0,25.93-25.93Zm-17.32,0V22.14a25.93,25.93,0,0,0-25.93,25.93Zm0,7.31H110.16a25.93,25.93,0,0,0,25.93,25.93Zm19.76,0h25.93a25.93,25.93,0,0,0-25.93-25.93Zm0,7.26V88.57a25.93,25.93,0,0,0,25.93-25.93Zm-29,0H100.93a25.93,25.93,0,0,0,25.93,25.93Zm0-36.3V.41a25.93,25.93,0,0,0-25.93,25.93Zm28.42,0h25.93A25.93,25.93,0,0,0,155.28.41Zm0-18.67H136.09V59.53h19.19ZM110.16,33.6v7.21H162V33.6Zm25.93,33.14h17.32V14.88H136.09Zm-8.61-25.93v7.26h51.86V40.81Zm25.93-18.67H136.09V74h17.32ZM110.16,48.07v7.31H162V48.07Zm25.93,33.24h19.76V29.45H136.09Zm-6.17-25.93v7.26h51.86V55.38Zm25.93-18.67h-29V88.57h29Zm-3.06,25.93V26.34H100.93v36.3ZM126.86,52.27h28.42V.41H126.86Zm2.49-25.93V33.6h51.86V26.34Zm54.93,36.3L161.35,74.75a25.93,25.93,0,0,0,22.93,13.82Zm-5.4-10.21,22.93-12.11A25.93,25.93,0,0,0,178.88,26.5Zm-7.26,0V26.5A25.92,25.92,0,0,0,145.7,52.43Zm0,10.21V88.57a25.93,25.93,0,0,0,25.93-25.93Zm-9.23,0H136.46a25.93,25.93,0,0,0,25.93,25.93Zm0-36.3V.41a25.93,25.93,0,0,0-25.93,25.93Zm27.38,3.32-16.7,19.83.16.13Zm-2.64,21L175.61,27.44a25.92,25.92,0,0,0-10.36,37.14Zm7.62,12V88.57a25.92,25.92,0,0,0,21.87-39.85ZM171.62,45.17H145.7a25.91,25.91,0,0,0,25.92,25.92Zm11.67-1.51L165.88,24.45Zm0-8.61,17.07-19.51h0ZM171.62,33.6V7.67A25.92,25.92,0,0,0,145.7,33.6Zm35.59,16.94-5.4-10.22L156,64.53l5.4,10.22Zm-28.33-24h-.26V78.35h.26Zm-.26,0h-7V78.35h7ZM145.7,52.43V62.64h51.85V52.43Zm25.92-15.72h-9.23V88.57h9.23Zm16.7,25.93V26.34H136.46v36.3ZM162.39,52.27h16.23V.41H162.39Zm16.23,0a11.71,11.71,0,0,1-5.55-2.78l33.4-39.66C197.61,2.36,187.13.41,178.62.41Zm-5.39-2.65a15.56,15.56,0,0,1-4.39-5.91A12.34,12.34,0,0,1,167.79,39h51.85c0-10.18-3.63-21.27-13.32-29.3ZM167.79,39a12,12,0,0,1,1.7-5.63,14.68,14.68,0,0,1,6.12-5.93l23,46.45a37.17,37.17,0,0,0,16-15,40.18,40.18,0,0,0,5-19.86Zm-2.54,25.58,7.63,12,43.74-27.84-7.62-12Zm29.5-27.87H184.28V88.57h10.47ZM171.62,71.09h7V19.24h-7Zm7,0a32.55,32.55,0,0,0,22.08-8.21L165.88,24.45a19.39,19.39,0,0,1,12.74-5.21Zm22.08-8.21a31.47,31.47,0,0,0,10.18-23.57H159a19,19,0,0,1,1.29-6.72,21.18,21.18,0,0,1,5.57-8.14Zm10.18-23.57a31.2,31.2,0,0,0-10.52-23.77l-34.14,39a21.37,21.37,0,0,1-5.84-8.3,19.22,19.22,0,0,1-1.36-7ZM200.36,15.54a32.67,32.67,0,0,0-21.74-7.87V59.53a19.27,19.27,0,0,1-12.4-5ZM178.62,7.67h-7V59.53h7ZM145.7,33.6V45.17h51.85V33.6Zm83.22,0V59.53A25.93,25.93,0,0,0,254.85,33.6Zm-19.18,0V7.67A25.93,25.93,0,0,0,183.81,33.6Zm0,7.21H183.81a25.93,25.93,0,0,0,25.93,25.93Zm17.32,0H253a25.93,25.93,0,0,0-25.93-25.93Zm0,7.26V74A25.93,25.93,0,0,0,253,48.07Zm-17.32,0V22.14a25.93,25.93,0,0,0-25.93,25.93Zm0,7.31H183.81a25.93,25.93,0,0,0,25.93,25.93Zm19.75,0h25.93a25.93,25.93,0,0,0-25.93-25.93Zm0,7.26V88.57a25.93,25.93,0,0,0,25.93-25.93Zm-29,0H174.58a25.93,25.93,0,0,0,25.93,25.93Zm0-36.3V.41a25.93,25.93,0,0,0-25.93,25.93Zm28.41,0h25.93A25.93,25.93,0,0,0,228.92.41Zm0-18.67H209.74V59.53h19.18ZM183.81,33.6v7.21h51.86V33.6Zm25.93,33.14h17.32V14.88H209.74Zm-8.61-25.93v7.26H253V40.81Zm25.93-18.67H209.74V74h17.32ZM183.81,48.07v7.31h51.86V48.07Zm25.93,33.24h19.75V29.45H209.74Zm-6.17-25.93v7.26h51.85V55.38Zm25.92-18.67h-29V88.57h29Zm-3.05,25.93V26.34H174.58v36.3ZM200.51,52.27h28.41V.41H200.51ZM203,26.34V33.6h51.85V26.34ZM264.3,30l23.36,11.26a25.92,25.92,0,0,0-9.14-32.94Zm-3.47,7.21-13,22.41a25.92,25.92,0,0,0,36.39-11.15Zm-6.12-2.7-8.2,24.6.35.12Zm-7.52,4.31L235.11,61.73h0ZM252,40.6l-6.94,25,.54.14Zm5.65,1.82-9.4,24.16.54.21Zm4.82,3.42,20-16.51h0Zm-2.12,14.21,15,21.15.18-.12ZM241,61.4,249.6,37Zm-7.68-4.25L210.14,45.48a25.92,25.92,0,0,0,6.65,31.66ZM236.87,50l17-19.58a25.93,25.93,0,0,0-40.16,7.92ZM243.35,54l-10,23.94.28.11Zm10.11.73,13.75,22,.64-.41Zm-.2-4.88L237.82,70.67c.29.21.58.42.88.62Zm-3.53-1.5-6.14,25.19.58.13ZM245.12,47l-8.2,24.6Zm-4.62-1.81L229.6,68.69Zm-3.58-3.11-21.81,14,.4.6Zm2.54-13.12L255,49.68l0,0ZM250,51.86a3.12,3.12,0,0,1,.55,0h.05a1.07,1.07,0,0,1-.24-.09l-.26-.14L278.52,8.29A51.42,51.42,0,0,0,250,0Zm-9-33.15-3.48,7.21,46.71,22.52,3.48-7.21Zm32.92-3.94a56.71,56.71,0,0,0-11.32-5L246.86,59.2a5.06,5.06,0,0,1,.93.39Zm-11-4.88a43.36,43.36,0,0,0-13.7-2.42V59.32a13.17,13.17,0,0,1-2.55-.22c-.36-.07-.43-.11-.15,0Zm-13.7-2.42a31.19,31.19,0,0,0-17.31,5A28.13,28.13,0,0,0,219.29,36h51.86a23.4,23.4,0,0,1-2.52,10.5,23.73,23.73,0,0,1-8.1,9.13,20.83,20.83,0,0,1-11.32,3.65ZM219.29,36c0,13.74,9,22.1,15.82,25.69l24.16-45.89a21.92,21.92,0,0,1,7.51,6.63A23.38,23.38,0,0,1,271.15,36Zm15.82,25.69A50.38,50.38,0,0,0,245,65.59l13.88-50-.31-.09a6.6,6.6,0,0,1,.68.31Zm10.45,4a22.54,22.54,0,0,1,2.65.85L267,18.25a75,75,0,0,0-8.65-2.77Zm3.19,1.06a14.81,14.81,0,0,1-6.3-4.44l40-33a36.89,36.89,0,0,0-15.95-11.28Zm-6.3-4.44a16.86,16.86,0,0,1-4-10.49h51.85a35,35,0,0,0-7.91-22.53Zm-4-10.49a15.69,15.69,0,0,1,1.71-6.93A16.25,16.25,0,0,1,245.14,39l30.34,42.06a35.46,35.46,0,0,0,14.85-29.22Zm6.84-13A9.3,9.3,0,0,1,249.89,37V88.88A43.37,43.37,0,0,0,275.3,81.2ZM249.89,37h0L249.6,37l-17.26,48.9a52.52,52.52,0,0,0,17.55,3ZM249.6,37c-.2-.07-.25-.11-.19-.07a2.81,2.81,0,0,1,.39.27l-33,40a51,51,0,0,0,15.55,8.71Zm6.85,31.86L260,61.7,213.71,38.38l-3.57,7.1Zm-36.57.81a49.51,49.51,0,0,0,13.5,8.3l19.94-47.87c-.11-.05-.1-.05,0,0a3.74,3.74,0,0,1,.54.4ZM233.66,78A43.8,43.8,0,0,0,250,81.41V29.56a12.33,12.33,0,0,1,2.62.26c.46.11.61.19.43.11ZM250,81.41a32.27,32.27,0,0,0,17.22-4.72l-27.49-44A19.76,19.76,0,0,1,250,29.56Zm17.86-5.13a28.62,28.62,0,0,0,12.79-24H228.78a23,23,0,0,1,2.63-10.62,23.3,23.3,0,0,1,7.67-8.57Zm12.79-24a28.82,28.82,0,0,0-12.83-23.94L238.7,71.29A22.45,22.45,0,0,1,232,64a23.28,23.28,0,0,1-3.17-11.69ZM268.69,29a35.13,35.13,0,0,0-13.4-6L244.17,73.65a16.93,16.93,0,0,1-6.35-3Zm-12.82-5.86c-.6-.15-1.45-.39-2.56-.76l-16.39,49.2c2.2.73,4.44,1.4,6.67,1.94Zm-2.56-.76a17.29,17.29,0,0,1-1.91-.74L229.6,68.69a70.4,70.4,0,0,0,7.32,2.89Zm-1.91-.74a17.14,17.14,0,0,1,6.93,5.79L215.51,56.68a34.74,34.74,0,0,0,14.09,12ZM258.73,28a16.63,16.63,0,0,1,2.72,8.84H209.59a35.33,35.33,0,0,0,5.52,19.21Zm2.72,8.84A16.57,16.57,0,0,1,255,49.68L223.91,8.19a35.33,35.33,0,0,0-14.32,28.68Zm-6.39,12.78A10.25,10.25,0,0,1,250,51.86V0c-8.26,0-17.76,1.92-26.13,8.23Zm27.59-23.31V.41a25.93,25.93,0,0,0-25.93,25.93Zm26.6,3.32-17,19.61.15.13Zm0,19.24L291.7,29.81h0Zm-17.37,3.53V26.5A25.93,25.93,0,0,0,266,52.43Zm0,10.21V88.57A25.92,25.92,0,0,0,317.8,62.64Zm-9.23,0H256.72a25.93,25.93,0,0,0,25.93,25.93Zm9.23-29V7.67A25.93,25.93,0,0,0,266,33.6Zm0,11.57H266a25.92,25.92,0,0,0,25.93,25.92Zm10.83-1.51L285.3,24.45h0Zm-20.06,8.61h15.81V.41H282.65Zm15.81,0a11.45,11.45,0,0,1-6.17-3l33.92-39.22C317.45,2.47,307,.41,298.46.41Zm-6-2.87a15.51,15.51,0,0,1-4.29-5.91,12.11,12.11,0,0,1-1-4.49H339c0-9.95-3.43-21-12.95-29.08ZM287.16,39a10.5,10.5,0,0,1,.79-3.71,14.89,14.89,0,0,1,3.75-5.48L326.79,68C335.86,59.66,339,48.75,339,39Zm4.54-9.19a13.57,13.57,0,0,1,4.88-2.91,7,7,0,0,1,1.88-.4V78.35C307.38,78.35,318,76,326.79,68Zm6.76-3.31h-6.58V78.35h6.58ZM266,52.43V62.64H317.8V52.43Zm25.93-15.72h-9.23V88.57h9.23Zm16.69,25.93V26.34H256.72v36.3ZM266,33.6V45.17H317.8V33.6Zm25.93,37.49H298V19.24h-6.12Zm6.12,0a32.62,32.62,0,0,0,22.13-8.21L285.3,24.45A19.35,19.35,0,0,1,298,19.24Zm22.13-8.21A31.46,31.46,0,0,0,330.3,39.31H278.45a18.89,18.89,0,0,1,1.28-6.72,21.29,21.29,0,0,1,5.57-8.14ZM330.3,39.31a31.22,31.22,0,0,0-10.51-23.77l-34.15,39a21.45,21.45,0,0,1-5.83-8.3,19.22,19.22,0,0,1-1.36-7ZM319.79,15.54A32.78,32.78,0,0,0,298,7.67V59.53a19.21,19.21,0,0,1-12.36-5ZM298,7.67h-6.12V59.53H298ZM339.91,56l24.18-9.37A25.93,25.93,0,0,0,339.91,30ZM324,56V30a25.93,25.93,0,0,0-24.11,16.4Zm-2.64,6.69V88.57a25.92,25.92,0,0,0,24.11-16.4Zm-9.49,0L288.1,52.37a25.93,25.93,0,0,0,23.81,36.2Zm15.66-36.3V.41a25.94,25.94,0,0,0-23.81,15.66Zm9.49,0L361,16.27A25.92,25.92,0,0,0,337.06.41Zm15.3,36.3V88.57a25.93,25.93,0,0,0,23.89-36Zm-9.86,0L318.33,72A25.93,25.93,0,0,0,342.5,88.57ZM337.22,49V74.88A25.92,25.92,0,0,0,361.4,39.61ZM332,35.52l24.19-9.34A25.93,25.93,0,0,0,307.91,26ZM326.74,49l-24.12-9.5a25.92,25.92,0,0,0,24.12,35.43ZM339.91,30H324V81.88h15.87Zm-40,16.4-2.64,6.69,48.22,19.06,2.65-6.68Zm21.47-9.71h-9.49V88.57h9.49Zm14.32,36.2,15.66-36.3L303.76,16.07,288.1,52.37Zm-8.15-20.64h9.49V.41h-9.49Zm-14.4-15.86,15.29,36.3,47.79-20.14L361,16.27Zm39.19.3H342.5V88.57h9.86Zm14.32,16.56-2.59-6.69L315.74,65.32,318.33,72ZM361.4,39.61l-5.18-13.43L307.84,44.86,313,58.29ZM307.91,26l-5.29,13.43,48.25,19L356.15,45Zm18.83,48.86h10.48V23H326.74Zm51.44-12.24L355.25,74.75a25.93,25.93,0,0,0,22.93,13.82Zm-5.4-10.21,22.93-12.11A25.93,25.93,0,0,0,372.78,26.5Zm-7.26,0V26.5A25.93,25.93,0,0,0,339.6,52.43Zm0,10.21V88.57a25.93,25.93,0,0,0,25.93-25.93Zm-9.23,0H330.37a25.92,25.92,0,0,0,25.92,25.93Zm0-36.3V.41a25.92,25.92,0,0,0-25.92,25.93Zm27.38,3.32L367,49.49l.16.13Zm-2.64,21L369.51,27.44a25.92,25.92,0,0,0-10.36,37.14Zm7.62,12V88.57a25.93,25.93,0,0,0,21.88-39.85ZM365.52,45.17H339.6a25.92,25.92,0,0,0,25.92,25.92Zm11.67-1.51L359.78,24.45Zm0-8.61,17.08-19.51h0ZM365.52,33.6V7.67A25.93,25.93,0,0,0,339.6,33.6Zm35.59,16.94-5.4-10.22L349.86,64.53l5.39,10.22Zm-28.33-24h-.25V78.35h.25Zm-.25,0h-7V78.35h7ZM339.6,52.43V62.64h51.85V52.43Zm25.92-15.72h-9.23V88.57h9.23Zm16.7,25.93V26.34H330.37v36.3ZM356.29,52.27h16.24V.41H356.29Zm16.24,0A11.65,11.65,0,0,1,367,49.49l33.4-39.66C391.51,2.36,381,.41,372.53.41Zm-5.4-2.65a15.56,15.56,0,0,1-4.39-5.91A12.34,12.34,0,0,1,361.69,39h51.85c0-10.18-3.63-21.27-13.32-29.3ZM361.69,39a12,12,0,0,1,1.7-5.63,14.68,14.68,0,0,1,6.12-5.93l23,46.45a37.12,37.12,0,0,0,16-15,40.18,40.18,0,0,0,5-19.86Zm-2.54,25.58,7.63,12,43.75-27.84-7.63-12Zm29.5-27.87H378.18V88.57h10.47ZM365.52,71.09h7V19.24h-7Zm7,0a32.54,32.54,0,0,0,22.07-8.21L359.78,24.45a19.41,19.41,0,0,1,12.75-5.21Zm22.07-8.21a31.43,31.43,0,0,0,10.18-23.57H352.92a19,19,0,0,1,1.29-6.72,21.18,21.18,0,0,1,5.57-8.14Zm10.18-23.57a31.22,31.22,0,0,0-10.51-23.77l-34.15,39a21.48,21.48,0,0,1-5.84-8.3,19.22,19.22,0,0,1-1.36-7ZM394.27,15.54a32.71,32.71,0,0,0-21.74-7.87V59.53a19.29,19.29,0,0,1-12.41-5ZM372.53,7.67h-7V59.53h7ZM339.6,33.6V45.17h51.85V33.6Zm82.55.16V59.69a25.93,25.93,0,0,0,25.93-25.93Zm-10.94,0V7.83a25.93,25.93,0,0,0-25.93,25.93Zm0,28.88V88.57a25.93,25.93,0,0,0,25.93-25.93Zm-9.23,0H376.05A25.93,25.93,0,0,0,402,88.57Zm0-28.88h25.93A25.93,25.93,0,0,0,402,7.83Zm-10.84,0H365.21a25.93,25.93,0,0,0,25.93,25.93Zm0-7.47V.36a25.93,25.93,0,0,0-25.93,25.93Zm31,0h25.93A25.93,25.93,0,0,0,422.15.36Zm0-18.46H411.21V59.69h10.94ZM385.28,33.76V62.64h51.86V33.76Zm25.93,3H402V88.57h9.23Zm16.7,25.93V33.76H376.05V62.64ZM402,7.83H391.14V59.69H402Zm15.09,25.93V26.29H365.21v7.47ZM391.14,52.22h31V.36h-31Zm5.08-25.93v7.47h51.86V26.29Zm58.9,7.31V59.53A25.93,25.93,0,0,0,481.05,33.6Zm-19.19,0V7.67A25.93,25.93,0,0,0,410,33.6Zm0,7.21H410a25.93,25.93,0,0,0,25.93,25.93Zm17.32,0h25.93a25.93,25.93,0,0,0-25.93-25.93Zm0,7.26V74a25.93,25.93,0,0,0,25.93-25.93Zm-17.32,0V22.14A25.93,25.93,0,0,0,410,48.07Zm0,7.31H410a25.93,25.93,0,0,0,25.93,25.93Zm19.76,0h25.93a25.93,25.93,0,0,0-25.93-25.93Zm0,7.26V88.57a25.93,25.93,0,0,0,25.93-25.93Zm-29,0H400.77A25.93,25.93,0,0,0,426.7,88.57Zm0-36.3V.41a25.93,25.93,0,0,0-25.93,25.93Zm28.42,0h25.93A25.93,25.93,0,0,0,455.12.41Zm0-18.67H435.93V59.53h19.19ZM410,33.6v7.21h51.86V33.6Zm25.93,33.14h17.32V14.88H435.93Zm-8.61-25.93v7.26h51.86V40.81Zm25.93-18.67H435.93V74h17.32ZM410,48.07v7.31h51.86V48.07Zm25.93,33.24h19.76V29.45H435.93Zm-6.17-25.93v7.26h51.86V55.38Zm25.93-18.67h-29V88.57h29Zm-3.06,25.93V26.34H400.77v36.3ZM426.7,52.27h28.42V.41H426.7Zm2.49-25.93V33.6h51.86V26.34ZM206.93,69.56V43.63A25.93,25.93,0,0,0,181,69.56Zm29.51,5L218.66,93.46l.09.09Zm-.06,26.24,17.6,19,.1-.09Zm-29.45,5H181a25.93,25.93,0,0,0,25.93,25.92Zm9.23-28.94V51a25.93,25.93,0,0,0-25.93,25.93Zm0,21.57H190.23a25.93,25.93,0,0,0,25.93,25.93Zm13.54-2.95L210.55,78.05h0ZM229.59,80l-19,17.68.15.16Zm-22.66,15.5h15.61V43.63H206.93Zm15.61,0c.31,0-.15,0-1.07-.29a8.21,8.21,0,0,1-2.81-1.73l35.55-37.75c-9.16-8.63-20.53-12.08-31.67-12.08Zm-3.79-1.93a9.72,9.72,0,0,1-2.25-3.31,7.3,7.3,0,0,1-.6-2.53h51.86a43,43,0,0,0-13.64-32.08Zm-2.85-5.84a7.33,7.33,0,0,1,.62-2.64,9.46,9.46,0,0,1,2.17-3.2l35.39,37.91a43,43,0,0,0,13.68-32.07Zm2.89-5.93a7.85,7.85,0,0,1,2.67-1.62c.82-.29,1.16-.23.72-.23v51.85c11.1,0,22.53-3.34,31.8-11.91Zm3.39-1.85H206.93v51.85h15.25Zm10.68,25.93V69.56H181v36.3ZM190.23,76.92V98.49h51.86V76.92Zm25.93,47.5h6.59V72.56h-6.59Zm6.59,0A34.87,34.87,0,0,0,248.85,113L210.54,78.06a17.1,17.1,0,0,1,5.92-4.17,16.3,16.3,0,0,1,6.29-1.33ZM248.84,113a37,37,0,0,0,9.53-25.27H206.52a13.13,13.13,0,0,1,.79-4.31,15.89,15.89,0,0,1,3.24-5.4Zm9.53-25.27a36.7,36.7,0,0,0-10-25.62L210.78,97.82a15.91,15.91,0,0,1-3.39-5.47,13.46,13.46,0,0,1-.87-4.59ZM248.56,62.3A35.42,35.42,0,0,0,222.33,51v51.86a15.81,15.81,0,0,1-6.05-1.27,16.53,16.53,0,0,1-5.65-3.92ZM222.33,51h-6.17v51.86h6.17Zm53.36,25.83v25.92a25.92,25.92,0,0,0,25.93-25.92Zm-19.19,0V50.89a25.93,25.93,0,0,0-25.92,25.93Zm0,7.2H230.58A25.93,25.93,0,0,0,256.5,110Zm17.32,0h25.93A25.92,25.92,0,0,0,273.82,58.1Zm0,7.26v25.93a25.93,25.93,0,0,0,25.93-25.93Zm-17.32,0V65.36a25.92,25.92,0,0,0-25.92,25.92Zm0,7.32H230.58a25.92,25.92,0,0,0,25.92,25.92Zm19.76,0h25.93a25.93,25.93,0,0,0-25.93-25.93Zm0,7.26v25.92a25.93,25.93,0,0,0,25.93-25.92Zm-29,0H221.35a25.92,25.92,0,0,0,25.92,25.92Zm0-36.3V43.63a25.92,25.92,0,0,0-25.92,25.93Zm28.42,0h25.93a25.93,25.93,0,0,0-25.93-25.93Zm0-18.67H256.5v51.85h19.19ZM230.58,76.82V84h51.85v-7.2ZM256.5,110h17.32V58.1H256.5ZM247.9,84v7.26h51.85V84Zm25.92-18.66H256.5v51.85h17.32ZM230.58,91.28V98.6h51.85V91.28Zm25.92,33.24h19.76V72.67H256.5ZM250.33,98.6v7.26h51.86V98.6Zm25.93-18.67h-29v51.85h29Zm-3.06,25.93V69.56H221.35v36.3ZM247.27,95.48h28.42V43.63H247.27Zm2.49-25.92v7.26h51.86V69.56ZM38.87,141.34H12.94a25.93,25.93,0,0,0,25.93,25.93Zm15.4,0H80.2a25.93,25.93,0,0,0-25.93-25.93Zm0,7.73V175A25.93,25.93,0,0,0,80.2,149.07Zm-24.63,0H3.71A25.93,25.93,0,0,0,29.64,175Zm0-36.3V86.84A25.93,25.93,0,0,0,3.71,112.77Zm9.23,0H64.8A25.93,25.93,0,0,0,38.87,86.84Zm0,54.5h15.4V115.41H38.87ZM28.34,141.34v7.73H80.2v-7.73Zm25.93-18.2H29.64V175H54.27Zm1.3,25.93v-36.3H3.71v36.3ZM29.64,138.7h9.23V86.84H29.64Zm-16.7-25.93v28.57H64.8V112.77Zm55.54,36.3V175a25.93,25.93,0,0,0,25.93-25.93Zm-9.23,0H33.32A25.93,25.93,0,0,0,59.25,175Zm0-36.3V86.84a25.93,25.93,0,0,0-25.93,25.93Zm9.23,0H94.41A25.93,25.93,0,0,0,68.48,86.84Zm0,10.37H59.25V175h9.23Zm16.69,25.93v-36.3H33.32v36.3ZM59.25,138.7h9.23V86.84H59.25Zm-16.7-25.93v36.3H94.41v-36.3Zm53.76,36.3V175a25.92,25.92,0,0,0,24.13-16.45Zm-9.54,0L62.6,158.46A25.93,25.93,0,0,0,86.77,175Zm-14.11-36.3V86.84A25.93,25.93,0,0,0,48.5,122.16Zm9.86,0L107,104.26A25.93,25.93,0,0,0,82.52,86.84Zm9.28,26.71L67.31,148a25.93,25.93,0,0,0,49,0Zm9.28-26.71V86.84a25.92,25.92,0,0,0-24.49,17.42Zm9.49,0,24.13,9.48a25.92,25.92,0,0,0-24.13-35.41ZM96.31,123.14H86.77V175h9.54Zm14.63,16.54-14.11-36.3L48.5,122.16l14.1,36.3Zm-38.28-1h9.86V86.84H72.66ZM58,121.28,67.31,148l49-17L107,104.26ZM116.29,148l9.28-26.71-49-17L67.31,131Zm-15.21-9.29h9.49V86.84h-9.49ZM86.44,103.29l-14.26,36.3,48.26,19,14.26-36.3ZM124,149.07V175a25.93,25.93,0,0,0,25.92-25.93Zm-9.24,0H88.79A25.93,25.93,0,0,0,114.71,175Zm0-36.3V86.84a25.93,25.93,0,0,0-25.92,25.93Zm9.24,0h25.92A25.93,25.93,0,0,0,124,86.84Zm0,10.37h-9.24V175H124Zm16.69,25.93v-36.3H88.79v36.3ZM114.71,138.7H124V86.84h-9.24ZM98,112.77v36.3h51.85v-36.3Zm67.29,36.3V175a25.93,25.93,0,0,0,25.93-25.93Zm-8.14,0L136.4,164.59A25.93,25.93,0,0,0,157.17,175Zm-16.7-22.35,20.78-15.52a25.93,25.93,0,0,0-46.7,15.52Zm0,22.35V175a25.93,25.93,0,0,0,25.93-25.93Zm-8.66,0H105.89A25.92,25.92,0,0,0,131.81,175Zm0-36.3V86.84a25.92,25.92,0,0,0-25.92,25.93Zm8.15,0,20.76-15.53A25.93,25.93,0,0,0,140,86.84Zm16.74,22.4L135.94,150.7a25.92,25.92,0,0,0,46.69-15.53Zm0-22.4V86.84a25.93,25.93,0,0,0-25.92,25.93Zm8.61,0h25.93a25.93,25.93,0,0,0-25.93-25.93Zm0,10.37h-8.14V175h8.14Zm12.63,10.41L161.25,111.2l-41.55,31,16.7,22.35Zm-63.39-6.83v22.35H166.4V126.72Zm25.92-3.58h-8.66V175h8.66Zm17.27,25.93v-36.3H105.89v36.3ZM131.81,138.7H140V86.84h-8.15Zm-12.62-10.4,16.75,22.4,41.53-31L160.72,97.24Zm63.44,6.87v-22.4H130.78v22.4ZM156.7,138.7h8.61V86.84H156.7Zm-17.31-25.93v36.3h51.85v-36.3Zm57.89,17.84V104.68a25.92,25.92,0,0,0-25.92,25.93Zm8,0H231.2a25.93,25.93,0,0,0-25.93-25.93Zm0,14.15L220.16,166a25.94,25.94,0,0,0,11-21.23Zm-7.16,3.43,7.74,24.75.19-.07Zm-21.78-4-18,18.68.09.09Zm.16-26.44-17.63-19Zm22.35-3.84L190,138.28Zm6.79,3.94,20,16.52a25.93,25.93,0,0,0-2.76-35.9Zm-5.18,6.28L182.88,143.2a25.93,25.93,0,0,0,37.55-2.56Zm-4.57-2.86-10,23.91.41.17Zm-12.65,2-18.49-18.18h0Zm.05,15.35,18.49-18.18h0Zm14,1.34,11.6,23.2A26,26,0,0,0,223.21,140Zm0,16.55h8V104.68h-8Zm-17.94-25.93v14.15H231.2V130.61Zm11-7.07a2.45,2.45,0,0,1,.44-.27s-.22.1-.63.23L206,172.87A52.18,52.18,0,0,0,220.16,166Zm0-.1c-.63.19-.66.12-.2.12v51.85a52.61,52.61,0,0,0,15.67-2.47Zm-.2.12a3.13,3.13,0,0,1,.46,0,6,6,0,0,1,1.18.33,7.27,7.27,0,0,1,2.4,1.49L158.44,163a45.2,45.2,0,0,0,31.74,12.45Zm4.13,2a8.17,8.17,0,0,1,1.79,2.7,7.49,7.49,0,0,1,.61,2.71H144.86a43.59,43.59,0,0,0,13.49,32Zm2.4,5.41A7.88,7.88,0,0,1,196,134a8.33,8.33,0,0,1-1.88,2.77l-35.26-38a43.13,43.13,0,0,0-14,32.18Zm-2.59,5.84a6.72,6.72,0,0,1-2.21,1.34,5.63,5.63,0,0,1-1.11.29V86.53a46.13,46.13,0,0,0-31.94,12.21Zm-3.32,1.63a3.39,3.39,0,0,1-.58,0l-.24-.06L207.7,89.54a49.5,49.5,0,0,0-16.9-3Zm-.82-.11a4.83,4.83,0,0,1-.46-.23,7,7,0,0,1-1.11-.82l34.45-38.76a46.67,46.67,0,0,0-15.16-8.93Zm-4.33-36.95-5.19,6.28,40,33,5.19-6.27ZM218,105.05a40.74,40.74,0,0,0-12.5-7.85l-19.26,48.15a11.31,11.31,0,0,1-3.37-2.15Zm-12.09-7.68a39,39,0,0,0-15.17-3.11v51.85a13,13,0,0,1-4.91-.93Zm-15.17-3.11a36,36,0,0,0-26,10.86l37,36.36a15.69,15.69,0,0,1-5.17,3.44,15.32,15.32,0,0,1-5.8,1.19Zm-26,10.86a36.34,36.34,0,0,0-10.44,25.8h51.85a14.53,14.53,0,0,1-1.06,5.33,15.64,15.64,0,0,1-3.37,5.22Zm-10.44,25.8a36.5,36.5,0,0,0,10.5,25.91l37-36.36a15.6,15.6,0,0,1,3.33,5.14,14.75,14.75,0,0,1,1.05,5.31Zm10.5,25.91a36.11,36.11,0,0,0,26,10.85V115.83a15.21,15.21,0,0,1,5.71,1.17,15.59,15.59,0,0,1,5.21,3.47Zm26,10.85a40.4,40.4,0,0,0,18-4.49L185.69,116.8a12.15,12.15,0,0,1,5.16-1ZM223.21,140v-9.38H171.36V140Zm42.54,9.08V175a25.92,25.92,0,0,0,24.62-17.81Zm-9.49,0-25,6.72a25.93,25.93,0,0,0,25,19.21ZM249.52,124l25-6.73a25.92,25.92,0,0,0-50.05-.09Zm-6.84,25.1V175a25.93,25.93,0,0,0,25-19.11Zm-9.55,0-24.64,8.06A25.93,25.93,0,0,0,233.13,175Zm-11.87-36.3V86.84a25.93,25.93,0,0,0-24.64,34Zm9.85,0,25.06-6.67a25.93,25.93,0,0,0-25.06-19.26Zm7.11,26.71-25.06,6.66a25.93,25.93,0,0,0,50.15-.14Zm6.95-26.71V86.84a25.94,25.94,0,0,0-25.1,19.4Zm9,0,25.05-6.67a25.93,25.93,0,0,0-25.05-19.26Zm7.1,26.71-25.05,6.66a25.92,25.92,0,0,0,50.13-.09Zm7-26.71V86.84a25.93,25.93,0,0,0-25.08,19.35Zm9.44,0,24.62,8.12a25.93,25.93,0,0,0-24.62-34Zm-12,10.37h-9.49V175h9.49Zm15.55,19.2-6.74-25.1L224.48,130.7l6.74,25.09Zm-56.79-25.19-6.85,25.1,50,13.64,6.85-25.1Zm18.17,6h-9.55V175h9.55ZM257.78,141l-11.88-36.3-49.28,16.12,11.87,36.3Zm-36.52-2.31h9.85V86.84h-9.85Zm-15.2-19.27,7.1,26.71,50.11-13.33-7.1-26.71ZM263.31,146l6.95-26.7-50.19-13.06L213.12,133Zm-18.14-7.3h9V86.84h-9Zm-16-19.27,7.11,26.71,50.11-13.33-7.11-26.71Zm57.24,26.62,7-26.71-50.16-13.15-7,26.71Zm-18.08-7.35h9.44V86.84h-9.44Zm-15.18-34.06-12,36.3,49.24,16.25,12-36.3Zm49.81,37.74L327.1,133a25.94,25.94,0,0,0-24.18-16.56Zm-15.87,0V116.45a25.92,25.92,0,0,0-24.11,16.4Zm-2.64,6.69V175a25.92,25.92,0,0,0,24.11-16.4Zm-9.49,0L251.11,138.8A25.92,25.92,0,0,0,274.92,175Zm15.66-36.3V86.84a25.94,25.94,0,0,0-23.81,15.66Zm9.49,0L324,102.7a25.92,25.92,0,0,0-23.89-15.86Zm15.29,36.3V175a25.93,25.93,0,0,0,23.9-36Zm-9.85,0-24.17,9.37A25.92,25.92,0,0,0,305.51,175Zm-5.29-13.69v25.93A25.93,25.93,0,0,0,324.41,126ZM295,122l24.18-9.34a25.93,25.93,0,0,0-48.31-.16Zm-5.29,13.43-24.13-9.5a25.94,25.94,0,0,0,24.13,35.43Zm13.17-18.93H287.05v51.86h15.87Zm-40,16.4-2.65,6.69,48.23,19.06,2.64-6.69Zm21.47-9.71h-9.49V175h9.49Zm14.31,36.2L314.38,123,266.77,102.5l-15.66,36.3Zm-8.14-20.64h9.49V86.84h-9.49Zm-14.41-15.86,15.3,36.3L339.26,139,324,102.7Zm39.19.3h-9.85V175h9.85Zm14.33,16.56L327.1,133l-48.36,18.74,2.6,6.69ZM324.41,126l-5.19-13.43-48.37,18.68L276,144.72Zm-53.5-13.59-5.29,13.43,48.25,19,5.29-13.43Zm18.84,48.86h10.47V109.45H289.75Zm38.78-20H302.6a25.93,25.93,0,0,0,25.93,25.93Zm15.4,0h25.93a25.93,25.93,0,0,0-25.93-25.93Zm0,7.73V175a25.93,25.93,0,0,0,25.93-25.93Zm-24.63,0H293.37A25.93,25.93,0,0,0,319.3,175Zm0-36.3V86.84a25.93,25.93,0,0,0-25.93,25.93Zm9.23,0h25.93a25.93,25.93,0,0,0-25.93-25.93Zm0,54.5h15.4V115.41h-15.4ZM318,141.34v7.73h51.85v-7.73Zm25.92-18.2H319.3V175h24.63Zm1.3,25.93v-36.3H293.37v36.3ZM319.3,138.7h9.23V86.84H319.3Zm-16.7-25.93v28.57h51.86V112.77Zm55.54,28.57H332.21a25.93,25.93,0,0,0,25.93,25.93Zm15.4,0h25.93a25.93,25.93,0,0,0-25.93-25.93Zm0,7.73V175a25.93,25.93,0,0,0,25.93-25.93Zm-24.63,0H323A25.93,25.93,0,0,0,348.91,175Zm0-36.3V86.84A25.93,25.93,0,0,0,323,112.77Zm9.23,0h25.93a25.93,25.93,0,0,0-25.93-25.93Zm0,54.5h15.4V115.41h-15.4Zm-10.53-25.93v7.73h51.86v-7.73Zm25.93-18.2H348.91V175h24.63Zm1.3,25.93v-36.3H323v36.3ZM348.91,138.7h9.23V86.84h-9.23Zm-16.7-25.93v28.57h51.86V112.77ZM406.93,120V146A25.93,25.93,0,0,0,432.86,120Zm-19.18,0V94.1A25.93,25.93,0,0,0,361.82,120Zm0,7.21H361.82a25.93,25.93,0,0,0,25.93,25.93Zm17.32,0H431a25.93,25.93,0,0,0-25.93-25.93Zm0,7.26v25.93A25.93,25.93,0,0,0,431,134.5Zm-17.32,0V108.57a25.93,25.93,0,0,0-25.93,25.93Zm0,7.31H361.82a25.93,25.93,0,0,0,25.93,25.93Zm19.75,0h25.93a25.93,25.93,0,0,0-25.93-25.93Zm0,7.26V175a25.93,25.93,0,0,0,25.93-25.93Zm-29,0H352.59A25.93,25.93,0,0,0,378.52,175Zm0-36.3V86.84a25.93,25.93,0,0,0-25.93,25.93Zm28.41,0h25.93a25.93,25.93,0,0,0-25.93-25.93Zm0-18.67H387.75V146h19.18ZM361.82,120v7.21h51.86V120Zm25.93,33.14h17.32V101.31H387.75Zm-8.61-25.93v7.26H431v-7.26Zm25.93-18.67H387.75v51.86h17.32ZM361.82,134.5v7.31h51.86V134.5Zm25.93,33.24H407.5V115.88H387.75Zm-6.17-25.93v7.26h51.85v-7.26Zm25.92-18.67h-29V175h29Zm-3.05,25.93v-36.3H352.59v36.3ZM378.52,138.7h28.41V86.84H378.52ZM381,112.77V120h51.85v-7.26Zm60.78,7.41v25.93a25.93,25.93,0,0,0,25.93-25.93Zm-10.94,0V94.26a25.93,25.93,0,0,0-25.93,25.92Zm0,28.89V175a25.93,25.93,0,0,0,25.93-25.93Zm-9.23,0H395.69A25.93,25.93,0,0,0,421.62,175Zm0-28.89h25.93a25.93,25.93,0,0,0-25.93-25.92Zm-10.84,0H384.85a25.93,25.93,0,0,0,25.93,25.93Zm0-7.46V86.79a25.93,25.93,0,0,0-25.93,25.93Zm31,0h25.93a25.93,25.93,0,0,0-25.93-25.93Zm0-18.46H430.85v51.85h10.94Zm-36.87,25.92v28.89h51.86V120.18Zm25.93,3h-9.23V175h9.23Zm16.7,25.93V120.18H395.69v28.89ZM421.62,94.26H410.78v51.85h10.84Zm15.09,25.92v-7.46H384.85v7.46Zm-25.93,18.47h31V86.79h-31Zm5.08-25.93v7.46h51.86v-7.46Zm38.05,9.49L479.69,125a25.75,25.75,0,0,0,.15-2.78Zm-1.55,14.41v25.93a25.92,25.92,0,0,0,25.77-23.14Zm-5.4,0-25.78,2.79A25.94,25.94,0,0,0,447,162.55Zm-1.55-14.41H419.48a25.75,25.75,0,0,0,.15,2.78Zm0-9.23V87.05A25.93,25.93,0,0,0,419.48,113Zm8.5,0h25.93a25.93,25.93,0,0,0-25.93-25.93Zm-1.29,29-18.34,18.33.4.39Zm0,6.27L471,166.62Zm-6.23,0-18.72,17.94q.39.41.78.78Zm0-6.27L428.45,123.3l-.39.38Zm-18.26-22.59-1.55,14.41,51.55,5.57L479.69,125Zm24.23-8.73H447v51.85h5.4Zm20.38,23.14-1.55-14.41L419.63,125l1.55,14.42Zm-1.4-11.63V113H419.48v9.23ZM445.41,138.9h8.5V87.05h-8.5ZM428,113v9.23h51.86V113Zm21.52,53.77a21.05,21.05,0,0,1-7.54-1.42,22.05,22.05,0,0,1-7.68-5L471,123.68a30.11,30.11,0,0,0-21.45-8.78Zm-14.82-6a22,22,0,0,1-5.2-7.72,21.2,21.2,0,0,1-1.55-7.89h51.86a30,30,0,0,0-9.24-21.83Zm-6.75-15.61a21.37,21.37,0,0,1,1.49-7.75,21.79,21.79,0,0,1,4.86-7.42L471,166.62a30.2,30.2,0,0,0,8.84-21.49ZM434.28,130a21.91,21.91,0,0,1,7.68-5,21.05,21.05,0,0,1,7.54-1.42v51.85A30.13,30.13,0,0,0,471,166.62Zm15.22-6.4a21.11,21.11,0,0,1,7.57,1.42,21.52,21.52,0,0,1,7.26,4.59L428.45,167a30.22,30.22,0,0,0,21.05,8.4Zm15.61,6.79a21.74,21.74,0,0,1,4.65,7.38,21.06,21.06,0,0,1,1.37,7.4H419.27a30.3,30.3,0,0,0,8.4,21.1Zm6,14.78a21.24,21.24,0,0,1-1.42,7.54,22.05,22.05,0,0,1-5,7.68l-36.67-36.67a30.13,30.13,0,0,0-8.79,21.45Zm-6.8,15.61a21.84,21.84,0,0,1-7.26,4.59,21.11,21.11,0,0,1-7.57,1.42V114.9a30.22,30.22,0,0,0-21.05,8.4Z" fill="#aff1ff"/><path d="M31.78,41.55a4.42,4.42,0,0,1-3.17-1.19,4.25,4.25,0,0,1-1.19-3.12,4.17,4.17,0,0,1,4.36-4.4,4.06,4.06,0,0,1,3.06,1.24,4.29,4.29,0,0,1,1.24,3.16,4.16,4.16,0,0,1-4.3,4.31ZM27.37,60.11l1.55-14.36h5.4l1.55,14.36v9.28h-8.5ZM60.83,49.48V61.2H51.65V49.74L38.22,24.9h9.23l8.77,15.82L64.77,24.9H74Zm38.45,5H83.41L80.76,61.2H71.27L86.93,24.9h9.49l15.3,36.3h-9.85Zm-2.7-7L91.39,34.08,86.1,47.51Zm60.14-15.35H137.53v7.21h17.32v7.26H137.53v7.31h19.76V61.2h-29V24.9h28.42Zm29,29L180.32,51h-7.26V61.2h-9.23V24.9h16.23q7.22,0,11.15,3.32t3.94,9.34q0,8.4-6.58,11.66l7.62,12ZM173.06,43.73h7a6.71,6.71,0,0,0,4.67-1.51,5.55,5.55,0,0,0,1.66-4.35,5.35,5.35,0,0,0-1.66-4.26,6.89,6.89,0,0,0-4.67-1.45h-7Zm57.3-11.57H211.18v7.21H228.5v7.26H211.18v7.31h19.76V61.2H202V24.9h28.41Zm21.07-7.67a25.54,25.54,0,0,1,14.31,4l-3.47,7.21a30.64,30.64,0,0,0-6.12-2.7,18.21,18.21,0,0,0-5.5-1.09c-2.66,0-4,.89-4,2.65a3.1,3.1,0,0,0,2,2.75,24.22,24.22,0,0,0,4.77,1.81A48.84,48.84,0,0,1,259.05,41a11.11,11.11,0,0,1,4.83,3.42,9.16,9.16,0,0,1,2,6,9.54,9.54,0,0,1-4.1,8.19,17.64,17.64,0,0,1-10.42,2.9A26.8,26.8,0,0,1,242.41,60a25.06,25.06,0,0,1-7.68-4.26l3.58-7.1a23.72,23.72,0,0,0,6.48,3.94,18.15,18.15,0,0,0,6.64,1.51,6.51,6.51,0,0,0,3.47-.78,2.71,2.71,0,0,0,1.25-2.39,3,3,0,0,0-1.45-2.49,9.2,9.2,0,0,0-3.53-1.5c-1.42-.35-3-.8-4.61-1.35a45.43,45.43,0,0,1-4.62-1.81,8.81,8.81,0,0,1-3.58-3.12,9.4,9.4,0,0,1-1.4-5.18,9.42,9.42,0,0,1,3.94-7.93C243.57,25.49,247.07,24.49,251.43,24.49Zm32.66.41H299.9q6.94,0,10.79,3.32t3.84,9.34q0,6.38-3.84,9.9T299.9,51h-6.58V61.2h-9.23Zm9.23,7.26V43.73h6.12a6.76,6.76,0,0,0,4.71-1.51,5.55,5.55,0,0,0,1.66-4.35,5.35,5.35,0,0,0-1.66-4.26,7,7,0,0,0-4.71-1.45Zm48,22.35H325.48l-2.64,6.69h-9.49L329,24.9h9.49l15.3,36.3H344Zm-2.69-7-5.19-13.43-5.29,13.43Zm41,13.69L374.22,51H367V61.2h-9.24V24.9H374q7.2,0,11.14,3.32t3.95,9.34q0,8.4-6.59,11.66l7.62,12ZM367,43.73h7a6.7,6.7,0,0,0,4.66-1.51,5.55,5.55,0,0,0,1.66-4.35,5.35,5.35,0,0,0-1.66-4.26A6.88,6.88,0,0,0,374,32.16h-7Zm56.62-11.41H412.65V61.2h-9.23V32.32H392.58V24.85h31Zm33-.16H437.37v7.21h17.32v7.26H437.37v7.31h19.76V61.2h-29V24.9h28.42Zm-248.19,36H224q8.55,0,13.9,5a17.11,17.11,0,0,1,5.39,13.12,17.12,17.12,0,0,1-5.45,13.11q-5.43,5-14.2,5H208.37Zm9.23,7.36V97.05h6.59a9,9,0,0,0,6.95-3,11.1,11.1,0,0,0,2.74-7.78A10.84,10.84,0,0,0,231,78.54a9.49,9.49,0,0,0-7.26-3.06Zm59.53-.1H258v7.2h17.31v7.26H258v7.32H277.7v7.25h-29V68.12h28.42ZM40.31,139.9h15.4v7.73H31.08v-36.3h9.23Zm29.61,7.73H60.69v-36.3h9.23Zm27.83,0H88.21L74.1,111.33H84L93.24,138l9.28-26.7H112Zm27.64,0h-9.23v-36.3h9.23Zm41.36,0h-8.14l-16.7-22.35v22.35h-8.66v-36.3h8.15l16.75,22.4v-22.4h8.6Zm32-18.46h8v14.15a26.33,26.33,0,0,1-7.16,3.43,26.67,26.67,0,0,1-7.93,1.29,19.28,19.28,0,0,1-13.85-5.29,17.69,17.69,0,0,1-5.54-13.27,17.21,17.21,0,0,1,5.7-13.17A20.21,20.21,0,0,1,192.24,111a23.31,23.31,0,0,1,8,1.45,20.74,20.74,0,0,1,6.79,3.94l-5.18,6.28a14.84,14.84,0,0,0-4.57-2.86,13.26,13.26,0,0,0-5.13-1.09,10.13,10.13,0,0,0-7.52,3.12,10.46,10.46,0,0,0-3,7.62,10.59,10.59,0,0,0,3.06,7.73,10.22,10.22,0,0,0,7.57,3.11,14.51,14.51,0,0,0,6.43-1.77Zm68.47,18.46H257.7L251,122.53l-6.84,25.1h-9.54l-11.88-36.3h9.85l7.11,26.7,7-26.7h9l7.1,26.7,7-26.7h9.44Zm37.17-6.69H288.49l-2.64,6.69h-9.49L292,111.33h9.49l15.29,36.3H307Zm-2.7-7-5.18-13.43-5.29,13.43Zm28.31,6h15.4v7.73H320.74v-36.3H330Zm29.61,0H375v7.73H350.35v-36.3h9.23Zm48.79-21.31H389.19v7.21h17.32v7.26H389.19v7.31H409v7.26H380v-36.3h28.41Zm34.86.15H432.29v28.89h-9.23V118.74H412.22v-7.46h31Zm12.12,2-1.55,14.41h-5.4l-1.55-14.41v-9.23h8.5Zm-4.41,18.61a4.22,4.22,0,0,1,3.12,1.2,4.1,4.1,0,0,1,1.24,3.11,4.27,4.27,0,0,1-1.24,3.16,4.21,4.21,0,0,1-3.12,1.19,4.3,4.3,0,0,1-3.11-1.19,4.4,4.4,0,0,1-1.19-3.16,4.21,4.21,0,0,1,1.19-3.11A4.31,4.31,0,0,1,450.94,139.38Z" fill-opacity="0.2"/><path d="M28.61,40.36l-2,2,0,0Zm0-6.28,2,2h0Zm6.23,0-2.08,2,0,0Zm0,6.28-2-2.08,0,0ZM27.37,60.11,24.5,59.8c0,.11,0,.21,0,.31Zm1.55-14.36V42.87a2.88,2.88,0,0,0-2.86,2.57Zm5.4,0,2.86-.31a2.88,2.88,0,0,0-2.86-2.57Zm1.55,14.36h2.88c0-.1,0-.2,0-.31Zm0,9.28v2.89a2.88,2.88,0,0,0,2.88-2.89Zm-8.5,0H24.49a2.88,2.88,0,0,0,2.88,2.89Zm4.41-30.72a1.53,1.53,0,0,1-1.17-.39l-4,4.16a7.31,7.31,0,0,0,5.16,2Zm-1.13-.35a1.37,1.37,0,0,1-.35-1.08H24.54a7,7,0,0,0,2,5.15Zm-.35-1.08a1.44,1.44,0,0,1,.35-1.12L26.58,32a7.15,7.15,0,0,0-2,5.2Zm.35-1.12a1.43,1.43,0,0,1,1.13-.4V30A7.15,7.15,0,0,0,26.58,32Zm1.13-.4a1.21,1.21,0,0,1,1,.35l4.16-4A6.93,6.93,0,0,0,31.78,30Zm1,.4a1.41,1.41,0,0,1,.4,1.12H39A7.19,7.19,0,0,0,36.87,32Zm.4,1.12a1.26,1.26,0,0,1-.36,1l4,4.16A7,7,0,0,0,39,37.24Zm-.4,1.08a1.3,1.3,0,0,1-1,.35v5.76a7,7,0,0,0,5.09-2Zm-2.57,22.1,1.56-14.36-5.73-.62L24.5,59.8ZM28.92,48.63h5.4V42.87h-5.4Zm2.53-2.57L33,60.42l5.73-.62L37.18,45.44Zm1.54,14v9.28h5.76V60.11Zm2.88,6.4h-8.5v5.77h8.5Zm-5.62,2.88V60.11H24.49v9.28ZM60.83,49.48l-2.54-1.36A3,3,0,0,0,58,49.48Zm0,11.72v2.88a2.88,2.88,0,0,0,2.88-2.88Zm-9.18,0H48.77a2.88,2.88,0,0,0,2.88,2.88Zm0-11.46h2.88a3,3,0,0,0-.34-1.37ZM38.22,24.9V22a2.89,2.89,0,0,0-2.47,1.41,2.85,2.85,0,0,0-.06,2.84Zm9.23,0L50,23.51A2.88,2.88,0,0,0,47.45,22Zm8.77,15.82L53.7,42.11a2.88,2.88,0,0,0,5,0ZM64.77,24.9V22a2.87,2.87,0,0,0-2.53,1.51Zm9.23,0,2.54,1.36A2.88,2.88,0,0,0,74,22ZM58,49.48V61.2h5.76V49.48Zm2.88,8.84H51.65v5.76h9.18Zm-6.3,2.88V49.74H48.77V61.2Zm-.34-12.83L40.76,23.53l-5.07,2.74L49.12,51.11Zm-16-20.59h9.23V22H38.22Zm6.71-1.48L53.7,42.11l5-2.79L50,23.51ZM58.75,42.09l8.56-15.82-5.07-2.74L53.68,39.35Zm6-14.31H74V22H64.77Zm6.69-4.24L58.29,48.12l5.08,2.72L76.54,26.26Zm27.82,31,2.68-1a2.88,2.88,0,0,0-2.68-1.84Zm-15.87,0V51.63a2.87,2.87,0,0,0-2.68,1.82ZM80.76,61.2v2.88a2.88,2.88,0,0,0,2.68-1.82Zm-9.49,0-2.64-1.14a2.84,2.84,0,0,0,.24,2.72,2.87,2.87,0,0,0,2.4,1.3ZM86.93,24.9V22a2.88,2.88,0,0,0-2.64,1.74Zm9.49,0,2.66-1.12A2.9,2.9,0,0,0,96.42,22Zm15.3,36.3v2.88a2.86,2.86,0,0,0,2.4-1.29,2.9,2.9,0,0,0,.26-2.71Zm-9.85,0-2.69,1a2.88,2.88,0,0,0,2.69,1.84ZM96.58,47.51v2.88a2.89,2.89,0,0,0,2.69-3.92ZM91.39,34.08l2.69-1a2.88,2.88,0,0,0-5.37,0ZM86.1,47.51l-2.68-1a2.88,2.88,0,0,0,2.68,3.93Zm13.18,4.12H83.41v5.76H99.28ZM80.73,53.45l-2.65,6.69,5.36,2.12,2.65-6.69Zm0,4.87H71.27v5.76h9.49Zm-6.84,4L89.58,26l-5.29-2.28L68.63,60.06Zm13-34.56h9.49V22H86.93ZM93.77,26l15.3,36.3,5.31-2.24-15.3-36.3Zm18,32.3h-9.85v5.76h9.85Zm-7.17,1.84L102,53.47l-5.37,2.08,2.59,6.69ZM99.27,46.47,94.08,33l-5.37,2.08,5.18,13.43ZM88.71,33,83.42,46.46l5.36,2.11,5.29-13.43ZM86.1,50.39H96.58V44.63H86.1Zm70.62-18.23V35a2.88,2.88,0,0,0,2.88-2.88Zm-19.19,0V29.28a2.88,2.88,0,0,0-2.88,2.88Zm0,7.21h-2.88a2.88,2.88,0,0,0,2.88,2.88Zm17.32,0h2.88a2.88,2.88,0,0,0-2.88-2.88Zm0,7.26v2.88a2.88,2.88,0,0,0,2.88-2.88Zm-17.32,0V43.75a2.88,2.88,0,0,0-2.88,2.88Zm0,7.31h-2.88a2.88,2.88,0,0,0,2.88,2.88Zm19.76,0h2.88a2.88,2.88,0,0,0-2.88-2.88Zm0,7.26v2.88a2.88,2.88,0,0,0,2.88-2.88Zm-29,0h-2.88a2.88,2.88,0,0,0,2.88,2.88Zm0-36.3V22a2.88,2.88,0,0,0-2.88,2.88Zm28.42,0h2.88A2.88,2.88,0,0,0,156.72,22Zm0,4.38H137.53V35h19.19Zm-22.07,2.88v7.21h5.76V32.16Zm2.88,10.09h17.32V36.49H137.53ZM152,39.37v7.26h5.76V39.37Zm2.88,4.38H137.53v5.76h17.32Zm-20.2,2.88v7.31h5.76V46.63Zm2.88,10.19h19.76V51.06H137.53Zm16.88-2.88V61.2h5.76V53.94Zm2.88,4.38h-29v5.76h29ZM131.18,61.2V24.9h-5.76V61.2ZM128.3,27.78h28.42V22H128.3Zm25.54-2.88v7.26h5.76V24.9Zm31.88,36.3-2.55,1.35a2.89,2.89,0,0,0,2.55,1.53ZM180.32,51l2.55-1.35a2.89,2.89,0,0,0-2.55-1.53Zm-7.26,0V48.11A2.87,2.87,0,0,0,170.18,51Zm0,10.21v2.88a2.88,2.88,0,0,0,2.88-2.88Zm-9.23,0H161a2.88,2.88,0,0,0,2.88,2.88Zm0-36.3V22A2.88,2.88,0,0,0,161,24.9Zm27.38,3.32-1.85,2.2v0Zm-2.64,21-1.28-2.58a2.91,2.91,0,0,0-1.5,1.81,2.87,2.87,0,0,0,.35,2.32Zm7.62,12v2.88a2.88,2.88,0,0,0,2.43-4.43ZM173.06,43.73h-2.88a2.88,2.88,0,0,0,2.88,2.88Zm11.67-1.51-1.93-2.13Zm0-8.61,1.9-2.16Zm-11.67-1.45V29.28a2.88,2.88,0,0,0-2.88,2.88Zm15.2,27.7-5.39-10.22-5.09,2.69,5.39,10.22Zm-7.94-11.75h-.26v5.76h.26Zm-.26,0h-7v5.76h7ZM170.18,51V61.2h5.76V51Zm2.88,7.33h-9.23v5.76h9.23Zm-6.35,2.88V24.9H161V61.2Zm-2.88-33.42h16.23V22H163.83Zm16.23,0c4.4,0,7.36,1,9.3,2.64l3.71-4.4c-3.32-2.8-7.79-4-13-4Zm9.31,2.66c1.85,1.53,2.9,3.75,2.9,7.12H198c0-4.73-1.58-8.73-5-11.56Zm2.9,7.12a11.46,11.46,0,0,1-1.27,5.7,8.36,8.36,0,0,1-3.71,3.38l2.56,5.16A14.11,14.11,0,0,0,196,46.09a17.19,17.19,0,0,0,2-8.53Zm-6.13,13.21,7.62,12,4.86-3.1-7.62-12Zm10.05,7.55H185.72v5.76h10.47ZM173.06,46.61h7V40.85h-7Zm7,0a9.62,9.62,0,0,0,6.61-2.25l-3.87-4.27a3.92,3.92,0,0,1-2.74.76Zm6.61-2.25a8.46,8.46,0,0,0,2.6-6.49h-5.76a2.8,2.8,0,0,1-.71,2.22Zm2.6-6.49a8.2,8.2,0,0,0-2.64-6.42l-3.8,4.33a2.54,2.54,0,0,1,.68,2.09Zm-2.64-6.42a9.68,9.68,0,0,0-6.57-2.17V35a4.07,4.07,0,0,1,2.77.74Zm-6.57-2.17h-7V35h7Zm-9.88,2.88V43.73h5.76V32.16Zm60.18,0V35a2.88,2.88,0,0,0,2.89-2.88Zm-19.18,0V29.28a2.88,2.88,0,0,0-2.88,2.88Zm0,7.21H208.3a2.88,2.88,0,0,0,2.88,2.88Zm17.32,0h2.88a2.88,2.88,0,0,0-2.88-2.88Zm0,7.26v2.88a2.88,2.88,0,0,0,2.88-2.88Zm-17.32,0V43.75a2.88,2.88,0,0,0-2.88,2.88Zm0,7.31H208.3a2.88,2.88,0,0,0,2.88,2.88Zm19.76,0h2.88a2.88,2.88,0,0,0-2.88-2.88Zm0,7.26v2.88a2.88,2.88,0,0,0,2.88-2.88Zm-29,0h-2.88A2.88,2.88,0,0,0,202,64.08Zm0-36.3V22a2.88,2.88,0,0,0-2.88,2.88Zm28.41,0h2.89A2.88,2.88,0,0,0,230.36,22Zm0,4.38H211.18V35h19.18ZM208.3,32.16v7.21h5.76V32.16Zm2.88,10.09H228.5V36.49H211.18Zm14.44-2.88v7.26h5.76V39.37Zm2.88,4.38H211.18v5.76H228.5Zm-20.2,2.88v7.31h5.76V46.63Zm2.88,10.19h19.76V51.06H211.18Zm16.87-2.88V61.2h5.77V53.94Zm2.89,4.38H202v5.76h29ZM204.83,61.2V24.9h-5.76V61.2ZM202,27.78h28.41V22H202Zm25.53-2.88v7.26h5.77V24.9Zm38.26,3.63,2.6,1.25a2.88,2.88,0,0,0-1-3.66Zm-3.47,7.21-1.45,2.49a2.89,2.89,0,0,0,4-1.24ZM256.15,33l-.91,2.74h0Zm-7.52,4.31-1.34,2.55Zm4.77,1.81-.77,2.78h.06ZM259.05,41l-1,2.68.06,0Zm4.83,3.42,2.22-1.83Zm-2.13,14.21L263.42,61h0ZM242.41,60l1-2.72Zm-7.68-4.26-2.57-1.29a2.88,2.88,0,0,0,.74,3.52Zm3.58-7.1,1.89-2.18a2.88,2.88,0,0,0-4.46.88Zm6.48,3.94-1.11,2.66h0Zm10.11.73,1.53,2.44a.18.18,0,0,0,.07-.05Zm-.2-4.88L253,50.71l.1.07Zm-3.53-1.5-.68,2.8h.06Zm-4.61-1.35-.91,2.73Zm-4.62-1.81-1.21,2.61Zm-3.58-3.12-2.42,1.56a.43.43,0,0,0,0,.07ZM240.9,27.5l1.73,2.3h0Zm10.53-.13a22.58,22.58,0,0,1,12.73,3.57l3.16-4.82a28.42,28.42,0,0,0-15.89-4.51Zm11.72-.09-3.48,7.21,5.19,2.5,3.48-7.21Zm.57,6A33,33,0,0,0,257,30.3l-1.74,5.49a27.38,27.38,0,0,1,5.54,2.44Zm-6.66-2.94a20.7,20.7,0,0,0-6.41-1.24v5.77a15.14,15.14,0,0,1,4.59.94Zm-6.41-1.24a8.29,8.29,0,0,0-4.58,1.14,5.1,5.1,0,0,0-2.29,4.39h5.76c0-.08,0,0-.06.14a.78.78,0,0,1-.23.28,1.37,1.37,0,0,1,.28-.09,5.72,5.72,0,0,1,1.12-.09Zm-6.87,5.53a6,6,0,0,0,3.51,5.3L250,34.8a1.46,1.46,0,0,1-.48-.34l0,.08a.28.28,0,0,1,0,.06Zm3.51,5.3a27.16,27.16,0,0,0,5.34,2l1.54-5.55A21.75,21.75,0,0,1,250,34.8Zm5.4,2.05A47.65,47.65,0,0,1,258,43.66l2.09-5.37a52.74,52.74,0,0,0-6-1.92Zm5.38,1.74a8.06,8.06,0,0,1,3.58,2.55l4.45-3.67a14,14,0,0,0-6.06-4.3Zm3.58,2.55A6.22,6.22,0,0,1,263,50.42h5.77a12,12,0,0,0-2.63-7.85ZM263,50.42a6.66,6.66,0,0,1-2.9,5.85L263.43,61a12.42,12.42,0,0,0,5.3-10.53Zm-2.88,5.84a14.74,14.74,0,0,1-8.75,2.37v5.76A20.5,20.5,0,0,0,263.42,61Zm-8.75,2.37a23.79,23.79,0,0,1-8-1.39l-1.92,5.43a29.28,29.28,0,0,0,9.88,1.72Zm-8-1.39a22.13,22.13,0,0,1-6.8-3.76l-3.67,4.45a27.66,27.66,0,0,0,8.55,4.74ZM237.3,57l3.58-7.1-5.14-2.6-3.58,7.11Zm-.88-6.22a26.62,26.62,0,0,0,7.26,4.42l2.22-5.32a20.58,20.58,0,0,1-5.7-3.46Zm7.3,4.43a20.88,20.88,0,0,0,7.71,1.72V51.16a15.35,15.35,0,0,1-5.56-1.29Zm7.71,1.72a9.33,9.33,0,0,0,5-1.22l-3.05-4.89a3.9,3.9,0,0,1-1.95.34Zm5.07-1.27A5.55,5.55,0,0,0,259,50.88h-5.76V51s0,0,0,0l0,0,0,0,0,0ZM259,50.88A5.78,5.78,0,0,0,256.31,46l-3.23,4.77c.2.14.23.21.22.18a.33.33,0,0,1,0-.06v0Zm-2.62-4.8a11.8,11.8,0,0,0-4.62-2l-1.24,5.62a6.27,6.27,0,0,1,2.43,1Zm-4.56-2c-1.32-.32-2.79-.75-4.38-1.28l-1.82,5.46c1.71.58,3.33,1,4.84,1.42Zm-4.38-1.28a42.33,42.33,0,0,1-4.32-1.7l-2.42,5.23a45.43,45.43,0,0,0,4.92,1.93Zm-4.32-1.7A6,6,0,0,1,240.74,39L236,42.24a11.67,11.67,0,0,0,4.75,4.1Zm-2.36-2a6.54,6.54,0,0,1-.95-3.63h-5.76a12.22,12.22,0,0,0,1.86,6.74Zm-.95-3.63a6.56,6.56,0,0,1,2.79-5.63l-3.46-4.61a12.28,12.28,0,0,0-5.09,10.24Zm2.8-5.63c2-1.53,4.87-2.43,8.79-2.43V21.61c-4.79,0-9,1.1-12.26,3.58Zm41.45-4.9V22a2.88,2.88,0,0,0-2.88,2.88Zm26.6,3.32L308.8,30.4h0Zm0,19.24-1.95-2.12ZM293.32,51V48.11A2.87,2.87,0,0,0,290.44,51Zm0,10.21v2.88a2.88,2.88,0,0,0,2.88-2.88Zm-9.23,0h-2.88a2.88,2.88,0,0,0,2.88,2.88Zm9.23-29V29.28a2.88,2.88,0,0,0-2.88,2.88Zm0,11.57h-2.88a2.88,2.88,0,0,0,2.88,2.88Zm10.83-1.51-1.93-2.13h0ZM284.09,27.78H299.9V22H284.09Zm15.81,0c4.2,0,7,1,8.9,2.62L312.57,26c-3.24-2.81-7.6-4-12.67-4Zm8.92,2.63c1.78,1.52,2.82,3.76,2.82,7.15h5.77c0-4.7-1.52-8.7-4.85-11.53Zm2.82,7.15c0,3.64-1.07,6.09-2.9,7.78l3.9,4.24c3.28-3,4.77-7.16,4.77-12Zm-2.9,7.78c-1.87,1.72-4.68,2.77-8.84,2.77v5.76c5.11,0,9.49-1.31,12.74-4.29Zm-8.84,2.77h-6.58v5.76h6.58ZM290.44,51V61.2h5.76V51Zm2.88,7.33h-9.23v5.76h9.23ZM287,61.2V24.9h-5.76V61.2Zm3.47-29V43.73h5.76V32.16Zm2.88,14.45h6.12V40.85h-6.12Zm6.12,0a9.64,9.64,0,0,0,6.65-2.25l-3.87-4.27a4,4,0,0,1-2.78.76Zm6.65-2.25a8.46,8.46,0,0,0,2.6-6.49h-5.76a2.77,2.77,0,0,1-.71,2.22Zm2.6-6.49a8.2,8.2,0,0,0-2.64-6.42l-3.79,4.33a2.54,2.54,0,0,1,.67,2.09Zm-2.64-6.42a9.77,9.77,0,0,0-6.61-2.17V35a4.15,4.15,0,0,1,2.82.74Zm-6.61-2.17h-6.12V35h6.12Zm41.91,25.23,2.69-1a2.88,2.88,0,0,0-2.69-1.84Zm-15.87,0V51.63a2.86,2.86,0,0,0-2.67,1.82Zm-2.64,6.69v2.88a2.89,2.89,0,0,0,2.68-1.82Zm-9.49,0-2.65-1.14a2.88,2.88,0,0,0,2.65,4ZM329,24.9V22a2.9,2.9,0,0,0-2.65,1.74Zm9.49,0,2.66-1.12A2.91,2.91,0,0,0,338.5,22Zm15.3,36.3v2.88a2.88,2.88,0,0,0,2.65-4Zm-9.85,0-2.69,1A2.88,2.88,0,0,0,344,64.08Zm-5.29-13.69v2.88a2.88,2.88,0,0,0,2.68-3.92Zm-5.19-13.43,2.69-1a2.88,2.88,0,0,0-5.37,0Zm-5.29,13.43-2.68-1a2.88,2.88,0,0,0,2.68,3.93Zm13.17,4.12H325.48v5.76h15.87Zm-18.54,1.82-2.65,6.69,5.36,2.12,2.64-6.69Zm0,4.87h-9.49v5.76h9.49Zm-6.85,4L331.66,26l-5.3-2.28L310.7,60.06Zm13-34.56h9.49V22H329ZM335.85,26l15.29,36.3,5.31-2.24-15.29-36.3Zm17.95,32.3H344v5.76h9.85Zm-7.17,1.84L344,53.47l-5.37,2.08,2.59,6.69Zm-5.29-13.69L336.16,33l-5.38,2.08L336,48.55ZM330.79,33,325.5,46.46l5.36,2.11,5.29-13.43Zm-2.61,17.36h10.48V44.63H328.18ZM379.62,61.2l-2.55,1.35a2.89,2.89,0,0,0,2.55,1.53ZM374.22,51l2.55-1.35a2.89,2.89,0,0,0-2.55-1.53ZM367,51V48.11A2.88,2.88,0,0,0,364.08,51Zm0,10.21v2.88a2.88,2.88,0,0,0,2.88-2.88Zm-9.24,0h-2.88a2.88,2.88,0,0,0,2.88,2.88Zm0-36.3V22a2.88,2.88,0,0,0-2.88,2.88Zm27.38,3.32-1.85,2.2,0,0Zm-2.64,21-1.28-2.58A2.87,2.87,0,0,0,380,50.77Zm7.62,12v2.88a2.88,2.88,0,0,0,2.43-4.43ZM367,43.73h-2.89A2.88,2.88,0,0,0,367,46.61Zm11.66-1.51-1.93-2.13Zm0-8.61,1.9-2.16ZM367,32.16V29.28a2.88,2.88,0,0,0-2.89,2.88Zm15.2,27.7-5.4-10.22-5.09,2.69,5.39,10.22Zm-7.95-11.75H374v5.76h.25Zm-.25,0h-7v5.76h7ZM364.08,51V61.2h5.77V51ZM367,58.32h-9.24v5.76H367Zm-6.35,2.88V24.9h-5.77V61.2Zm-2.89-33.42H374V22H357.73Zm16.24,0c4.39,0,7.35,1,9.29,2.64L387,26c-3.32-2.8-7.79-4-13-4Zm9.31,2.66c1.84,1.53,2.89,3.75,2.89,7.12h5.77c0-4.73-1.57-8.73-5-11.56Zm2.89,7.12a11.46,11.46,0,0,1-1.27,5.7,8.36,8.36,0,0,1-3.71,3.38l2.56,5.16a14.11,14.11,0,0,0,6.17-5.71,17.19,17.19,0,0,0,2-8.53ZM380,50.77l7.62,12,4.86-3.1-7.62-12Zm10,7.55H379.62v5.76h10.47ZM367,46.61h7V40.85h-7Zm7,0a9.59,9.59,0,0,0,6.6-2.25l-3.87-4.27a3.91,3.91,0,0,1-2.73.76Zm6.6-2.25a8.46,8.46,0,0,0,2.6-6.49h-5.76a2.77,2.77,0,0,1-.71,2.22Zm2.6-6.49a8.2,8.2,0,0,0-2.64-6.42l-3.79,4.33a2.54,2.54,0,0,1,.67,2.09Zm-2.64-6.42A9.67,9.67,0,0,0,374,29.28V35a4.11,4.11,0,0,1,2.77.74ZM374,29.28h-7V35h7Zm-9.89,2.88V43.73h5.77V32.16Zm59.51.16V35.2a2.88,2.88,0,0,0,2.88-2.88Zm-10.94,0V29.44a2.88,2.88,0,0,0-2.88,2.88Zm0,28.88v2.88a2.88,2.88,0,0,0,2.88-2.88Zm-9.23,0h-2.88a2.88,2.88,0,0,0,2.88,2.88Zm0-28.88h2.88a2.88,2.88,0,0,0-2.88-2.88Zm-10.84,0H389.7a2.88,2.88,0,0,0,2.88,2.88Zm0-7.47V22a2.88,2.88,0,0,0-2.88,2.88Zm31,0h2.88A2.88,2.88,0,0,0,423.59,22Zm0,4.59H412.65V35.2h10.94Zm-13.82,2.88V61.2h5.76V32.32Zm2.88,26h-9.23v5.76h9.23ZM406.3,61.2V32.32h-5.76V61.2Zm-2.88-31.76H392.58V35.2h10.84Zm-8,2.88V24.85H389.7v7.47Zm-2.88-4.59h31V22h-31Zm28.13-2.88v7.47h5.76V24.85Zm35.85,7.31V35a2.88,2.88,0,0,0,2.88-2.88Zm-19.19,0V29.28a2.88,2.88,0,0,0-2.88,2.88Zm0,7.21h-2.88a2.88,2.88,0,0,0,2.88,2.88Zm17.32,0h2.88a2.88,2.88,0,0,0-2.88-2.88Zm0,7.26v2.88a2.88,2.88,0,0,0,2.88-2.88Zm-17.32,0V43.75a2.88,2.88,0,0,0-2.88,2.88Zm0,7.31h-2.88a2.88,2.88,0,0,0,2.88,2.88Zm19.76,0H460a2.88,2.88,0,0,0-2.88-2.88Zm0,7.26v2.88A2.88,2.88,0,0,0,460,61.2Zm-29,0h-2.88a2.88,2.88,0,0,0,2.88,2.88Zm0-36.3V22a2.88,2.88,0,0,0-2.88,2.88Zm28.42,0h2.88A2.88,2.88,0,0,0,456.56,22Zm0,4.38H437.37V35h19.19Zm-22.07,2.88v7.21h5.76V32.16Zm2.88,10.09h17.32V36.49H437.37Zm14.44-2.88v7.26h5.76V39.37Zm2.88,4.38H437.37v5.76h17.32Zm-20.2,2.88v7.31h5.76V46.63Zm2.88,10.19h19.76V51.06H437.37Zm16.88-2.88V61.2H460V53.94Zm2.88,4.38h-29v5.76h29ZM431,61.2V24.9h-5.76V61.2Zm-2.88-33.42h28.42V22H428.14Zm25.54-2.88v7.26h5.76V24.9ZM208.37,68.12V65.23a2.88,2.88,0,0,0-2.88,2.89Zm29.51,5-2,2.09h0Zm-.06,26.23,2,2.12h0Zm-29.45,5h-2.88a2.88,2.88,0,0,0,2.88,2.89Zm9.23-28.93V72.6a2.88,2.88,0,0,0-2.88,2.88Zm0,21.57h-2.88a2.88,2.88,0,0,0,2.88,2.88Zm13.54-3L229,92.15h0ZM231,78.54l-2.11,2,0,0ZM208.37,71H224V65.23H208.37ZM224,71c5.1,0,9,1.48,11.92,4.24l3.95-4.19c-4.18-3.94-9.56-5.82-15.87-5.82Zm11.93,4.25a14.26,14.26,0,0,1,4.48,11h5.76A20,20,0,0,0,239.84,71Zm4.48,11a14.25,14.25,0,0,1-4.53,11l3.93,4.21a20,20,0,0,0,6.36-15.22Zm-4.52,11c-3,2.77-7,4.26-12.25,4.26v5.77c6.42,0,11.9-1.87,16.16-5.8Zm-12.25,4.26H208.37v5.77h15.25Zm-12.37,2.88V68.12h-5.76v36.29Zm3.47-28.93V97.05h5.76V75.48Zm2.88,24.45h6.59V94.17H217.6Zm6.59,0A11.84,11.84,0,0,0,233.26,96L229,92.15a6.09,6.09,0,0,1-4.82,2ZM233.26,96a14,14,0,0,0,3.5-9.72H231a8.23,8.23,0,0,1-2,5.83Zm3.5-9.72a13.69,13.69,0,0,0-3.64-9.76l-4.18,4a8,8,0,0,1,2.06,5.8Zm-3.62-9.75a12.4,12.4,0,0,0-9.37-4v5.76a6.6,6.6,0,0,1,5.15,2.14Zm-9.37-4H217.6v5.76h6.17Zm53.36,2.78v2.88A2.88,2.88,0,0,0,280,75.38Zm-19.18,0V72.49a2.89,2.89,0,0,0-2.89,2.89Zm0,7.2h-2.89A2.88,2.88,0,0,0,258,85.46Zm17.31,0h2.89a2.88,2.88,0,0,0-2.89-2.88Zm0,7.26v2.88a2.88,2.88,0,0,0,2.89-2.88Zm-17.31,0V87a2.88,2.88,0,0,0-2.89,2.88Zm0,7.32h-2.89A2.88,2.88,0,0,0,258,100Zm19.75,0h2.88a2.88,2.88,0,0,0-2.88-2.89Zm0,7.25v2.89a2.88,2.88,0,0,0,2.88-2.89Zm-29,0h-2.88a2.88,2.88,0,0,0,2.88,2.89Zm0-36.29V65.23a2.88,2.88,0,0,0-2.88,2.89Zm28.42,0H280a2.88,2.88,0,0,0-2.88-2.89Zm0,4.37H258v5.77h19.18Zm-22.07,2.89v7.2h5.77v-7.2ZM258,85.46h17.31V79.7H258Zm14.43-2.88v7.26h5.77V82.58ZM275.26,87H258v5.76h17.31Zm-20.2,2.88v7.32h5.77V89.84ZM258,100H277.7V94.27H258Zm16.87-2.88v7.25h5.76V97.16Zm2.88,4.37h-29v5.77h29Zm-26.1,2.88V68.12h-5.77v36.29ZM248.71,71h28.42V65.23H248.71Zm25.54-2.88v7.26H280V68.12ZM40.31,139.9H37.43a2.88,2.88,0,0,0,2.88,2.88Zm15.4,0h2.88A2.88,2.88,0,0,0,55.71,137Zm0,7.73v2.88a2.88,2.88,0,0,0,2.88-2.88Zm-24.63,0H28.2a2.88,2.88,0,0,0,2.88,2.88Zm0-36.3v-2.88a2.88,2.88,0,0,0-2.88,2.88Zm9.23,0h2.88a2.88,2.88,0,0,0-2.88-2.88Zm0,31.45h15.4V137H40.31Zm12.52-2.88v7.73h5.76V139.9Zm2.88,4.85H31.08v5.76H55.71ZM34,147.63v-36.3H28.2v36.3Zm-2.88-33.42h9.23v-5.76H31.08Zm6.35-2.88V139.9h5.76V111.33Zm32.49,36.3v2.88a2.88,2.88,0,0,0,2.88-2.88Zm-9.23,0H57.81a2.88,2.88,0,0,0,2.88,2.88Zm0-36.3v-2.88a2.88,2.88,0,0,0-2.88,2.88Zm9.23,0H72.8a2.88,2.88,0,0,0-2.88-2.88Zm0,33.42H60.69v5.76h9.23Zm-6.35,2.88v-36.3H57.81v36.3Zm-2.88-33.42h9.23v-5.76H60.69ZM67,111.33v36.3H72.8v-36.3Zm30.71,36.3v2.88a2.88,2.88,0,0,0,2.68-1.83Zm-9.54,0-2.69,1a2.89,2.89,0,0,0,2.69,1.84ZM74.1,111.33v-2.88a2.88,2.88,0,0,0-2.68,3.92Zm9.86,0,2.72-1A2.88,2.88,0,0,0,84,108.45ZM93.24,138l-2.72.95A2.88,2.88,0,0,0,96,139Zm9.28-26.7v-2.88a2.88,2.88,0,0,0-2.72,1.93Zm9.49,0,2.68,1a2.88,2.88,0,0,0-2.68-3.93ZM97.75,144.75H88.21v5.76h9.54Zm-6.85,1.84-14.11-36.3-5.37,2.08,14.1,36.3ZM74.1,114.21H84v-5.76H74.1Zm7.14-1.94L90.52,139,96,137.09l-9.28-26.71ZM96,139l9.28-26.71-5.44-1.89-9.28,26.71Zm6.56-24.77H112v-5.76h-9.49Zm6.81-3.93-14.26,36.3,5.36,2.1,14.26-36.3Zm16.06,37.35v2.88a2.88,2.88,0,0,0,2.88-2.88Zm-9.23,0h-2.89a2.88,2.88,0,0,0,2.89,2.88Zm0-36.3v-2.88a2.88,2.88,0,0,0-2.89,2.88Zm9.23,0h2.88a2.88,2.88,0,0,0-2.88-2.88Zm0,33.42h-9.23v5.76h9.23ZM119,147.63v-36.3h-5.77v36.3Zm-2.88-33.42h9.23v-5.76h-9.23Zm6.34-2.88v36.3h5.77v-36.3Zm44.25,36.3v2.88a2.87,2.87,0,0,0,2.88-2.88Zm-8.14,0-2.31,1.72a2.89,2.89,0,0,0,2.31,1.16Zm-16.7-22.35,2.31-1.73a2.88,2.88,0,0,0-5.19,1.73Zm0,22.35v2.88a2.88,2.88,0,0,0,2.89-2.88Zm-8.66,0h-2.88a2.88,2.88,0,0,0,2.88,2.88Zm0-36.3v-2.88a2.88,2.88,0,0,0-2.88,2.88Zm8.15,0,2.3-1.73a2.89,2.89,0,0,0-2.3-1.15Zm16.75,22.4-2.31,1.73a2.89,2.89,0,0,0,5.19-1.73Zm0-22.4v-2.88a2.89,2.89,0,0,0-2.89,2.88Zm8.6,0h2.88a2.87,2.87,0,0,0-2.88-2.88Zm0,33.42h-8.14v5.76h8.14Zm-5.83,1.15-16.7-22.35L139.61,127l16.69,22.35ZM139,125.28v22.35h5.77V125.28Zm2.88,19.47h-8.66v5.76h8.66Zm-5.77,2.88v-36.3h-5.77v36.3Zm-2.89-33.42h8.15v-5.76h-8.15Zm5.84-1.16,16.75,22.41,4.61-3.45L143.7,109.6ZM161,133.73v-22.4h-5.77v22.4Zm-2.88-19.52h8.6v-5.76h-8.6Zm5.72-2.88v36.3h5.76v-36.3Zm34.85,17.84v-2.88a2.88,2.88,0,0,0-2.88,2.88Zm8,0h2.88a2.88,2.88,0,0,0-2.88-2.88Zm0,14.15,1.65,2.36a2.88,2.88,0,0,0,1.23-2.36Zm-7.16,3.43.86,2.75h0Zm-21.78-4-2,2.08h0Zm.16-26.44-2-2.12Zm22.35-3.84-1,2.71Zm6.79,3.94,2.22,1.84a2.88,2.88,0,0,0-.3-4Zm-5.18,6.28-1.95,2.11a2.87,2.87,0,0,0,4.17-.28Zm-4.57-2.86-1.11,2.66,0,0Zm-12.65,2-2-2h0Zm.05,15.35,2.06-2Zm14,1.34,1.29,2.58a2.88,2.88,0,0,0,1.59-2.58Zm0-6.5h8v-5.76h-8Zm5.11-2.88v14.15h5.76V129.17Zm1.22,11.8a23.55,23.55,0,0,1-6.38,3l1.76,5.49a29.34,29.34,0,0,0,7.93-3.81Zm-6.36,3a23.65,23.65,0,0,1-7.07,1.16v5.76a29.38,29.38,0,0,0,8.79-1.42Zm-7.07,1.16a16.42,16.42,0,0,1-11.86-4.49l-4,4.17a22.14,22.14,0,0,0,15.83,6.08Zm-11.85-4.48a14.83,14.83,0,0,1-4.66-11.2h-5.77a20.54,20.54,0,0,0,6.44,15.35Zm-4.66-11.2a14.33,14.33,0,0,1,4.78-11.06L176,114.19a20.11,20.11,0,0,0-6.63,15.29Zm4.78-11.06a17.35,17.35,0,0,1,12.35-4.52v-5.76a23.12,23.12,0,0,0-16.27,6Zm12.35-4.52a20.42,20.42,0,0,1,7,1.28l2-5.42a26.39,26.39,0,0,0-9-1.62Zm7,1.28a18,18,0,0,1,5.87,3.38l3.83-4.3a23.86,23.86,0,0,0-7.73-4.5Zm5.56-.6-5.18,6.27,4.44,3.67,5.18-6.27Zm-1,6a17.48,17.48,0,0,0-5.45-3.41l-2.14,5.35a12,12,0,0,1,3.69,2.29Zm-5.4-3.39a16,16,0,0,0-6.25-1.32v5.77a10.4,10.4,0,0,1,4,.86Zm-6.25-1.32a13,13,0,0,0-9.57,4l4.11,4a7.24,7.24,0,0,1,5.46-2.25Zm-9.57,4a13.3,13.3,0,0,0-3.84,9.64h5.76a7.56,7.56,0,0,1,2.19-5.6Zm-3.84,9.64a13.49,13.49,0,0,0,3.89,9.75l4.11-4a7.72,7.72,0,0,1-2.24-5.71Zm3.89,9.75a13.08,13.08,0,0,0,9.62,4v-5.76a7.31,7.31,0,0,1-5.51-2.25Zm9.62,4a17.35,17.35,0,0,0,7.72-2.07L197.44,136a11.85,11.85,0,0,1-5.15,1.46Zm9.31-4.65v-9.38h-5.76v9.38Zm65.59,9.08v2.88a2.88,2.88,0,0,0,2.74-2Zm-9.49,0-2.78.75a2.89,2.89,0,0,0,2.78,2.13ZM251,122.53l2.78-.75a2.88,2.88,0,0,0-5.56,0Zm-6.84,25.1v2.88a2.89,2.89,0,0,0,2.78-2.12Zm-9.54,0-2.74.89a2.87,2.87,0,0,0,2.74,2Zm-11.88-36.3v-2.88a2.87,2.87,0,0,0-2.33,1.19,2.9,2.9,0,0,0-.41,2.58Zm9.85,0,2.79-.74a2.89,2.89,0,0,0-2.79-2.14Zm7.11,26.7-2.79.75a2.89,2.89,0,0,0,5.58,0Zm7-26.7v-2.88a2.87,2.87,0,0,0-2.79,2.15Zm9,0,2.78-.74a2.87,2.87,0,0,0-2.78-2.14Zm7.1,26.7-2.78.75a2.88,2.88,0,0,0,5.57,0Zm7-26.7v-2.88A2.87,2.87,0,0,0,267,110.6Zm9.44,0,2.74.9a2.88,2.88,0,0,0-2.74-3.78Zm-12,33.42H257.7v5.76h9.49Zm-6.7,2.13-6.75-25.1-5.56,1.5,6.74,25.1Zm-12.31-25.11-6.84,25.1,5.56,1.52,6.84-25.1Zm-4.06,23h-9.54v5.76h9.54Zm-6.81,2-11.87-36.3L220,112.22l11.88,36.3ZM222.7,114.21h9.85v-5.76H222.7Zm7.07-2.14,7.1,26.71,5.57-1.49-7.1-26.7Zm12.68,26.69,6.94-26.71-5.57-1.45-6.95,26.71Zm4.16-24.55h9v-5.76h-9Zm6.23-2.14L260,138.78l5.57-1.49-7.11-26.7Zm12.68,26.7,7-26.71L267,110.6l-7,26.7Zm4.21-24.56h9.44v-5.76h-9.44Zm6.71-3.78-12,36.3,5.47,1.8,12-36.3Zm27.92,30.51,2.69-1a2.88,2.88,0,0,0-2.69-1.84Zm-15.87,0v-2.88a2.89,2.89,0,0,0-2.68,1.82Zm-2.64,6.69v2.88a2.89,2.89,0,0,0,2.68-1.82Zm-9.49,0-2.65-1.14a2.88,2.88,0,0,0,2.65,4ZM292,111.33v-2.88a2.89,2.89,0,0,0-2.65,1.74Zm9.49,0,2.65-1.12a2.87,2.87,0,0,0-2.65-1.76Zm15.29,36.3v2.88a2.88,2.88,0,0,0,2.66-4Zm-9.85,0-2.68,1a2.87,2.87,0,0,0,2.68,1.84Zm-5.29-13.69v2.88a2.88,2.88,0,0,0,2.69-3.92Zm-5.18-13.43,2.68-1a2.88,2.88,0,0,0-5.36,0Zm-5.29,13.43-2.68-1.06a2.88,2.88,0,0,0,2.68,3.94Zm13.17,4.12H288.49v5.76h15.87Zm-18.55,1.82-2.64,6.69,5.36,2.12,2.64-6.69Zm0,4.87h-9.49v5.76h9.49Zm-6.85,4,15.66-36.3-5.29-2.28-15.66,36.3Zm13-34.56h9.49v-5.76H292Zm6.83-1.76,15.3,36.3,5.31-2.24-15.3-36.3Zm17.95,32.3H307v5.76h9.85Zm-7.16,1.84-2.59-6.69L301.67,142l2.6,6.69Zm-5.29-13.69-5.19-13.43-5.37,2.08L299,135ZM293.8,119.45l-5.29,13.43,5.36,2.11,5.29-13.43Zm-2.61,17.37h10.47v-5.76H291.19ZM330,139.9h-2.88a2.88,2.88,0,0,0,2.88,2.88Zm15.4,0h2.89a2.89,2.89,0,0,0-2.89-2.88Zm0,7.73v2.88a2.89,2.89,0,0,0,2.89-2.88Zm-24.63,0h-2.88a2.88,2.88,0,0,0,2.88,2.88Zm0-36.3v-2.88a2.88,2.88,0,0,0-2.88,2.88Zm9.23,0h2.88a2.88,2.88,0,0,0-2.88-2.88Zm0,31.45h15.4V137H330Zm12.52-2.88v7.73h5.77V139.9Zm2.88,4.85H320.74v5.76h24.63Zm-21.75,2.88v-36.3h-5.76v36.3Zm-2.88-33.42H330v-5.76h-9.23Zm6.35-2.88V139.9h5.76V111.33Zm32.49,28.57H356.7a2.88,2.88,0,0,0,2.88,2.88Zm15.4,0h2.88A2.88,2.88,0,0,0,375,137Zm0,7.73v2.88a2.88,2.88,0,0,0,2.88-2.88Zm-24.63,0h-2.88a2.88,2.88,0,0,0,2.88,2.88Zm0-36.3v-2.88a2.88,2.88,0,0,0-2.88,2.88Zm9.23,0h2.88a2.88,2.88,0,0,0-2.88-2.88Zm0,31.45H375V137h-15.4Zm12.52-2.88v7.73h5.76V139.9Zm2.88,4.85H350.35v5.76H375Zm-21.75,2.88v-36.3h-5.76v36.3Zm-2.88-33.42h9.23v-5.76h-9.23Zm6.35-2.88V139.9h5.76V111.33Zm51.67,7.26v2.88a2.88,2.88,0,0,0,2.89-2.88Zm-19.18,0v-2.88a2.88,2.88,0,0,0-2.88,2.88Zm0,7.21h-2.88a2.88,2.88,0,0,0,2.88,2.88Zm17.32,0h2.88a2.88,2.88,0,0,0-2.88-2.88Zm0,7.26v2.88a2.88,2.88,0,0,0,2.88-2.88Zm-17.32,0v-2.88a2.88,2.88,0,0,0-2.88,2.88Zm0,7.31h-2.88a2.88,2.88,0,0,0,2.88,2.88Zm19.76,0h2.88a2.88,2.88,0,0,0-2.88-2.88Zm0,7.26v2.88a2.88,2.88,0,0,0,2.88-2.88Zm-29,0h-2.88a2.88,2.88,0,0,0,2.88,2.88Zm0-36.3v-2.88a2.88,2.88,0,0,0-2.88,2.88Zm28.41,0h2.89a2.88,2.88,0,0,0-2.89-2.88Zm0,4.38H389.19v5.76h19.18Zm-22.06,2.88v7.21h5.76v-7.21Zm2.88,10.09h17.32v-5.76H389.19Zm14.44-2.88v7.26h5.76V125.8Zm2.88,4.38H389.19v5.76h17.32Zm-20.2,2.88v7.31h5.76v-7.31Zm2.88,10.19H409v-5.76H389.19Zm16.87-2.88v7.26h5.77v-7.26Zm2.89,4.38H380v5.76h29Zm-26.11,2.88v-36.3h-5.76v36.3ZM380,114.21h28.41v-5.76H380Zm25.53-2.88v7.26h5.77v-7.26Zm37.74,7.41v2.89a2.88,2.88,0,0,0,2.88-2.89Zm-10.94,0v-2.88a2.88,2.88,0,0,0-2.88,2.88Zm0,28.89v2.88a2.88,2.88,0,0,0,2.88-2.88Zm-9.23,0h-2.88a2.88,2.88,0,0,0,2.88,2.88Zm0-28.89h2.88a2.88,2.88,0,0,0-2.88-2.88Zm-10.84,0h-2.88a2.88,2.88,0,0,0,2.88,2.89Zm0-7.46V108.4a2.88,2.88,0,0,0-2.88,2.88Zm31,0h2.88a2.88,2.88,0,0,0-2.88-2.88Zm0,4.58H432.29v5.77h10.94Zm-13.82,2.88v28.89h5.76V118.74Zm2.88,26h-9.23v5.76h9.23Zm-6.35,2.88V118.74h-5.76v28.89Zm-2.88-31.77H412.22v5.77h10.84Zm-8,2.88v-7.46h-5.76v7.46Zm-2.88-4.58h31V108.4h-31Zm28.13-2.88v7.46h5.76v-7.46Zm15,9.49,2.87.31c0-.11,0-.21,0-.31Zm-1.55,14.41v2.88a2.88,2.88,0,0,0,2.86-2.57Zm-5.4,0-2.86.31a2.88,2.88,0,0,0,2.86,2.57Zm-1.55-14.41H444c0,.1,0,.2,0,.31Zm0-9.23v-2.88a2.88,2.88,0,0,0-2.88,2.88Zm8.5,0h2.88a2.88,2.88,0,0,0-2.88-2.88Zm-1.29,29-2,2,0,0Zm0,6.27,2,2Zm-6.23,0-2.08,2,.09.09Zm0-6.27-2-2.08,0,0Zm4.66-20.12-1.56,14.41,5.73.62,1.56-14.41Zm1.31,11.84h-5.4v5.76h5.4Zm-2.53,2.57-1.56-14.41-5.73.62,1.56,14.41Zm-1.54-14.1v-9.23H444v9.23Zm-2.88-6.35h8.5v-5.76h-8.5Zm5.62-2.88v9.23h5.76v-9.23Zm-1.53,30.72a1.37,1.37,0,0,1,1.08.35l4.07-4.07a7.09,7.09,0,0,0-5.15-2Zm1.12.4a1.23,1.23,0,0,1,.36,1h5.76a7,7,0,0,0-2.13-5.19Zm.36,1a1.39,1.39,0,0,1-.4,1.12l4.07,4.08a7.18,7.18,0,0,0,2.09-5.2Zm-.4,1.12a1.37,1.37,0,0,1-1.08.35v5.76a7.08,7.08,0,0,0,5.15-2Zm-1.08.35a1.42,1.42,0,0,1-1.11-.39l-4,4.16a7.19,7.19,0,0,0,5.1,2Zm-1-.3a1.53,1.53,0,0,1-.39-1.17h-5.76a7.23,7.23,0,0,0,2,5.15Zm-.39-1.17a1.37,1.37,0,0,1,.35-1.08l-4.07-4.07a7,7,0,0,0-2,5.15Zm.31-1a1.43,1.43,0,0,1,1.11-.4V136.5a7.16,7.16,0,0,0-5.1,2Z" fill-opacity="0.2"/><path d="M26,38.67a4.38,4.38,0,0,1-3.16-1.2,4.21,4.21,0,0,1-1.19-3.11A4.17,4.17,0,0,1,26,30a4,4,0,0,1,3.06,1.24,4.28,4.28,0,0,1,1.25,3.16A4.19,4.19,0,0,1,26,38.67Zm-4.4,18.56,1.55-14.36h5.4l1.55,14.36v9.28h-8.5ZM55.79,46.6V58.32H46.61V46.86L33.18,22h9.23l8.76,15.82L59.73,22H69Zm39.16,5H79.09l-2.65,6.69H67L82.61,22H92.1l15.3,36.3H97.55Zm-2.69-7L87.07,31.2,81.78,44.63Zm61.58-15.35H134.65v7.21H152v7.26H134.65v7.31h19.76v7.26h-29V22h28.42Zm29.72,29-5.4-10.21H170.9V58.32h-9.23V22H177.9q7.22,0,11.15,3.32T193,34.67q0,8.4-6.58,11.67l7.62,12ZM170.9,40.85h7a6.72,6.72,0,0,0,4.67-1.51A5.55,5.55,0,0,0,184.23,35a5.35,5.35,0,0,0-1.66-4.26,6.91,6.91,0,0,0-4.67-1.45h-7Zm58-11.57H209.74v7.21h17.32v7.26H209.74v7.31h19.75v7.26h-29V22h28.41Zm21.79-7.67a25.46,25.46,0,0,1,14.31,4l-3.47,7.21a30.08,30.08,0,0,0-6.12-2.7,18.21,18.21,0,0,0-5.5-1.09c-2.66,0-4,.89-4,2.65a3.1,3.1,0,0,0,2,2.75,24.22,24.22,0,0,0,4.77,1.81,48.84,48.84,0,0,1,5.65,1.82,11.11,11.11,0,0,1,4.83,3.42,9.13,9.13,0,0,1,2,6,9.55,9.55,0,0,1-4.1,8.2,17.64,17.64,0,0,1-10.42,2.9,26.8,26.8,0,0,1-8.92-1.55A25.06,25.06,0,0,1,234,52.82l3.58-7.1a23.72,23.72,0,0,0,6.48,3.94,18.12,18.12,0,0,0,6.64,1.5,6.52,6.52,0,0,0,3.47-.77A2.71,2.71,0,0,0,255.43,48,3,3,0,0,0,254,45.51a9.2,9.2,0,0,0-3.53-1.5c-1.42-.35-3-.8-4.61-1.35a45.43,45.43,0,0,1-4.62-1.81,8.81,8.81,0,0,1-3.58-3.12,9.4,9.4,0,0,1-1.4-5.18,9.44,9.44,0,0,1,3.94-7.94Q244.17,21.61,250.71,21.61Zm34.1.41h15.81q7,0,10.79,3.32t3.84,9.33q0,6.39-3.84,9.91t-10.79,3.53H294V58.32h-9.23ZM294,29.28V40.85h6.12a6.76,6.76,0,0,0,4.71-1.51A5.55,5.55,0,0,0,306.53,35a5.35,5.35,0,0,0-1.66-4.26,7,7,0,0,0-4.71-1.45Zm48.75,22.35H326.93l-2.65,6.69h-9.49L330.45,22h9.49l15.3,36.3h-9.85Zm-2.69-7L334.91,31.2l-5.29,13.43Zm41.68,13.69-5.39-10.21h-7.26V58.32H359.9V22h16.23q7.2,0,11.15,3.32t3.94,9.33q0,8.4-6.59,11.67l7.62,12ZM369.13,40.85h7a6.7,6.7,0,0,0,4.66-1.51A5.55,5.55,0,0,0,382.45,35a5.35,5.35,0,0,0-1.66-4.26,6.88,6.88,0,0,0-4.66-1.45h-7Zm57.34-11.41H415.53V58.32H406.3V29.44H395.46V22h31Zm33.69-.16H441v7.21h17.32v7.26H441v7.31h19.76v7.26h-29V22h28.42Zm-252.87,36H222.9q8.55,0,13.9,5a17.14,17.14,0,0,1,5.39,13.12,17.13,17.13,0,0,1-5.45,13.12q-5.44,5-14.2,5H207.29Zm9.23,7.37V94.17h6.59a9,9,0,0,0,6.95-3,11.06,11.06,0,0,0,2.74-7.77A10.84,10.84,0,0,0,230,75.66a9.49,9.49,0,0,0-7.26-3.06Zm60.25-.11H257.58V79.7H274.9V87H257.58v7.31h19.76v7.26h-29V65.23h28.42ZM34.91,139.9h15.4v7.73H25.68v-36.3h9.23Zm30.33,7.73H56v-36.3h9.23Zm28.55,0H84.25l-14.11-36.3H80L89.28,138l9.28-26.7h9.49Zm28.35,0h-9.23v-36.3h9.23Zm42.09,0h-8.14l-16.7-22.35v22.35h-8.66v-36.3h8.15l16.74,22.4v-22.4h8.61Zm32.69-18.46h8v14.15a26.33,26.33,0,0,1-7.16,3.43,26.67,26.67,0,0,1-7.93,1.29A19.28,19.28,0,0,1,176,142.75a17.65,17.65,0,0,1-5.54-13.27,17.21,17.21,0,0,1,5.7-13.17A20.21,20.21,0,0,1,190.44,111a23.31,23.31,0,0,1,8,1.45,20.74,20.74,0,0,1,6.79,3.94l-5.18,6.28a14.84,14.84,0,0,0-4.57-2.86,13.29,13.29,0,0,0-5.13-1.09,10.13,10.13,0,0,0-7.52,3.12,10.46,10.46,0,0,0-3,7.62,10.59,10.59,0,0,0,3.06,7.73,10.22,10.22,0,0,0,7.57,3.11,14.51,14.51,0,0,0,6.43-1.77Zm69.91,18.46h-9.49l-6.74-25.1-6.84,25.1h-9.54l-11.88-36.3h9.85L239.3,138l6.95-26.7h9l7.1,26.7,7-26.7h9.44Zm37.89-6.69H288.85l-2.64,6.69h-9.49l15.66-36.3h9.49l15.29,36.3h-9.85Zm-2.7-7-5.18-13.43-5.29,13.43Zm29,6h15.4v7.73H321.82v-36.3h9.23Zm30.33,0h15.4v7.73H352.15v-36.3h9.23Zm49.52-21.31H391.71v7.21H409v7.26H391.71v7.31h19.76v7.26h-29v-36.3H410.9Zm35.57.15H435.53v28.89H426.3V118.74H415.46v-7.46h31Zm12.84,2-1.55,14.41h-5.4l-1.55-14.41v-9.23h8.5Zm-4.4,18.61a4.21,4.21,0,0,1,3.11,1.2,4.1,4.1,0,0,1,1.24,3.11,4.27,4.27,0,0,1-1.24,3.16,4.21,4.21,0,0,1-3.11,1.19,4.31,4.31,0,0,1-3.12-1.19,4.4,4.4,0,0,1-1.19-3.16,4.21,4.21,0,0,1,1.19-3.11A4.32,4.32,0,0,1,454.91,139.38Z" fill="url(#Degradado_sin_nombre_2)"/></g></g></svg>